<svg width="36" height="50" viewBox="0 0 36 50" fill="none" xmlns="http://www.w3.org/2000/svg">
<path d="M8.16437 14.5963C8.16437 11.4472 9.70472 8.65213 12.0712 6.91926L11.4439 4.78259C8.2016 6.85089 6.05257 10.472 6.05257 14.5963C6.05257 18.9627 8.46249 22.764 12.0215 24.7515L12.7482 22.7267C10.0028 21.0621 8.16437 18.0373 8.16437 14.5963ZM23.9035 4.7888L23.2761 6.92542C25.6426 8.65835 27.183 11.4534 27.183 14.6025C27.183 18.0435 25.3445 21.0621 22.5991 22.7329L23.3259 24.7577C26.8848 22.7702 29.2948 18.9689 29.2948 14.6025C29.2948 10.472 27.1395 6.85089 23.9035 4.7888Z" fill="black"/>
<path d="M15.5466 23H14.0808L16.3416 16.6833L12.087 2.20497L17.2546 0V15.3416L15.5466 23Z" fill="black"/>
<path d="M18.8696 16.6833L21.1304 23H19.6646L17.9565 15.3416V0L23.1242 2.20497L18.8696 16.6833Z" fill="black"/>
<path d="M12.9254 26.236L13.7018 24.0559H21.5155L22.2919 26.236H12.9254Z" fill="black"/>
<path d="M17.6087 16.8385L18.9814 23H16.236L17.6087 16.8385Z" fill="black"/>
<path d="M1.46582 42.1118H4.19257V40.795H1.46582V39.5963H4.4286V38.2795H0V44.6832H4.49691V43.3665H1.46582V42.1118Z" fill="black"/>
<path fill-rule="evenodd" clip-rule="evenodd" d="M20.323 44.8261C22.205 44.8261 23.4224 43.5528 23.4224 41.4783C23.4224 39.4037 22.205 38.1304 20.323 38.1304C18.441 38.1304 17.2236 39.4037 17.2236 41.4783C17.2236 43.5528 18.441 44.8261 20.323 44.8261ZM20.323 39.4535C21.2361 39.4535 21.9565 40.1118 21.9565 41.4845C21.9565 42.8571 21.2361 43.5156 20.323 43.5156C19.41 43.5156 18.6894 42.8571 18.6894 41.4845C18.6832 40.1118 19.41 39.4535 20.323 39.4535Z" fill="black"/>
<path fill-rule="evenodd" clip-rule="evenodd" d="M24.2981 44.6832H25.7578V42.5217H26.8013C28.0621 42.5217 29.0994 41.7888 29.0994 40.3976C29.0994 39.0062 28.0683 38.2733 26.8013 38.2733H24.2981V44.6832ZM25.7516 39.5963H26.7205C27.3727 39.5963 27.6273 39.9317 27.6273 40.4037C27.6273 40.8695 27.3727 41.2112 26.7205 41.2112H25.7516V39.5963Z" fill="black"/>
<path d="M10.7515 38.2795H9.28573V42.087C9.28573 42.9441 8.8447 43.4783 8.0435 43.4783C7.23603 43.4783 6.80122 42.9503 6.80122 42.087V38.2795H5.3354V42.1677C5.3354 43.9503 6.57141 44.7951 8.0435 44.7951C9.51554 44.7951 10.7515 43.9441 10.7515 42.1677V38.2795Z" fill="black"/>
<path d="M8.16149 46.1926H7.31057V49.9379H9.93787V49.1677H8.16149V46.1926Z" fill="black"/>
<path d="M27.441 48.4348V47.6646H25.851V46.9627H27.5839V46.1926H24.9938V49.9379H27.6211V49.1677H25.8447V48.4348H27.441Z" fill="black"/>
<path d="M23.6584 48.4161C23.6584 48.9193 23.4037 49.2298 22.9317 49.2298C22.4596 49.2298 22.205 48.9193 22.205 48.4161V46.1926H21.3478V48.4659C21.3478 49.5093 22.0683 50 22.9317 50C23.795 50 24.5155 49.5031 24.5155 48.4659V46.1926H23.6584V48.4161Z" fill="black"/>
<path d="M20.1553 48.5963V48.8634C19.969 49.0745 19.6708 49.2298 19.2981 49.2298C18.6522 49.2298 18.1615 48.851 18.1615 48.0621C18.1615 47.2733 18.6894 46.8944 19.1987 46.8944C19.6646 46.8944 19.9628 47.118 20.087 47.5342L20.9069 47.292C20.7143 46.5901 20.1677 46.118 19.2112 46.118C18.1863 46.118 17.3044 46.8571 17.3044 48.0559C17.3044 49.2547 18.1739 49.9938 19.2174 49.9938C20.0311 49.9938 20.5341 49.6708 20.9441 49.1677V47.9131H18.9938V48.5963H20.1553Z" fill="black"/>
<path fill-rule="evenodd" clip-rule="evenodd" d="M32.6149 38.2795H31.0621L28.4658 44.6832H30.1242L30.59 43.4658H33.0932L33.559 44.6832H35.2174L32.6149 38.2795ZM31.087 42.1491L31.8385 40.1801L32.5901 42.1491H31.087Z" fill="black"/>
<path fill-rule="evenodd" clip-rule="evenodd" d="M14.8882 46.1926L13.3665 49.9379H14.3354L14.6087 49.2298H16.0745L16.3478 49.9379H17.3167L15.8013 46.1926H14.8882ZM14.9006 48.4534L15.3416 47.3044L15.7826 48.4534H14.9006Z" fill="black"/>
<path d="M11.1987 48.4348H12.795V47.6646H11.1987V46.9627H12.9317V46.1926H10.3416V49.9379H12.9752V49.1677H11.1987V48.4348Z" fill="black"/>
<path fill-rule="evenodd" clip-rule="evenodd" d="M15.205 44.6832H16.8509L15.4224 42.1118C16.0745 41.7453 16.5279 41.1677 16.5279 40.3292C16.5279 39.0745 15.5155 38.2795 14.2112 38.2795H11.677V44.6832H13.1429V42.3789H13.9317L15.205 44.6832ZM13.1429 39.5963H14.2423C14.8447 39.5963 15.0745 39.9069 15.0745 40.3292C15.0745 40.7516 14.8447 41.0621 14.2423 41.0621H13.1429V39.5963Z" fill="black"/>
<path d="M12.4348 34.354C12.2919 34.4721 12.118 34.5279 11.969 34.5093C11.7826 34.4907 11.6646 34.41 11.4783 34.1801L10.3913 32.8447L9.80745 33.323L10.9876 34.7764C11.236 35.087 11.5279 35.2485 11.8634 35.2795C11.9006 35.2857 11.9441 35.2857 11.9813 35.2857C12.3106 35.2857 12.6149 35.1739 12.9069 34.9379C13.236 34.6708 13.4161 34.3602 13.4596 33.9876C13.4969 33.6522 13.3975 33.3354 13.1429 33.031L11.9628 31.5777L11.3789 32.0559L12.4658 33.3913C12.6522 33.6211 12.7081 33.7516 12.6894 33.9441C12.6708 34.0808 12.5777 34.2298 12.4348 34.354Z" fill="black"/>
<path d="M17.6087 34.6398C19.6584 34.6398 21.5528 35.5901 22.6646 36.9752L23.0559 36.4969C21.8323 35.0311 19.8261 34.0435 17.6149 34.0435C15.4037 34.0435 13.3975 35.0311 12.1739 36.4969L12.5652 36.9752C13.6646 35.5901 15.5528 34.6398 17.6087 34.6398Z" fill="black"/>
<path d="M9.83853 32.2484C11.9689 30.41 14.7267 29.3975 17.6087 29.3975C20.4907 29.3975 23.2485 30.41 25.3789 32.2484C25.6025 32.441 25.8137 32.6397 26.0124 32.8447L26.4162 32.3478C26.2174 32.1491 26.0124 31.9565 25.795 31.7702C23.5528 29.8323 20.646 28.7702 17.6149 28.7702C14.5838 28.7702 11.677 29.8385 9.43479 31.7702C9.21742 31.9565 9.01241 32.1491 8.81368 32.3478L9.21742 32.8447C9.40372 32.6397 9.62109 32.441 9.83853 32.2484Z" fill="black"/>
<path d="M24.4596 32.7888C24.4969 32.6833 24.5218 32.5218 24.3416 32.3789L24.2236 32.292C24.0435 32.1553 23.9007 32.2112 23.795 32.2795L21.0994 34.0249L21.8012 34.4224L23.5217 33.3106L23.2236 34.3106L22.9627 34.1118L22.5093 34.4348L23.0683 34.8509L22.9379 35.2981L23.5528 35.8633L24.4596 32.7888Z" fill="black"/>
<path d="M16.4348 30.1491L14.5404 30.5342C14.4534 30.5528 14.3851 30.5963 14.3416 30.6584C14.2981 30.7205 14.2857 30.8013 14.3044 30.8882L14.6832 32.7516C14.7453 33.0559 14.882 33.2733 15.087 33.3975C15.2236 33.4845 15.3851 33.5217 15.5777 33.5217C15.6708 33.5217 15.7764 33.5093 15.882 33.4907L17.0683 33.2485L16.9254 32.5466L15.7764 32.7826C15.5404 32.8323 15.4658 32.8074 15.41 32.5404L15.3664 32.3416L16.7019 32.0684L16.559 31.3727L15.2236 31.646L15.1242 31.1491L16.5777 30.8509L16.4348 30.1491Z" fill="black"/>
<path d="M20.118 31.1677L21.2546 31.4596L21.4348 30.7702L20.2671 30.4658C19.6273 30.2981 19.1864 30.5404 19.0311 31.1428L18.5528 32.9814C18.528 33.0683 18.5404 33.1491 18.5776 33.2112C18.6149 33.2795 18.6832 33.323 18.7702 33.3478L19.205 33.4596L19.5093 32.2671L20.8261 32.6087L21.0062 31.9255L19.6894 31.5839L19.7392 31.3851C19.8075 31.1243 19.882 31.1056 20.118 31.1677Z" fill="black"/>
<path d="M28.8323 46.3727V47.3105H29.0248V46.3727H29.3665V46.1988H28.4845V46.3727H28.8323Z" fill="black"/>
<path d="M30.3975 46.1926L30.0559 47.0869L29.7143 46.1926H29.5031V47.3105H29.7019V46.6398L29.9565 47.3105H30.1491L30.4037 46.6398V47.3105H30.6025V46.1926H30.3975Z" fill="black"/>
</svg>
