<svg width="39" height="25" viewBox="0 0 39 25" fill="none" xmlns="http://www.w3.org/2000/svg">
<path fill-rule="evenodd" clip-rule="evenodd" d="M11.6673 0.408414C12.0709 0.638757 12.6654 1.17412 12.9883 1.59826L13.5751 2.36937L13.2792 4.39463C13.1164 5.50844 12.9741 6.17759 12.9628 5.88182C12.8544 3.04732 10.5927 1.06899 7.85445 1.41371C6.62346 1.5687 4.77187 2.48172 3.82666 3.39994C2.80656 4.39057 2.55811 4.17647 3.51074 3.12763C4.58961 1.94005 5.96467 0.927982 7.19419 0.416309C8.52066 -0.135521 10.7066 -0.139356 11.6673 0.408414ZM8.59428 3.59689C8.53296 3.70247 8.62865 3.94387 8.80687 4.13338C8.9851 4.32289 9.10518 4.61008 9.07399 4.77184C9.04281 4.9336 9.14783 5.0367 9.30759 5.00061C9.74826 4.90157 9.43235 6.38875 8.68382 7.93618L8.05941 9.22732L8.60701 9.60882C8.90808 9.81863 9.49387 10.5543 9.90845 11.2436L10.6625 12.4968L9.45865 13.6884C8.79648 14.3436 8.17631 14.8799 8.0802 14.8799C7.9843 14.8799 7.85424 14.543 7.79144 14.1315C7.70784 13.5829 7.28245 12.9778 6.19679 11.8635C4.85949 10.4907 4.53954 9.93798 4.35071 8.67572C4.33204 8.55163 4.13918 8.06861 3.92171 7.60228C3.53259 6.76732 3.53323 6.74498 3.95926 6.13585C4.19732 5.79564 4.60044 5.4843 4.85525 5.44415C5.40031 5.35819 6.91519 6.64888 6.55047 6.88847C6.39262 6.99225 6.40938 7.09896 6.60436 7.2271C7.03082 7.50753 7.85021 6.57984 7.85021 5.81639C7.85021 5.4658 7.66032 4.97692 7.42821 4.73011C7.02848 4.30507 6.93131 4.29785 5.57174 4.59204C4.7829 4.76282 3.77638 4.96992 3.33528 5.05205C2.67522 5.17545 2.42274 5.38932 1.90718 6.26196C1.56283 6.84493 1.27916 7.21876 1.27704 7.09242C1.27492 6.96608 1.51509 6.48396 1.81106 6.02079L2.34912 5.17883H1.17456C0.161035 5.17883 0 5.11995 0 4.74906C0 4.37861 0.115843 4.33597 0.841669 4.4393C1.9774 4.60128 5.22782 4.06299 4.8457 3.77625C4.65921 3.63637 4.87668 3.60998 5.47902 3.69954C6.08031 3.78888 6.34997 3.75639 6.26213 3.60501C6.09813 3.32301 6.27465 3.3097 6.75033 3.56846C7.31045 3.87303 8.28027 4.07856 8.25099 3.88634C8.1814 3.4322 8.29555 3.13553 8.49011 3.26345C8.60871 3.34151 8.6556 3.49153 8.59428 3.59689ZM10.1007 3.7309C10.0298 3.92718 9.97189 4.17128 9.97189 4.27371C9.97189 4.37591 9.74381 4.34522 9.46502 4.20535C9.00822 3.97591 8.99252 3.92334 9.30589 3.66976C9.80512 3.2657 10.256 3.30045 10.1007 3.7309ZM7.95629 4.50202C7.88416 4.6261 7.97412 4.72762 8.15594 4.72762C8.33777 4.72762 8.48671 4.6261 8.48671 4.50202C8.48671 4.37794 8.39697 4.27641 8.28706 4.27641C8.17716 4.27641 8.02843 4.37794 7.95629 4.50202ZM38.1478 5.44956C38.9292 6.28046 37.8323 7.74509 36.8024 7.24605C36.2277 6.96766 36.0749 5.93912 36.5353 5.44956C36.8635 5.10055 37.8196 5.10055 38.1478 5.44956ZM36.7135 5.73202C36.2739 6.29513 36.537 6.8641 37.2722 6.94013C37.7985 6.9945 37.9721 6.90787 38.0835 6.5345C38.354 5.62824 37.2838 5.00128 36.7135 5.73202ZM37.7659 5.84866C37.7659 5.96868 37.5989 6.01177 37.3946 5.94431C37.0409 5.82745 37.0409 5.83377 37.3946 6.07539C37.8853 6.41109 37.8647 6.65407 37.3415 6.69603C37.0246 6.72152 36.9172 6.5909 36.9172 6.18007C36.9172 5.78052 37.0333 5.63004 37.3415 5.63004C37.5749 5.63004 37.7659 5.72841 37.7659 5.84866ZM20.0499 13.8646V20.2944H18.2464H16.443V13.8646V7.43489H18.2464H20.0499V13.8646ZM28.768 7.89602C30.2698 8.66895 30.7374 10.4309 29.9377 12.3032C29.2391 13.9386 27.6075 14.8178 25.6959 14.5886L24.7602 14.4765L24.8911 17.3854L25.022 20.2944H23.1723H21.3229V13.8646V7.43489H24.5975C27.4622 7.43489 27.9843 7.49264 28.768 7.89602ZM34.4168 12.8431L34.312 18.2511L34.8893 18.4846C35.2878 18.6457 35.8969 18.6448 36.8555 18.4821C37.6193 18.3524 38.2893 18.2939 38.3442 18.3526C38.3994 18.4113 38.3788 18.8722 38.2986 19.3768L38.1529 20.2944H34.5116H30.8704V13.8646V7.43489H32.6961H34.5216L34.4168 12.8431ZM24.8236 11.2702C24.8236 13.4865 24.8323 13.5262 25.3212 13.5262C26.0975 13.5262 26.5808 12.7684 26.689 11.3821C26.8108 9.82156 26.3901 9.01412 25.4553 9.01412H24.8236V11.2702ZM12.0199 13.9774C12.9531 15.0725 14.0031 17.0069 14.0031 17.6304C14.0031 17.8425 13.8361 18.1193 13.6318 18.2459C13.4275 18.3724 13.3712 18.4789 13.5068 18.4828C13.6424 18.4864 14.0003 18.1771 14.3024 17.7954C14.6046 17.4136 14.8496 17.2361 14.8471 17.4005C14.8397 17.8671 14.1928 18.6348 13.2253 19.3252C12.091 20.1346 9.76078 22.5015 9.75654 22.8485C9.75463 22.9946 9.67167 23.2514 9.57195 23.4186C9.42874 23.6588 9.29444 23.6128 8.93163 23.1988L8.4725 22.6747L7.95587 23.3459C7.67156 23.7148 7.38196 24.1942 7.31215 24.4112C7.15578 24.8974 6.20655 25.1781 5.74869 24.8733C5.10412 24.4446 5.21084 23.477 5.99438 22.6438C6.39156 22.2215 6.8475 21.5961 7.00769 21.2543C7.16767 20.9125 7.5867 20.3007 7.93868 19.8948C8.52321 19.2207 8.5754 19.0323 8.53891 17.727C8.51705 16.9408 8.40312 16.0291 8.28579 15.7008C8.09144 15.1576 8.143 15.0556 8.8631 14.5572C9.29783 14.2563 9.94006 13.7527 10.2901 13.4385C10.6402 13.124 10.978 12.8882 11.0408 12.9144C11.1036 12.9408 11.5443 13.4191 12.0199 13.9774ZM9.01713 22.776C9.08927 22.9001 9.19026 23.0016 9.24182 23.0016C9.29338 23.0016 9.33538 22.9001 9.33538 22.776C9.33538 22.652 9.23418 22.5504 9.1107 22.5504C8.98722 22.5504 8.94499 22.652 9.01713 22.776ZM5.76821 24.0733C5.85647 24.5653 6.78937 24.7564 6.78937 24.2824C6.78937 23.969 6.36504 23.6785 5.90781 23.6785C5.79218 23.6785 5.72917 23.856 5.76821 24.0733Z" fill="black"/>
</svg>
