<svg width="53" height="50" viewBox="0 0 53 50" fill="none" xmlns="http://www.w3.org/2000/svg">
<path fill-rule="evenodd" clip-rule="evenodd" d="M27.2553 0.0431766C26.3653 0.128035 25.2039 0.37852 24.5392 0.628874C24.2516 0.737255 24.2004 0.741652 23.0443 0.757437C22.2034 0.768868 21.7279 0.794809 21.4459 0.844625C20.858 0.948521 20.8728 0.935507 21.0711 1.17447C21.3822 1.54943 21.6494 1.93705 21.6494 2.01347C21.6494 2.05511 21.5555 2.15571 21.4406 2.23705C20.9422 2.59007 20.3534 3.0924 19.7573 3.67322L19.117 4.29708L18.4362 4.40999C18.0618 4.47212 17.692 4.5411 17.6146 4.56335C17.5371 4.58555 17.4645 4.58889 17.4533 4.57078C17.4231 4.52193 18.0328 3.32068 18.2813 2.93944C18.3994 2.75807 18.5279 2.56021 18.5667 2.49976C18.6876 2.31127 18.2065 2.72865 17.5557 3.37683C16.1903 4.73676 15.1954 6.30901 14.6074 8.03612C14.4623 8.46243 14.2396 9.32486 14.1978 9.62257L14.17 9.82043L14.3629 9.46868C14.707 8.84122 15.4458 7.77591 15.5368 7.77591C15.557 7.77591 15.6341 7.90531 15.7081 8.06347C15.7821 8.22162 15.9571 8.55292 16.097 8.79966C16.2368 9.04641 16.3573 9.26151 16.3646 9.27769C16.372 9.29387 16.2778 9.48346 16.1552 9.69899C15.8714 10.1982 15.5515 10.9218 15.315 11.5995L15.1295 12.1311L14.7291 12.3238C14.5089 12.4298 14.2517 12.5835 14.1575 12.6654C13.9872 12.8134 13.9865 12.8152 14.0413 12.9881C14.1181 13.2307 14.37 13.6893 14.5803 13.9699L14.7575 14.2061L14.774 14.8439C14.7991 15.8128 14.9422 16.6439 15.2137 17.398L15.3299 17.7209L15.5166 17.1537C15.6958 16.6092 16.1358 15.6462 16.2054 15.6462C16.2238 15.6462 16.5126 15.849 16.847 16.0969C17.1815 16.3447 17.6639 16.6851 17.9189 16.8531L18.3826 17.1588L18.595 17.6666C18.7119 17.9458 19.0314 18.6175 19.3051 19.1592C19.5788 19.7009 19.8028 20.1494 19.8028 20.1559C19.8028 20.1813 19.2358 20.3528 18.9234 20.4218C18.5671 20.5005 17.6279 20.5293 17.4065 20.4683L17.2746 20.432L17.4065 20.5711C17.5989 20.774 18.1943 21.1593 18.6339 21.3653C19.1395 21.6022 20.06 21.9022 20.6601 22.0257L21.1438 22.1253L21.6055 22.59C22.2879 23.2768 22.9312 23.733 23.586 23.9946C23.7663 24.0665 23.9666 24.1386 24.0311 24.1546L24.1485 24.1837L24.0428 23.9219C23.9156 23.607 23.8201 23.1717 23.7791 22.7197L23.7489 22.386L25.1024 22.3637L26.4558 22.3414L26.9804 22.7295C27.2689 22.9429 27.6513 23.2024 27.8302 23.306C28.0091 23.4097 28.1493 23.5137 28.1418 23.5373C28.1042 23.6551 27.1423 24.1142 26.6218 24.2629L26.332 24.3456L26.75 24.3487C27.9239 24.3575 29.5327 24.0295 30.8352 23.5159C32.1574 22.9946 33.6498 22.0823 34.4912 21.2814L34.7739 21.0123L34.2682 21.2707C33.9901 21.4128 33.5658 21.6021 33.3253 21.6913C32.8865 21.8542 31.9001 22.1302 31.8689 22.099C31.8597 22.0898 31.8809 21.8659 31.9162 21.6013C31.9514 21.3367 31.9806 20.8475 31.981 20.5143C31.9817 20.0677 31.9964 19.9042 32.0369 19.8927C33.0221 19.6136 34.0502 19.1669 34.8175 18.6847C35.2216 18.4306 35.2612 18.415 35.3622 18.4684C35.4945 18.5385 35.9157 18.9445 36.1061 19.1856C36.2684 19.3912 36.2649 19.3939 36.4716 18.9007C36.6714 18.4242 36.8032 17.9442 36.9123 17.2962C37.0081 16.7264 37.0086 16.7254 37.2887 16.3069C37.8144 15.5214 38.2472 14.5585 38.4723 13.673C38.6227 13.0815 38.6136 13.0393 38.3943 13.3089C38.2938 13.4325 38.0999 13.6213 37.9635 13.7285C37.7099 13.9277 37.179 14.2392 37.093 14.2392C37.0412 14.2392 37.0314 14.1511 36.9311 12.7883C36.8946 12.2925 36.8353 11.5308 36.7993 11.0955C36.7634 10.6602 36.7137 10.0156 36.6889 9.66311C36.6642 9.31057 36.5826 8.65765 36.5077 8.21216C36.4327 7.76668 36.3681 7.3824 36.3641 7.35822C36.3418 7.22456 37.2103 7.4834 37.6221 7.73318C37.7725 7.82441 37.9029 7.89212 37.9117 7.88368C37.9206 7.87519 37.8255 7.6769 37.7005 7.44295C37.2579 6.6145 36.7418 5.9326 36.0575 5.27172C35.8109 5.03367 35.5727 4.80232 35.528 4.75756C35.4833 4.7128 35.3082 4.42885 35.1388 4.12657C34.7887 3.50179 34.457 3.02394 34.061 2.57375C33.6845 2.14581 33.6717 2.14225 33.6887 2.47061C33.7027 2.74013 33.5996 3.36188 33.5292 3.43223C33.5089 3.45254 33.3454 3.4022 33.1658 3.32037C32.3087 2.92989 31.0097 2.51449 30.0473 2.32314C29.7572 2.26545 29.3978 2.15135 29.08 2.01602C28.6019 1.81236 27.7455 1.51949 27.0136 1.30919L26.6839 1.21448L26.8597 1.06196C27.2314 0.739542 28.0471 0.283506 28.6184 0.0787906L28.8382 0L28.2446 0.00272602C27.9182 0.00422093 27.473 0.0224237 27.2553 0.0431766ZM30.0088 2.64868C30.6689 3.11865 31.253 3.61795 32.0149 4.3636C32.4708 4.80983 32.6854 5.05029 32.6854 5.11497C32.6854 5.30707 31.8689 6.36876 31.1198 7.15087L30.7288 7.55902L30.0001 7.75156C29.1989 7.96317 28.389 8.20491 27.1381 8.60577C26.6583 8.75952 26.278 8.85849 26.2228 8.84407C26.0691 8.80389 25.2892 7.59503 24.5751 6.29019L24.2312 5.6618L24.3532 5.19099C24.6082 4.20743 25.074 3.05081 25.355 2.7035C25.4541 2.58096 25.4775 2.57525 26.2097 2.49488C27.2254 2.38333 27.9488 2.33773 28.8217 2.33022L29.5527 2.32388L30.0088 2.64868ZM22.3999 3.4175C22.4487 3.48103 22.6084 3.71956 22.7549 3.94762C23.021 4.36189 23.532 5.05975 23.862 5.45959L24.0369 5.67143L23.8983 6.38292C23.7336 7.22777 23.645 7.89823 23.5815 8.77777C23.5173 9.66685 23.5002 9.78811 23.4285 9.85969C23.3943 9.89394 22.8761 10.115 22.277 10.3509C21.6779 10.5869 20.891 10.9053 20.5282 11.0586C20.1086 11.2359 19.808 11.3373 19.702 11.3373C19.4323 11.3373 18.3389 11.4651 17.6134 11.5813C16.6642 11.7334 16.7454 11.7538 16.6849 11.3483C16.5522 10.4592 16.4929 9.75768 16.4927 9.07297C16.4924 8.27267 16.5298 7.91846 16.7132 6.98458C16.8277 6.40178 16.8334 6.38723 17.0302 6.17618C17.2887 5.89896 18.3414 4.99103 18.8052 4.64517C19.1921 4.3567 19.6949 4.1016 20.3963 3.83783C21.1078 3.57029 22.1379 3.25671 22.2279 3.28023C22.2738 3.29223 22.3512 3.35401 22.3999 3.4175ZM34.4614 7.2279C34.5871 7.3536 35.5313 8.80512 35.9114 9.45725C36.3402 10.1925 36.6425 10.7774 36.6425 10.8716C36.6425 11.0272 35.5356 13.6449 35.1254 14.4595C35.0412 14.6267 34.9319 14.7851 34.8824 14.8115C34.6403 14.9411 32.4909 14.9028 31.4655 14.7506L31.103 14.6968L30.2761 13.8415C28.6497 12.1592 28.0981 11.5252 28.0981 11.3382C28.0981 11.1928 29.1166 9.80886 30.1195 8.59152C30.4546 8.18477 30.7521 7.82318 30.7806 7.78796C30.8873 7.65588 33.4813 7.17848 34.1662 7.16489C34.3173 7.1619 34.4166 7.18305 34.4614 7.2279ZM20.2853 11.6692C20.6835 11.8372 22.1548 12.3675 22.9542 12.6313C23.2244 12.7204 23.4693 12.822 23.4984 12.857C23.5275 12.892 23.5783 13.1827 23.6114 13.503C23.7054 14.4145 23.7921 15.0159 23.9885 16.1211L24.1706 17.1456L23.8883 17.4334C23.1868 18.1484 21.6216 19.3395 21.3835 19.3395C21.2434 19.3395 20.5824 18.8738 19.6049 18.0866C18.5124 17.2067 18.4534 17.1425 18.1433 16.4976C17.7127 15.6023 17.2142 14.1682 17.2878 14.0367C17.3063 14.0036 17.5244 13.7505 17.7725 13.4742C18.2246 12.9707 18.9659 12.2773 19.5829 11.7809C19.7643 11.6349 19.914 11.5144 19.914 11.5144C19.914 11.5144 20.0818 11.5834 20.2853 11.6692ZM27.6784 14.04C28.2679 14.1965 29.2531 14.4455 29.8677 14.5935L30.9852 14.8627L31.7583 15.644C32.1836 16.0738 32.764 16.6181 33.0481 16.8536C33.3322 17.0892 33.5647 17.3021 33.5647 17.3266C33.5647 17.4468 32.6569 18.8355 31.9541 19.7906C31.228 20.7774 30.7798 21.3211 30.2185 21.8962L29.7615 22.3644L29.2559 22.3933C28.7 22.4252 27.262 22.3619 26.7549 22.2832C26.5195 22.2467 26.2535 22.1507 25.7668 21.9269C24.7132 21.4423 23.8457 20.9664 23.8008 20.8484C23.7442 20.6996 23.8565 19.8818 24.1302 18.4489L24.3674 17.207L24.9689 16.1298C25.6535 14.9038 26.192 13.9995 26.3235 13.8545C26.3729 13.8001 26.4568 13.7556 26.51 13.7556C26.5631 13.7556 27.089 13.8836 27.6784 14.04ZM25.3348 26.7693C24.2656 26.8535 23.0958 27.0841 22.0932 27.4082C20.3636 27.9674 18.5601 29.0222 17.3452 30.1852L16.9857 30.5293L17.1879 30.7812L17.39 31.0329L17.8333 30.6354C20.1753 28.535 23.0625 27.434 26.2441 27.4278C27.8015 27.4248 28.8852 27.5915 30.3065 28.0529C31.9655 28.5914 33.623 29.5598 34.8114 30.6847L35.1811 31.0347L35.3842 30.797C35.4959 30.6663 35.5873 30.5405 35.5873 30.5176C35.5873 30.4684 35.0433 29.9741 34.576 29.5986C32.7327 28.1175 30.3587 27.1353 27.9044 26.8384C27.1932 26.7523 25.9683 26.7194 25.3348 26.7693ZM23.8918 28.4237C22.9088 28.6262 22.7926 28.6748 22.7926 28.8836C22.7926 28.9283 22.8928 29.4554 23.0152 30.0549C23.2678 31.2912 23.3382 31.462 23.6679 31.6361C23.8158 31.7142 23.9303 31.738 24.1515 31.7366C24.4193 31.7348 25.6218 31.5181 25.6786 31.4613C25.7058 31.434 25.61 30.8479 25.5669 30.7782C25.5503 30.7513 25.3082 30.7826 24.9249 30.8611C24.032 31.0441 24.0265 31.043 23.9576 30.6757C23.9221 30.4868 23.8627 30.513 24.6942 30.3498C25.1858 30.2532 25.2988 30.2172 25.2988 30.1567C25.2988 30.0384 25.2013 29.5653 25.1695 29.5291C25.1536 29.511 24.8489 29.5555 24.4923 29.628C24.1359 29.7006 23.8266 29.7599 23.8051 29.7599C23.7676 29.7599 23.6488 29.284 23.6791 29.2552C23.6873 29.2475 24.0105 29.1787 24.3974 29.1025C24.7843 29.0263 25.1227 28.9568 25.1493 28.9481C25.1835 28.937 25.1778 28.828 25.1299 28.5767C25.0658 28.2402 25.0561 28.2212 24.9496 28.225C24.8878 28.2272 24.4117 28.3166 23.8918 28.4237ZM28.3055 28.5689C28.1167 28.6547 27.9419 28.8535 27.8574 29.0784C27.8302 29.151 27.6877 29.674 27.5407 30.2408C27.2234 31.4645 27.2242 31.4772 27.6236 31.588C27.7596 31.6257 27.8945 31.664 27.9234 31.6732C27.9783 31.6906 28.0355 31.5221 28.2035 30.8481C28.2681 30.5888 28.3199 30.4634 28.3622 30.4634C28.3967 30.4634 28.7039 30.5337 29.0448 30.6195C29.3858 30.7054 29.6789 30.7598 29.6961 30.7404C29.7439 30.6867 29.8786 30.1042 29.8499 30.0755C29.836 30.0616 29.5364 29.9763 29.1841 29.886C28.8317 29.7956 28.5343 29.7125 28.5231 29.7013C28.4847 29.6629 28.5968 29.3306 28.668 29.2716C28.7283 29.2215 28.8395 29.2382 29.4041 29.3824C29.77 29.4757 30.0882 29.5543 30.1112 29.5571C30.1342 29.5598 30.1961 29.4014 30.2487 29.2052L30.3444 28.8483L29.6481 28.6666C28.8764 28.4651 28.5814 28.4437 28.3055 28.5689ZM20.1324 29.8381C20.0598 29.9039 19.9325 30.0106 19.8496 30.0751L19.6988 30.1924L20.1355 30.7262C20.9798 31.7583 21.0778 31.9007 21.0778 32.0948C21.0778 32.1914 21.0482 32.3278 21.0119 32.3979C20.8493 32.7124 20.4031 32.879 20.1182 32.7317C20.0383 32.6904 19.7054 32.3236 19.3355 31.8694C18.9814 31.4347 18.6738 31.0789 18.6521 31.0789C18.5696 31.0789 18.048 31.5335 18.0769 31.5803C18.0932 31.6068 18.4118 32.0016 18.7847 32.4576C19.5156 33.3514 19.6913 33.5026 20.096 33.5867C20.3979 33.6494 20.6342 33.6129 20.97 33.452C21.7603 33.0733 22.1135 32.221 21.7593 31.5473C21.6182 31.2786 20.3819 29.7213 20.3084 29.7195C20.2842 29.719 20.205 29.7724 20.1324 29.8381ZM32.4604 30.6959C31.0051 31.6276 30.0028 32.2799 30.0134 32.2885C30.02 32.2938 30.1862 32.3902 30.3828 32.5028L30.7404 32.7074L31.6296 32.1324C32.1187 31.8161 32.5259 31.5643 32.5344 31.5728C32.5466 31.585 32.3732 32.1968 32.2653 32.522C32.2507 32.5661 32.2151 32.5581 32.1182 32.489C32.0479 32.439 31.9786 32.398 31.9642 32.398C31.9499 32.398 31.8389 32.4693 31.7176 32.5564L31.4971 32.7148L31.7835 32.9316C31.941 33.0508 32.0698 33.1643 32.0698 33.1839C32.0698 33.2034 32.042 33.3117 32.0081 33.4246L31.9464 33.6297L32.2589 33.9149C32.4309 34.0718 32.5851 34.1855 32.6018 34.1675C32.6533 34.1119 33.5652 30.9322 33.565 30.8092C33.5647 30.6518 33.2601 30.3755 33.0868 30.3755C33.0054 30.3755 32.7835 30.4889 32.4604 30.6959ZM25.2328 32.3791C24.0804 32.5362 22.9558 32.9599 22.0012 33.5964C21.5582 33.8918 20.9573 34.4038 20.7127 34.6942L20.5378 34.9019L20.7089 35.1084C20.803 35.222 20.8905 35.3305 20.9034 35.3494C20.9163 35.3684 21.1438 35.1714 21.409 34.9117C23.3347 33.026 26.2411 32.4306 28.812 33.3952C29.3033 33.5796 30.0988 34.0139 30.5115 34.3233C30.7278 34.4854 31.0749 34.7919 31.2829 35.0044L31.6611 35.3908L31.8435 35.1544C31.9438 35.0244 32.0259 34.8972 32.0259 34.8718C32.0259 34.8463 31.8165 34.6256 31.5606 34.3813C29.9232 32.818 27.5411 32.0643 25.2328 32.3791ZM2.23756 36.6908C2.06828 36.7265 1.74406 36.8453 1.51701 36.955C0.8177 37.2928 0.30943 37.8959 0.0771036 38.6634C0.0173511 38.861 -0.00199482 39.0653 0.00015961 39.4768C0.00266579 39.9477 0.0197693 40.0773 0.119577 40.3816C0.32073 40.9949 0.667813 41.4574 1.18817 41.8054C2.05492 42.3851 3.31244 42.4493 4.27776 41.9632C4.44581 41.8786 4.59464 41.791 4.60849 41.7686C4.64208 41.7142 4.72377 40.9151 4.69831 40.8897C4.68732 40.8787 4.64357 40.9003 4.6011 40.9377C4.494 41.032 4.13113 41.2076 3.84239 41.3048C3.68041 41.3594 3.46994 41.3868 3.20485 41.3879C2.86714 41.3892 2.77291 41.3725 2.56204 41.2736C1.14623 40.6097 0.990363 38.2498 2.3163 37.5535C2.52124 37.4459 2.59159 37.4332 2.98501 37.4328C3.22684 37.4325 3.47671 37.4469 3.54024 37.4648C3.61477 37.4857 3.80058 37.677 4.0639 38.0036C4.2884 38.2822 4.47544 38.505 4.47953 38.4988C4.49879 38.4697 4.42589 36.836 4.40434 36.8145C4.39085 36.801 4.19457 36.7517 3.96818 36.705C3.47134 36.6025 2.68801 36.5961 2.23756 36.6908ZM37.1395 36.665C36.6216 36.7673 36.0325 37.0999 35.6685 37.4954C35.1914 38.0138 34.9553 38.6549 34.9606 39.4171C34.9704 40.8079 35.8315 41.9527 37.0763 42.2298C37.3083 42.2814 37.5263 42.2958 37.8457 42.2807C38.8848 42.2312 39.7524 41.7025 40.1971 40.8478C40.4256 40.4086 40.5174 40.0156 40.5174 39.4768C40.5174 38.1016 39.7183 37.0269 38.4559 36.704C38.1056 36.6144 37.4883 36.5961 37.1395 36.665ZM49.8989 36.6471C49.1303 36.8041 48.702 36.9972 48.4254 37.3114C47.9845 37.8123 47.9486 38.6608 48.3478 39.145C48.6302 39.4876 49.0622 39.7069 50.0043 39.9858C50.9787 40.2743 51.2393 40.4623 51.2397 40.8772C51.2398 41.0353 51.2146 41.0938 51.0939 41.2144C50.8645 41.4439 50.5526 41.514 49.8814 41.4872C49.0856 41.4553 49.0845 41.4547 48.6215 40.8781L48.2281 40.388L48.2135 40.6469C48.2055 40.7893 48.2123 41.146 48.2286 41.4396L48.2584 41.9734L48.542 42.0665C49.0716 42.2404 49.58 42.3029 50.2506 42.2766C50.6111 42.2625 50.9755 42.2225 51.13 42.1801C52.084 41.9179 52.6029 41.3551 52.6029 40.5824C52.6029 40.1585 52.5073 39.8784 52.2738 39.6188C52.0107 39.3261 51.63 39.146 50.6243 38.8385C49.5245 38.5022 49.3932 38.4142 49.3932 38.0127C49.3932 37.7419 49.5402 37.5804 49.8776 37.4802C50.152 37.3986 50.7353 37.3888 51.1377 37.4589C51.4159 37.5073 51.417 37.5082 51.8185 37.9432C52.0396 38.1829 52.2292 38.3702 52.2399 38.3596C52.2505 38.3489 52.245 38.0144 52.2275 37.6162L52.1958 36.8922L51.8827 36.8016C51.7105 36.7517 51.4522 36.6902 51.3087 36.6649C51.0608 36.6212 50.086 36.6088 49.8989 36.6471ZM5.73794 36.8717C5.77074 36.914 5.86219 37.0264 5.94116 37.1215L6.08476 37.2943V39.4521V41.6099L5.88659 41.8514L5.68847 42.0929L6.72854 42.1047C7.30056 42.1112 7.77805 42.1071 7.78962 42.0955C7.80118 42.0839 7.72898 41.9769 7.62922 41.8577L7.44776 41.641V40.6908V39.7406H8.39308H9.33839V40.6941V41.6476L9.15772 41.8618C9.0584 41.9797 8.9862 42.0851 8.99733 42.0963C9.00845 42.1074 9.4877 42.1112 10.0623 42.1047L11.107 42.0929L10.9042 41.8467L10.7014 41.6004V39.4548V37.3093L10.9042 37.063L11.107 36.8168L10.0623 36.805C9.4877 36.7985 9.00845 36.8023 8.99733 36.8134C8.9862 36.8246 9.0584 36.93 9.15772 37.0479L9.33839 37.2621V38.0837V38.9053H8.39308H7.44776V38.087V37.2687L7.62364 37.0586C7.72037 36.943 7.79951 36.8364 7.79951 36.8217C7.79951 36.8069 7.32224 36.7948 6.73891 36.7948C5.73539 36.7948 5.68148 36.7989 5.73794 36.8717ZM13.6241 37.025C13.7094 37.1517 13.7789 37.2753 13.7786 37.2998C13.7783 37.3243 13.4143 38.304 12.9697 39.4768C12.2745 41.3111 12.1378 41.6364 11.992 41.8031C11.6995 42.1378 11.652 42.1149 12.6392 42.1149H13.526L13.3228 41.8771C13.2111 41.7462 13.1196 41.6266 13.1196 41.6111C13.1196 41.5956 13.1816 41.4054 13.2573 41.1886L13.395 40.7942L14.3404 40.806L15.2857 40.8179L15.4047 41.2157L15.5235 41.6135L15.3122 41.8532L15.1008 42.0929L16.2053 42.1047C16.8127 42.1112 17.3197 42.1064 17.332 42.0942C17.3442 42.0819 17.2567 41.9678 17.1375 41.8406L16.9208 41.6093L16.1084 39.202L15.296 36.7948L14.3825 36.7948H13.469L13.6241 37.025ZM18.1627 36.8497C18.1855 36.88 18.2739 36.9937 18.359 37.1026L18.5139 37.3004L18.3997 39.4645L18.2854 41.6287L18.0453 41.8718L17.8052 42.1149H18.7475H19.6899L19.4562 41.8783L19.2225 41.6416L19.2543 40.2844C19.2718 39.538 19.2985 38.8058 19.3136 38.6574L19.3411 38.3877L20.0668 40.2403L20.7925 42.0929L21.2141 42.1054L21.6356 42.1179L22.3189 40.2183C22.9367 38.5008 23.0046 38.3352 23.0278 38.4911C23.0418 38.5859 23.0974 39.3285 23.1512 40.1415L23.2491 41.6194L22.9879 41.8656L22.7266 42.1117L23.8618 42.1133L24.997 42.1149L24.7771 41.8621L24.5572 41.6093L24.3963 39.4476L24.2353 37.2858L24.4173 37.0394L24.5993 36.7931L23.644 36.8049L22.6887 36.8168L22.0667 38.5423C21.7246 39.4913 21.4353 40.2772 21.4238 40.2887C21.4123 40.3002 21.0972 39.5192 20.7237 38.5532L20.0446 36.7966L19.0829 36.7957C18.3206 36.795 18.1298 36.8062 18.1627 36.8497ZM26.0298 36.8497C26.0478 36.88 26.138 36.995 26.2303 37.1054L26.398 37.3061V39.4548V41.6036L26.2303 41.8043C26.138 41.9147 26.0478 42.0297 26.0298 42.06C26.004 42.1034 26.2402 42.1149 27.1538 42.1147L28.3106 42.1145L28.0358 41.8694L27.761 41.6242V40.9302V40.2361L27.9478 40.2723C28.2685 40.3343 29.1266 40.3182 29.4082 40.2448C30.1712 40.0461 30.6534 39.4906 30.7325 38.7192C30.8312 37.7558 30.2515 37.042 29.2214 36.8583C28.7544 36.7751 25.9809 36.7676 26.0298 36.8497ZM31.7457 36.8497C31.7636 36.88 31.8539 36.995 31.9461 37.1054L32.1138 37.3061V39.4532V41.6004L31.911 41.8467L31.7082 42.0929L32.7529 42.1047C33.3275 42.1112 33.8071 42.1071 33.8187 42.0955C33.8302 42.0839 33.758 41.9769 33.6583 41.8577L33.4768 41.641V39.4516V37.2621L33.6527 37.0535C33.7494 36.9388 33.8286 36.8337 33.8286 36.8199C33.8286 36.8061 33.3525 36.7948 32.7707 36.7948C31.9363 36.7948 31.7198 36.8064 31.7457 36.8497ZM41.8063 37.0407L42.0066 37.2865V39.4574V41.6282L41.8659 41.7946C41.7886 41.8861 41.6965 41.9957 41.6613 42.038C41.6006 42.1108 41.6448 42.1148 42.4944 42.1133L43.3916 42.1117L43.1382 41.8729L42.8849 41.6341L42.8964 39.8938L42.9079 38.1535L44.2313 40.1232L45.5546 42.0929L46.067 42.1053L46.5793 42.1177V39.6996V37.2815L46.7199 37.1151C46.7973 37.0236 46.8894 36.914 46.9246 36.8717C46.9852 36.7989 46.9411 36.7949 46.0914 36.7968L45.1943 36.7988L45.4477 37.0291L45.7012 37.2594L45.6895 38.6516L45.6779 40.0437L44.6227 38.4206L43.5675 36.7976L42.5868 36.7962L41.6061 36.7948L41.8063 37.0407ZM38.0715 37.558C38.6956 37.8499 39.0664 38.6546 39.0772 39.7406C39.0855 40.5652 38.9237 40.9682 38.451 41.3004C38.2775 41.4223 38.2319 41.4334 37.9028 41.4327C37.6208 41.432 37.5062 41.4117 37.368 41.3376C36.7479 41.005 36.3298 39.9611 36.3895 38.8944C36.4157 38.4256 36.5258 38.0899 36.7374 37.8334C37.039 37.4677 37.6214 37.3475 38.0715 37.558ZM28.8633 37.7071C28.9984 37.7756 29.1434 37.8907 29.1976 37.9726C29.3923 38.2666 29.4241 38.7866 29.2669 39.1031C29.0904 39.4581 28.8434 39.5826 28.3106 39.585C28.0929 39.586 27.8802 39.5726 27.8379 39.5551C27.7679 39.5264 27.761 39.4361 27.761 38.5549V37.5862H28.1928C28.5767 37.5862 28.6511 37.5996 28.8633 37.7071ZM14.7242 38.9204C14.8815 39.4487 15.0103 39.9087 15.0103 39.9427C15.0103 39.993 14.8879 40.0045 14.3507 40.0045C13.988 40.0045 13.691 39.9896 13.6908 39.9715C13.6898 39.9009 14.4123 37.881 14.4248 37.9193C14.4322 37.9417 14.5668 38.3921 14.7242 38.9204ZM28.2446 44.38C27.3278 44.5673 26.6353 45.0713 26.2687 45.818C26.0249 46.3146 25.9407 46.7524 25.9705 47.3691C26.0098 48.1838 26.2544 48.7845 26.7497 49.283C27.2336 49.77 27.7674 49.9858 28.4847 49.9844C29.0342 49.9834 29.4275 49.8913 29.9035 49.6521L30.3094 49.4482L30.629 49.7241L30.9487 50L30.9706 48.8771L30.9926 47.7543L31.1795 47.5517C31.2822 47.4403 31.3663 47.3387 31.3663 47.3261C31.3663 47.3135 30.8668 47.3038 30.2562 47.3047L29.146 47.3063L29.3988 47.5447L29.6516 47.783V48.3095V48.836L29.5165 48.9322C29.2223 49.1417 28.8036 49.2001 28.4528 49.0805C27.8045 48.8596 27.3129 47.842 27.3818 46.8635C27.4746 45.5457 28.3038 44.9082 29.6126 45.1482C29.8386 45.1896 29.8699 45.2132 30.2947 45.6644L30.7399 46.1372L30.7183 45.4122C30.7063 45.0133 30.6841 44.6746 30.6687 44.6595C30.6085 44.5999 30.0964 44.4342 29.7906 44.3754C29.3945 44.2992 28.6289 44.3014 28.2446 44.38ZM45.1431 44.411C44.9387 44.4768 44.7022 44.7418 44.6417 44.9728C44.5783 45.2148 44.6376 45.4771 44.7992 45.6691C45.1584 46.0959 45.9019 46.0135 46.1406 45.5204C46.4604 44.8597 45.8519 44.183 45.1431 44.411ZM9.50103 44.5441C9.52384 44.5744 9.6153 44.6902 9.70425 44.8015L9.866 45.0039V47.1493V49.2948L9.66327 49.5411L9.46049 49.7873L11.5608 49.7988C12.7159 49.805 13.6689 49.8023 13.6785 49.7927C13.6881 49.7831 13.7412 49.4028 13.7965 48.9475L13.8971 48.1198L13.4754 48.5698L13.0537 49.0197L12.1413 49.0188L11.229 49.0179V46.9991V44.9803L11.4818 44.7356L11.7346 44.4909L10.5971 44.4901C9.69413 44.4894 9.46809 44.5005 9.50103 44.5441ZM14.7074 44.5661C14.7402 44.6084 14.8317 44.7208 14.9106 44.8159L15.0542 44.9887V47.1492V49.3098L14.9106 49.4826C14.6069 49.8481 14.3696 49.8093 16.9087 49.8093H19.1696L19.2207 49.0309C19.2488 48.6027 19.2651 48.2458 19.257 48.2376C19.2489 48.2295 19.0864 48.401 18.896 48.6186L18.5497 49.0143L17.4835 49.0161L16.4172 49.0179V48.2265V47.435H17.0464H17.6756L17.9148 47.6394L18.154 47.8437L18.1666 47.4415C18.1736 47.2203 18.1736 46.8611 18.1666 46.6432L18.154 46.2471L17.9125 46.4453L17.6709 46.6436H17.0441H16.4172V45.9401V45.2366H17.4244H18.4315L18.7165 45.5444C18.8732 45.7137 19.0127 45.8522 19.0265 45.8522C19.0525 45.8522 19.0255 45.127 18.9843 44.72L18.961 44.4892H16.8044C14.757 44.4892 14.6508 44.4931 14.7074 44.5661ZM21.7582 44.7194C21.8435 44.8461 21.9131 44.9697 21.9129 44.9942C21.9127 45.0187 21.5488 45.9984 21.1044 47.1712C20.408 49.0087 20.2727 49.3305 20.1264 49.4975C19.8334 49.8321 19.786 49.8093 20.7732 49.8093H21.6601L21.4569 49.5715C21.3452 49.4406 21.2537 49.321 21.2537 49.3055C21.2537 49.29 21.3157 49.0998 21.3914 48.8829L21.5291 48.4886L22.4745 48.5004L23.4198 48.5123L23.5387 48.9101L23.6576 49.3079L23.4463 49.5476L23.2349 49.7873L24.3393 49.7991C24.9468 49.8056 25.4538 49.8008 25.4661 49.7886C25.4783 49.7763 25.391 49.6622 25.272 49.535L25.0557 49.3037L24.243 46.8964L23.4303 44.4892H22.5167H21.6031L21.7582 44.7194ZM32.3644 44.5441C32.3872 44.5744 32.4776 44.6889 32.5653 44.7987L32.7248 44.9983L32.7381 46.8212C32.7509 48.588 32.7544 48.6523 32.8503 48.9065C33.0326 49.3897 33.3687 49.6872 33.9331 49.8647C34.2076 49.951 34.3413 49.9632 35.0157 49.9632C35.6188 49.9632 35.8374 49.9469 36.027 49.8879C36.3953 49.7731 36.7261 49.5522 36.8915 49.3106C37.178 48.892 37.1847 48.8392 37.2117 46.7946L37.2361 44.9452L37.427 44.7172L37.618 44.4892H36.7785C36.3168 44.4892 35.939 44.5048 35.939 44.524C35.939 44.5431 36.0281 44.6462 36.1369 44.753L36.3347 44.9472V46.6472C36.3347 48.4388 36.3195 48.5962 36.1247 48.8115C35.9808 48.9707 35.7145 49.0705 35.371 49.094C34.706 49.1394 34.3017 48.957 34.1625 48.5487C34.103 48.3741 34.0924 48.0845 34.0924 46.6481V44.9536L34.3217 44.7214L34.551 44.4892H33.4369C32.5529 44.4892 32.3314 44.5005 32.3644 44.5441ZM38.665 44.516C38.665 44.5308 38.7442 44.6374 38.8409 44.753L39.0168 44.9631V47.1492V49.3354L38.8409 49.5455C38.7442 49.661 38.665 49.7677 38.665 49.7824C38.665 49.7972 39.6715 49.8093 40.9017 49.8093H43.1384L43.1649 49.5565C43.1794 49.4175 43.2049 49.0564 43.2214 48.7541L43.2514 48.2045L43.0317 48.4463C42.9109 48.5793 42.7475 48.7623 42.6685 48.853L42.5251 49.0179H41.4524H40.3798V48.2265V47.435H41.0223H41.6649L41.9237 47.6592L42.1825 47.8834V47.0393V46.1952L41.9237 46.4194L41.6649 46.6436H41.0212H40.3775L40.3897 45.9511L40.4018 45.2586L41.4051 45.2468L42.4085 45.235L42.7113 45.5546L43.0142 45.8742L43.0158 45.6763C43.0167 45.5675 43.0046 45.2559 42.989 44.9838L42.9604 44.4892H40.8127C39.6315 44.4892 38.665 44.5013 38.665 44.516ZM45.7791 44.608C45.9858 44.7622 46.0686 44.9142 46.0678 45.1375C46.0663 45.5761 45.8078 45.8242 45.3811 45.7968C45.1756 45.7836 45.1037 45.7571 44.9974 45.6553C44.5401 45.2172 44.86 44.4453 45.4741 44.5049C45.5797 44.5151 45.7169 44.5615 45.7791 44.608ZM45.1283 45.1707C45.1283 45.5518 45.1398 45.6324 45.1943 45.6324C45.2431 45.6324 45.2602 45.581 45.2602 45.4345C45.2602 45.2674 45.2736 45.2366 45.3463 45.2366C45.4019 45.2366 45.4736 45.3069 45.5484 45.4345C45.6121 45.5433 45.6921 45.6324 45.7261 45.6324C45.8135 45.6324 45.8037 45.5882 45.674 45.3973C45.6114 45.3052 45.5669 45.2264 45.5751 45.2222C45.7284 45.1444 45.7678 45.0984 45.7792 44.9849C45.7996 44.7822 45.6961 44.709 45.389 44.709H45.1283V45.1707ZM45.6292 44.8845C45.7102 44.9655 45.596 45.0815 45.4207 45.0964C45.2626 45.1098 45.2602 45.1077 45.2602 44.9478V44.7854L45.4213 44.8116C45.5099 44.826 45.6034 44.8588 45.6292 44.8845ZM22.8578 46.6086C23.0154 47.1335 23.1443 47.5935 23.1443 47.6309C23.1443 47.6892 23.0505 47.6988 22.4848 47.6988C22.1221 47.6988 21.8251 47.684 21.8249 47.6659C21.8239 47.596 22.5463 45.5752 22.5585 45.6137C22.5655 45.636 22.7003 46.0838 22.8578 46.6086Z" fill="black"/>
</svg>
