<svg width="33" height="50" viewBox="0 0 33 50" fill="none" xmlns="http://www.w3.org/2000/svg">
<path fill-rule="evenodd" clip-rule="evenodd" d="M15.7526 0.0184121C15.2501 0.0408066 14.1615 0.163663 14.1228 0.202369C14.1168 0.208288 14.7635 3.43422 15.5597 7.37111C16.3559 11.308 17.0074 14.5496 17.0074 14.5748C17.0074 14.615 16.9691 14.6206 16.6937 14.6206C16.5212 14.6206 16.3799 14.6175 16.3798 14.6137C16.3789 14.5742 13.4929 0.34972 13.484 0.340883C13.4693 0.326153 12.9671 0.463112 12.6158 0.577648C12.1479 0.730209 11.3883 1.04821 11.3883 1.09155C11.3883 1.10262 11.5395 1.41083 11.7244 1.77648C12.1216 2.56206 12.3703 3.10229 12.7018 3.89913C13.851 6.66152 14.884 10.1915 15.5718 13.7068C15.6393 14.0518 15.703 14.3986 15.7135 14.4773L15.7324 14.6206H15.4152C15.2407 14.6206 15.098 14.6147 15.098 14.6075C15.098 14.6002 15.0422 14.2903 14.9741 13.9187C14.8163 13.0585 14.5548 11.8734 14.2775 10.7624C14.076 9.95515 14.0012 9.70145 14.0437 9.9698C14.3858 12.1282 14.3866 14.8219 14.0461 17.1763C13.8933 18.2325 13.6435 19.3919 13.3904 20.2192C13.3766 20.2644 13.5329 20.2669 16.4084 20.2669C18.9279 20.2669 19.4385 20.2608 19.4269 20.2305C19.3513 20.0334 18.9703 18.4018 18.8112 17.5938C18.618 16.612 18.344 14.9074 18.344 14.6868V14.6206H18.016C17.6956 14.6206 17.6874 14.6191 17.6633 14.5556C17.621 14.4444 17.3428 13.1627 17.2274 12.5475C16.6084 9.24775 16.221 5.12603 16.1705 1.30248L16.1533 0L16.0416 0.00526449C15.9802 0.00815587 15.8502 0.014075 15.7526 0.0184121ZM16.7982 1.36086C16.8499 5.29632 17.1819 8.86077 17.8143 12.2727C17.9893 13.2164 18.2827 14.5545 18.309 14.5282C18.3144 14.5228 18.294 14.299 18.2636 14.0307C17.8597 10.4612 17.9135 6.42271 18.4137 2.75499C18.4932 2.17189 18.6734 1.08768 18.7691 0.616791C18.8053 0.438453 18.835 0.277409 18.835 0.258942C18.835 0.188185 17.8568 0.0600916 16.9962 0.0181393L16.7804 0.0076376L16.7982 1.36086ZM19.2903 0.867795C18.9049 2.81217 18.6872 4.65648 18.5571 7.07842C18.5193 7.78195 18.5167 10.7871 18.5535 11.2927L18.5763 11.6064L18.6259 11.1427C18.9416 8.19433 19.8661 4.77639 21.1845 1.68303C21.3175 1.37098 21.4263 1.10576 21.4263 1.09362C21.4263 1.01108 20.0021 0.483324 19.4751 0.37056L19.3923 0.352885L19.2903 0.867795ZM10.3319 3.67835C8.99287 4.59053 7.8302 5.87094 7.02165 7.32392C6.47647 8.3036 6.06922 9.43675 5.8657 10.5402C5.73333 11.258 5.7021 11.6326 5.70171 12.5066C5.70139 13.3368 5.72032 13.6019 5.82642 14.2523C6.2894 17.0903 7.85748 19.5866 10.2485 21.292C10.5184 21.4845 11.1685 21.8875 11.1832 21.8715C11.1904 21.8636 11.673 20.5264 11.7986 20.1663L11.8479 20.0248L11.5431 19.8215C11.0494 19.4924 10.6941 19.197 10.2124 18.7152C9.5727 18.0753 9.14461 17.5153 8.72462 16.7687C7.71643 14.9767 7.37969 12.7667 7.80503 10.7336C8.08991 9.37177 8.69175 8.10273 9.57725 6.99659C9.89377 6.60118 10.5047 5.9929 10.9046 5.67496C11.1596 5.47229 11.2223 5.4092 11.2094 5.36847C11.2004 5.34027 11.0716 4.90471 10.9232 4.40051C10.7747 3.89635 10.6499 3.48067 10.6457 3.47677C10.6416 3.4729 10.5003 3.5636 10.3319 3.67835ZM22.0966 3.68904C22.0593 3.81291 21.9295 4.25183 21.8082 4.66439L21.5877 5.41452L21.6534 5.46907C21.6896 5.49907 21.8404 5.62182 21.9885 5.74184C22.1366 5.86186 22.4118 6.11349 22.6002 6.30102C24.0018 7.69685 24.8559 9.43571 25.1257 11.4428C25.1842 11.8778 25.1928 13.0458 25.1405 13.4613C24.9646 14.8597 24.5592 16.02 23.8408 17.1814C23.23 18.1688 22.287 19.1369 21.2681 19.8225C21.0363 19.9785 20.9642 20.0406 20.9771 20.0734C20.9865 20.0973 21.1342 20.5085 21.3054 20.9872C21.4765 21.4658 21.6214 21.8623 21.6273 21.8682C21.6425 21.8834 22.0909 21.6088 22.4628 21.3566C23.1707 20.8765 24.0616 20.0734 24.5948 19.435C25.4712 18.3853 26.1086 17.2589 26.5494 15.9804C27.1612 14.2063 27.2868 12.2223 26.9058 10.3517C26.3495 7.62064 24.7021 5.16757 22.3751 3.60511L22.1646 3.46379L22.0966 3.68904ZM13.0494 21.3238C12.9899 21.4788 12.343 23.2511 12.343 23.2591C12.343 23.2736 20.4346 23.268 20.4491 23.2535C20.4568 23.2458 20.3005 22.7948 20.1019 22.2511L19.7407 21.2625L16.4094 21.2556L13.0782 21.2487L13.0494 21.3238ZM15.7438 25.6144C13.4084 25.7517 11.1993 26.5598 9.38978 27.9385C9.08133 28.1736 8.46824 28.6985 8.33958 28.8377L8.27774 28.9047L8.45943 29.1281C8.66958 29.3865 8.60269 29.3983 8.99063 29.0349C10.4198 27.6962 12.3568 26.7385 14.3888 26.366C15.1303 26.2301 15.4866 26.201 16.4073 26.201C17.3285 26.201 17.686 26.2303 18.4258 26.3662C20.3096 26.7125 22.0398 27.5218 23.4721 28.7268C23.6446 28.872 23.8652 29.0716 23.9623 29.1705C24.0593 29.2693 24.1473 29.3502 24.1577 29.3502C24.1681 29.3502 24.258 29.2489 24.3575 29.1252L24.5383 28.9001L24.3393 28.7136C22.5929 27.0767 20.4242 26.0443 18.0303 25.7102C17.3309 25.6126 16.4215 25.5745 15.7438 25.6144ZM14.4012 27.0554C13.886 27.162 13.497 27.256 13.4538 27.2843C13.4134 27.3108 13.3718 27.366 13.3613 27.4071C13.3392 27.4937 13.6822 29.2537 13.764 29.473C13.8295 29.6485 13.9514 29.7951 14.1087 29.8873C14.3197 30.011 14.5566 30.0069 15.2616 29.8674C15.5842 29.8036 15.8592 29.7415 15.8728 29.7294C15.8964 29.7083 15.7981 29.1411 15.7651 29.1081C15.7567 29.0997 15.4826 29.1461 15.1561 29.2113C14.8284 29.2766 14.5368 29.3217 14.5054 29.3117C14.4456 29.2927 14.3813 29.1597 14.351 28.9927L14.3332 28.8943L14.9168 28.7782C15.2378 28.7143 15.5131 28.6542 15.5285 28.6447C15.5717 28.618 15.4474 28.0293 15.3969 28.0213C15.375 28.0179 15.0993 28.0683 14.7843 28.1334C14.4692 28.1986 14.2086 28.2496 14.2051 28.2468C14.1877 28.2332 14.1131 27.8165 14.1257 27.8038C14.1338 27.7958 14.4314 27.7294 14.7872 27.6562C15.1429 27.583 15.4385 27.5185 15.4442 27.5129C15.4533 27.5037 15.3608 27.0351 15.3263 26.9157C15.3187 26.8895 15.3041 26.8695 15.2939 26.8713C15.2837 26.8732 14.8819 26.956 14.4012 27.0554ZM18.2466 27.1612C18.0325 27.2381 17.9166 27.3438 17.8046 27.5646C17.7353 27.7011 17.2802 29.4477 17.2802 29.5771C17.2802 29.7255 17.3476 29.7816 17.6175 29.8576C17.7506 29.8951 17.8655 29.9196 17.873 29.9121C17.8805 29.9046 17.9479 29.6616 18.0227 29.372C18.0975 29.0825 18.162 28.842 18.1661 28.8377C18.1701 28.8333 18.4397 28.899 18.765 28.9837C19.0904 29.0684 19.3624 29.1319 19.3694 29.1249C19.3862 29.1081 19.5435 28.5221 19.5338 28.5124C19.5297 28.5083 19.2651 28.4381 18.9458 28.3563C18.6264 28.2745 18.358 28.2004 18.3491 28.1916C18.3271 28.1695 18.3927 27.9319 18.4416 27.8568C18.5002 27.7668 18.5983 27.7766 19.1979 27.9318C19.4876 28.0068 19.7363 28.0682 19.7506 28.0682C19.7807 28.0682 19.9384 27.4714 19.9146 27.4476C19.9059 27.4389 19.6502 27.3662 19.3464 27.2862C18.699 27.1157 18.4516 27.0876 18.2466 27.1612ZM10.9172 28.4033C10.6825 28.5958 10.6552 28.6271 10.6879 28.6656C10.9503 28.974 11.7051 29.9203 11.7686 30.0204C11.9364 30.285 11.8495 30.613 11.5638 30.7942C11.3315 30.9416 11.0914 30.9277 10.9026 30.7558C10.8472 30.7054 10.5686 30.3752 10.2836 30.022C9.99852 29.6687 9.75529 29.3792 9.74304 29.3786C9.73079 29.378 9.60521 29.4716 9.46394 29.5867C9.30123 29.7192 9.21534 29.8067 9.22963 29.8254C9.45093 30.1149 10.3446 31.1974 10.4399 31.2915C10.9067 31.7519 11.6447 31.705 12.1759 31.1812C12.5861 30.7767 12.6875 30.2662 12.4516 29.7943C12.3896 29.6703 11.3543 28.3475 11.2156 28.2151C11.1918 28.1924 11.1161 28.2401 10.9172 28.4033ZM21.9774 28.9342C21.2686 29.3823 19.6558 30.4296 19.6546 30.4426C19.6526 30.4645 20.2407 30.7959 20.2816 30.7959C20.3007 30.7959 20.6594 30.5741 21.0785 30.3029C21.4976 30.0318 21.8448 29.8142 21.85 29.8194C21.8689 29.8383 21.607 30.6868 21.5823 30.6868C21.5683 30.6868 21.5122 30.6514 21.4575 30.6081L21.3581 30.5294L21.161 30.6695C21.0526 30.7465 20.9637 30.8175 20.9633 30.8272C20.9629 30.837 21.073 30.9272 21.2081 31.0278C21.3431 31.1283 21.4535 31.2185 21.4533 31.2283C21.4532 31.238 21.4288 31.3258 21.399 31.4233C21.3692 31.5208 21.3448 31.6081 21.3447 31.6173C21.3443 31.6457 21.8914 32.1402 21.9065 32.1251C21.9276 32.1039 22.7629 29.2142 22.7628 29.1626C22.7624 29.0191 22.4793 28.7774 22.3115 28.7774C22.2538 28.7774 22.1441 28.8289 21.9774 28.9342ZM15.8481 30.4843C15.8031 30.4904 15.6558 30.5088 15.5208 30.5253C14.0672 30.7021 12.6077 31.4263 11.627 32.4572C11.4957 32.5952 11.3886 32.7167 11.3889 32.7272C11.3893 32.7377 11.4672 32.8408 11.5622 32.9563L11.7348 33.1665L11.9344 32.9465C12.6816 32.123 13.7156 31.5131 14.8632 31.219C15.4428 31.0704 15.7729 31.03 16.4073 31.03C17.0225 31.03 17.3355 31.0664 17.895 31.2032C19.0189 31.4778 20.098 32.1025 20.8439 32.9105L21.0791 33.1653L21.2543 32.9483L21.4294 32.7314L21.2988 32.5785C20.5774 31.734 19.3135 30.9881 18.0699 30.6728C17.5367 30.5377 17.1674 30.492 16.53 30.4823C16.2 30.4773 15.8931 30.4782 15.8481 30.4843ZM18.6304 34.2632C17.5394 34.3304 16.6583 34.9718 16.2824 35.9727C16.1182 36.4099 16.0698 36.7138 16.0685 37.3151C16.0677 37.7205 16.079 37.9046 16.1161 38.0891C16.3176 39.0909 16.7816 39.7442 17.5623 40.125C18.2536 40.4622 19.1243 40.5174 19.8989 40.2732C20.3352 40.1356 20.6556 39.9382 20.9658 39.6158C21.3569 39.2094 21.5947 38.712 21.7156 38.0476C21.7797 37.6949 21.7789 36.9859 21.714 36.6196C21.4297 35.0163 20.309 34.1599 18.6304 34.2632ZM0.150103 37.3286V40.2884H2.22317H4.29623V39.6883V39.0882H2.9051H1.51396V38.5017V37.9152H2.76871H4.02346V37.3151V36.715H2.76871H1.51396V36.1559V35.5967H2.87834H4.24271L4.23538 34.9898L4.22804 34.3829L2.18907 34.3759L0.150103 34.3689V37.3286ZM5.08822 36.34C5.08923 38.4556 5.09283 38.5204 5.2317 38.9192C5.33568 39.2178 5.50674 39.4858 5.74004 39.7155C6.20481 40.1731 6.78194 40.3819 7.58313 40.3824C8.02199 40.3826 8.25183 40.3452 8.61966 40.2136C9.21872 39.9995 9.70068 39.5228 9.91388 38.9336C10.0708 38.4999 10.0787 38.3732 10.0788 36.2713L10.079 34.3683L9.40388 34.3756L8.72877 34.3829L8.71513 36.3468C8.70149 38.3096 8.70146 38.3108 8.63963 38.4636C8.49601 38.8187 8.29869 39.012 7.97251 39.1172C7.81954 39.1666 7.7448 39.1743 7.52244 39.1638C6.97534 39.1381 6.67109 38.9112 6.49602 38.3984C6.43953 38.233 6.43795 38.183 6.4298 36.2991L6.42145 34.3692H5.75436H5.08727L5.08822 36.34ZM10.9428 34.3874C10.9328 34.3974 10.9246 35.7292 10.9246 37.347V40.2884H11.6065H12.2884V39.2245V38.1607L12.6499 38.1613L13.0113 38.1618L13.5977 39.2248L14.1842 40.2878L14.9411 40.2881C15.3575 40.2882 15.6981 40.2839 15.6981 40.2785C15.6981 40.269 14.5842 38.2575 14.4563 38.0359L14.392 37.9247L14.5627 37.8125C14.7995 37.6568 15.0909 37.3411 15.2134 37.1075C15.3487 36.8497 15.4059 36.6003 15.4065 36.265C15.4081 35.5343 15.0415 34.9527 14.3751 34.6283C14.0879 34.4885 13.8913 34.4341 13.5397 34.3971C13.2558 34.3672 10.9715 34.3587 10.9428 34.3874ZM22.5719 37.3288V40.2884H23.2539H23.9358V39.2954V38.3025L24.6382 38.2904C25.4379 38.2766 25.5888 38.2499 26.0064 38.0478C26.1949 37.9565 26.2827 37.8911 26.4722 37.7003C26.8542 37.3157 27.0021 36.9316 26.9987 36.3332C26.9952 35.7435 26.8418 35.3399 26.4858 34.9835C26.2533 34.7509 26.0226 34.6124 25.6884 34.5051C25.335 34.3915 25.0147 34.3697 23.6971 34.3695L22.5719 34.3692V37.3288ZM28.8266 34.4033C28.7999 34.4387 26.4453 40.2406 26.4453 40.2711C26.4453 40.2806 26.786 40.2884 27.2024 40.2884H27.9595L28.1745 39.7289L28.3895 39.1694L29.5484 39.1765L30.7073 39.1836L30.9167 39.7292L31.1261 40.2747L31.8972 40.282C32.3213 40.286 32.6625 40.2798 32.6556 40.2683C32.6463 40.2532 30.3677 34.6471 30.2717 34.4033C30.2614 34.3773 30.0923 34.3692 29.5553 34.3692C29.0249 34.3692 28.846 34.3776 28.8266 34.4033ZM19.2515 35.5004C19.7925 35.615 20.2081 36.0599 20.3536 36.6799C20.4308 37.0094 20.4231 37.7434 20.3393 38.038C20.2425 38.3781 20.1273 38.5884 19.9268 38.7911C19.6428 39.0781 19.3465 39.1973 18.9168 39.1973C18.4971 39.1973 18.1633 39.0649 17.8914 38.7909C17.7197 38.6178 17.5516 38.3042 17.4825 38.028C17.3894 37.6561 17.3901 36.9973 17.4839 36.6332C17.7031 35.7826 18.4188 35.3239 19.2515 35.5004ZM13.5703 35.6265C13.7408 35.6631 13.9146 35.7917 13.9909 35.9376C14.0357 36.0236 14.0478 36.0965 14.0478 36.2808C14.0478 36.4934 14.0403 36.527 13.9657 36.6475C13.8084 36.902 13.5928 36.9591 12.7862 36.96L12.2884 36.9605V36.2786V35.5967H12.8599C13.1742 35.5967 13.4939 35.6101 13.5703 35.6265ZM25.1078 35.6263C25.3075 35.6691 25.4876 35.8005 25.5713 35.9644C25.6305 36.0804 25.6406 36.136 25.6402 36.3462C25.6398 36.6173 25.6063 36.7123 25.4548 36.8719C25.2973 37.0379 25.1397 37.074 24.5018 37.0902L23.9358 37.1046V36.3507V35.5967H24.4527C24.737 35.5967 25.0318 35.61 25.1078 35.6263ZM29.899 37.065L30.2295 37.9289L29.5608 37.9362C29.193 37.9402 28.8864 37.9379 28.8795 37.931C28.8701 37.9215 29.2295 36.952 29.5154 36.2161C29.5258 36.1892 29.542 36.1748 29.5514 36.1842C29.5608 36.1935 29.7172 36.5899 29.899 37.065ZM1.2198 41.651C0.629663 41.8108 0.211832 42.2396 0.0489871 42.8524C-0.0166145 43.0993 -0.0162599 43.6988 0.0496417 43.9435C0.26134 44.7295 0.858628 45.1973 1.65035 45.1973C2.37835 45.1973 2.9408 44.7952 3.13425 44.1366C3.15815 44.0553 3.17165 43.9827 3.16428 43.9754C3.14729 43.9584 2.52823 43.836 2.45461 43.8351C2.41332 43.8345 2.388 43.8671 2.35298 43.9658C2.28334 44.1618 2.16823 44.3022 2.00285 44.3927C1.87454 44.463 1.82778 44.4735 1.65035 44.4719C1.26495 44.4684 0.993704 44.2625 0.864328 43.8751C0.657868 43.257 0.867493 42.5955 1.33666 42.3845C1.52419 42.3002 1.83496 42.2987 1.99317 42.3813C2.14185 42.459 2.29411 42.6325 2.33585 42.7717C2.35456 42.8342 2.3829 42.8897 2.3988 42.8949C2.41473 42.9002 2.59345 42.8705 2.79599 42.8289L3.16423 42.7534L3.15591 42.6772C3.1262 42.4051 2.88147 42.0347 2.61301 41.8555C2.35497 41.6833 2.13463 41.6203 1.74582 41.6077C1.4812 41.5992 1.38041 41.6074 1.2198 41.651ZM4.68381 41.6393C4.10906 41.7641 3.68389 42.1856 3.51509 42.7979C3.44573 43.0495 3.44587 43.7473 3.51534 43.998C3.72453 44.7532 4.31677 45.1973 5.11455 45.1973C5.88679 45.1973 6.45388 44.8015 6.68762 44.0994C6.75688 43.8913 6.7623 43.8421 6.7635 43.4116C6.76468 43.0003 6.75761 42.9247 6.7012 42.7433C6.4694 41.9976 5.90534 41.5947 5.10091 41.6003C4.96588 41.6012 4.77819 41.6188 4.68381 41.6393ZM27.8384 41.6382C27.5327 41.7076 27.28 41.8476 27.0617 42.0684C26.8399 42.2928 26.7219 42.497 26.6317 42.8124C26.5809 42.9903 26.5696 43.0966 26.5696 43.3979C26.5696 44.0062 26.706 44.3696 27.0717 44.7356C27.305 44.9691 27.5304 45.0949 27.8286 45.1581C28.2238 45.2418 28.7024 45.1841 29.0178 45.0147C29.209 44.9121 29.4684 44.6468 29.572 44.4481C29.6678 44.2644 29.7594 44.0025 29.736 43.9791C29.7155 43.9586 29.1231 43.8369 29.0364 43.8355C28.9798 43.8346 28.962 43.8538 28.9328 43.9473C28.8841 44.1034 28.7523 44.2869 28.6314 44.3669C28.3331 44.5643 27.8655 44.4895 27.6097 44.2033C27.5099 44.0916 27.4012 43.8202 27.3719 43.6093C27.2958 43.0617 27.4972 42.5871 27.8864 42.3967C28.0143 42.3341 28.0757 42.3214 28.2454 42.3223C28.5667 42.324 28.7829 42.468 28.9045 42.7613C28.9376 42.8414 28.9718 42.9064 28.9803 42.9057C28.9887 42.905 29.1614 42.8704 29.3639 42.8288C29.786 42.7421 29.7744 42.7564 29.6637 42.4617C29.5311 42.1087 29.2094 41.8086 28.8264 41.6805C28.5869 41.6005 28.0972 41.5795 27.8384 41.6382ZM7.26944 43.3979V45.1164H7.65102H8.03257L8.03972 44.0382L8.04684 42.96L8.70356 44.0314L9.36029 45.1028L9.78783 45.1103L10.2154 45.1178V43.3986V41.6795H9.83382H9.45224L9.44512 42.7501L9.43797 43.8207L8.78332 42.7504L8.12867 41.6801L7.69906 41.6798L7.26944 41.6795V43.3979ZM10.7882 43.3979V45.1164H11.1837H11.5792V44.4349V43.7535L12.3089 43.7462L13.0386 43.7389V43.3843V43.0297L12.3089 43.0225L11.5792 43.0152V42.7019V42.3887H12.3703H13.1613V42.0341V41.6795H11.9747H10.7882V43.3979ZM13.7887 43.3979V45.1164H15.0025H16.2163V44.7618V44.4072H15.398H14.5797V44.0799V43.7526H15.3162H16.0527V43.3843V43.0161H15.3162H14.5797V42.7024V42.3887H15.3844H16.1891V42.0341V41.6795H14.9889H13.7887V43.3979ZM16.871 43.3979V45.1164H17.2665H17.662V44.5016V43.8867L17.8829 43.8947L18.1038 43.9026L18.438 44.5027L18.7721 45.1028L19.2127 45.1103C19.455 45.1144 19.6533 45.1119 19.6533 45.1048C19.6533 45.0976 19.485 44.7885 19.2793 44.418L18.9053 43.7441L18.9724 43.7007C19.1231 43.6031 19.2968 43.4147 19.3837 43.2544C19.4726 43.0904 19.476 43.0734 19.476 42.7842C19.476 42.5163 19.4682 42.4676 19.4034 42.3294C19.3076 42.125 19.1444 41.9521 18.9487 41.8478C18.6594 41.6936 18.5519 41.6795 17.6699 41.6795H16.871V43.3979ZM20.1443 43.3979V45.1164H21.3589H22.5736L22.5659 44.7686L22.5583 44.4208L21.7332 44.4136L20.908 44.4064V44.0795V43.7526H21.6445H22.381V43.3843V43.0161H21.6445H20.908V42.7024V42.3887H21.7127H22.5174V42.0341V41.6795H21.3308H20.1443V43.3979ZM23.0902 43.3973V45.1164H23.4718H23.8533L23.8605 44.0441L23.8676 42.9719L24.5222 44.0435L25.1769 45.115L25.6065 45.1157L26.0361 45.1164V43.3979V41.6795H25.6545H25.273L25.2658 42.7562L25.2587 43.8329L24.6028 42.763L23.9469 41.6931L23.5185 41.6856L23.0902 41.6781V43.3973ZM30.2368 43.3979V45.1164H31.4506H32.6645V44.7618V44.4072H31.8462H31.0278V44.0803V43.7535L31.7575 43.7462L32.4872 43.7389V43.3843V43.0297L31.7575 43.0225L31.0278 43.0152V42.7019V42.3887H31.8189H32.6099V42.0341V41.6795H31.4234H30.2368V43.3979ZM5.52613 42.4067C5.69746 42.5029 5.84484 42.6821 5.92075 42.8868C5.96393 43.0032 5.97378 43.1006 5.97378 43.4116C5.97378 43.7867 5.97219 43.7968 5.88414 43.9827C5.71683 44.3361 5.44209 44.5055 5.07363 44.4825C4.54025 44.4493 4.24168 44.06 4.24168 43.3979C4.24168 42.8746 4.44053 42.5032 4.79619 42.3623C5.01242 42.2767 5.32864 42.2959 5.52613 42.4067ZM18.4903 42.4263C18.6342 42.4864 18.6986 42.5902 18.6986 42.762C18.6986 42.942 18.6445 43.0543 18.5276 43.117C18.4563 43.1553 18.3666 43.1645 18.0576 43.1652L17.6757 43.1661L17.6681 42.7774L17.6605 42.3887H18.0304C18.283 42.3887 18.4288 42.4006 18.4903 42.4263ZM17.5585 46.4815C17.1765 46.5501 16.7604 46.7891 16.5266 47.0743C16.1946 47.4793 16.0566 48.1084 16.1754 48.6761C16.301 49.2761 16.7692 49.7818 17.3601 49.9555C17.5528 50.0121 18.2657 50.0156 18.4711 49.9609C18.7907 49.8758 19.0699 49.7095 19.3301 49.4493L19.4896 49.2898V48.7034V48.1169H18.5895H17.6893V48.4306V48.7443H18.2212H18.7531V48.8642C18.7531 48.9673 18.7396 48.996 18.6569 49.0686C18.4509 49.2494 18.1791 49.3326 17.8706 49.309C17.6202 49.29 17.5058 49.2545 17.3444 49.1459C17.0467 48.9455 16.9097 48.6226 16.9313 48.1724C16.9421 47.9487 16.9575 47.8777 17.0277 47.7276C17.2306 47.2941 17.6683 47.0838 18.1246 47.2007C18.3811 47.2664 18.5069 47.3699 18.644 47.6278L18.7122 47.7561L19.0848 47.6466L19.4574 47.5371L19.4219 47.4363C19.2594 46.9759 18.9076 46.6488 18.4394 46.5228C18.2395 46.469 17.755 46.4463 17.5585 46.4815ZM6.90575 46.5257C6.89574 46.5357 6.88756 47.3152 6.88756 48.2578V49.9717H8.10139H9.31523V49.6171V49.2625H8.49691H7.6786V47.885V46.5075H7.30127C7.09372 46.5075 6.91574 46.5157 6.90575 46.5257ZM9.69711 48.2393V49.9717H10.9109H12.1248V49.6171V49.2625H11.3065H10.4881V48.9216V48.5806H11.2246H11.9611V48.226V47.8714H11.2246H10.4881V47.5441V47.2168H11.2936H12.0991L12.0915 46.869L12.0839 46.5212L10.8905 46.5141L9.69711 46.507V48.2393ZM13.8727 46.5689C13.8597 46.6027 13.547 47.3747 13.1778 48.2844C12.8087 49.1942 12.5067 49.9463 12.5067 49.9558C12.5067 49.9653 12.7061 49.9697 12.9499 49.9656L13.3932 49.9581L13.514 49.6371L13.6348 49.3162L14.3159 49.3234L14.9971 49.3307L15.1199 49.6512L15.2427 49.9717H15.689H16.1353L16.0991 49.8831C16.0792 49.8344 15.7635 49.0549 15.3974 48.151L14.7319 46.5075H14.3142C13.9062 46.5075 13.8959 46.509 13.8727 46.5689ZM19.8715 47.6876C19.8715 48.9654 19.878 49.0352 20.0241 49.3284C20.1044 49.4895 20.3279 49.7276 20.4863 49.8207C20.5468 49.8563 20.6753 49.912 20.7718 49.9445C20.9287 49.9974 20.9917 50.0025 21.3709 49.9931C21.7308 49.9842 21.818 49.9734 21.9507 49.921C22.3086 49.7795 22.588 49.48 22.7138 49.103C22.772 48.9286 22.7747 48.8749 22.784 47.7146L22.7937 46.5075H22.398H22.0023L21.9939 47.662L21.9855 48.8165L21.9032 48.9772C21.7947 49.1893 21.6397 49.2899 21.3906 49.3099C21.0833 49.3346 20.8637 49.2196 20.727 48.9625C20.6804 48.8749 20.675 48.7701 20.6625 47.6941L20.6489 46.5212L20.2602 46.5136L19.8715 46.506V47.6876ZM23.2266 48.2396V49.9717H24.4404H25.6542V49.6171V49.2625H24.8359H24.0176V48.9216V48.5806H24.7541H25.4906V48.226V47.8714H24.7541H24.0176V47.5441V47.2168H24.8223H25.627V46.8621V46.5075H24.4268H23.2266V48.2396ZM26.4635 46.5257C26.4535 46.5357 26.4453 46.5725 26.4453 46.6076C26.4453 46.6672 26.4557 46.6712 26.6089 46.6712H26.7726V47.1076V47.5441H26.8681H26.9635V47.1076V46.6712H27.1136C27.2621 46.6712 27.2636 46.6704 27.2636 46.5894V46.5075H26.8726C26.6576 46.5075 26.4735 46.5157 26.4635 46.5257ZM27.4 47.0258V47.5441H27.4818H27.5636V47.2531C27.5636 47.0931 27.5724 46.971 27.5831 46.9817C27.5939 46.9924 27.6472 47.1203 27.7016 47.2658C27.7991 47.5268 27.8018 47.5305 27.896 47.5387L27.9915 47.5469L28.0981 47.2555L28.2047 46.9642L28.2124 47.2541L28.2201 47.5441H28.3147H28.4092V47.0242V46.5042L28.309 46.5127L28.2087 46.5212L28.0569 46.9224C27.8817 47.3852 27.9142 47.3915 27.7137 46.8553L27.5838 46.5075H27.4919H27.4V47.0258ZM14.5086 48.0501C14.6056 48.3043 14.6932 48.5339 14.7034 48.5602C14.7205 48.6043 14.6919 48.6079 14.3235 48.6079C14.1044 48.6079 13.9251 48.5974 13.9251 48.5846C13.9251 48.5662 14.1127 48.0654 14.283 47.6289C14.297 47.5931 14.3138 47.5692 14.3204 47.5757C14.327 47.5823 14.4117 47.7958 14.5086 48.0501Z" fill="black"/>
</svg>
