<svg width="25" height="30" viewBox="0 0 25 30" fill="none" xmlns="http://www.w3.org/2000/svg">
<path fill-rule="evenodd" clip-rule="evenodd" d="M10.7627 0.927304C10.5803 1.44278 10.3345 2.14221 10.2166 2.48165C10.0987 2.82107 9.99002 3.1022 9.97504 3.10638C9.96008 3.11052 9.22593 2.62878 8.34359 2.03581C7.46125 1.44281 6.7365 0.960419 6.73304 0.96382C6.71887 0.977735 7.16965 3.72859 7.21205 3.88691C7.23653 3.97828 7.24348 3.98223 6.83472 3.67201C6.46303 3.38992 6.01705 3.1005 5.58387 2.86025C5.22785 2.66279 4.87943 2.49449 4.86217 2.51159C4.85582 2.51793 4.92852 2.62318 5.02378 2.74556C5.41531 3.24855 5.8884 4.14373 6.25052 5.06678C6.35435 5.33149 6.44848 5.58427 6.45967 5.62854L6.48001 5.70903L7.03449 5.43792C9.99485 3.99034 13.271 3.62164 16.505 4.37205C16.6849 4.41379 16.8545 4.45483 16.882 4.46324C16.9242 4.47619 16.9401 4.41593 16.9858 4.06823C17.1381 2.90882 17.4149 1.83257 17.7103 1.25077C17.7521 1.16827 17.7804 1.0948 17.773 1.0875C17.7127 1.0277 16.3762 2.29861 16.0218 2.75274C15.8729 2.94349 15.8308 2.9809 15.8132 2.93826C15.801 2.90892 15.7469 2.23788 15.693 1.44708C15.6391 0.656284 15.5913 0.00528098 15.5868 0.000395509C15.5757 -0.0116017 15.3305 0.245194 14.3085 1.33886C13.8317 1.84905 13.3248 2.38778 13.1821 2.53605L12.9226 2.80558L12.7263 2.50512C12.6183 2.33985 12.2236 1.72459 11.8492 1.13787C11.4748 0.551154 11.1518 0.0528985 11.1315 0.0306047C11.1023 -0.00130544 11.0243 0.188424 10.7627 0.927304ZM12.144 4.81895C10.5006 4.95992 8.65833 5.45428 7.39393 6.09362L7.20659 6.18836L7.42465 6.22868C7.90381 6.31733 8.42732 6.68009 8.73154 7.13432C8.86748 7.33731 9.00476 7.60363 8.98408 7.6242C8.97856 7.62964 8.90981 7.59108 8.83128 7.53848C8.32319 7.19808 7.598 7.0513 7.08075 7.18416C6.57573 7.31391 6.17374 7.74797 6.02247 8.32693C5.86108 8.94463 5.98652 9.8212 6.33447 10.5071C6.39659 10.6295 6.44176 10.7352 6.43487 10.742C6.41497 10.7618 6.05714 10.5234 5.91394 10.395C5.75523 10.2527 5.54864 9.96811 5.42269 9.71836C5.07976 9.03829 5.05169 8.09069 5.35466 7.42318L5.44204 7.23061L5.2652 7.3592C3.70256 8.49548 2.36845 10.0202 1.44978 11.7199C1.3069 11.9843 1.30531 11.9903 1.37381 12.0056C1.41228 12.0142 1.7241 12.0644 2.06675 12.1171C2.40941 12.1698 2.69437 12.2174 2.70004 12.2229C2.70568 12.2285 2.62858 12.3298 2.52871 12.448C1.30185 13.9003 0.184137 16.5479 0.00984937 18.4148C-0.0076261 18.6019 -0.00342069 18.639 0.0352372 18.639C0.0607495 18.639 0.568254 18.492 1.16311 18.3124C1.75793 18.1328 2.24901 17.9902 2.25437 17.9955C2.25973 18.0008 2.24453 18.0801 2.22057 18.1718C2.19665 18.2634 2.15619 18.4791 2.13067 18.651C1.83636 20.6351 2.04037 23.2836 2.61204 24.9004C2.72608 25.223 3.06637 25.9363 3.10621 25.9363C3.19228 25.9363 4.01961 25.2141 4.52768 24.6954C5.27342 23.9341 5.91086 23.1607 6.60857 22.1705C6.75582 21.9616 6.88752 21.7924 6.90126 21.7945C6.9711 21.8055 7.24242 22.9904 7.33631 23.6945C7.40393 24.2015 7.41347 25.7003 7.35275 26.2764C7.28307 26.9376 7.0514 28.3617 6.92745 28.8908C6.91484 28.9446 6.95823 28.9768 7.21535 29.1044C8.12448 29.5555 9.03881 29.8236 10.1347 29.9604C10.609 30.0196 11.8209 30.0109 12.3464 29.9445C14.1117 29.7215 15.7008 29.1343 17.1917 28.154L17.271 28.1019L17.4833 28.913C17.6001 29.359 17.7061 29.7353 17.7189 29.749C17.7446 29.7766 18.1218 29.5301 18.5298 29.2188C20.7327 27.5388 22.0639 25.3037 22.4551 22.6286C22.4911 22.3825 22.5249 22.1768 22.5302 22.1716C22.5355 22.1663 22.7745 22.4129 23.0613 22.7195C23.3481 23.0262 23.5876 23.2771 23.5935 23.2771C23.6137 23.2771 23.8241 22.6022 23.9325 22.1895C24.6916 19.3018 24.4101 16.5662 23.0757 13.8617C22.7459 13.1933 22.4615 12.706 21.9929 12.0065L21.5994 11.419L21.5585 11.7127C21.4836 12.2507 21.5465 12.2578 20.9661 11.6453C20.463 11.1142 20.4594 11.1094 20.53 11.0635C20.5693 11.038 20.6571 10.9662 20.7252 10.904L20.849 10.7909L20.811 10.6108C20.7611 10.3746 20.6467 10.1471 20.4874 9.96752C20.3788 9.84504 20.3457 9.8251 20.2774 9.84081C20.093 9.88317 19.7531 10.0777 19.6094 10.223L19.4585 10.3757L19.2445 10.2159C19.0162 10.0454 18.6201 9.82451 18.4119 9.75163L18.2852 9.70723L18.5399 10.0413C18.7415 10.3056 19.0706 10.8065 19.1279 10.936C19.1331 10.9477 19.3479 11.1258 19.6053 11.3319C20.1783 11.7907 20.6398 12.2031 20.8625 12.4555L21.0302 12.6456L20.8656 12.5628C20.5602 12.4092 20.1493 12.3226 19.5422 12.2838C18.955 12.2463 18.1204 12.3628 17.7199 12.5381L17.5486 12.6131L17.2721 12.3098C17.12 12.143 16.6994 11.7159 16.3375 11.3607L15.6795 10.7149L15.6827 10.4949C15.6865 10.2221 15.7683 10.0025 15.9602 9.7494C16.0376 9.64743 16.0881 9.5598 16.0727 9.5547C16.0572 9.54956 15.9519 9.56673 15.8387 9.59279C15.6034 9.64693 15.3321 9.77494 15.1319 9.92621C15.0562 9.98344 14.9776 10.0404 14.9573 10.0527C14.9362 10.0655 14.8286 10.0165 14.7081 9.93929C14.3093 9.68388 13.533 9.32925 13.0823 9.19664C12.9293 9.15158 12.8958 9.15158 12.693 9.19645C12.3675 9.26843 11.8865 9.46271 11.5741 9.64836C11.319 9.79993 10.8704 10.13 10.8679 10.168C10.8673 10.1772 10.9557 10.2364 11.0643 10.2995C11.4323 10.5131 11.8158 10.6885 12.0972 10.7717C12.3583 10.8489 12.4354 10.8563 13.2187 10.8787C14.3604 10.9112 14.3584 10.9108 14.7453 11.2373C15.082 11.5215 15.9606 12.3745 16.259 12.7068L16.4435 12.9123L16.2173 12.841C15.5853 12.6418 15.1531 12.6062 13.499 12.6165C12.3162 12.6239 12.1332 12.6186 11.9339 12.5713C11.3546 12.4335 10.8267 12.1378 10.4413 11.7351C10.1102 11.3891 9.94096 11.0562 9.86906 10.6095C9.85056 10.4945 9.83084 10.3959 9.82527 10.3903C9.81969 10.3848 9.58647 10.3458 9.30705 10.3037C9.02759 10.2615 8.79147 10.2196 8.78231 10.2106C8.74845 10.1769 9.42972 9.5572 9.70858 9.36797C9.98862 9.1779 10.4825 8.92484 10.6565 8.88229C10.7036 8.87076 10.7422 8.85153 10.7422 8.83956C10.7422 8.82756 10.616 8.71517 10.4618 8.58976C10.3076 8.46434 10.1815 8.35037 10.1815 8.33648C10.1815 8.29598 10.667 7.94994 10.9821 7.76587C11.5068 7.45939 12.1288 7.19888 12.7862 7.01033C13.1978 6.89227 13.9551 6.73482 14.1121 6.73464C14.3356 6.73439 15.4165 7.32624 16.4063 7.99082C16.6689 8.16719 16.8895 8.31147 16.8964 8.31147C16.9173 8.31147 17.0853 7.96513 17.1283 7.83359C17.1503 7.76634 17.198 7.56075 17.2345 7.37677L17.3007 7.04227L17.7362 7.25785C18.6221 7.69646 19.7727 8.49588 20.5961 9.24496C20.7514 9.3863 20.8698 9.48104 20.8589 9.45553C20.8482 9.43002 20.7612 9.22916 20.6657 9.00913C20.3469 8.27477 20.1746 7.70886 20.103 7.161C20.0865 7.0354 20.0618 6.99558 19.9221 6.87004C19.1252 6.15379 17.8924 5.54936 16.4346 5.16025C16.3016 5.12475 16.1805 5.09572 16.1654 5.09572C16.1503 5.09572 16.1785 5.19964 16.2282 5.32667C16.2779 5.45369 16.3409 5.65195 16.3682 5.76729C16.4217 5.99332 16.4725 6.4622 16.442 6.4489C16.4318 6.44442 16.3332 6.343 16.2228 6.22349C15.672 5.62694 14.9616 5.05323 14.55 4.87253C14.4129 4.81233 14.3382 4.80745 13.437 4.79944C12.9057 4.79474 12.3239 4.80352 12.144 4.81895ZM17.7333 13.8109C18.0671 14.0385 18.4387 14.2424 18.7897 14.3904L19.1061 14.5238L19.1144 15.373L19.1226 16.2221L18.6479 16.5878C17.761 17.2709 16.9087 17.7829 16.2967 18.0002C16.0066 18.1032 15.5846 18.181 15.3803 18.1691L15.2188 18.1597L14.5069 16.8625C14.1153 16.1491 13.7949 15.5542 13.7949 15.5406C13.7949 15.5109 14.2632 15.1649 14.6516 14.9077C15.4897 14.3527 16.4034 13.9115 17.0979 13.7265C17.4418 13.6348 17.4832 13.6403 17.7333 13.8109ZM21.451 13.9777C21.9691 15.3733 21.9995 16.7388 21.5345 17.7356L21.4232 17.9742L21.2923 17.7251C21.1108 17.3797 20.8632 17.0486 20.4611 16.6137L20.1182 16.2426L20.1261 15.3964L20.1341 14.5502L20.43 14.3662C20.5928 14.2649 20.8591 14.08 21.0219 13.9552C21.1846 13.8304 21.3265 13.7271 21.337 13.7255C21.3476 13.7239 21.3989 13.8374 21.451 13.9777ZM20.1723 18.0311C20.4659 18.363 20.7861 19.038 20.7834 19.3192C20.7815 19.5201 20.5883 20.1197 20.4135 20.467C20.146 20.9986 19.6964 21.5513 19.3162 21.816L19.131 21.9449L19.112 21.4901C19.0928 21.0323 19.037 20.6181 18.9457 20.2575L18.8963 20.0624L18.7535 20.1872C18.4085 20.4886 17.8454 20.7844 17.2231 20.9909C17.0136 21.0605 16.8383 21.1128 16.8337 21.1073C16.8292 21.1017 16.6275 20.7356 16.3856 20.2938L15.9457 19.4905L16.191 19.4381C16.7909 19.31 17.5952 18.8781 18.4733 18.2125L18.8061 17.9602L19.3455 17.951C19.6421 17.9459 19.929 17.9386 19.9829 17.9348C20.0598 17.9293 20.1006 17.9501 20.1723 18.0311Z" fill="black"/>
</svg>
