<svg width="24" height="30" viewBox="0 0 24 30" fill="none" xmlns="http://www.w3.org/2000/svg">
<path d="M18.9974 4.30473C20.2834 6.13009 21.4834 8.14527 22.4156 10.0451L23.2961 11.8393L22.4623 13.5204C21.1392 16.1881 19.7944 18.3899 18.0435 20.7557C17.5156 21.4689 17.1118 21.9229 16.9788 21.953C15.7303 22.2344 11.7524 22.3629 9.07374 22.2084C6.80182 22.0774 6.58706 22.0444 6.66444 21.8389C6.69386 21.7607 7.22644 20.8601 7.84785 19.8376L8.97761 17.9786L10.8041 18.032C11.8087 18.0614 13.1276 18.0534 13.7349 18.014L14.8391 17.9426L15.3771 17.1756C16.1434 16.0834 17.0206 14.6316 17.8009 13.164L18.4753 11.8956L18.1632 11.2481C17.7703 10.4324 17.3647 9.73637 16.4107 8.24023L15.6548 7.05481L16.8683 5.08358C17.5358 3.99929 18.1124 3.13145 18.1497 3.15485C18.1869 3.17834 18.5684 3.69572 18.9974 4.30473Z" fill="black"/>
<path d="M12.4801 8.06118C14.2811 8.57591 15.2587 10.6509 14.5111 12.3718C14.1829 13.1273 13.7037 13.64 12.9922 13.9966C12.4302 14.2783 12.2584 14.3179 11.6248 14.3113C11.0459 14.3053 10.7904 14.2504 10.3533 14.0386C9.61314 13.6797 8.91973 12.8994 8.69526 12.1727C7.92495 9.6789 10.0529 7.36739 12.4801 8.06118Z" fill="black"/>
<path d="M9.81195 26.4868C9.96576 26.6434 9.77955 27.2568 9.59449 27.2031C9.5196 27.1813 9.18795 27.1431 8.85763 27.1182C8.14365 27.0645 7.83496 27.2218 7.61828 27.7498C7.42707 28.2159 7.52542 28.5898 7.93581 28.9567C8.22719 29.2172 8.33698 29.2554 8.72218 29.23L9.16987 29.2006L9.21794 28.7146C9.2637 28.2516 9.28177 28.2253 9.60007 28.1595C9.78387 28.1215 9.96115 28.1075 9.99422 28.1282C10.0987 28.194 10.0934 29.3407 9.98768 29.542C9.84011 29.8227 8.94021 30.066 8.35351 29.9838C7.27777 29.8332 6.53918 28.9507 6.65512 27.9546C6.73087 27.3032 7.04158 26.8558 7.63174 26.5485C8.05886 26.326 8.20104 26.3025 8.90762 26.3369C9.34493 26.3583 9.75196 26.4257 9.81195 26.4868Z" fill="black"/>
<path d="M11.7174 27.3831C11.7174 28.4952 11.8025 28.9 12.0817 29.1161C12.3285 29.3071 12.8133 29.275 13.0956 29.0489C13.3389 28.8539 13.3468 28.8132 13.3728 27.605L13.3997 26.3616L13.8083 26.3315L14.2169 26.3014V27.6142C14.2169 28.814 14.1982 28.955 14.0003 29.2542C13.6685 29.7554 13.2112 29.9827 12.5345 29.9827C11.8462 29.9827 11.3847 29.7475 11.1005 29.252C10.9478 28.9856 10.9014 28.6882 10.8691 27.7664C10.8469 27.1325 10.8543 26.5461 10.8856 26.4633C10.9236 26.3622 11.0697 26.3126 11.3299 26.3126H11.7174V27.3831Z" fill="black"/>
<path d="M17.7738 26.7042V27.0958H16.9567H16.1395V27.4384V27.7811H16.8125H17.4854V28.1237V28.4663H16.8125H16.1395V28.8579V29.2495H17.0047H17.8699V29.5921V29.9348H16.5721H15.2743V28.1237V26.3126H16.5241H17.7738V26.7042Z" fill="black"/>
<path d="M21.5973 28.1482L21.6235 29.9348H21.1888H20.7539V28.6602V27.3855L20.3676 27.5863L19.9812 27.7869L19.9235 27.4927C19.8916 27.3308 19.8645 27.1643 19.8631 27.1226C19.8583 26.9764 21.0916 26.3187 21.3307 26.3401L21.5711 26.3616L21.5973 28.1482Z" fill="black"/>
<path d="M5.75714 28.1237V29.9348H5.32454H4.89194V28.189C4.89194 27.2287 4.92078 26.4138 4.95606 26.3779C4.99124 26.342 5.18591 26.3126 5.38866 26.3126H5.75714V28.1237Z" fill="black"/>
<path fill-rule="evenodd" clip-rule="evenodd" d="M15.2036 0.114697C15.9842 0.184986 16.6399 0.260268 16.6608 0.281903C16.6816 0.303636 16.1631 1.19948 15.5085 2.27261L14.3184 4.22396L11.9364 4.21594C10.6263 4.21153 9.29658 4.23649 8.98135 4.27154L8.4083 4.33507L7.65154 5.46087C6.81855 6.70023 5.81126 8.40734 5.19264 9.62829L4.79234 10.4183L5.34011 11.4394C5.64139 12.001 6.27126 13.0736 6.73981 13.8231C7.20837 14.5726 7.57262 15.2334 7.54935 15.2915C7.49715 15.422 5.53305 18.6518 5.34299 18.9197C5.15861 19.1796 5.06113 19.0902 4.23948 17.9075C2.55023 15.4761 0.937298 12.6427 0.149773 10.7232L0 10.3581L0.606024 9.10876C2.04226 6.1482 3.80563 3.3243 5.93489 0.574905C5.94043 0.567747 5.94573 0.560808 5.95086 0.554075C5.96873 0.530665 5.98469 0.50974 6.00266 0.490725C6.15403 0.330553 6.44753 0.305921 9.21329 0.0738052L9.50634 0.0492053C10.57 -0.0400755 13.9116 -0.00170051 15.2036 0.114697Z" fill="black"/>
<path d="M2.5559 27.7811L2.57522 29.2006L3.39707 29.2288L4.219 29.2571V29.596V29.9348H2.96927H1.71954V28.1181V26.3014L2.1281 26.3315L2.53667 26.3616L2.5559 27.7811Z" fill="black"/>
</svg>
