<svg width="36" height="30" viewBox="0 0 36 30" fill="none" xmlns="http://www.w3.org/2000/svg">
<path fill-rule="evenodd" clip-rule="evenodd" d="M27.0467 27.6546C27.1566 26.7238 27.7434 26.045 28.6156 25.8399C29.1143 25.7226 29.3989 25.7186 29.8448 25.8223C30.3118 25.9311 30.327 25.9486 30.2513 26.2938L30.1888 26.5794L29.5697 26.5296C28.4656 26.4407 27.9798 26.861 27.9798 27.9052C27.9798 28.8105 28.4406 29.3116 29.2728 29.3116H29.6201V28.7795V28.2473H29.2763C28.9465 28.2473 28.9337 28.2345 28.9627 27.9329L28.9929 27.6184H29.7166H30.4402L30.4674 28.6946L30.4946 29.7709L30.0629 29.8798C28.2129 30.347 26.8477 29.3398 27.0467 27.6546ZM18.8184 27.4325C18.4801 27.0195 18.7591 26.2175 19.3274 25.9697C19.9994 25.6766 20.9834 25.9421 21.2677 26.4934C21.4784 26.9022 21.4582 26.9896 21.1534 26.9889C20.963 26.9885 20.8439 26.9105 20.7315 26.7123C20.4866 26.2805 19.6896 26.2199 19.3407 26.6064C19.044 26.9352 19.2025 27.1126 20.2455 27.6196C21.3128 28.1385 21.5152 28.3193 21.5152 28.7544C21.5152 29.4668 20.9742 29.8921 20.0679 29.8921C19.2127 29.8921 18.7383 29.5754 18.5821 28.9004C18.5254 28.6555 18.5436 28.6343 18.81 28.6343C19.0389 28.6343 19.1121 28.6853 19.1605 28.8784C19.2474 29.2259 19.5599 29.4084 20.0679 29.4084C20.5842 29.4084 20.9363 29.1965 20.9363 28.8857C20.9363 28.5827 20.7333 28.4244 19.7785 27.9826C19.3274 27.7739 18.8953 27.5264 18.8184 27.4325ZM22.1906 29.9889V27.9087V25.8285H22.6248H23.059V27.5217V29.2148H23.8309H24.6028V29.6019V29.9889H23.3967H22.1906ZM25.3747 30V27.9142V25.8285H25.8108H26.2469L26.2209 27.8845L26.1948 29.9405L25.7848 29.9702L25.3747 30ZM31.0666 29.9218C31.0661 29.8789 31.3369 28.9404 31.6681 27.8361L32.2706 25.8285H32.8209H33.3714L33.6115 26.6267C34.4127 29.2906 34.5409 29.7361 34.5409 29.856C34.5409 29.9482 34.4129 29.9889 34.122 29.9889H33.7031L33.5278 29.4084L33.3525 28.8278H32.8002H32.248L32.0678 29.3842C31.8888 29.9367 31.8847 29.9407 31.4775 29.9702C31.252 29.9866 31.067 29.9649 31.0666 29.9218ZM0.191729 29.8921V27.9087V25.9252H1.34416C2.40513 25.9252 2.51696 25.9428 2.75277 26.1461C3.13119 26.4726 3.1912 27.1467 2.87473 27.5157L2.642 27.787L2.91245 28.0581C3.11527 28.2614 3.18242 28.4217 3.18136 28.6994C3.17789 29.6137 2.72267 29.8917 1.22896 29.8919L0.191729 29.8921ZM4.60126 29.7498C4.04212 29.4836 3.9547 29.1707 3.9547 27.4345V25.9252H4.24416H4.53362V27.4429C4.53362 28.8679 4.54645 28.9741 4.74338 29.1845C5.04828 29.5098 5.79933 29.5025 6.12999 29.1708C6.36117 28.9391 6.36686 28.8972 6.36686 27.4293V25.9252H6.66269H6.95852L6.92803 27.5684L6.89754 29.2117L6.58531 29.5245C6.30521 29.8051 6.20477 29.8411 5.60829 29.8749C5.12257 29.9025 4.85135 29.8687 4.60126 29.7498ZM7.71767 29.8921V27.9087V25.9252H8.03376C8.33914 25.9252 8.37899 25.9749 9.21572 27.4007L10.0816 28.8762L10.1082 27.4007L10.1349 25.9252H10.4218H10.7088V27.9148V29.9044L10.3952 29.874C10.1017 29.8457 10.0245 29.7476 9.18996 28.3441L8.29823 26.8444L8.29746 28.3683L8.29659 29.8921H8.00713H7.71767ZM11.4806 29.8921V27.9087V25.9252H12.4021C13.0223 25.9252 13.4128 25.9715 13.5967 26.0669C14.9731 26.7806 14.8563 29.3495 13.4279 29.7786C13.2202 29.841 12.6971 29.8921 12.2655 29.8921H11.4806ZM15.2919 29.8437L15.2657 27.8845L15.2397 25.9252H16.5442H17.8488V26.1671V26.409H16.8356H15.8225V26.9895V27.57H16.7942C17.7465 27.57 17.7651 27.5743 17.7349 27.7877C17.7056 27.9942 17.6557 28.0069 16.7633 28.0331L15.8225 28.0608V28.7346V29.4084H16.8839H17.9452V29.6529V29.8975L16.6186 29.8706L15.2919 29.8437ZM2.29291 27.4194C2.5239 27.2572 2.57273 26.9057 2.40754 26.5961C2.32157 26.4351 2.20019 26.409 1.53916 26.409H0.770648V26.9895V27.57H1.42454C1.86027 27.57 2.15011 27.5197 2.29291 27.4194ZM13.5648 29.0869C14.1048 28.4575 14.0987 27.2734 13.5527 26.7259C13.2648 26.4372 13.1844 26.409 12.6481 26.409H12.0596V27.9199V29.4309L12.6998 29.3901C13.2494 29.3549 13.3717 29.3121 13.5648 29.0869ZM33.1901 28.1491C33.1901 28.0951 33.1176 27.7794 33.0291 27.4477C32.9405 27.1159 32.8419 26.8131 32.8099 26.7747C32.7781 26.7363 32.6631 27.052 32.5544 27.4762L32.3568 28.2473H32.7735C33.0026 28.2473 33.1901 28.2031 33.1901 28.1491ZM2.60389 28.7311C2.60389 28.5698 2.51811 28.3548 2.41092 28.2473C2.25229 28.0883 2.08933 28.0538 1.4943 28.0538H0.770648V28.7311V29.4084H1.4943C2.3235 29.4084 2.60389 29.2372 2.60389 28.7311Z" fill="black"/>
<path fill-rule="evenodd" clip-rule="evenodd" d="M1.41556 0.135611C0.846003 0.339277 0.485819 0.681589 0.188545 1.30158C0.00917627 1.67563 0.00290475 2.02268 0.00087853 11.6814C-0.00143715 22.6187 -0.0304797 22.0462 0.558667 22.6687C0.701756 22.8199 0.992566 23.0375 1.20484 23.1525L1.59078 23.3613H16.9321H32.2735L32.6686 23.1493C33.1793 22.8752 33.6355 22.3498 33.7632 21.8884C33.8281 21.6543 33.8646 19.6414 33.8649 16.2845L33.8655 11.046L33.2876 10.9439C32.2333 10.7576 31.5051 10.252 31.0161 9.36682C30.7581 8.8997 30.7297 8.76202 30.7297 7.97755C30.7297 7.26302 30.7697 7.0253 30.9529 6.65251C31.4108 5.7202 32.3443 5.06015 33.3525 4.95585L33.8655 4.90273L33.8649 3.39242C33.8646 2.56179 33.8164 1.70795 33.7576 1.49509C33.6158 0.98162 32.882 0.245813 32.37 0.103586C32.0951 0.0273446 27.6404 -0.00245533 16.8839 0.000157003C4.39854 0.0032531 1.71998 0.0266675 1.41556 0.135611ZM14.7402 4.17476C14.6852 3.40451 14.4987 3.00231 14.0307 2.64432C13.2637 2.05771 12.1135 2.30733 11.5614 3.18033C11.4072 3.42415 11.2499 3.62143 11.212 3.61872C11.174 3.61601 10.8607 3.47456 10.5158 3.30437C9.95944 3.02988 9.79609 2.99496 9.06849 2.99496C8.30026 2.99505 7.283 3.13263 6.10152 3.39629C5.7288 3.47949 5.59497 3.55361 5.59497 3.67697C5.59497 3.77314 5.49636 3.86941 5.3634 3.90279C5.13936 3.9592 4.77397 4.47073 3.8312 6.048C3.63852 6.37028 3.37443 6.69112 3.24437 6.76097C3.1143 6.83083 2.9278 7.03904 2.82996 7.22374C2.73222 7.40844 2.53268 7.62207 2.3868 7.69851C2.11615 7.84016 2.02159 8.12267 2.24467 8.12267C2.3125 8.12267 2.46447 8.05485 2.58237 7.97203C2.87299 7.76798 2.85456 7.93778 2.55565 8.21943C2.26204 8.49595 2.25036 8.66198 2.51425 8.80362C2.96243 9.04415 3.99397 8.36185 4.09577 7.75753C4.14652 7.45624 4.3227 7.23922 5.1467 6.46336L6.13674 5.53105L7.13364 5.32719C8.37687 5.07292 8.48098 5.0765 7.81416 5.35022L7.28348 5.56801L7.07025 6.43414C6.56321 8.49382 6.42234 10.1297 6.70514 10.6735C6.78697 10.8309 6.84959 11.2072 6.84997 11.5443C6.85113 12.5623 7.65631 15.4749 8.01707 15.7662C8.1508 15.874 8.77903 17.4462 8.77903 17.6729C8.77903 17.6905 8.67829 17.6796 8.55508 17.6486C8.24739 17.5711 7.25521 17.815 6.02115 18.2715L4.98653 18.6542L4.62084 18.3593C4.29173 18.0941 4.21097 18.0712 3.81537 18.1307C3.46465 18.1834 3.37578 18.2354 3.37578 18.3875C3.37578 18.4923 3.3094 18.6036 3.22816 18.6349C3.14354 18.6674 3.10224 18.7603 3.13148 18.8525C3.1775 18.9979 2.68089 19.7664 2.28327 20.1651C2.20366 20.245 2.1616 20.3981 2.18967 20.5059C2.21775 20.6135 2.19199 20.7605 2.13246 20.8324C2.00046 20.9919 2.09251 21.5236 2.27902 21.6788C2.38487 21.7668 2.52072 21.714 2.91873 21.4298C3.19661 21.2315 3.64942 20.9163 3.92498 20.7297L4.42594 20.3904L7.1787 20.1798L9.93136 19.9692L10.489 19.5754C10.7956 19.3589 11.1744 19.0004 11.3309 18.779L11.6152 18.3763L11.4942 16.5168C11.4095 15.2175 11.4038 14.6469 11.4751 14.6231C11.536 14.6027 11.5771 14.2611 11.5771 13.7747C11.5771 12.978 11.5822 12.9603 11.8103 12.9603C11.9386 12.9603 12.0579 12.9192 12.0757 12.869C12.095 12.814 12.7425 12.8515 13.6998 12.9627C14.5755 13.0646 15.7094 13.1492 16.2196 13.1508C16.9865 13.1534 17.1883 13.1861 17.3836 13.3402C17.7188 13.6046 18.9131 13.8066 20.9365 13.9411L22.6849 14.0573L22.8254 14.3296C23.0662 14.7965 23.9281 15.0918 24.0581 14.7519C24.0894 14.6702 24.177 14.633 24.2614 14.6655C24.353 14.7007 24.4098 14.6688 24.4098 14.5822C24.4098 14.4297 25.8311 13.3785 25.9774 13.4227C26.0266 13.4375 26.0898 13.3613 26.1179 13.2534C26.1461 13.1454 26.2075 13.0517 26.2544 13.045C26.3012 13.0383 26.3902 13.0275 26.4521 13.0208C26.626 13.0021 26.662 12.4831 26.4938 12.4185C26.4156 12.3883 25.7084 12.4361 24.9224 12.5246L23.4932 12.6856L20.4539 11.5652C18.7823 10.9489 17.3338 10.4447 17.235 10.4447C17.1362 10.4447 16.6585 10.2962 16.1736 10.1147C15.6886 9.93312 14.8577 9.66676 14.327 9.52279C13.7963 9.37872 13.3355 9.2186 13.3029 9.16693C13.2704 9.11536 12.8796 9.02925 12.4345 8.97565C11.9895 8.92205 11.6206 8.87145 11.615 8.86322C11.606 8.85055 11.7821 7.51158 11.9232 6.51899C11.9609 6.25399 11.9956 6.22593 12.241 6.26202C12.3925 6.28437 12.6504 6.23318 12.8139 6.14833C12.9775 6.06348 13.1976 5.99411 13.3031 5.99411C13.4189 5.99411 13.6142 5.82759 13.7956 5.5741C13.9611 5.34306 14.2517 5.07979 14.4415 4.98904L14.7865 4.82407L14.7402 4.17476Z" fill="black"/>
<path d="M35.7 7.93375C35.7 9.00246 34.836 9.86881 33.7703 9.86881C32.7045 9.86881 31.8405 9.00246 31.8405 7.93375C31.8405 6.86505 32.7045 5.99869 33.7703 5.99869C34.836 5.99869 35.7 6.86505 35.7 7.93375Z" fill="black"/>
</svg>
