<svg width="38" height="40" viewBox="0 0 38 40" fill="none" xmlns="http://www.w3.org/2000/svg">
<path fill-rule="evenodd" clip-rule="evenodd" d="M16.583 0.0570922C16.583 0.106841 16.8712 3.00148 17.1454 5.70531C17.2807 7.04045 17.306 7.36675 17.2743 7.36675C17.2626 7.36675 16.6052 6.13947 15.8136 4.63947C14.7051 2.53919 14.361 1.9122 14.3167 1.9122C14.2851 1.9122 13.1493 2.83117 11.7926 3.95436C9.39435 5.93991 9.06291 6.22161 9.09241 6.24935C9.10018 6.25665 9.70608 6.5633 10.4388 6.93076L11.7711 7.59888L11.536 7.62161C11.4067 7.63415 10.3769 7.68951 9.24761 7.74468C8.1183 7.79985 7.18407 7.85418 7.1715 7.86537C7.15896 7.87656 7.66417 8.68236 8.29417 9.65603C8.9242 10.6297 9.49611 11.5156 9.56511 11.6247C9.76369 11.9387 9.71112 11.9338 10.9413 11.7532C11.5184 11.6685 12.0223 11.5991 12.0611 11.5989C12.1293 11.5987 12.1316 11.6085 12.1316 11.8965C12.1316 12.0603 12.1249 12.1943 12.1168 12.1943C12.0797 12.1943 6.06075 13.8966 6.02125 13.9182C5.98793 13.9365 6.00376 13.9566 6.08395 13.9977C6.14291 14.028 6.96705 14.5072 7.91533 15.0627C10.1136 16.3503 9.97887 16.2757 10.0525 16.2466C10.0861 16.2334 10.3844 16.0321 10.7154 15.7993C11.0464 15.5666 11.4969 15.2537 11.7166 15.1041L12.116 14.832L12.1389 14.9473C12.1514 15.0108 12.1539 15.1547 12.1442 15.2672L12.1267 15.4717L10.03 17.1318C8.7873 18.1157 7.94874 18.8001 7.97131 18.812C7.99225 18.8231 8.16454 18.8418 8.3542 18.8535C9.00476 18.8936 12.7429 19.154 13.7911 19.2321C14.9866 19.3213 15.1414 19.3256 15.2091 19.2711C15.236 19.2496 15.3896 19.0697 15.5505 18.8714C15.9562 18.3714 17.244 16.8338 17.257 16.8338C17.2727 16.8338 17.2667 16.8546 16.4379 19.6374C15.9928 21.1319 15.6845 22.2175 15.7007 22.2336C15.7244 22.2573 20.1689 21.6316 24.7857 20.9545C25.4265 20.8606 25.9601 20.7837 25.9714 20.7837C26.0333 20.7837 25.8842 20.5899 24.9786 19.4937C22.8216 16.8828 22.6705 16.694 22.7162 16.6673C22.7402 16.6534 22.8833 16.6393 23.0343 16.636L23.3088 16.6301L24.3858 17.8213C25.7423 19.3217 25.7617 19.3417 25.861 19.3415C25.9433 19.3413 30.8852 16.9837 30.9007 16.9372C30.9055 16.9228 30.4487 16.6503 29.8855 16.3317C29.3223 16.013 28.8333 15.7299 28.7989 15.7026C28.7288 15.647 28.6765 15.7887 30.6189 10.768C31.362 8.84719 31.4691 8.55797 31.4374 8.55797C31.4309 8.55797 30.7488 8.78367 29.9216 9.05954C29.0944 9.3354 28.4017 9.5611 28.3823 9.5611C28.3628 9.5611 28.3018 9.41894 28.2468 9.24521C28.0785 8.71424 27.8207 8.26273 27.4233 7.80292C27.2549 7.608 27.2127 7.5411 27.2455 7.52073C27.2691 7.50603 27.8289 7.20252 28.4895 6.84621C29.1501 6.48991 29.6791 6.18766 29.665 6.17455C29.651 6.16142 29.1457 5.91784 28.5423 5.63327C27.9388 5.34866 26.5782 4.70474 25.5187 4.20233C24.4592 3.69988 23.5634 3.29295 23.5281 3.298C23.4811 3.30471 23.319 3.54659 22.9233 4.2006C22.6259 4.69198 22.0898 5.57148 21.732 6.15502C21.113 7.16462 21.0811 7.21016 21.0728 7.09546C21.0681 7.02916 21.199 6.1285 21.3637 5.09402C21.8094 2.29499 21.7804 2.51825 21.7073 2.44894C21.6383 2.38358 20.2699 1.72411 20.2032 1.72411C20.1768 1.72411 20.1535 1.77493 20.142 1.85734C20.1164 2.04107 19.8746 4.13831 19.7002 5.68963C19.5566 6.96603 19.5416 7.07559 19.5138 7.04775C19.5008 7.03477 19.3732 2.56759 19.3731 2.1212C19.373 2.01371 19.3601 1.94264 19.3418 1.94878C19.3246 1.95452 19.0136 2.17628 18.6507 2.44157C18.2545 2.7312 17.9725 2.95938 17.945 3.01264C17.9079 3.0843 17.8905 3.45117 17.8544 4.92371C17.8299 5.92599 17.8035 6.75236 17.7958 6.76007C17.7654 6.79041 17.7381 6.50374 17.6178 4.88973C17.549 3.96759 17.484 3.1144 17.4734 2.99371C17.4565 2.80142 17.4622 2.76408 17.5194 2.69198C17.5552 2.64668 17.9729 2.32327 18.4475 1.9732C18.922 1.62317 19.3103 1.32731 19.3103 1.31578C19.3103 1.30421 19.0247 1.15935 18.6755 0.993801C16.6325 0.0252112 16.583 0.00311098 16.583 0.0570922ZM20.7711 0.862421L20.2099 1.28443L20.705 1.5207C20.9773 1.65067 21.2044 1.75264 21.2097 1.74734C21.2292 1.72794 21.3676 0.438879 21.3502 0.439631C21.3403 0.44007 21.0797 0.630321 20.7711 0.862421ZM25.2796 7.36612C26.1822 7.59697 27.0505 8.31806 27.4131 9.13791C27.6444 9.66076 27.7466 10.297 27.6848 10.8286C27.5514 11.9765 26.8865 12.9273 25.8859 13.4014C25.4812 13.593 25.1764 13.6671 24.7022 13.6887C24.0766 13.7173 23.5341 13.5845 23.0175 13.2765C22.7205 13.0994 22.3847 12.8076 22.4294 12.7655C22.4467 12.7493 23.2225 12.4783 24.1536 12.1633C25.2514 11.7919 25.8704 11.5672 25.9149 11.5241C25.9726 11.4681 26.255 10.7898 26.2306 10.7658C26.2262 10.7614 25.3056 11.0896 24.1849 11.4951C23.0642 11.9006 22.1059 12.2345 22.0553 12.2369C21.985 12.2403 21.9518 12.2209 21.9143 12.1544C21.8708 12.0773 21.8705 12.064 21.9122 12.0376C21.9381 12.0212 22.998 11.5621 24.2677 11.0174C25.5979 10.4467 26.6032 9.998 26.6399 9.9586C26.7065 9.88715 26.946 9.19264 26.9149 9.16145C26.905 9.15161 26.7663 9.20358 26.6067 9.277C26.4471 9.35038 25.3573 9.8475 24.1849 10.3817C23.0125 10.9158 21.9627 11.3959 21.8521 11.4486C21.6602 11.5398 21.649 11.5416 21.6091 11.4871C21.5397 11.3921 21.5613 11.3201 21.6849 11.2351C21.7496 11.1907 22.6207 10.7114 23.6207 10.1702C24.7359 9.56662 25.4631 9.1549 25.5015 9.10524C25.5678 9.01966 25.8691 8.24107 25.8452 8.21715C25.8375 8.20947 24.8668 8.75556 23.6881 9.43073C22.5094 10.1059 21.5289 10.6583 21.5091 10.6583C21.4439 10.6583 21.4642 10.0151 21.5384 9.73157C21.7886 8.77559 22.3596 8.03502 23.1504 7.64088C23.4328 7.5002 23.7823 7.38421 24.0595 7.33925C24.1802 7.31969 24.3142 7.29775 24.3573 7.29048C24.5139 7.26414 25.0541 7.30844 25.2796 7.36612ZM18.9963 8.30581C19.6739 8.5032 20.1609 8.95979 20.3521 9.57678C20.4375 9.85229 20.442 10.2698 20.3628 10.5642C20.249 10.9874 20.1458 11.1419 18.4686 13.3982C18.1004 13.8935 17.8049 14.3044 17.812 14.3115C17.8242 14.3236 19.2487 14.125 19.3965 14.0905C19.4631 14.0749 19.467 14.0585 19.467 13.796C19.467 13.5764 19.4786 13.5045 19.5219 13.454C19.5925 13.3718 21.3582 12.7743 21.4207 12.8115C21.4442 12.8255 21.548 12.9357 21.6514 13.0564C22.633 14.2025 23.8786 14.6439 25.3134 14.354C26.5213 14.1099 27.4144 13.4463 27.9573 12.3892C28.2484 11.8226 28.4326 11.1455 28.4326 10.6423C28.4326 10.4854 28.4462 10.4039 28.4767 10.3786C28.5234 10.3398 30.0804 9.81189 30.1482 9.81189C30.1701 9.81189 30.1881 9.8259 30.1881 9.84305C30.1881 9.86019 29.8369 10.7806 29.4077 11.8885C28.9785 12.9964 28.5139 14.1977 28.3752 14.5583C28.2365 14.9188 28.0959 15.2409 28.0628 15.274C27.9922 15.3446 27.9451 15.3514 26.489 15.5017C25.9114 15.5613 24.1595 15.7444 22.596 15.9085C21.0324 16.0726 19.6973 16.2069 19.6291 16.2069C19.4863 16.2069 19.4673 16.1781 19.4666 15.9614C19.4659 15.7415 19.4446 15.7236 19.2115 15.7472C19.102 15.7583 18.2915 15.8686 17.4103 15.9922C16.5292 16.1158 15.785 16.2081 15.7567 16.1972C15.711 16.1797 15.7053 16.0933 15.7053 15.4199C15.7053 14.9549 15.7187 14.6175 15.7402 14.5461C15.7609 14.4767 16.3116 13.711 17.1066 12.6459C18.8631 10.2929 18.7233 10.4936 18.7391 10.3016C18.7496 10.1725 18.7392 10.1246 18.686 10.0571C18.5502 9.88518 18.5568 9.88486 16.7772 10.1408C15.8769 10.2702 15.1273 10.3762 15.1115 10.3762C15.0957 10.3762 15.0607 10.3983 15.0335 10.4254C14.9895 10.4695 14.9843 10.7768 14.9843 13.3387C14.9843 15.0138 14.9723 16.2344 14.9554 16.2789C14.9394 16.3208 14.9055 16.3631 14.8799 16.3729C14.7773 16.4123 13.0157 16.6549 12.9673 16.6363C12.9194 16.6179 12.9153 16.3863 12.9153 13.699C12.9153 11.0561 12.9106 10.7799 12.8653 10.7625C12.8377 10.7519 12.2396 10.8248 11.536 10.9244C10.8324 11.024 10.2228 11.0969 10.1813 11.0865C10.124 11.0721 9.92138 10.7837 9.33598 9.88333C8.91247 9.23195 8.55053 8.66907 8.53166 8.63248C8.49793 8.56712 8.50351 8.56552 8.83329 8.54618C9.01805 8.53534 10.199 8.49032 11.4576 8.44609C12.7163 8.40189 14.6207 8.33239 15.6896 8.29167C18.002 8.20355 18.6549 8.20634 18.9963 8.30581ZM12.9134 20.3462C12.5244 20.4048 12.1792 20.6073 11.8287 20.9826C11.4457 21.3927 11.2595 21.8444 11.2311 22.432C11.1836 23.4131 11.5037 23.8601 12.2884 23.9087C12.7795 23.939 13.2285 23.7756 13.5987 23.4317L13.8074 23.2378L13.7262 23.1314C13.6816 23.0729 13.5813 22.9547 13.5034 22.8687L13.3618 22.7122L13.2146 22.8479C12.914 23.1251 12.4712 23.2365 12.2692 23.0858C12.1181 22.9731 12.064 22.87 12.0296 22.6293C11.9246 21.8942 12.4381 21.0879 13.0085 21.0924C13.1907 21.0938 13.2656 21.1275 13.4254 21.2803L13.5436 21.3933L13.8329 21.1039C14.1214 20.8154 14.1221 20.8143 14.0747 20.7298C13.917 20.4486 13.3895 20.2744 12.9134 20.3462ZM9.84323 20.8082C8.9404 21.0553 8.30937 21.9417 8.29859 22.978C8.28956 23.8474 8.63633 24.2867 9.35733 24.3192C9.87341 24.3425 10.327 24.1784 10.6863 23.8384L10.8869 23.6486L10.6891 23.4152C10.5803 23.2868 10.4804 23.1693 10.467 23.154C10.4537 23.1387 10.3614 23.1988 10.262 23.2874C9.84348 23.6604 9.36028 23.6707 9.17435 23.3104C9.09536 23.1574 9.06937 22.7781 9.12091 22.5299C9.20031 22.1473 9.47708 21.7375 9.75015 21.5982C10.0369 21.4519 10.2997 21.4886 10.509 21.7042L10.6349 21.8338L10.913 21.5405C11.066 21.3792 11.1912 21.2342 11.1912 21.2183C11.1912 21.1578 10.8991 20.9011 10.7585 20.8379C10.5541 20.7462 10.1212 20.7321 9.84323 20.8082ZM7.63354 21.1492C7.47852 21.1732 7.33442 21.2101 7.31323 21.2313C7.26978 21.2747 6.85711 24.6114 6.89125 24.6436C6.90276 24.6545 7.0652 24.6415 7.25222 24.6149C7.54197 24.5735 7.5963 24.5567 7.61949 24.501C7.64366 24.443 8.02579 21.2892 8.02526 21.152C8.02501 21.0892 8.02134 21.0892 7.63354 21.1492ZM31.9592 21.818C31.9075 21.8331 31.7735 21.8689 31.6614 21.8977C31.1276 22.0345 30.6795 22.4047 30.427 22.9174C30.0162 23.752 29.9899 24.9286 30.365 25.6947C30.4844 25.9385 30.6863 26.1656 30.8898 26.2848C31.306 26.5286 31.9943 26.5064 32.5176 26.2322C32.6314 26.1726 32.8102 26.033 32.9502 25.8945C33.1448 25.7018 33.2157 25.603 33.3346 25.3583C33.4148 25.1932 33.5177 24.9181 33.5633 24.747C33.6366 24.472 33.6462 24.3772 33.6462 23.9341C33.6462 23.4947 33.6363 23.3957 33.5661 23.1348C33.4005 22.5197 33.254 22.2672 32.936 22.0486C32.6801 21.8728 32.1778 21.7542 31.9592 21.818ZM28.1034 22.3395C27.8359 22.3809 27.3944 22.544 27.1749 22.6826L27.0533 22.7594V23.2933V23.8273L27.1984 23.7165C27.5902 23.4173 28.1165 23.2751 28.341 23.4077C28.5477 23.5298 28.582 23.8816 28.4196 24.2135C28.3334 24.3896 27.6464 25.2599 27.1182 25.862C26.7423 26.2905 26.6771 26.4296 26.6771 26.8018C26.6771 26.9419 26.6915 27.0584 26.7102 27.07C26.7535 27.0968 29.6589 26.6781 29.71 26.6377C29.738 26.6156 29.7492 26.4821 29.7492 26.1707C29.7492 25.8078 29.7411 25.7316 29.7011 25.7162C29.6747 25.7061 29.3426 25.7436 28.9633 25.7997C28.5839 25.8557 28.265 25.893 28.2546 25.8826C28.2346 25.8626 28.2792 25.8053 28.7462 25.2508C29.376 24.5028 29.6065 24.0161 29.6075 23.4319C29.6081 23.139 29.6011 23.1035 29.5042 22.9067C29.3231 22.5388 28.9916 22.354 28.4796 22.3353C28.3244 22.3296 28.1551 22.3315 28.1034 22.3395ZM26.0798 22.685C26.053 22.6922 25.3591 22.7951 24.5376 22.9135C23.7162 23.032 23.0292 23.1382 23.0111 23.1494C22.9605 23.1806 22.9667 24.0415 23.0176 24.061C23.0393 24.0693 23.2838 24.0434 23.5609 24.0034C23.8379 23.9634 24.0811 23.9361 24.1012 23.9428C24.1286 23.952 24.138 24.3895 24.1384 25.6687C24.1386 26.6113 24.1505 27.4009 24.1648 27.4234C24.1861 27.4569 24.2583 27.4554 24.564 27.4151C24.7693 27.388 24.9827 27.3585 25.0381 27.3494C25.2457 27.3155 25.2351 27.4155 25.2351 25.4993C25.2351 24.5436 25.2386 23.7605 25.2429 23.7591C25.2472 23.7576 25.5047 23.7188 25.815 23.6729L26.3793 23.5893L26.388 23.1269L26.3966 22.6646L26.2626 22.6682C26.1888 22.6702 26.1066 22.6777 26.0798 22.685ZM32.148 22.8531C32.26 22.8953 32.4119 23.0792 32.4758 23.2499C32.6051 23.5955 32.6123 24.3686 32.4901 24.7944C32.355 25.2656 32.0233 25.5438 31.7006 25.4565C31.4691 25.3939 31.3336 25.233 31.2336 24.9018C31.1539 24.6379 31.1532 23.8643 31.2324 23.5556C31.3835 22.9664 31.7342 22.6974 32.148 22.8531ZM19.764 23.5254C19.14 23.6691 18.6913 23.9708 18.4791 24.3896C18.3884 24.5687 18.3086 24.8972 18.3077 25.0953C18.3069 25.2902 18.3915 25.5702 18.4981 25.7251C18.6975 26.0149 19.0058 26.1683 19.6865 26.3161C20.1924 26.426 20.3574 26.496 20.4196 26.627C20.4729 26.7394 20.4586 26.8387 20.3712 26.9644C20.1801 27.2388 19.5136 27.2882 18.9882 27.067C18.6508 26.925 18.6929 26.8982 18.4555 27.4063C18.3394 27.6547 18.2445 27.8682 18.2445 27.8807C18.2445 27.9223 18.6322 28.0792 18.8714 28.1345C19.8332 28.3569 21.0794 27.9211 21.3962 27.2515C21.6154 26.7882 21.6207 26.2454 21.4094 25.9122C21.2437 25.6509 20.8954 25.4827 20.1657 25.3119C19.5606 25.1702 19.4357 25.0922 19.4357 24.8558C19.4357 24.4465 20.1146 24.293 20.6705 24.5766C20.7721 24.6284 20.8731 24.6708 20.8949 24.6708C20.934 24.6708 21.406 23.9272 21.4334 23.8225C21.4499 23.7592 21.223 23.6414 20.9247 23.5585C20.6676 23.4871 20.0118 23.4684 19.764 23.5254ZM17.6175 23.9024C17.471 23.9237 17.2711 23.951 17.1734 23.963C17.0757 23.9751 16.9891 24.0024 16.981 24.0236C16.95 24.1043 16.7908 25.6298 16.8086 25.676C16.8251 25.7191 16.8629 25.7199 17.1505 25.6833C17.3283 25.6607 17.4873 25.6287 17.5038 25.6121C17.5279 25.588 17.9275 23.9645 17.9302 23.8793C17.9307 23.8663 17.9204 23.8576 17.9075 23.8597C17.8945 23.8619 17.7641 23.8811 17.6175 23.9024ZM15.6475 24.1842C15.3584 24.2288 15.1878 24.2692 15.1699 24.2976C15.1545 24.3218 15.1418 24.9407 15.1415 25.6728C15.1411 26.8328 15.1352 26.9981 15.0958 26.9581C15.0709 26.9329 14.6685 26.3903 14.2014 25.7523C13.7343 25.1144 13.326 24.5804 13.294 24.5657C13.2376 24.5398 12.386 24.6455 12.3193 24.6867C12.2994 24.699 12.2884 25.5002 12.2884 26.9297C12.2884 29.0405 12.2912 29.1536 12.3441 29.1536C12.5251 29.1536 13.2741 29.0252 13.2962 28.9904C13.3103 28.9681 13.3221 28.3679 13.3224 27.6567C13.3226 26.9237 13.3349 26.3636 13.3507 26.3636C13.366 26.3636 13.7763 26.8997 14.2625 27.5548C15.103 28.6877 15.1512 28.746 15.2456 28.7454C15.4662 28.7438 16.1532 28.6255 16.1791 28.5846C16.1938 28.5614 16.2061 27.5612 16.2064 26.362C16.2069 24.2257 16.2013 24.0897 16.1144 24.1107C16.1049 24.113 15.8948 24.1461 15.6475 24.1842ZM9.85335 25.0118C9.05717 25.1264 8.39417 25.2317 8.38 25.2459C8.3658 25.26 8.35031 26.2547 8.34554 27.4563C8.33868 29.1907 8.34514 29.6514 8.37689 29.6917C8.41341 29.7381 8.54749 29.7238 9.92159 29.5269C10.7492 29.4083 11.458 29.3037 11.4968 29.2945C11.566 29.2781 11.5674 29.2687 11.5674 28.8257C11.5674 28.577 11.556 28.3666 11.5422 28.3581C11.5284 28.3495 11.0523 28.4107 10.4842 28.494C9.76843 28.599 9.43934 28.6356 9.41219 28.6135C9.36598 28.5759 9.35711 27.9106 9.40188 27.8399C9.42128 27.8093 9.70482 27.7565 10.334 27.6665C10.8313 27.5954 11.2559 27.5262 11.2774 27.5128C11.3212 27.4856 11.3356 26.6612 11.2928 26.6347C11.2797 26.6266 10.86 26.6809 10.3602 26.7554C9.86034 26.8298 9.44018 26.8802 9.42655 26.8672C9.38862 26.8313 9.38297 26.1112 9.42022 26.0603C9.44244 26.0299 9.76175 25.9733 10.4527 25.8772C11.0043 25.8006 11.4627 25.7225 11.4746 25.7033C11.4921 25.6749 11.4951 24.9043 11.4781 24.8197C11.4704 24.7817 11.3711 24.7935 9.85335 25.0118ZM7.31971 25.3773C7.30247 25.3839 7.13319 25.4118 6.94354 25.4392C6.75388 25.4667 6.56539 25.5109 6.5247 25.5376C6.47692 25.5688 6.34009 25.8156 6.13899 26.2334C5.42307 27.7207 5.25379 28.0563 5.23116 28.0335C5.21805 28.0202 4.94501 27.5439 4.62439 26.9749C4.30379 26.4059 4.02366 25.9226 4.00191 25.9008C3.97 25.8688 3.87758 25.8734 3.52501 25.9245C3.28451 25.9594 3.05598 25.9951 3.01721 26.0039L2.94667 26.02V28.2608C2.94667 30.374 2.94981 30.5015 3.00153 30.5014C3.15 30.501 3.89959 30.3735 3.93727 30.3422C3.97229 30.3131 3.98197 30.078 3.98862 29.0968L3.99683 27.8872L4.3116 28.4028C4.4847 28.6864 4.67514 29.0013 4.73479 29.1025C4.89473 29.3738 4.9316 29.3909 5.25319 29.3431C5.39946 29.3214 5.54661 29.2805 5.58116 29.2521C5.61561 29.2238 5.82448 28.8488 6.04533 28.4187C6.26617 27.9887 6.46338 27.6313 6.4836 27.6246C6.51125 27.6153 6.52034 27.9073 6.52034 28.8062C6.52034 29.4627 6.5267 30 6.53451 30C6.58065 30 7.4547 29.8693 7.49997 29.8556C7.55153 29.84 7.55482 29.7052 7.55482 27.5998V25.3605L7.45294 25.363C7.39692 25.3643 7.33696 25.3708 7.31971 25.3773ZM35.6739 26.7708C35.4584 26.8033 35.0917 26.8535 34.8589 26.8824C34.6261 26.9113 34.4039 26.9548 34.3652 26.9791L34.2946 27.0234V29.264C34.2946 30.4964 34.3009 31.5047 34.3086 31.5047C34.3443 31.5047 35.1963 31.3778 35.2586 31.3633C35.3291 31.3467 35.3291 31.3464 35.3291 30.6599C35.3291 30.1051 35.3378 29.9645 35.3741 29.9281C35.3988 29.9034 35.5082 29.8733 35.6171 29.8612C35.9172 29.8278 36.3893 29.7201 36.5884 29.6395C37.2267 29.381 37.6161 28.7994 37.6168 28.1034C37.6175 27.4262 37.4076 27.0284 36.9334 26.8084C36.7799 26.7372 36.7081 26.7249 36.4106 26.7187C36.1959 26.7143 35.918 26.7339 35.6739 26.7708ZM32.9536 27.1614C32.7247 27.1994 32.5244 27.2436 32.5086 27.2595C32.4923 27.2759 32.4756 27.9172 32.4701 28.7461C32.4605 30.1701 32.4586 30.2077 32.3903 30.3772C32.3147 30.5646 32.1245 30.7719 31.9435 30.8641C31.8746 30.8993 31.7407 30.9246 31.583 30.9321C31.2925 30.9461 31.1725 30.9003 31.0302 30.721C30.8596 30.5061 30.8464 30.3727 30.8464 28.8649V27.4921L30.7288 27.4935C30.5158 27.496 29.8413 27.6069 29.8027 27.6457C29.7464 27.7024 29.7681 30.5627 29.827 30.8503C29.9354 31.3794 30.2404 31.7303 30.7289 31.888C31.0064 31.9776 31.6086 31.9756 31.9554 31.884C32.9225 31.6283 33.4302 31.0002 33.5111 29.9592C33.5438 29.5394 33.5538 27.2137 33.5233 27.1342C33.5 27.0736 33.4746 27.0748 32.9536 27.1614ZM36.3041 27.7827C36.6193 27.9933 36.5732 28.5205 36.2199 28.7446C36.0704 28.8393 35.7421 28.9276 35.4859 28.9419L35.3448 28.9498V28.3699V27.7899L35.5486 27.7541C35.6606 27.7345 35.8525 27.7168 35.975 27.715C36.1578 27.7122 36.2166 27.7243 36.3041 27.7827ZM27.2923 27.9196C26.2653 28.1399 25.529 28.788 25.2395 29.7264C25.1546 30.0014 25.0977 30.5776 25.1258 30.8771C25.1888 31.5501 25.5193 32.0876 26.0345 32.3553C26.7471 32.7256 27.7881 32.6597 28.6044 32.1926C28.8523 32.0508 29.1874 31.7973 29.2071 31.7367C29.2176 31.7047 28.7174 31.0278 28.6546 30.989C28.6389 30.9793 28.5533 31.0336 28.4644 31.1095C28.1236 31.4004 27.7339 31.5434 27.2712 31.5473C27.0394 31.5493 26.9794 31.5379 26.826 31.4629C26.4396 31.2738 26.2382 30.908 26.2382 30.3951C26.2382 29.7508 26.52 29.2945 27.0769 29.0372C27.277 28.9447 27.3648 28.9229 27.5857 28.9106C27.898 28.8933 28.1017 28.9509 28.3787 29.1347C28.4723 29.1968 28.5566 29.2476 28.5662 29.2476C28.5915 29.2476 29.2163 28.402 29.2163 28.3678C29.2163 28.3288 28.9847 28.1624 28.7979 28.0671C28.4244 27.8765 27.7853 27.8139 27.2923 27.9196ZM21.1912 28.857C21.1653 28.8624 20.807 28.9133 20.3949 28.9702C19.9316 29.0341 19.6293 29.0898 19.6031 29.1161C19.5681 29.1511 19.5621 29.5449 19.5687 31.3739L19.5768 33.5893L19.6596 33.5989C19.7833 33.6132 21.3121 33.3918 21.5873 33.3198C22.4623 33.0906 23.1021 32.4727 23.3856 31.583C23.4822 31.2798 23.5068 30.6545 23.4368 30.2821C23.266 29.3747 22.5629 28.8329 21.5702 28.8437C21.3876 28.8457 21.217 28.8517 21.1912 28.857ZM16.3949 29.5474C16.2656 29.57 16.107 29.5894 16.0423 29.5905C15.9686 29.5917 15.9013 29.6158 15.862 29.6551C15.8005 29.7167 15.7993 29.7593 15.7998 31.8887C15.8001 33.0827 15.8127 34.0791 15.8278 34.1029C15.8507 34.1391 16.1026 34.1112 17.3398 33.9359C18.1564 33.8202 18.8562 33.718 18.8949 33.7088C18.9642 33.6925 18.9655 33.6837 18.9655 33.2254C18.9655 32.8334 18.958 32.7586 18.9189 32.7586C18.8933 32.7586 18.4469 32.8221 17.927 32.8998C17.2091 33.0069 16.9712 33.0323 16.9385 33.0052C16.903 32.9757 16.8957 32.6784 16.8965 31.3045C16.8971 30.3887 16.8973 29.6077 16.8971 29.5689C16.8966 29.5063 16.8816 29.4988 16.7633 29.5024C16.69 29.5045 16.5243 29.5248 16.3949 29.5474ZM21.7628 29.9039C21.9583 29.9977 22.1413 30.1845 22.2448 30.3961C22.3113 30.5321 22.3318 30.6272 22.3438 30.8573C22.3522 31.0186 22.3432 31.2207 22.3235 31.3126C22.2325 31.7367 21.9339 32.1216 21.5554 32.3027C21.345 32.4033 20.9181 32.5078 20.7175 32.5078H20.6269V31.2059C20.6269 30.1932 20.6356 29.9006 20.6661 29.889C20.7713 29.849 21.1092 29.8169 21.3479 29.8244C21.5479 29.8307 21.6514 29.8505 21.7628 29.9039ZM12.6643 30.073C12.1727 30.1464 11.753 30.2172 11.7317 30.2304C11.7013 30.2492 11.6928 30.7422 11.6928 32.4793C11.6928 34.4309 11.6986 34.7064 11.7399 34.7222C11.787 34.7403 12.649 34.6214 12.7002 34.5898C12.715 34.5806 12.7272 34.2593 12.7272 33.8759C12.7272 33.3754 12.7379 33.168 12.7649 33.141C12.7856 33.1203 12.8852 33.1034 12.9866 33.1034C13.1678 33.1034 13.1737 33.1063 13.3585 33.2825C13.581 33.4947 13.7981 33.7828 13.9795 34.1066C14.0519 34.2359 14.1222 34.353 14.1356 34.3668C14.149 34.3806 14.3771 34.3625 14.6427 34.3264C15.2995 34.2373 15.2978 34.2377 15.2978 34.166C15.2978 33.993 14.8179 33.2273 14.4951 32.8851L14.2818 32.6589L14.4211 32.5442C14.6566 32.3503 14.7928 32.1878 14.9042 31.9675C15.0465 31.6862 15.0894 31.4612 15.0704 31.0973C15.0495 30.6979 14.9646 30.475 14.7526 30.263C14.3932 29.9036 14.0245 29.87 12.6643 30.073ZM8.83426 30.5646C7.96238 30.7028 7.25692 31.1586 6.85602 31.8426C6.59241 32.2924 6.47931 32.7146 6.48053 33.2445C6.48197 33.89 6.64611 34.3328 7.02385 34.7106C7.46959 35.1563 8.15473 35.3467 8.86661 35.2225C9.20357 35.1637 9.63181 35.0113 9.89539 34.8563C10.1601 34.7007 10.5825 34.2648 10.7588 33.9653C10.84 33.8275 10.9515 33.5807 11.0065 33.4169C11.093 33.1596 11.1086 33.0633 11.1215 32.709C11.1486 31.9591 10.9933 31.4893 10.5827 31.0789C10.3419 30.8383 10.0926 30.6957 9.76486 30.6111C9.52965 30.5504 9.06909 30.5273 8.83426 30.5646ZM13.7542 31.003C13.9051 31.095 13.9809 31.2395 13.981 31.4354C13.9812 31.7091 13.8196 31.946 13.5581 32.0552C13.4371 32.1058 12.9741 32.194 12.8284 32.1942L12.7572 32.1943L12.7657 31.6066L12.7743 31.0188L13.025 30.9835C13.4329 30.9262 13.6373 30.9317 13.7542 31.003ZM5.68238 31.0779C5.43702 31.1154 5.2231 31.1598 5.20699 31.1765C5.19087 31.1932 5.01379 31.8339 4.81348 32.6003C4.61316 33.3667 4.44269 34.0003 4.43464 34.0083C4.42661 34.0164 4.41426 34.0171 4.40724 34.0099C4.40018 34.0027 4.27235 33.5172 4.12319 32.931C3.97401 32.3448 3.82304 31.7559 3.78771 31.6222L3.72351 31.3793L3.60937 31.38C3.42479 31.3812 2.69006 31.498 2.65655 31.5315C2.63962 31.5484 2.55147 31.8702 2.46066 32.2466C2.36984 32.623 2.21432 33.2678 2.11511 33.6794C2.00761 34.1252 1.92495 34.4104 1.91062 34.3847C1.89736 34.361 1.72946 33.7715 1.53749 33.0747C1.34551 32.3779 1.18116 31.796 1.17229 31.7816C1.14714 31.7409 0.963257 31.7534 0.470185 31.8293C0.0623794 31.8921 0.0167054 31.9054 0.0260785 31.9581C0.0526929 32.1081 1.39 36.1335 1.42555 36.1707C1.45934 36.206 1.53392 36.2036 1.88417 36.1558C2.1558 36.1188 2.31918 36.0819 2.35025 36.0505C2.37655 36.024 2.57263 35.3324 2.78595 34.5136C2.99928 33.6949 3.17915 33.0192 3.18564 33.012C3.19213 33.0048 3.20335 33.0048 3.21056 33.012C3.21774 33.0192 3.3868 33.6451 3.5862 34.4028C3.78561 35.1604 3.96696 35.7986 3.98918 35.8208C4.02219 35.8538 4.10689 35.8499 4.45044 35.7995C4.68191 35.7655 4.88928 35.7197 4.91128 35.6977C4.94163 35.6673 6.33225 31.0872 6.33225 31.0176C6.33225 30.9907 6.13034 31.0095 5.68238 31.0779ZM9.33482 31.6158C9.71517 31.774 9.92203 32.0671 10.0006 32.5589C10.1095 33.2407 9.65106 33.9727 8.98918 34.1737C8.32385 34.3758 7.72793 33.9983 7.61711 33.3046C7.50288 32.5895 7.91576 31.8616 8.56696 31.6301C8.77579 31.5558 9.17282 31.5485 9.33482 31.6158ZM24.6356 33.9909C24.5205 34.0301 24.353 34.1205 24.2595 34.194C23.9384 34.4461 23.6843 34.6732 23.6458 34.7424C23.6196 34.7895 23.6068 34.982 23.6061 35.3399L23.605 35.8679L23.8636 35.6375C24.0059 35.5108 24.1559 35.3789 24.1971 35.3446L24.2721 35.2821L24.2551 36.8261C24.2458 37.6753 24.2491 38.3768 24.2625 38.3851C24.2759 38.3933 24.4967 38.3712 24.7531 38.3358C25.0894 38.2894 25.2303 38.2573 25.2586 38.2207C25.2891 38.1811 25.2978 37.6967 25.2978 36.0441V33.9185L25.0705 33.9193C24.9186 33.9198 24.7744 33.9435 24.6356 33.9909ZM21.536 34.3575C21.1133 34.424 20.516 34.6886 20.2298 34.936L20.1181 35.0325L20.3443 35.4003C20.4687 35.6025 20.5784 35.768 20.588 35.768C20.5976 35.768 20.6778 35.7122 20.7663 35.6439C21.1106 35.3783 21.5591 35.2584 21.7804 35.3729C21.9838 35.478 22.0291 35.7424 21.8982 36.0606C21.797 36.3066 21.7727 36.3393 20.91 37.3824L20.1582 38.2915L20.1575 38.6138C20.1569 38.8608 20.1669 38.94 20.2003 38.9529C20.2368 38.9668 22.7507 38.6217 22.9702 38.5725C23.0394 38.5571 23.0407 38.548 23.0407 38.1028C23.0407 37.6531 23.0401 37.6489 22.9702 37.6484C22.9314 37.6482 22.6349 37.6855 22.3112 37.7314C21.9876 37.7772 21.7152 37.8072 21.7059 37.7978C21.6965 37.7885 21.886 37.5513 22.1268 37.2706C22.6036 36.7148 22.8098 36.4045 22.9403 36.0468C23.0144 35.8434 23.0248 35.769 23.0249 35.4388C23.025 35.1092 23.0158 35.0422 22.9502 34.8969C22.8494 34.6739 22.6458 34.4988 22.3986 34.4225C22.1641 34.35 21.7711 34.3204 21.536 34.3575ZM18.1348 34.8594C17.4416 34.9536 16.8339 35.4968 16.5815 36.2482C16.4537 36.6284 16.4165 36.9481 16.434 37.5165C16.4461 37.9104 16.4632 38.0535 16.5192 38.2288C16.7432 38.9306 17.0949 39.2562 17.7313 39.3511C18.1565 39.4145 18.7623 39.2201 19.1286 38.9028C19.4492 38.6251 19.7273 38.0813 19.8502 37.4921C19.9839 36.8507 19.8602 35.9196 19.5769 35.4362C19.535 35.3647 19.4215 35.2338 19.3248 35.1454C19.1876 35.02 19.103 34.9713 18.9397 34.9238C18.6837 34.8493 18.385 34.8255 18.1348 34.8594ZM14.262 35.4214C14.1148 35.4524 13.8848 35.5285 13.7508 35.5904C13.4744 35.7181 13.0753 35.9739 13.0502 36.0394C13.0351 36.0786 13.368 36.6663 13.4601 36.7632C13.4895 36.794 13.5332 36.775 13.6687 36.6724C14.0163 36.4092 14.4296 36.2824 14.6452 36.3729C14.8862 36.474 14.94 36.7991 14.7742 37.1521C14.6792 37.3542 14.5448 37.5276 13.5768 38.6972L13.0335 39.3536L13.0557 39.669C13.0679 39.8424 13.082 39.9885 13.087 39.9937C13.1033 40.0106 15.813 39.6205 15.8864 39.5907C15.9566 39.5621 15.9576 39.5542 15.9491 39.1147L15.9404 38.6677L15.8464 38.6705C15.7532 38.6732 14.8603 38.7954 14.6943 38.8281C14.6469 38.8374 14.6081 38.8317 14.6081 38.8154C14.6081 38.7991 14.7986 38.5636 15.0314 38.292C15.5211 37.7208 15.7102 37.4338 15.8338 37.075C16.0125 36.5556 15.9828 36.0794 15.7518 35.7621C15.4949 35.4093 14.9307 35.2803 14.262 35.4214ZM18.4925 35.8862C18.7043 36.0429 18.8047 36.3202 18.8299 36.8182C18.8631 37.4727 18.6946 38.0572 18.4167 38.2518C18.2504 38.3682 18.0202 38.3955 17.869 38.3169C17.6329 38.194 17.4921 37.7688 17.4921 37.1787C17.4921 36.2995 17.8035 35.7662 18.2888 35.814C18.3563 35.8207 18.448 35.8531 18.4925 35.8862Z" fill="black"/>
</svg>
