<svg width="37" height="28" viewBox="0 0 37 28" fill="none" xmlns="http://www.w3.org/2000/svg">
<path fill-rule="evenodd" clip-rule="evenodd" d="M27.1109 0.235165C26.8322 0.373077 26.5133 0.654506 26.3417 0.913847C26.081 1.30769 26.0483 1.46297 26.0465 2.31198C26.0452 2.95407 25.9954 3.32615 25.8948 3.44747C25.6122 3.78791 24.6579 3.97165 23.3643 3.93484C22.0988 3.89879 21.9705 3.95264 22.8279 4.16022C23.594 4.3456 24.459 4.31209 25.242 4.0667C25.6251 3.94659 25.9501 3.84769 25.9642 3.84692C26.0339 3.84308 25.5023 4.70264 25.296 4.92736C25.166 5.06912 24.837 5.31242 24.565 5.46791C24.293 5.62352 23.9771 5.82901 23.863 5.92451C23.616 6.13143 23.3112 6.8067 23.4197 6.90681C23.4618 6.9456 23.5184 6.91528 23.5454 6.83934C23.5726 6.76352 23.9243 6.50407 24.3271 6.26297C24.7299 6.02176 25.2977 5.60846 25.5889 5.34451C26.0622 4.91538 26.1272 4.79956 26.2015 4.2522C26.2471 3.91549 26.3501 3.56088 26.4304 3.46429C26.5391 3.33308 26.5466 3.22681 26.4596 3.04506C26.223 2.55033 26.2111 2.37077 26.3777 1.79791C26.5706 1.13429 27.2501 0.329011 27.6171 0.329011C27.8058 0.329011 27.8678 0.433956 27.9701 0.926594C28.0384 1.25528 28.2042 1.68802 28.3387 1.88813C28.5396 2.18714 28.6708 2.26187 29.0741 2.30703C29.4063 2.34418 29.5171 2.39286 29.4168 2.45747C29.2478 2.56659 28.6309 3.50835 28.6309 3.65736C28.6309 3.71165 28.8874 3.52538 29.2009 3.24341C30.0289 2.49901 30.2998 2.3856 31.125 2.43813C31.8209 2.48253 31.8319 2.48835 32.5089 3.17549L33.1913 3.86813L32.8067 3.81429C32.5479 3.77802 32.3503 3.81934 32.2023 3.94033C31.9859 4.11747 31.9856 4.11659 32.184 3.88176C32.38 3.64956 32.3795 3.64 32.1638 3.52462C31.8527 3.35813 31.3791 3.37813 31.0043 3.57352C30.829 3.66506 30.5818 3.71165 30.4549 3.67714C30.2254 3.61462 30.2253 3.61517 30.4441 3.79725C31.0275 4.28275 31.5538 4.40934 32.8412 4.37396L34.0783 4.34L34.8185 4.82154C35.6388 5.35506 36.1318 5.87 36.0799 6.13912C36.0131 6.48637 35.2766 6.42527 34.8919 6.04055C34.7726 5.92121 34.6749 5.87791 34.6749 5.9444C34.6749 6.0911 35.3289 6.75736 35.5416 6.82736C35.666 6.86824 35.654 6.9678 35.4771 7.36703C35.1762 8.0456 34.9931 8.17088 34.3999 8.10407C33.8771 8.04506 33.0934 7.55033 33.1652 7.32451C33.1875 7.2544 33.4654 7.05626 33.7828 6.88407C34.1002 6.71176 34.3342 6.54506 34.3027 6.51352C34.2711 6.48198 33.9689 6.6122 33.6312 6.80275C33.0593 7.12561 32.8067 7.16121 32.8067 6.91901C32.8067 6.86385 33.0823 6.73857 33.4193 6.64055C33.7562 6.54264 34.0071 6.4378 33.9768 6.40758C33.9466 6.37736 33.6339 6.44154 33.2819 6.55022C32.9299 6.6589 32.516 6.73582 32.362 6.72121C31.9453 6.68154 31.3691 7.12802 30.963 7.80527C30.5165 8.54989 30.3607 9.09242 30.3459 9.95495C30.3264 11.0758 30.6971 11.2529 31.7129 10.6078C32.4145 10.1623 33.2813 9.94549 33.8132 10.0824C34.1376 10.1659 34.1844 10.2248 34.2149 10.5886C34.2338 10.8149 34.144 11.3165 34.0154 11.7031C33.7933 12.3703 33.7679 12.4009 33.5162 12.3052C33.149 12.1656 32.6643 12.1488 31.7556 12.244L30.9791 12.3253L30.3545 11.6505C29.7293 10.9753 29.6001 10.9127 29.8946 11.4279C30.1055 11.7968 30.0976 11.8569 29.847 11.7913C29.5593 11.716 28.8902 11.9438 28.3562 12.2988C27.6464 12.7706 27.6572 12.7667 27.7207 12.5238C27.7619 12.3664 27.6649 12.1899 27.3908 11.9237C27.1773 11.7164 26.8374 11.3163 26.6354 11.0347C26.3954 10.7001 26.2564 10.5819 26.2342 10.6932C26.1912 10.9077 26.4707 11.4545 26.9334 12.0615C27.1419 12.3349 27.2691 12.6127 27.239 12.7281C27.205 12.8585 27.2719 12.9638 27.4349 13.0366C27.6412 13.1286 27.7844 13.0776 28.2941 12.7302C28.9775 12.2644 29.8712 11.9762 30.1065 12.1456C30.1878 12.2042 30.4259 12.3886 30.6356 12.5553C30.9976 12.8432 31.0357 12.8507 31.3898 12.7034C32.0386 12.4335 32.9333 12.3751 33.404 12.5716C33.9524 12.8009 33.9692 12.7978 34.1052 12.4444C34.4546 11.5367 34.5046 9.79242 34.1901 9.47791C34.0479 9.33571 33.9775 9.58363 34.103 9.78451C34.1835 9.91352 34.1929 9.99934 34.1263 9.99934C34.0654 9.99934 34.0155 9.95451 34.0155 9.89978C34.0155 9.84495 33.9146 9.82648 33.7915 9.85868C33.6166 9.90451 33.5388 9.84165 33.4373 9.57275C33.2865 9.17319 33.0963 9.17791 33.0479 9.5822C33.0195 9.82099 32.9091 9.89703 32.3039 10.0957C31.393 10.3948 31.2029 10.3892 30.9854 10.0573C30.8477 9.84714 30.825 9.65374 30.8851 9.2056C31.1328 7.3611 32.2013 6.73626 33.2283 7.83571C33.4412 8.06374 33.464 8.14956 33.3617 8.34066C33.2575 8.53539 33.2696 8.57077 33.4403 8.57077C33.5511 8.57077 33.693 8.51967 33.7554 8.45725C33.9113 8.30132 34.2353 8.44286 34.1617 8.63484C34.0844 8.83604 34.1198 8.8322 34.7206 8.57473C35.0884 8.41703 35.3131 8.21868 35.5539 7.8389C35.7353 7.55297 35.8837 7.26945 35.8837 7.20901C35.8837 7.14857 36.0119 6.91407 36.1686 6.68791C36.7074 5.91044 36.3545 5.38956 34.531 4.27055C33.9151 3.89264 33.161 3.34747 32.8554 3.05923C32.074 2.32209 31.5133 2.09264 30.487 2.08967C30.027 2.08835 29.4245 2.05626 29.1483 2.01835C28.6732 1.9533 28.6335 1.92066 28.4163 1.41549C28.2899 1.12176 28.1753 0.683297 28.1615 0.440989C28.1393 0.0512091 28.1048 0.000439903 27.8617 3.42073e-07C27.7106 -0.000219438 27.3728 0.105495 27.1109 0.235165ZM27.532 1.27407C27.532 1.82736 27.5697 1.92714 27.9056 2.26308C28.2806 2.63802 28.8615 2.77604 29.0155 2.52681C29.0541 2.46451 28.9617 2.41692 28.8022 2.41692C28.4011 2.41692 28.1502 2.11418 27.908 1.33791C27.7919 0.965385 27.6598 0.66011 27.6144 0.659671C27.569 0.659121 27.532 0.935605 27.532 1.27407ZM26.4338 2.60923C26.4342 2.65462 26.5062 2.82912 26.5939 2.99725C26.6816 3.16527 26.7248 3.37714 26.6899 3.46791C26.6361 3.60835 26.6696 3.61341 26.9144 3.50187C27.24 3.35352 27.2793 3.23923 27.0365 3.14604C26.9454 3.1111 26.8138 2.95747 26.7442 2.80462C26.6261 2.54538 26.4322 2.42341 26.4338 2.60923ZM31.1062 2.60857C30.9868 2.63813 30.7157 2.78022 30.5038 2.92429C30.2918 3.06824 30.0186 3.18769 29.8966 3.18945C29.6902 3.19264 29.6885 3.20077 29.8713 3.30714C30.1267 3.45582 30.6321 3.34088 31.0016 3.05033C31.1627 2.92363 31.4386 2.81989 31.6148 2.81989C31.7908 2.81989 31.8962 2.78418 31.8488 2.74066C31.713 2.6156 31.3433 2.54989 31.1062 2.60857ZM27.6397 2.91407C27.4309 3.16571 27.5784 3.22363 28.0466 3.07396C28.67 2.87462 28.7405 2.74659 28.2267 2.74659C27.9594 2.74659 27.7227 2.81418 27.6397 2.91407ZM31.543 3.07626C31.3462 3.16088 31.3539 3.17154 31.6164 3.17846C31.7777 3.18264 32.0002 3.21495 32.1109 3.25011C32.2951 3.30857 32.2941 3.29923 32.0989 3.14022C31.8601 2.9456 31.8497 2.9444 31.543 3.07626ZM27.8588 3.74088C27.7927 3.86462 27.6191 4.01121 27.4734 4.06659C27.1952 4.17242 27.187 4.19615 26.9817 5.4655C26.9082 5.92055 26.7493 6.41473 26.6108 6.61934C26.1968 7.23143 26.1602 7.32044 26.4143 7.09758C26.7616 6.79297 27.1775 5.84593 27.2665 5.15725C27.3257 4.69857 27.4294 4.46396 27.7126 4.14736C27.9154 3.92055 28.0815 3.68571 28.0815 3.62539C28.0815 3.45 27.9888 3.49802 27.8588 3.74088ZM31.7598 3.63055C31.7208 3.69363 31.7497 3.81846 31.8239 3.90791C32.0078 4.12956 31.8872 4.22 31.6074 4.07033C31.27 3.88978 31.3175 3.51582 31.6777 3.51582C31.7618 3.51582 31.7988 3.56747 31.7598 3.63055ZM29.144 3.76308C28.9867 3.8778 29.0556 3.89429 29.5628 3.86275C29.8966 3.84209 30.142 3.78022 30.1082 3.72539C30.0174 3.57857 29.3618 3.60418 29.144 3.76308ZM26.6312 4.36846C26.1704 5.08407 25.8812 5.72418 25.8888 6.01231C25.8917 6.12 25.982 5.98308 26.0897 5.70791C26.1974 5.43286 26.4918 4.90396 26.7439 4.53264C26.9961 4.16132 27.2023 3.83011 27.2023 3.79659C27.2023 3.60011 26.9874 3.81538 26.6312 4.36846ZM29.0155 4.23681L28.4661 4.50484L28.8917 4.44231C29.1257 4.40802 29.4042 4.3256 29.5105 4.25923C29.663 4.16407 29.7679 4.18923 30.0088 4.37868C30.3248 4.62714 31.4586 5.01044 31.5645 4.90462C31.5976 4.87143 31.3994 4.78769 31.124 4.71835C30.8487 4.64901 30.4629 4.44901 30.2667 4.27385C29.8399 3.89275 29.7278 3.88945 29.0155 4.23681ZM32.5713 4.69407C32.2945 4.72341 32.0262 4.87022 31.7015 5.17011C31.1539 5.6756 31.3578 5.76033 31.9492 5.27297C32.1698 5.0911 32.5035 4.91165 32.6907 4.87418C32.8779 4.8367 33.0577 4.76308 33.0902 4.71044C33.1228 4.6578 33.1094 4.62308 33.0605 4.63319C33.0116 4.64341 32.7915 4.67077 32.5713 4.69407ZM33.4978 4.82C33.3897 4.93286 33.1529 5.10396 32.9716 5.20022L32.6419 5.37516L32.9226 5.37956C33.1028 5.38242 33.3365 5.24637 33.576 4.99934C33.781 4.7878 33.8916 4.61473 33.8216 4.61473C33.7517 4.61473 33.606 4.70714 33.4978 4.82ZM27.9977 5.24659C27.6797 5.5211 26.1034 8.03517 26.1034 8.26791C26.1034 8.32176 26.2023 8.3344 26.3232 8.29604C26.4441 8.25769 26.543 8.25659 26.543 8.29363C26.543 8.33066 26.2941 8.72967 25.9899 9.18044C25.6857 9.63121 25.4045 10.0864 25.365 10.192C25.2998 10.3658 25.3121 10.3684 25.4953 10.2191C25.6338 10.1063 25.9438 10.0553 26.4775 10.0573C27.379 10.0607 28.1376 10.3486 28.7133 10.9056C28.9742 11.158 29.0705 11.2032 29.0705 11.0729C29.0705 10.7643 28.3099 10.2511 27.4137 9.95484C26.939 9.79802 26.4748 9.66967 26.382 9.66967C26.2893 9.66967 26.2133 9.64044 26.2133 9.60472C26.2133 9.56901 26.4359 9.1089 26.7078 8.58231C26.9798 8.05572 27.2023 7.59385 27.2023 7.55604C27.2023 7.51813 27.102 7.47132 26.9795 7.45209C26.7743 7.41967 26.7966 7.34989 27.2599 6.57286C27.5367 6.10868 27.9586 5.55231 28.1974 5.33659C28.7024 4.88033 28.5183 4.79736 27.9977 5.24659ZM28.9311 5.14659C28.7412 5.22165 27.9201 6.46802 28.0048 6.55275C28.0284 6.57626 28.251 6.30572 28.4995 5.95143C28.8817 5.40648 29.024 5.28978 29.423 5.19396L29.8946 5.08066L29.51 5.07517C29.2985 5.0722 29.038 5.10429 28.9311 5.14659ZM25.4562 5.66176C25.0276 6.14978 24.754 6.68956 24.5162 7.5156C24.2544 8.42495 23.733 8.90209 23.1089 8.80352C23.0637 8.79637 23.0265 8.83429 23.0265 8.88758C23.0265 8.99824 23.404 9.11648 23.7644 9.11868C24.0487 9.12044 24.7427 8.54692 24.8444 8.22604C24.8831 8.10429 24.9384 8.02846 24.9673 8.05736C25.0542 8.14418 24.5675 9.01626 24.3952 9.08242C24.3073 9.11615 24.2353 9.19714 24.2353 9.26242C24.2353 9.32769 24.3901 9.23582 24.5793 9.05835C25.0909 8.57824 25.3487 7.90495 25.4129 6.88088C25.4493 6.30066 25.5401 5.86341 25.6726 5.63121C25.9343 5.17231 25.879 5.18011 25.4562 5.66176ZM29.4578 5.83495C29.0967 6.01769 28.7383 6.21956 28.6611 6.28363C28.4948 6.42176 28.4746 6.88077 28.6309 6.97736C28.8395 7.10626 28.7398 7.35681 28.4126 7.52604C27.9513 7.76462 27.3122 8.34473 27.3122 8.52495C27.3122 8.60813 27.5074 8.77582 27.7461 8.89747C27.9846 9.01923 28.3255 9.32934 28.5035 9.58659C28.8075 10.0257 29.4001 10.6516 29.4001 10.5335C29.4001 10.2493 28.7554 9.27374 28.3102 8.88429L27.7565 8.39989L28.3707 7.90967L28.985 7.41956L28.9224 6.89176C28.8666 6.42044 28.886 6.35341 29.1026 6.26539C29.4275 6.13341 30.3633 5.49374 30.2243 5.49868C30.1639 5.50088 29.8189 5.6522 29.4578 5.83495ZM22.3122 5.82297C22.1913 5.87495 21.5732 6.07264 20.9386 6.26231C20.304 6.45198 19.4651 6.71033 19.0744 6.83648L18.3641 7.06593L18.9424 7.2856C19.3321 7.43374 19.502 7.55407 19.4634 7.65451C19.4319 7.73659 19.3527 8.13703 19.2873 8.5444C19.2219 8.95176 19.1235 9.50758 19.0687 9.77956C19.0139 10.0515 18.8667 10.8427 18.7418 11.5378C17.9727 15.8143 17.9996 15.7159 17.4385 16.303C17.1575 16.5969 17.0265 16.7846 17.1474 16.72C17.2683 16.6554 17.9359 16.4059 18.6309 16.1656C19.326 15.9252 20.4633 15.524 21.1584 15.274C21.8534 15.024 22.8177 14.6804 23.3012 14.5104C24.8451 13.9678 24.761 14.026 24.8456 13.439C24.8875 13.1488 25.0079 12.4993 25.1132 11.9957L25.3046 11.08L24.7426 11.6229C24.236 12.1121 24.0319 12.2162 22.6788 12.6759C21.8529 12.9566 21.1172 13.1862 21.0438 13.1862C20.9156 13.1862 20.9393 12.6834 21.1057 11.8675C21.1365 11.7164 21.208 11.296 21.2646 10.9334C21.3538 10.3627 21.5195 9.35824 21.6454 8.62571C21.6662 8.50484 21.7451 8.02176 21.8208 7.55231C21.9404 6.81066 22.0153 6.63396 22.3919 6.20615C22.8077 5.73374 22.7841 5.62011 22.3122 5.82297ZM31.3721 5.88572C31.1435 6.16121 30.6505 6.37297 30.2376 6.37297C29.6978 6.37297 29.5107 6.60703 29.5065 7.28736C29.5045 7.61253 29.4339 7.94791 29.3417 8.06978C29.253 8.18714 29.1871 8.4344 29.1953 8.61923C29.2068 8.87857 29.2211 8.89879 29.2579 8.70791C29.2842 8.57176 29.3988 8.41055 29.5127 8.34956C29.6783 8.26099 29.7263 8.09044 29.7523 7.50044C29.7838 6.78528 29.7951 6.75901 30.1144 6.66604C30.9223 6.43066 31.42 6.18978 31.5712 5.96088C31.7555 5.68209 31.5922 5.62044 31.3721 5.88572ZM32.556 6.32209C31.6684 6.49857 31.3439 6.59517 31.4113 6.66253C31.4562 6.70747 33.5857 6.31484 33.8507 6.21286C34.1109 6.11264 33.2388 6.18626 32.556 6.32209ZM21.1584 6.45868C21.1584 6.50582 20.9773 6.71528 20.7559 6.92407C20.5345 7.13286 20.2335 7.57637 20.0872 7.90978C19.5735 9.07945 19.353 9.54923 19.3288 9.52516C19.3155 9.51176 19.3928 9.04176 19.5006 8.48055L19.6965 7.46033L19.3835 7.29846C19.2113 7.20945 19.0705 7.09582 19.0705 7.04593C19.0705 6.99615 19.4785 6.82879 19.9771 6.67407C20.9746 6.36462 21.1584 6.3311 21.1584 6.45868ZM9.97541 7.36264C9.96761 8.1422 9.40981 9.44022 8.83607 10.014L8.60926 10.2408L8.86728 10.1625C9.39904 10.0011 9.83113 9.64681 10.0517 9.19132C10.3127 8.65209 10.3452 7.80912 10.1243 7.30703L9.97926 6.97736L9.97541 7.36264ZM15.3891 8.07231C14.5818 8.27626 12.676 8.90187 11.6621 9.29571C11.4838 9.36506 11.5259 9.41319 11.9368 9.61044C12.2198 9.74626 12.4121 9.91011 12.398 10.0037C12.3849 10.092 12.1035 11.5241 11.7729 13.1862C11.4422 14.8482 11.1145 16.5048 11.0446 16.8675C10.9746 17.2301 10.8794 17.7123 10.8329 17.9389C10.7366 18.4078 10.8979 18.5121 11.0029 18.0488C11.1846 17.246 11.2589 17.0905 11.1997 17.6367C11.1374 18.2104 10.9145 18.5002 9.94959 19.2624C9.63618 19.5099 9.61585 19.5471 9.8397 19.4634C11.1618 18.9687 13.6375 17.9978 13.779 17.9186C13.9284 17.8349 13.9094 17.7986 13.656 17.6831C13.3299 17.5345 13.313 17.4448 13.471 16.7026C13.5288 16.4307 13.6465 15.8373 13.7323 15.384C13.8182 14.9307 13.918 14.4856 13.9544 14.3949C13.9907 14.3043 14.3821 14.0944 14.8243 13.9284C16.3542 13.3543 17.5348 12.3803 18.0928 11.2319C18.2975 10.8107 18.3457 10.5246 18.3505 9.70451C18.3559 8.74539 18.3409 8.67945 18.0485 8.37407C17.7327 8.04429 17.1042 7.79341 16.6401 7.81198C16.4961 7.8178 15.9331 7.93495 15.3891 8.07231ZM14.6474 8.57956C14.5416 8.64121 14.4551 8.75758 14.4551 8.83835C14.4551 8.91901 14.3439 9.05846 14.2078 9.14835C13.4865 9.62462 12.9978 10.3732 12.8632 11.2081C12.8194 11.4801 12.6928 11.8015 12.582 11.9225C12.4711 12.0434 12.3311 12.2659 12.2708 12.417C12.0833 12.8874 12.1317 12.3707 12.4013 11.0248L12.6472 9.79758L12.3423 9.61758C12.1746 9.51846 12.0375 9.39901 12.0375 9.35187C12.0375 9.30484 12.5939 9.08868 13.2738 8.87154C14.5408 8.46681 15.0133 8.36637 14.6474 8.57956ZM25.3357 8.68099C24.9322 9.44385 23.828 10.3924 22.9559 10.7255C22.3675 10.9502 22.3322 11.2106 22.8472 11.5288C23.491 11.9267 24.1599 11.7858 24.9887 11.0779C25.4145 10.7142 25.4428 10.5681 25.032 10.8542C24.7343 11.0615 24.0911 11.318 23.869 11.318C23.8064 11.318 23.9833 11.09 24.262 10.8113C24.7659 10.3075 25.6084 8.7889 25.5242 8.53648C25.5004 8.46495 25.4156 8.53 25.3357 8.68099ZM33.3562 9.78604C33.3562 9.84297 33.3067 9.88945 33.2463 9.88945C33.1859 9.88945 33.1364 9.81231 33.1364 9.71813C33.1364 9.62396 33.1859 9.57736 33.2463 9.61473C33.3067 9.65209 33.3562 9.72912 33.3562 9.78604ZM9.44266 10.2832C9.31497 10.3725 8.94409 10.4737 8.61849 10.5081C8.04124 10.569 4.23442 11.8359 4.23618 11.9666C4.23662 12.0027 4.43827 12.1473 4.68431 12.2878C5.01464 12.4765 5.1131 12.5914 5.06058 12.7274C5.02157 12.8286 4.86354 13.4801 4.70959 14.1752C4.55552 14.8702 4.35761 15.7603 4.26959 16.1532C4.18168 16.546 4.09332 16.9416 4.07321 17.0323C4.03662 17.1977 3.70497 18.6025 3.41157 19.8345C3.32519 20.1971 3.22761 20.6669 3.19464 20.8785C3.14882 21.1727 2.9608 21.4274 2.39387 21.9629C1.98629 22.3477 1.70233 22.6376 1.76277 22.6071C1.82321 22.5766 2.96058 22.1246 4.29025 21.6026C5.61992 21.0805 7.07146 20.4751 7.51596 20.257C8.54761 19.7509 9.57838 18.7942 10.069 17.8874C10.4071 17.2626 10.4426 17.1115 10.4433 16.2947C10.4442 15.2518 10.3489 15.0935 9.64552 14.9698L9.1886 14.8895L9.68794 14.34C10.8232 13.0907 11.2813 12.0627 11.11 11.1495C10.9515 10.3042 10.0684 9.84539 9.44266 10.2832ZM15.9024 10.2911C16.4082 10.7487 15.9337 11.548 14.8122 12.128C14.3896 12.3466 14.3923 12.3603 14.6199 11.171C14.7106 10.6973 14.7848 10.2927 14.7848 10.2721C14.7848 10.2289 15.179 10.1463 15.4904 10.1242C15.6065 10.1159 15.7919 10.1911 15.9024 10.2911ZM16.3902 11.0177C16.32 11.3918 15.8295 11.9475 15.3534 12.1922C15.213 12.2644 15.3483 12.0823 15.6541 11.7876C16.0076 11.4468 16.236 11.1222 16.2811 10.8964C16.3202 10.701 16.3764 10.5653 16.4059 10.5948C16.4353 10.6243 16.4283 10.8146 16.3902 11.0177ZM7.36069 11.1497C7.24343 11.2385 7.18992 11.3126 7.2419 11.3145C7.29387 11.3165 7.03805 11.5377 6.67332 11.8062C5.89178 12.3815 5.52179 12.9721 5.34135 13.9325C5.26992 14.3127 5.09069 14.8019 4.9431 15.0192C4.79563 15.2367 4.67486 15.4901 4.67486 15.5824C4.67486 15.6747 4.64662 15.722 4.61211 15.6876C4.57761 15.6531 4.70211 14.9154 4.88882 14.0484C5.19541 12.6241 5.21113 12.4612 5.0519 12.362C4.65772 12.1163 4.51321 11.9929 4.56519 11.9465C4.65233 11.8687 7.24047 11.0066 7.41563 10.997C7.52519 10.991 7.50827 11.0381 7.36069 11.1497ZM24.7399 12.0678C24.6517 12.2384 24.5144 12.4296 24.4349 12.4926C24.2206 12.6626 22.4983 13.2115 22.3424 13.1596C22.2188 13.1184 24.009 12.4169 24.2377 12.4169C24.2932 12.4169 24.4483 12.2686 24.5823 12.0873C24.8882 11.6736 24.9475 11.6663 24.7399 12.0678ZM8.58651 13.022C8.73937 13.2554 8.74585 13.3481 8.62882 13.6308C8.46607 14.0237 7.75069 14.6652 7.30003 14.8223C6.92838 14.9519 6.93838 15.0109 7.14739 13.9182C7.23805 13.4445 7.31222 13.0349 7.31222 13.0081C7.31222 12.9181 7.80365 12.7606 8.1064 12.7535C8.30981 12.7488 8.46398 12.8351 8.58651 13.022ZM27.7875 13.3633C27.2672 13.6198 27.0813 13.8801 26.9159 14.5834C26.6943 15.5247 26.7149 16.0133 26.9796 16.0973C27.2729 16.1903 28.1317 15.7969 28.3446 15.472C28.6193 15.0529 28.8979 13.5403 28.7365 13.3457C28.566 13.1403 28.2267 13.1466 27.7875 13.3633ZM9.00343 13.5982C8.92629 13.926 8.48794 14.4533 8.1364 14.6413C8.01552 14.7059 8.12673 14.5297 8.38365 14.2497C8.64058 13.9697 8.85069 13.6406 8.85069 13.5182C8.85069 13.396 8.90113 13.296 8.96266 13.296C9.02882 13.296 9.04552 13.4197 9.00343 13.5982ZM28.2612 13.9279C28.2311 14.0337 28.1501 14.4047 28.0811 14.7524C27.9615 15.3564 27.769 15.6037 27.419 15.6037C27.2617 15.6037 27.3749 14.6238 27.5935 14.0927C27.7066 13.8181 27.8071 13.7356 28.0283 13.7356C28.2499 13.7356 28.3034 13.7798 28.2612 13.9279ZM25.6378 14.1246C25.3132 14.3037 25.0045 14.8051 25.0832 15.0254C25.1133 15.1098 25.2729 15.0118 25.5033 14.7675C25.8866 14.3611 26.1305 14.3241 26.1961 14.6623C26.22 14.786 25.9951 15.0814 25.5753 15.4774C24.8801 16.1329 24.6749 16.4352 24.6749 16.8035C24.6749 17.0262 24.6831 17.0257 25.4166 16.76C26.0596 16.5271 26.6405 16.1042 26.5044 15.968C26.4801 15.9438 26.2069 16.0202 25.8973 16.1379C25.5876 16.2556 25.3342 16.311 25.3342 16.261C25.3342 16.2111 25.6008 15.9424 25.9265 15.6642C26.55 15.1314 26.805 14.6963 26.7443 14.268C26.7149 14.0599 26.6338 14.0054 26.3232 13.9845C26.1117 13.9702 25.8032 14.0333 25.6378 14.1246ZM24.7848 14.446C24.6337 14.5248 24.2239 14.6788 23.8742 14.7881C23.4163 14.9314 23.2485 15.0348 23.2743 15.158C23.296 15.261 23.4067 15.3186 23.553 15.3029C23.8437 15.2715 23.8485 15.3386 23.6304 16.3754C23.4585 17.1926 23.479 17.362 23.75 17.362C23.9599 17.362 24.0624 17.0671 24.2415 15.95C24.3623 15.1949 24.4291 15.0169 24.6185 14.9449C24.8942 14.8401 25.1499 14.5531 25.0974 14.4075C25.0753 14.3467 24.9443 14.3629 24.7848 14.446ZM18.3631 15.4308C18.3083 15.7968 18.2109 15.9812 17.9928 16.1322C17.4557 16.5037 17.3608 16.5044 17.7753 16.1336C18.081 15.8601 18.2018 15.6505 18.257 15.2978C18.2974 15.039 18.3546 14.8512 18.3841 14.8807C18.4135 14.9101 18.4041 15.1577 18.3631 15.4308ZM21.7628 16.2229C21.4606 16.3108 21.1639 16.3975 21.1034 16.4156C21.043 16.4337 20.8452 16.4864 20.6639 16.5327C19.7691 16.7613 18.8449 17.0631 18.8928 17.111C18.9223 17.1406 19.2743 17.0557 19.6749 16.9224C20.0754 16.7891 20.4224 16.6992 20.446 16.7227C20.4694 16.7463 20.0335 16.9556 19.4774 17.188C17.8537 17.8665 14.7929 19.3933 13.988 19.9263C13.58 20.1965 13.2463 20.3758 13.2463 20.3248C13.2463 20.2738 13.2957 20.2015 13.3562 20.1642C13.4166 20.1268 13.4661 20.0462 13.4661 19.9851C13.4661 19.8174 13.2283 20.091 12.7374 20.8235C12.0867 21.7945 12.0676 21.8445 12.4866 21.4797C12.8332 21.1779 13.3224 20.8429 14.9421 19.798C15.6913 19.3146 19.9866 17.1546 21.3232 16.589C22.7501 15.9853 22.8419 15.9088 21.7628 16.2229ZM7.75904 16.3768C8.0186 16.5157 8.02981 16.8188 7.79277 17.2851C7.56266 17.7376 7.33882 17.9473 6.78255 18.231C6.20695 18.5247 6.18277 18.5213 6.26135 18.1587C6.29739 17.9925 6.35376 17.7329 6.38662 17.5818C6.41948 17.4307 6.47431 17.1236 6.50849 16.8995C6.55596 16.5886 6.63904 16.4668 6.85904 16.3862C7.24805 16.2435 7.50486 16.2409 7.75904 16.3768ZM10.068 17.3022C9.83376 18.3319 8.73937 19.4448 7.20233 20.2166C6.1453 20.7475 6.0075 20.6899 7.0375 20.1477C8.77113 19.2353 10.0191 17.7765 10.0722 16.6007C10.0823 16.3776 10.0965 16.3634 10.1396 16.533C10.1696 16.6512 10.1374 16.9974 10.068 17.3022ZM8.25816 17.1727C8.18618 17.5559 7.79036 18.0031 7.31222 18.2411C7.13948 18.3271 7.20992 18.2278 7.502 17.9734C7.79409 17.7191 8.01486 17.4078 8.09662 17.1351C8.25069 16.6206 8.35706 16.6454 8.25816 17.1727ZM18.0265 17.2996C17.7848 17.3802 16.7957 17.7054 15.8287 18.0221C14.246 18.5403 7.6353 20.9954 6.81772 21.3686C6.6364 21.4513 6.04299 21.7012 5.49904 21.924C4.07277 22.508 4.14519 22.4756 0.913763 23.9785C0.38629 24.2237 -0.0243687 24.4581 0.00112578 24.4993C0.0266203 24.5406 0.730137 24.4368 1.56442 24.2689C3.83014 23.8127 3.86409 23.8214 2.89563 24.6068C1.9475 25.3759 0.892445 26.3656 0.374972 26.9714C-0.0326104 27.4486 -0.00810497 27.4393 1.10343 26.6987C2.72146 25.6206 4.26882 24.6979 7.36717 22.9638C9.79761 21.6035 13.4163 19.7665 13.5001 19.8502C13.5329 19.8831 13.6375 19.7595 13.7326 19.5756L13.9054 19.2414L13.5231 19.4012C13.3128 19.489 12.262 19.9941 11.1879 20.5234C10.114 21.0529 9.0375 21.5734 8.79574 21.6803C8.37387 21.8668 8.3653 21.8668 8.58222 21.6788C8.88673 21.4149 9.10288 20.9076 8.93464 20.8515C8.69948 20.7731 12.6821 19.2377 16.4331 17.9607C17.7326 17.5182 18.7216 17.1555 18.6309 17.1545C18.5402 17.1535 18.2683 17.2188 18.0265 17.2996ZM3.6675 20.7273C3.54981 21.3599 3.51904 21.4049 2.92849 21.807L2.31222 22.2266L2.86981 21.7258C3.34475 21.2991 3.44794 21.133 3.5664 20.6036C3.74893 19.7878 3.82486 19.8808 3.6675 20.7273Z" fill="black"/>
</svg>
