<svg width="40" height="40" viewBox="0 0 40 40" fill="none" xmlns="http://www.w3.org/2000/svg">
<path fill-rule="evenodd" clip-rule="evenodd" d="M13.1193 0.355343C12.3417 0.887065 10.5795 1.52714 9.3563 1.72232C7.89015 1.95625 5.55775 1.83441 4.40562 1.46371L3.51353 1.17668L2.74673 2.20066C2.32494 2.76366 1.93171 3.30471 1.87301 3.40273C1.81087 3.50621 1.94491 3.84074 2.19334 4.20168C3.81218 6.55461 4.55659 9.31468 4.22536 11.7348C3.87705 14.2784 2.87862 16.2406 0.320468 19.4081L0 19.805L0.962554 20.7751L1.92511 21.7451L1.92597 22.9614C1.92855 26.7499 3.21272 30.4399 5.32095 32.7171C7.70631 35.2934 10.7681 36.7269 15.3083 37.3926L16.8865 37.6241L18.3395 38.812L19.7925 40L21.2748 38.781L22.7568 37.562L23.9272 37.4309C28.7924 36.8867 32.9508 34.6238 35.2161 31.2882C36.7683 29.0025 37.6498 25.97 37.6574 22.8896L37.6603 21.7451L38.6059 20.7923L39.5514 19.8393L38.6379 18.7076C36.2932 15.8028 35.3114 13.3935 35.3114 10.5437C35.3114 8.27219 35.9335 6.29255 37.2721 4.30487L37.7879 3.53893L37.2577 2.80155C36.9661 2.39612 36.5932 1.88133 36.4292 1.65788L36.131 1.25159L34.8328 1.55627C33.2555 1.92669 31.1984 1.95812 29.7235 1.63449C29.1555 1.50978 28.0332 1.091 27.2295 0.70394L25.7684 0L24.7572 0.623428C23.505 1.39539 21.7729 1.98036 20.3942 2.09689C18.541 2.25361 16.1691 1.58627 14.5016 0.439012C14.147 0.195036 13.804 -0.000861085 13.7392 0.00373139C13.6745 0.00818034 13.3955 0.166477 13.1193 0.355343ZM14.1956 1.29551C17.1606 3.31706 21.0756 3.57352 24.2612 1.95467C24.8029 1.67927 25.3674 1.36296 25.5155 1.25159C25.7552 1.07148 25.9046 1.1098 26.8789 1.60134C28.5102 2.42439 29.9382 2.75146 31.9914 2.77242C33.2419 2.78519 33.9986 2.7176 34.7544 2.52529L35.7952 2.26064L36.0736 2.59905C36.7336 3.40159 36.7325 3.45698 36.0301 4.67557C34.7452 6.90464 34.1901 9.44456 34.4852 11.7452C34.8042 14.2328 35.7177 16.4215 37.3372 18.5797L38.2724 19.8256L37.4575 20.649L36.6425 21.4724L36.7335 22.3945C36.8391 23.466 36.6178 25.8111 36.295 27.0392C35.7517 29.1077 34.885 30.7041 33.5019 32.1843C31.212 34.6353 27.8589 36.1686 23.8111 36.6159L22.376 36.7745L21.1166 37.8375C20.3399 38.4931 19.79 38.8601 19.6815 38.7952C19.5847 38.7374 18.989 38.26 18.3575 37.7348L17.2094 36.7795L15.7116 36.6024C10.1776 35.9479 6.24705 33.574 4.29339 29.7061C3.35767 27.8536 2.94277 26.0674 2.82595 23.3883L2.74142 21.4509L2.01681 20.6166C1.50059 20.0222 1.33167 19.7295 1.42926 19.5987C1.50461 19.4976 1.90803 18.9689 2.32566 18.4237C3.25219 17.214 4.39557 14.9287 4.7822 13.5132C5.60066 10.5178 5.14558 7.33461 3.50377 4.57109C3.18804 4.03965 2.93215 3.55156 2.93516 3.4864C2.93803 3.42125 3.15029 3.12302 3.40675 2.82365L3.87289 2.2793L4.72881 2.50361C7.35872 3.19277 11.0575 2.69435 13.0664 1.38004C13.1045 1.35517 13.1401 1.33172 13.1737 1.30965C13.466 1.11737 13.5979 1.03057 13.7246 1.03761C13.8289 1.0434 13.9296 1.11271 14.1133 1.23903C14.139 1.25674 14.1664 1.27557 14.1956 1.29551ZM12.5452 3.18273C10.7719 4.01124 7.77477 4.36658 5.40534 4.02903C4.99087 3.97005 4.65189 3.95297 4.65189 3.991C4.65189 4.02918 4.81262 4.33458 5.00895 4.66968C6.04082 6.43047 6.63182 9.48862 6.37622 11.7452C6.24045 12.9435 5.67228 15.2163 5.36487 15.7906C5.28852 15.9334 5.22595 16.119 5.22595 16.2031C5.22595 16.3105 9.5621 16.3561 19.7377 16.3561H34.2494L34.1756 16.0332C34.1351 15.8557 33.96 15.3231 33.7865 14.8498C32.6347 11.7079 32.8713 7.80964 34.3965 4.79999L34.7586 4.08558L32.1551 4.08084C29.2843 4.07568 28.4654 3.93044 26.7728 3.12604L25.8598 2.69205L24.7636 3.19579C21.2372 4.81621 18.1944 4.84348 14.8575 3.28462C14.1953 2.9752 13.6141 2.72779 13.5659 2.73453C13.5175 2.74128 13.0583 2.94306 12.5452 3.18273ZM26.789 3.41795L27.4707 3.74028V9.90467V16.0691H26.6814H25.8921V9.52723C25.8921 5.92917 25.9406 3.01008 25.9997 3.0405C26.0588 3.07079 26.414 3.24071 26.789 3.41795ZM16.4324 4.16394C16.8735 4.30573 17.7615 4.4989 18.4058 4.59305L19.5774 4.7644V6.33029V7.89618L17.3888 7.85657L15.2002 7.81696L15.1603 5.75494C15.123 3.8261 15.1368 3.69981 15.3756 3.79955C15.516 3.85825 15.9916 4.02214 16.4324 4.16394ZM24.3134 9.89793V16.0691H23.5958H22.8783V10.1446V4.22019L23.4882 3.99071C23.8237 3.86457 24.1466 3.75348 24.2058 3.74401C24.2649 3.73454 24.3134 6.5038 24.3134 9.89793ZM10.823 5.955V7.89618L8.65667 7.85657L6.49031 7.81696L6.16898 6.81236C5.99232 6.25983 5.68031 5.48025 5.47566 5.07985L5.10353 4.35194L7.42502 4.34247C9.31253 4.33486 10.2536 4.24703 10.7871 4.02846C10.8069 4.02042 10.823 4.88739 10.823 5.955ZM29.994 4.30085H30.4845V10.185V16.0691H29.767H29.0494V10.0978C29.0494 4.71188 29.0716 4.13523 29.2764 4.21374C29.4013 4.26167 29.7242 4.30085 29.994 4.30085ZM33.9234 5.22279C32.4415 8.49105 32.4181 12.2679 33.8577 15.8179C33.9487 16.0421 33.8576 16.0691 33.0114 16.0691H32.0632V10.2642V4.45943L32.8167 4.40662C33.231 4.37763 33.7436 4.34204 33.9557 4.3274L34.3415 4.30085L33.9234 5.22279ZM21.2996 10.3285V16.0691H20.582H19.8645V10.4097V4.75048L20.2591 4.69064C20.4761 4.65777 20.799 4.62117 20.9767 4.60941L21.2996 4.58788V10.3285ZM10.823 14.1316V16.0691H8.18235H5.54168L5.87865 15.1003C6.06393 14.5675 6.29814 13.6958 6.39932 13.1629L6.58302 12.1942H8.70302H10.823V14.1316ZM19.5774 14.1353V16.0765L17.3888 16.0369L15.2002 15.9973L15.1602 14.0957L15.1201 12.1942H17.3488H19.5774V14.1353ZM13.2197 16.8775C13.1645 16.9327 13.1193 17.839 13.1193 18.8916V20.805H13.6216H14.1239V20.0157V19.2264H14.6979C15.2401 19.2264 15.272 19.2024 15.272 18.7958C15.272 18.3893 15.2401 18.3653 14.6979 18.3653C14.224 18.3653 14.1239 18.3164 14.1239 18.0849C14.1239 17.8385 14.2415 17.7991 15.0926 17.762L16.0613 17.7195V17.2889V16.8584L14.6907 16.8176C13.937 16.7952 13.2751 16.8222 13.2197 16.8775ZM18.484 17.0607C17.9587 17.3809 17.7117 17.9909 17.7117 18.9679C17.7117 20.2498 18.3697 20.9486 19.5768 20.9486C20.0094 20.9486 20.2575 20.8556 20.5167 20.5962C20.9618 20.1513 20.9629 19.8893 20.5212 19.6881C20.2478 19.5635 20.1364 19.5738 20.0012 19.7367C19.7356 20.0569 19.0545 19.9936 18.7963 19.6249C18.1509 18.7036 18.9609 17.3047 19.8155 17.8647C20.1153 18.0612 20.2486 18.0728 20.5875 17.9325C20.9438 17.7849 20.975 17.7272 20.8269 17.49C20.6073 17.1384 19.863 16.7865 19.3405 16.7872C19.1156 16.7875 18.7301 16.9105 18.484 17.0607ZM23.0218 18.8676V20.9486H24.2527C25.4218 20.9486 25.5047 20.9275 25.9031 20.5291C26.381 20.051 26.4502 19.4725 26.0907 18.9592C25.9201 18.7156 25.9011 18.5859 26.0189 18.4681C26.3295 18.1575 26.198 17.5457 25.7375 17.1582C25.3438 16.8268 25.1728 16.7866 24.1588 16.7866H23.0218V18.8676ZM25.1745 18.0065C25.1745 18.166 25.007 18.2218 24.5287 18.2218C24.0503 18.2218 23.8829 18.166 23.8829 18.0065C23.8829 17.8471 24.0503 17.7912 24.5287 17.7912C25.007 17.7912 25.1745 17.8471 25.1745 18.0065ZM25.2463 19.5852C25.2463 19.8258 25.136 19.8792 24.5646 19.916C23.9143 19.9577 23.8829 19.9424 23.8829 19.5852C23.8829 19.228 23.9143 19.2126 24.5646 19.2544C25.136 19.2911 25.2463 19.3445 25.2463 19.5852Z" fill="black"/>
<path d="M34.2188 28.7701C35.1315 26.8997 35.4143 25.3291 35.375 22.3478L35.364 21.5226H31.0227V32.5733C32.4173 31.5587 33.4711 30.3021 34.2188 28.7701Z" fill="black"/>
<path d="M4.1757 22.5631C4.08142 23.6802 4.23498 25.5973 4.5121 26.7609C4.60596 27.1556 4.96145 28.0626 5.30201 28.7764C6.05826 30.3617 7.1774 31.6596 8.69133 32.6933V21.5226H4.26339L4.1757 22.5631Z" fill="black"/>
<path fill-rule="evenodd" clip-rule="evenodd" d="M17.8511 24.7378C17.7753 24.7793 17.7063 24.8191 17.64 24.86V21.5226H13.1193V34.6846C13.2656 34.7267 13.4138 34.7677 13.564 34.8076C14.7802 35.1308 15.1377 35.1931 17.64 35.2404V31.6665C17.3675 31.5246 17.181 31.3908 16.8922 31.0406C16.8155 30.9573 16.7389 30.857 16.6568 30.7384C16.5057 30.5204 16.4031 30.3652 16.3482 30.2549C16.2077 30.0146 16.1031 29.7916 15.9873 29.4817C15.7949 28.9761 15.8092 27.5578 16.0124 26.9617C16.1566 26.5384 16.7029 25.6454 16.9571 25.3693C16.9991 25.3237 17.0331 25.2949 17.0561 25.2878C17.2904 25.0964 17.4551 24.974 17.64 24.86V24.9223C17.699 24.8533 17.7683 24.7934 17.8511 24.7378ZM23.6683 27.0233C23.4533 26.2995 22.7847 25.4235 22.0961 24.914V21.5226H26.6814V34.6367C26.0543 34.8122 25.3773 34.9595 24.6066 35.0921C23.9509 35.2049 23.3296 35.2621 22.2371 35.2796V31.4851C22.6003 31.2182 22.926 30.9001 23.1607 30.5705L23.4545 30.158C23.5594 29.951 23.615 29.767 23.7133 29.4205C23.772 29.2395 23.8154 29.0046 23.8242 28.7911C23.8846 28.407 23.9136 28.195 23.8829 27.8749C23.8829 27.804 23.7863 27.4206 23.6683 27.0233Z" fill="black"/>
<path fill-rule="evenodd" clip-rule="evenodd" d="M16.9571 25.3693C16.9991 25.3237 17.0331 25.2949 17.0561 25.2878C17.0244 25.3137 16.9915 25.3408 16.9571 25.3693Z" fill="black"/>
<path fill-rule="evenodd" clip-rule="evenodd" d="M16.8922 31.0406C16.8155 30.9573 16.7389 30.857 16.6568 30.7384C16.7434 30.8546 16.8209 30.9542 16.8922 31.0406ZM16.6568 30.7384C16.5057 30.5204 16.4031 30.3652 16.3482 30.2549C16.4341 30.4017 16.5334 30.555 16.6568 30.7384Z" fill="black"/>
<path d="M19.2011 24.6601C19.1526 24.9027 19.2094 25.2457 19.3402 25.4984C19.5352 25.8757 19.5364 25.9512 19.3492 26.1382C19.2327 26.2549 19.0981 26.592 19.05 26.8876C18.9824 27.3045 19.0316 27.5181 19.2702 27.8406C19.6609 28.3691 19.6559 28.4894 19.2251 28.9201C18.7478 29.3974 18.3476 29.363 17.7805 28.7958C17.1767 28.192 17.0467 27.5237 17.2604 26.1226C17.3557 25.4975 17.4383 25.1577 17.64 24.9223V24.86C17.4551 24.974 17.2904 25.0964 17.0561 25.2878C17.066 25.2848 17.0739 25.2858 17.0794 25.2913C17.111 25.323 17.0669 25.7272 16.9815 26.1894C16.7977 27.1837 16.899 28.0353 17.2743 28.6524C17.5442 29.0963 17.544 29.1016 17.2343 29.3825C17.0628 29.5381 16.7437 29.7076 16.5254 29.7592C16.1889 29.8387 16.1069 29.7965 15.9873 29.4817C16.1031 29.7916 16.2077 30.0146 16.3482 30.2549C16.2333 30.0238 16.3277 29.99 16.6243 29.99C16.8156 29.99 17.1648 29.8278 17.4003 29.6296C17.7625 29.3249 17.888 29.2919 18.2139 29.4159C18.7358 29.6144 19.2647 29.3472 19.709 28.6606C20.1519 27.976 20.8224 27.909 21.2891 28.5025C21.6963 29.02 21.6637 29.3182 21.1338 29.9217C20.5681 30.5661 19.8561 30.9342 18.6219 31.2203C17.6299 31.4503 17.2607 31.4414 16.8922 31.0406C17.181 31.3908 17.3675 31.5246 17.64 31.6665L18.5273 31.4851C20.0799 31.1675 21.0282 30.6131 21.6551 29.6565C22.0097 29.1151 22.5973 29.1392 23.0818 29.7152L23.4545 30.158C23.5594 29.951 23.615 29.767 23.7133 29.4205C23.6317 29.6723 23.5206 29.8199 23.4317 29.6609C23.2508 29.3377 22.5542 28.9854 22.0961 28.9854C21.884 28.9854 21.7301 28.9037 21.7301 28.7911C21.7301 28.6842 21.5642 28.4176 21.3615 28.1989C21.0352 27.8469 20.9213 27.8107 20.3744 27.8858C19.6433 27.986 19.2904 27.7083 19.2904 27.0327C19.2904 25.8265 20.4295 25.5779 21.9293 26.4568C22.571 26.833 23.5053 27.7964 23.7663 28.3513C23.8157 28.4562 23.8315 28.6165 23.8242 28.7911C23.8846 28.407 23.9136 28.195 23.8829 27.8749C23.8829 27.9459 23.5578 27.6483 23.1604 27.2134C22.3158 26.2893 21.2109 25.6845 20.3673 25.6845C19.7062 25.6845 19.4339 25.4912 19.4339 25.0218C19.4339 24.4325 19.5272 24.2607 20.0203 24.2673C19.4462 24.1822 19.1103 24.2366 18.8722 24.3069C19.2284 24.2065 19.2724 24.304 19.2011 24.6601Z" fill="black"/>
</svg>
