<svg width="29" height="40" viewBox="0 0 29 40" fill="none" xmlns="http://www.w3.org/2000/svg">
<path fill-rule="evenodd" clip-rule="evenodd" d="M15.4745 4.41824L14.946 2.75604L16.2957 1.73421V1.66373H14.6074L14.0774 0H14.0176L13.5013 1.66373H11.8116V1.73421L13.149 2.75604L12.6327 4.41824H12.7292L14.0467 3.43317L15.378 4.41824H15.4745Z" fill="black"/>
<path fill-rule="evenodd" clip-rule="evenodd" d="M9.03716 6.18003L8.50863 4.5163L9.8583 3.49599V3.42396H8.17006L7.63999 1.76175H7.58178L7.06397 3.42396H5.37573V3.49599L6.71315 4.5163L6.19534 6.18003H6.29186L7.60936 5.19343L8.94065 6.18003H9.03716Z" fill="black"/>
<path fill-rule="evenodd" clip-rule="evenodd" d="M19.0839 6.18003L19.6124 4.5163L18.2627 3.49599V3.42396H19.951L20.481 1.76175H20.5392L21.0571 3.42396H22.7453V3.49599L21.4079 4.5163L21.9257 6.18003H21.8292L20.5117 5.19343L19.1804 6.18003H19.0839Z" fill="black"/>
<path fill-rule="evenodd" clip-rule="evenodd" d="M3.66448 10.1203L3.13289 8.45806L4.48409 7.43623V7.36575H2.79585L2.26579 5.70355H2.20604L1.68977 7.36575H0.00152588V7.43779L1.33741 8.45808L0.821135 10.1203H0.917652L2.23668 9.13521L3.56644 10.1203L3.66448 10.1203Z" fill="black"/>
<path fill-rule="evenodd" clip-rule="evenodd" d="M27.2861 10.1203L26.756 8.45806L28.1072 7.43623V7.36575H26.4175L25.8889 5.70355H25.8292L25.3129 7.36575H23.6247V7.43779L24.9621 8.45808L24.4443 10.1203H24.5408L25.8583 9.13521L27.188 10.1203L27.2861 10.1203Z" fill="black"/>
<path fill-rule="evenodd" clip-rule="evenodd" d="M21.2149 26.6733V17.2899H21.1321L19.2539 19.1758C18.9904 19.4393 18.6335 19.5879 18.2612 19.5879H16.4611V17.7863C16.4611 17.4156 16.6097 17.0586 16.8717 16.7951L18.7576 14.9108V14.8281H9.3742V14.9108L11.2616 16.7951C11.522 17.0586 11.6706 17.4156 11.6706 17.7863V19.5864H9.8629C9.49063 19.5864 9.13214 19.4378 8.87017 19.1743L6.99044 17.2884H6.90771V26.6748H6.99044L8.87017 24.789C9.13214 24.5255 9.49063 24.3769 9.8629 24.3769H11.6706V26.1769C11.6706 26.5477 11.522 26.9046 11.2616 27.1681L9.3742 29.0525V29.1352H18.7576V29.0525L16.8717 27.1681C16.6097 26.9046 16.4611 26.5477 16.4611 26.1769V24.3769H18.2612C18.6335 24.3769 18.9904 24.5255 19.2539 24.7874L21.1321 26.6733H21.2149ZM10.4205 22.2045C10.4205 22.3531 10.4312 22.4742 10.4512 22.5707C10.4711 22.6656 10.5063 22.7407 10.5599 22.7943C10.612 22.8495 10.684 22.8878 10.7775 22.9092C10.8694 22.9307 10.9873 22.9414 11.1329 22.9414H11.5634C11.6354 22.9414 11.7181 22.9404 11.81 22.9379C11.8802 22.9371 11.9595 22.935 12.0492 22.9327L12.0494 22.9327L12.1486 22.9301L12.0015 23.7405C11.9345 23.7426 11.8735 23.7442 11.8189 23.7456L11.8187 23.7456L11.7181 23.7483C11.6851 23.7487 11.6538 23.7494 11.624 23.7501C11.5831 23.751 11.5452 23.7518 11.5098 23.7518H11.0685C10.7698 23.7518 10.5155 23.7242 10.3087 23.6721C10.1003 23.6185 9.93181 23.5327 9.80159 23.4132C9.67138 23.2922 9.57639 23.1328 9.51664 22.9367C9.4569 22.7376 9.4278 22.4925 9.4278 22.1999V21.7602C9.4278 21.4798 9.45689 21.2408 9.51664 21.0432C9.57639 20.8456 9.67291 20.6863 9.80465 20.5652C9.93487 20.4427 10.1049 20.3538 10.3102 20.2971C10.5155 20.242 10.7683 20.2129 11.0639 20.2129H11.5098C11.5833 20.2129 11.6691 20.2139 11.7687 20.2164C11.8439 20.2171 11.9287 20.2193 12.0237 20.2217L12.1195 20.2242L11.9709 21.0346C11.8131 21.0268 11.6798 21.0235 11.571 21.0235H11.1283C10.9827 21.0235 10.8633 21.0346 10.7729 21.0556C10.6794 21.0771 10.6074 21.1153 10.5553 21.1705C10.5017 21.2241 10.4665 21.2992 10.4496 21.3942C10.4312 21.4907 10.4205 21.6118 10.4205 21.7603L10.4205 22.2045ZM13.5213 23.0195H14.275C14.4267 23.0195 14.5339 22.9965 14.5967 22.9475C14.6595 22.9001 14.6901 22.8112 14.6901 22.6794V22.615C14.6901 22.4772 14.6595 22.3837 14.5952 22.3362C14.5308 22.2888 14.419 22.2642 14.2612 22.2642H13.5212L13.5213 23.0195ZM14.5921 21.2363C14.5921 21.1306 14.5661 21.0555 14.5124 21.0111C14.4604 20.9667 14.3684 20.9452 14.2413 20.9452H13.5213V21.5917H14.226C14.3608 21.5917 14.4558 21.5687 14.5109 21.5196C14.5645 21.4722 14.5921 21.394 14.5921 21.2853V21.2363ZM12.6373 20.2237H14.4328C14.8096 20.2237 15.0823 20.2973 15.2509 20.4427C15.4209 20.5898 15.5067 20.8089 15.5067 21.0984V21.1628C15.5067 21.5044 15.3688 21.7419 15.0961 21.8736C15.2616 21.9365 15.3872 22.033 15.4761 22.1632C15.5649 22.2934 15.6093 22.4635 15.6093 22.6749V22.7637C15.6093 23.1084 15.5067 23.3581 15.2983 23.5113C15.0915 23.6645 14.779 23.7411 14.3638 23.7411H12.6373V20.2237ZM18.5507 20.9943L18.6932 20.2237H16.0368V23.7411H16.9651V22.4221H18.3286L18.4665 21.676H16.9651V20.9943H18.5507Z" fill="black"/>
<path d="M23.427 28.2099C23.427 29.4646 23.1023 30.6687 22.4849 31.6921C21.5825 33.1934 20.4918 33.6331 18.8418 34.301C18.1203 34.5921 17.3114 34.92 16.4565 35.3765V29.1352H14.0605V36.9912C12.3355 35.5358 10.6503 34.8541 9.28381 34.301C7.6308 33.6331 6.54003 33.1934 5.63769 31.6921C5.02031 30.6687 4.69553 29.4646 4.69553 28.2099V24.3784H6.90771V21.9824H4.69553V18.612C4.69553 17.1888 4.36309 15.7855 3.73191 14.5247C5.58867 13.7679 6.95213 12.6251 8.16546 11.6048C9.3696 10.5937 10.3562 9.76945 11.6645 9.32058V14.828H14.0605V8.9529C16.7982 8.9529 18.1233 10.0651 19.9571 11.6048C21.1704 12.6251 22.5324 13.7695 24.3891 14.5247C23.758 15.7855 23.427 17.1888 23.427 18.612V19.5864H21.2149V21.9824H23.427V28.2099ZM25.5657 19.5864H23.8621V18.612C23.8621 17.0739 24.265 15.591 25.008 14.2934C22.9782 13.5749 21.5473 12.3723 20.2375 11.2723C18.4052 9.73422 16.9575 8.51782 14.0605 8.51782V6.81427C13.1628 6.81427 12.3753 6.91844 11.6645 7.09615V8.86405C10.1999 9.33131 9.13061 10.226 7.88511 11.2723C6.57527 12.3723 5.14133 13.5749 3.11299 14.2934C3.85753 15.591 4.25738 17.0739 4.25738 18.612V21.9824H2.55688V24.3784H4.25738V28.2099C4.25738 29.5442 4.60667 30.825 5.26236 31.9173C6.2413 33.5427 7.44697 34.0314 9.11529 34.704C10.5615 35.2892 12.2911 35.9862 14.0605 37.5703V40C14.8679 39.0655 15.6691 38.3884 16.4565 37.8644V35.8713C17.3619 35.3688 18.2244 35.0195 19.0042 34.704C20.6741 34.0314 21.8813 33.5427 22.8571 31.9173C23.5159 30.825 23.8621 29.5442 23.8621 28.2099V21.9824H25.5657V19.5864Z" stroke="black" stroke-width="0.5"/>
<path d="M6.90771 21.9824H4.69553V19.5864H6.90771V21.9824Z" fill="black"/>
<path d="M21.2149 21.9824H23.4286V24.3784H21.2149V21.9824Z" fill="black"/>
<path d="M16.4565 9.32055C15.7717 9.08617 15.0012 8.95288 14.0605 8.95288V14.828H16.4565V9.32055Z" fill="black"/>
<path d="M11.666 35.3765C12.4351 35.787 13.244 36.3018 14.0605 36.9912V29.1352H11.666V35.3765Z" fill="black"/>
<path d="M6.90771 21.9824H4.69553V19.5864H6.90771V21.9824Z" stroke="black" stroke-width="0.5"/>
<path d="M21.2149 21.9824H23.4286V24.3784H21.2149V21.9824Z" stroke="black" stroke-width="0.5"/>
<path d="M16.4565 9.32055C15.7717 9.08617 15.0012 8.95288 14.0605 8.95288V14.828H16.4565V9.32055Z" stroke="black" stroke-width="0.5"/>
<path d="M11.666 35.3765C12.4351 35.787 13.244 36.3018 14.0605 36.9912V29.1352H11.666V35.3765Z" stroke="black" stroke-width="0.5"/>
<path d="M14.062 8.51782C16.9575 8.51782 18.4052 9.73422 20.2375 11.2723C21.5473 12.3723 22.9782 13.5749 25.008 14.2934C24.265 15.591 23.8621 17.0739 23.8621 18.612V19.5864H25.5657V18.612C25.5657 16.4351 26.563 14.4895 28.1226 13.2057C24.8073 12.9636 22.9996 11.3673 21.1674 9.8292C19.3336 8.29109 17.4753 6.81427 14.062 6.81427H14.0605V8.51782H14.062Z" fill="black"/>
<path d="M4.25737 18.612C4.25737 17.0739 3.85752 15.591 3.11298 14.2934C5.14132 13.5749 6.57526 12.3723 7.8851 11.2723C9.1306 10.226 10.1999 9.33131 11.6645 8.86405V7.09615C6.97051 8.27577 5.75565 12.7859 0 13.2057C0.779781 13.8476 1.41861 14.6549 1.86442 15.5741C2.30869 16.4933 2.55688 17.5228 2.55688 18.612V21.9824H4.25737V18.612Z" fill="black"/>
<path d="M9.11528 34.704C7.44696 34.0299 6.24129 33.5427 5.26235 31.9173C4.60666 30.825 4.25737 29.5442 4.25737 28.2099V24.3769H2.55688V28.2099C2.55688 29.8215 2.97204 31.4133 3.8039 32.7951C6.30869 36.9575 10.1294 35.4485 14.0559 39.9954V37.5657C12.2895 35.9847 10.5615 35.2876 9.11528 34.704Z" fill="black"/>
<path d="M23.8621 28.2099C23.8621 29.5442 23.5159 30.825 22.8587 31.9173C21.8813 33.5427 20.6741 34.0314 19.0042 34.704C18.2244 35.0195 17.3604 35.3704 16.4519 35.8744V37.8675C17.5825 37.1122 18.684 36.6726 19.7227 36.2513C21.483 35.5404 23.0655 34.8771 24.3186 32.7951C25.149 31.4133 25.5657 29.8215 25.5657 28.2099V21.9824H23.8621V28.2099Z" fill="black"/>
</svg>
