<svg width="31" height="42" viewBox="0 0 31 42" fill="none" xmlns="http://www.w3.org/2000/svg">
<path fill-rule="evenodd" clip-rule="evenodd" d="M15.5526 1.21117V1.42233H15.3166H15.0806V1.72045V2.01856H15.3166H15.5526V2.19013V2.36167L15.3974 2.43458C15.312 2.47468 15.2047 2.53912 15.159 2.57778C15.0832 2.64187 15.058 2.64823 14.8733 2.65009C14.6976 2.65186 14.6532 2.66184 14.5383 2.72547C14.4654 2.76581 14.3794 2.83023 14.3471 2.86859L14.2884 2.93835L14.1815 2.8823C14.0286 2.80216 13.7369 2.79026 13.5839 2.85793C13.445 2.91937 13.2829 3.06345 13.2422 3.16161C13.2067 3.24729 13.2112 3.24627 13.0809 3.19932C12.7132 3.06686 12.2838 3.29628 12.1943 3.67298L12.1649 3.79662L11.9273 3.79573C11.7286 3.79498 11.6729 3.80382 11.587 3.84976C11.3484 3.97738 11.2206 4.17942 11.2189 4.43168L11.2177 4.59649L11.0879 4.60993C11.0164 4.61733 10.9028 4.65343 10.8353 4.69015L10.7126 4.75695L10.6174 4.68071C10.4793 4.57015 10.3507 4.52457 10.1777 4.52482C9.90828 4.52519 9.69402 4.63827 9.57374 4.84355C9.52736 4.9227 9.49856 4.94864 9.46943 4.93746C9.10611 4.79804 8.70392 4.95552 8.54918 5.29783C8.52138 5.35932 8.49838 5.43931 8.49808 5.47558C8.49754 5.54087 8.49607 5.54141 8.35291 5.52842C7.93345 5.49039 7.59826 5.78589 7.59297 6.19839L7.59081 6.36605L7.50207 6.36608C7.24175 6.3661 6.94586 6.58723 6.87273 6.8364C6.82528 6.99811 6.82391 7.11673 6.86813 7.24052C6.90075 7.33194 6.90052 7.33259 6.82371 7.35935C6.42537 7.49822 6.24952 7.99274 6.47598 8.33716C6.51051 8.38966 6.53512 8.43482 6.53068 8.43755C6.31088 8.57275 6.20237 8.69408 6.1415 8.8727C6.10496 8.9799 6.10454 9.16729 6.14058 9.27069C6.16553 9.34224 6.1619 9.35761 6.10605 9.41724C5.92399 9.61163 5.88019 9.89787 5.99434 10.1472C6.05473 10.2792 6.05508 10.2832 6.01019 10.3387C5.7814 10.6213 6.02485 11.1787 6.47292 11.3982C6.67295 11.4961 6.94566 11.5132 7.11501 11.4383L7.22903 11.3878L7.36025 11.46C7.54095 11.5594 7.81774 11.6183 8.0166 11.5997L8.17459 11.585V11.6614C8.17459 11.8339 8.34384 12.0133 8.53537 12.0438C8.63282 12.0593 8.63528 12.0621 8.63528 12.1594C8.63528 12.2366 8.65024 12.272 8.70139 12.316C8.73773 12.3472 8.77899 12.3768 8.7931 12.3816C8.8095 12.3873 8.80068 12.461 8.76863 12.5859C8.74106 12.6933 8.72489 12.7876 8.73271 12.7954C8.74054 12.8033 8.83335 12.856 8.93898 12.9127C9.05382 12.9743 9.12884 13.0298 9.12559 13.0509C9.12263 13.0702 9.10984 13.1353 9.09719 13.1955C9.07662 13.2933 9.08023 13.3108 9.1315 13.3621C9.24051 13.4711 9.2921 13.4651 9.68157 13.2981C12.8568 11.9361 16.3986 11.6698 19.7852 12.5384C20.5161 12.7258 21.5165 13.0748 22.1728 13.3712C22.3719 13.4611 22.4654 13.458 22.5591 13.3582C22.6187 13.2948 22.6387 13.1543 22.5998 13.0726C22.5857 13.043 22.6202 13.0155 22.7499 12.9527C23.0232 12.8203 23.0146 12.8323 22.968 12.6476C22.946 12.5609 22.9225 12.4709 22.9157 12.4477C22.9073 12.4192 22.9268 12.3934 22.9756 12.3681C23.0634 12.3227 23.1138 12.2123 23.09 12.1173C23.0777 12.0686 23.0809 12.0529 23.1004 12.0649C23.1455 12.0928 23.3196 12.0343 23.4049 11.9624C23.4899 11.891 23.5517 11.7698 23.5517 11.6749C23.5517 11.6174 23.5569 11.616 23.7691 11.6165C24.0082 11.617 24.2201 11.5669 24.3866 11.4704L24.4886 11.4113L24.6226 11.4625C25.0112 11.6111 25.5179 11.3757 25.7268 10.9496C25.8235 10.7525 25.8295 10.5252 25.7419 10.3842L25.6839 10.2909L25.7418 10.1731C25.7861 10.0831 25.7996 10.0142 25.7992 9.88135C25.7986 9.68944 25.7589 9.58778 25.6326 9.45468C25.564 9.38231 25.5601 9.36914 25.5857 9.29568C25.6292 9.17082 25.6191 8.92701 25.5655 8.80893C25.5106 8.68795 25.3345 8.50828 25.25 8.48707C25.1777 8.46893 25.1777 8.47032 25.2527 8.35992C25.3309 8.2448 25.3764 8.04265 25.3554 7.90303C25.3209 7.67257 25.1063 7.41358 24.9151 7.37157C24.8455 7.35629 24.8419 7.34996 24.8607 7.27677C24.8997 7.12441 24.882 6.85772 24.8258 6.75114C24.72 6.55063 24.5156 6.41432 24.2659 6.37773L24.1479 6.36044L24.1477 6.20798C24.147 5.79961 23.7897 5.48686 23.3733 5.53038L23.2288 5.54549V5.47297C23.2288 5.21955 22.9719 4.95408 22.6733 4.89888C22.5605 4.87803 22.5016 4.88074 22.3779 4.91242C22.2705 4.93994 22.2206 4.94372 22.2143 4.92479C22.189 4.84892 22.0332 4.68163 21.9261 4.61547C21.827 4.55416 21.7725 4.53905 21.6236 4.53152C21.4102 4.52074 21.2601 4.5636 21.1185 4.67574L21.023 4.75138L20.89 4.6895C20.8169 4.65544 20.7039 4.62044 20.639 4.61172L20.521 4.59582L20.5209 4.4686C20.5206 4.20059 20.4068 4.00344 20.1785 3.87517C20.0305 3.79202 19.7833 3.75759 19.6552 3.80226L19.5798 3.82854L19.5522 3.69551C19.4714 3.30649 19.0246 3.06206 18.6455 3.19954C18.5552 3.23226 18.5438 3.23172 18.5212 3.19361C18.4514 3.0755 18.2715 2.91311 18.155 2.863C17.9863 2.79041 17.6949 2.80067 17.5534 2.88419L17.4612 2.93857L17.3363 2.82623C17.1868 2.69178 17.0018 2.62865 16.8052 2.64498C16.6857 2.65489 16.6641 2.64833 16.5697 2.5736C16.5125 2.52834 16.4056 2.46288 16.3321 2.42812L16.1985 2.3649V2.19174V2.01856H16.4345H16.6705V1.72045V1.42233H16.4345H16.1985V1.21117V1H15.8756H15.5526V1.21117ZM16.0246 1.33538V1.54654H16.2606H16.4966V1.72045V1.89435H16.2606H16.0246V2.19246C16.0246 2.45972 16.0291 2.4906 16.0681 2.49083C16.144 2.49125 16.3806 2.61437 16.5024 2.71682C16.6153 2.81187 16.6237 2.81468 16.7182 2.78924C16.9283 2.73267 17.1502 2.82529 17.2924 3.02882L17.3815 3.15627L17.4421 3.10827C17.5796 2.99938 17.6995 2.95415 17.8505 2.95415C18.1081 2.95415 18.2874 3.08755 18.3749 3.34425C18.3965 3.4076 18.4159 3.4593 18.418 3.45913C18.4201 3.45895 18.4877 3.42542 18.5682 3.3846C18.801 3.26655 19.0399 3.29069 19.2275 3.45128C19.3579 3.56297 19.412 3.70935 19.3989 3.91544L19.3887 4.07548L19.5236 4.00349C19.7422 3.88682 19.9998 3.90876 20.1826 4.05963C20.3571 4.2035 20.4168 4.4442 20.3353 4.67512C20.2994 4.77675 20.2998 4.77874 20.3503 4.76271C20.3787 4.75369 20.4662 4.74632 20.5448 4.74632C20.7033 4.74632 20.8139 4.79113 20.9321 4.90315L21.0079 4.97495L21.1461 4.84107C21.2586 4.73211 21.309 4.7019 21.4167 4.67877C21.7096 4.61596 21.9734 4.75966 22.0745 5.03698C22.0993 5.1053 22.1224 5.16497 22.1258 5.16959C22.1291 5.17421 22.1825 5.1483 22.2444 5.11203C22.4053 5.01772 22.5895 5.00317 22.746 5.07243C22.9907 5.18067 23.092 5.33954 23.0891 5.6105L23.0872 5.78656L23.1891 5.73591C23.4259 5.6181 23.7594 5.69949 23.9084 5.91143C24.0286 6.08247 24.034 6.19871 23.9364 6.50795C23.92 6.55995 23.9235 6.56161 24.0023 6.53901C24.3662 6.43462 24.7295 6.65935 24.7631 7.00971C24.7743 7.12597 24.7559 7.18358 24.6253 7.44053C24.6201 7.45077 24.6443 7.45917 24.679 7.45917C24.7897 7.45917 25.009 7.55712 25.0948 7.64482C25.3067 7.86157 25.2905 8.15519 25.0538 8.38628L24.9187 8.5182L25.0405 8.5494C25.2195 8.59528 25.3786 8.70581 25.4406 8.82732C25.5077 8.95876 25.5124 9.16391 25.4514 9.29908L25.4069 9.39778L25.5083 9.48456C25.7086 9.656 25.7406 9.93037 25.5889 10.1745L25.5133 10.2961L25.5879 10.3811C25.6779 10.4836 25.6979 10.5536 25.6826 10.713C25.66 10.9477 25.4294 11.2027 25.1406 11.3125C24.9737 11.3759 24.8451 11.3717 24.6574 11.2966L24.5001 11.2336L24.3799 11.3098C24.1195 11.475 23.7629 11.5054 23.3949 11.3937C23.3529 11.3809 23.3533 11.3869 23.4011 11.4805C23.4293 11.5359 23.4524 11.6045 23.4524 11.633C23.4524 11.7702 23.3101 11.9061 23.1664 11.9061C23.1308 11.9061 22.9541 11.843 22.7739 11.7659C21.5619 11.2474 20.3165 10.8707 19.0553 10.6411C16.9734 10.2621 14.9063 10.2497 12.8697 10.6041C11.5592 10.8321 10.2746 11.2117 9.05519 11.7312C8.58791 11.9303 8.50603 11.9432 8.39752 11.8347C8.29547 11.7326 8.28171 11.6499 8.34282 11.5052C8.37092 11.4388 8.38997 11.3844 8.38515 11.3844C8.38033 11.3844 8.30027 11.4022 8.20718 11.424C8.09592 11.4501 7.96771 11.4601 7.83277 11.4533C7.65189 11.4441 7.60318 11.4306 7.4221 11.3387L7.21664 11.2345L7.10562 11.2893C6.93563 11.373 6.69098 11.3661 6.50161 11.2721C6.10248 11.0741 5.9386 10.6138 6.1779 10.3629L6.2399 10.2978L6.17666 10.2047C6.0055 9.95243 6.03389 9.66398 6.2484 9.47562L6.34218 9.39326L6.3033 9.30192C6.23806 9.14866 6.23084 9.05791 6.27247 8.91469C6.32124 8.74695 6.44711 8.63063 6.65263 8.56346C6.7314 8.5377 6.80036 8.51362 6.80583 8.50997C6.81132 8.50632 6.76047 8.44886 6.69282 8.38228C6.46947 8.16239 6.4479 7.84726 6.6418 7.63632C6.70964 7.56251 6.92301 7.45974 7.00908 7.45941C7.10641 7.45904 7.11056 7.43788 7.0376 7.31334C6.98481 7.22331 6.97045 7.16669 6.97016 7.04772C6.96919 6.67562 7.31536 6.43705 7.7255 6.52713C7.80099 6.5437 7.80748 6.54092 7.78991 6.49928C7.68195 6.24308 7.6814 6.11362 7.78745 5.93264C7.88536 5.7656 8.06171 5.67085 8.27396 5.67124C8.37772 5.67144 8.47177 5.68806 8.53708 5.71772L8.63871 5.76388L8.62706 5.64248C8.60301 5.39218 8.73892 5.14793 8.95033 5.06157C9.11036 4.99619 9.31531 5.0053 9.45621 5.08406C9.59396 5.16104 9.59058 5.16055 9.59058 5.10395C9.59058 5.07931 9.62017 4.99979 9.65634 4.9272C9.77192 4.69521 10.0199 4.58804 10.2907 4.65301C10.3939 4.67777 10.4482 4.71139 10.5509 4.81409L10.6807 4.94389L10.7381 4.88243C10.8656 4.74572 11.0879 4.67964 11.276 4.72247C11.38 4.74619 11.3833 4.74515 11.3667 4.69328C11.3113 4.52052 11.2997 4.41136 11.3263 4.31415C11.4247 3.95532 11.7975 3.80358 12.1471 3.98006L12.2926 4.05347L12.2691 3.94901C12.2417 3.8275 12.2592 3.70882 12.3228 3.58483C12.382 3.46944 12.4594 3.39946 12.5964 3.33732C12.7579 3.26411 12.9078 3.27069 13.0821 3.35861C13.2254 3.43091 13.2672 3.43503 13.2672 3.37687C13.2672 3.33275 13.3637 3.15778 13.4251 3.09061C13.5171 2.98987 13.6495 2.93775 13.8135 2.93775C13.9852 2.93775 14.0872 2.9735 14.2092 3.07642C14.268 3.12596 14.2975 3.13821 14.3049 3.11607C14.3302 3.04015 14.4821 2.87139 14.5725 2.8187C14.6581 2.76884 14.6963 2.76273 14.8691 2.7713L15.0674 2.78114L15.2228 2.66207C15.3082 2.59658 15.4398 2.52357 15.5151 2.49982L15.652 2.45667V2.16307V1.8695H15.416H15.18V1.70802V1.54654H15.416H15.652V1.33538V1.12421H15.8383H16.0246V1.33538ZM16.7078 2.95198C16.4629 3.07933 16.4018 3.3497 16.5736 3.54536C16.6684 3.6534 16.7681 3.69191 16.9161 3.6777C17.3133 3.63954 17.4143 3.13624 17.0592 2.96436C16.9328 2.90317 16.81 2.89882 16.7078 2.95198ZM14.6812 2.99424C14.5428 3.08755 14.4782 3.20412 14.4907 3.33827C14.5215 3.66957 14.9079 3.81652 15.1569 3.59159C15.3705 3.39854 15.3262 3.1005 15.0636 2.96562C14.9689 2.91696 14.7743 2.93151 14.6812 2.99424ZM15.0941 3.09528C15.1975 3.1987 15.221 3.28575 15.1768 3.40196C15.1111 3.57437 14.9165 3.65084 14.7475 3.57062C14.6972 3.54677 14.6399 3.4958 14.62 3.45734C14.5775 3.37521 14.5727 3.22846 14.6102 3.15838C14.6531 3.07831 14.7851 3.01248 14.903 3.01238C14.9925 3.0123 15.0254 3.02656 15.0941 3.09528ZM17.0656 3.07622C17.1074 3.11138 17.1544 3.18295 17.1701 3.23527C17.1943 3.31616 17.1916 3.34468 17.1519 3.42596C17.055 3.62453 16.8152 3.65882 16.6537 3.49724C16.5598 3.40343 16.5441 3.28565 16.6087 3.16074C16.6889 3.00574 16.9291 2.96133 17.0656 3.07622ZM13.7313 3.1228C13.5561 3.18528 13.4658 3.30995 13.466 3.48926C13.4662 3.69983 13.6397 3.86268 13.8638 3.86268C14.2882 3.86268 14.4162 3.33375 14.038 3.1427C13.9114 3.07871 13.8636 3.0756 13.7313 3.1228ZM17.7144 3.1427C17.5757 3.21356 17.513 3.29981 17.497 3.44176C17.4703 3.67869 17.6721 3.87274 17.9234 3.8519C18.3311 3.81808 18.4361 3.3137 18.0724 3.13612C17.9414 3.07215 17.8491 3.07384 17.7144 3.1427ZM14.0295 3.23462C14.129 3.29531 14.1676 3.36656 14.1659 3.48651C14.1637 3.64903 14.0266 3.78241 13.8617 3.78241C13.7728 3.78241 13.6396 3.70507 13.6015 3.63124C13.4571 3.35218 13.7608 3.07081 14.0295 3.23462ZM18.1034 3.26933C18.1831 3.34237 18.1941 3.36664 18.1941 3.46902C18.1941 3.61504 18.1299 3.70778 17.9957 3.75521C17.8684 3.80025 17.7778 3.77682 17.6727 3.67164C17.6089 3.60786 17.5897 3.56764 17.5897 3.49796C17.5897 3.30729 17.7103 3.18901 17.9068 3.18717C17.9931 3.18635 18.0295 3.20161 18.1034 3.26933ZM18.869 3.44894C18.8554 3.45232 18.8137 3.46184 18.7763 3.47006C18.6011 3.50867 18.4598 3.73265 18.4944 3.91701C18.5293 4.10311 18.7697 4.25281 18.9725 4.21475C19.0854 4.19359 19.2423 4.05479 19.2789 3.94379C19.3477 3.73538 19.2052 3.51274 18.969 3.45965C18.9277 3.45036 18.8827 3.44554 18.869 3.44894ZM12.6637 3.51137C12.521 3.5867 12.4675 3.68947 12.4789 3.86665C12.4875 4.00056 12.4969 4.021 12.5894 4.10723C12.8564 4.35638 13.2676 4.18643 13.267 3.82713C13.2666 3.54533 12.9316 3.36999 12.6637 3.51137ZM13.0871 3.64389C13.197 3.76383 13.2011 3.91828 13.0975 4.03427C13.038 4.10087 13.0055 4.11481 12.8869 4.12465C12.7529 4.13575 12.7426 4.13232 12.6591 4.04878C12.5871 3.97678 12.5716 3.94299 12.5716 3.85818C12.5716 3.65131 12.7106 3.52109 12.9069 3.54412C12.9805 3.55274 13.0273 3.57865 13.0871 3.64389ZM19.078 3.60314C19.1589 3.66354 19.2157 3.8083 19.1935 3.89708C19.1842 3.934 19.1393 4.00155 19.0936 4.04721C18.8603 4.28051 18.4667 4.00197 18.6151 3.70863C18.6322 3.67489 18.6852 3.62081 18.7328 3.58849C18.8346 3.51935 18.9737 3.52526 19.078 3.60314ZM15.7266 3.88484C15.5065 3.97258 15.4103 4.24585 15.5346 4.43026C15.6666 4.62613 15.8879 4.68259 16.0853 4.57075C16.3527 4.41933 16.3414 4.04192 16.0655 3.90839C15.9519 3.85339 15.8272 3.84472 15.7266 3.88484ZM16.052 4.01313C16.1641 4.08852 16.209 4.2189 16.1668 4.34667C16.1311 4.45513 16.0021 4.55254 15.8943 4.55254C15.7182 4.55254 15.5775 4.42013 15.5775 4.25443C15.5775 4.0096 15.8448 3.87366 16.052 4.01313ZM19.7577 4.0808C19.3017 4.18355 19.3816 4.83538 19.8503 4.83538C20.074 4.83538 20.2478 4.66826 20.2478 4.45317C20.2478 4.20479 20.0098 4.02398 19.7577 4.0808ZM11.7002 4.13702C11.5596 4.23174 11.4971 4.34649 11.5101 4.48606C11.524 4.63442 11.5855 4.72187 11.7284 4.79637C12.0977 4.98883 12.494 4.54049 12.231 4.22782C12.1435 4.12385 12.0478 4.08053 11.9058 4.08053C11.8203 4.08053 11.7591 4.09734 11.7002 4.13702ZM14.6006 4.13125C12.9275 4.32908 11.6784 5.5001 11.3555 7.1735C11.2857 7.53531 11.2876 7.57026 11.3793 7.60827C11.4599 7.64164 11.5901 7.77681 11.6335 7.87213C11.6567 7.92291 11.6781 7.93126 11.7869 7.93173C12.0174 7.93272 12.1762 8.04081 12.2749 8.26385C12.3865 8.51616 12.3792 8.78461 12.2565 8.94552C12.193 9.02877 11.8852 9.19817 11.7975 9.19817C11.7257 9.19817 11.7223 9.2415 11.7862 9.34268C11.9313 9.57248 12.2082 9.71754 12.441 9.68564C12.6898 9.65153 12.879 9.52247 12.9851 9.31449C13.0591 9.1694 13.0659 9.027 13.0065 8.86719C12.8768 8.5181 13.2071 8.14602 13.6122 8.18495C13.7831 8.20137 13.9458 8.30345 14.0304 8.44734C14.0894 8.54773 14.1 8.59439 14.1033 8.77055C14.1075 8.98693 14.1277 9.04057 14.2579 9.18185C14.3538 9.28594 14.5483 9.37582 14.7092 9.39041C14.8884 9.40665 15.0632 9.35093 15.1999 9.23395C15.3077 9.14163 15.4284 8.92018 15.4284 8.81465C15.4284 8.75433 15.4215 8.751 15.2963 8.751C15.0971 8.751 14.9106 8.68621 14.8046 8.58015C14.6946 8.4702 14.6585 8.35217 14.659 8.10508C14.6597 7.80018 14.7733 7.62571 15.0275 7.53931C15.1524 7.49688 15.1611 7.48801 15.2182 7.34658C15.2919 7.16388 15.3877 7.0741 15.5583 7.02799C15.6303 7.00851 15.7284 6.98203 15.7762 6.96916L15.8632 6.94576L15.7651 6.90358C15.6314 6.84602 15.5082 6.74853 15.4513 6.6551C15.3876 6.55068 15.3885 6.35649 15.4533 6.22944C15.493 6.15156 15.503 6.08294 15.503 5.88782C15.503 5.69268 15.493 5.62409 15.4533 5.54626C15.425 5.49083 15.4036 5.39983 15.4036 5.33509C15.4036 5.27035 15.425 5.17935 15.4533 5.12393C15.5255 4.98227 15.5245 4.59286 15.4515 4.44979C15.4163 4.3807 15.4024 4.31263 15.4073 4.23338L15.4144 4.11779L15.0923 4.11451C14.9151 4.1127 14.6938 4.12025 14.6006 4.13125ZM16.3696 4.11158C16.368 4.11501 16.3633 4.1752 16.3593 4.24538C16.3551 4.31556 16.3334 4.40848 16.311 4.45188C16.2548 4.56059 16.2694 5.05847 16.3339 5.22951C16.3766 5.34289 16.3766 5.35214 16.3339 5.46552C16.2676 5.64143 16.2547 6.13496 16.3135 6.24653C16.3711 6.35572 16.3684 6.55911 16.3081 6.66123C16.2599 6.74289 16.1547 6.82411 15.9916 6.90549L15.8965 6.95299L16.0634 6.98375C16.3608 7.03855 16.4989 7.14637 16.5761 7.38409C16.6083 7.48321 16.6236 7.49867 16.7172 7.52574C16.8694 7.56979 16.983 7.6475 17.0472 7.75139C17.0921 7.82398 17.1054 7.88848 17.1134 8.07033C17.1245 8.32427 17.0979 8.43837 17.0006 8.55397C16.8999 8.67366 16.7578 8.73289 16.5401 8.74588C16.3615 8.75656 16.3476 8.76133 16.3476 8.81234C16.3476 8.90239 16.4949 9.1696 16.5795 9.23285C16.8749 9.45388 17.2158 9.44846 17.4769 9.21864C17.6406 9.07458 17.6898 8.96693 17.6717 8.79221C17.6371 8.45636 17.8913 8.1807 18.2356 8.1807C18.4107 8.1807 18.5495 8.24395 18.6615 8.3748C18.8088 8.54696 18.839 8.71565 18.7598 8.9242C18.5998 9.34532 19.1061 9.79935 19.5816 9.66112C19.6673 9.63618 19.7604 9.58411 19.8322 9.52088C19.9626 9.40618 20.0659 9.25392 20.0335 9.22426C20.0216 9.21328 19.9529 9.18518 19.881 9.16185C19.705 9.10476 19.5291 8.98114 19.4735 8.87561C19.3815 8.70084 19.4332 8.33239 19.5777 8.13298C19.6711 8.004 19.7728 7.95255 19.9646 7.93714C20.0912 7.92698 20.1228 7.91533 20.1428 7.87141C20.186 7.77663 20.3013 7.65694 20.396 7.60862L20.4883 7.56152L20.4685 7.41718C20.3496 6.55272 19.9661 5.75817 19.3916 5.18604C18.6667 4.46403 17.7598 4.10639 16.6519 4.10557C16.4982 4.10547 16.3711 4.10815 16.3696 4.11158ZM12.0902 4.21686C12.174 4.27174 12.232 4.41422 12.2126 4.51739C12.2035 4.56628 12.1629 4.62876 12.1104 4.67487C11.9148 4.84658 11.6018 4.71439 11.6031 4.46062C11.604 4.29209 11.7705 4.14184 11.9329 4.1631C11.9846 4.16989 12.0554 4.19406 12.0902 4.21686ZM20.0639 4.23952C20.1347 4.31035 20.1484 4.34187 20.1484 4.43491C20.1484 4.55982 20.089 4.65482 19.9735 4.71452C19.8819 4.76192 19.8161 4.76095 19.7101 4.71067C19.606 4.66128 19.5522 4.56456 19.5522 4.42708C19.5522 4.34297 19.5677 4.30843 19.6366 4.23952C19.711 4.16512 19.7365 4.15505 19.8503 4.15505C19.9641 4.15505 19.9895 4.16512 20.0639 4.23952ZM15.2894 4.38485C15.3557 4.60737 15.3695 4.97204 15.3156 5.0763C15.246 5.2108 15.2398 5.41881 15.3012 5.55754C15.334 5.63182 15.3539 5.72816 15.3539 5.813V5.94919L15.2607 5.93428C15.0475 5.90017 13.9891 5.88792 13.7121 5.91637C13.0048 5.98906 12.3659 6.14882 11.8592 6.37971C11.7592 6.4253 11.6775 6.45486 11.6778 6.4454C11.6793 6.39743 11.9665 5.88954 12.0923 5.71248C12.3966 5.28407 12.9023 4.84847 13.3669 4.61445C13.8359 4.37827 14.4291 4.2423 15.0315 4.23289L15.2432 4.22958L15.2894 4.38485ZM17.0956 4.25589C17.6048 4.30816 17.9518 4.40719 18.397 4.62729C18.561 4.70836 18.7908 4.84681 18.9077 4.93495C19.3169 5.2434 19.7378 5.74537 19.9609 6.19066C20.1062 6.4808 20.1077 6.47787 19.8703 6.36826C19.4614 6.17955 18.8547 6.01676 18.2728 5.93965C17.9986 5.90333 16.9598 5.89451 16.627 5.92568L16.4221 5.94491V5.79832C16.4221 5.71767 16.4389 5.61157 16.4594 5.56251C16.4799 5.51347 16.4966 5.4167 16.4966 5.34752C16.4966 5.27833 16.4799 5.18156 16.4594 5.13252C16.4347 5.0736 16.4221 4.95977 16.4221 4.79714C16.4221 4.6345 16.4347 4.52067 16.4594 4.46176C16.4799 4.4127 16.4966 4.34786 16.4966 4.31765C16.4966 4.28742 16.5041 4.25525 16.5132 4.24615C16.5377 4.22158 16.8047 4.22606 17.0956 4.25589ZM10.0456 4.82725C9.87512 4.87893 9.74338 5.09064 9.77543 5.26146C9.79401 5.36061 9.89022 5.48323 9.98976 5.53473C10.2255 5.65664 10.5413 5.49307 10.5765 5.23083C10.6118 4.96757 10.3184 4.74458 10.0456 4.82725ZM21.3901 4.84698C21.2044 4.94563 21.1299 5.15603 21.2169 5.33579C21.3174 5.54345 21.5575 5.62322 21.7616 5.51682C21.9046 5.44232 21.9661 5.35487 21.98 5.20651C21.989 5.10967 21.9799 5.07009 21.9324 5.00031C21.8023 4.8089 21.58 4.74604 21.3901 4.84698ZM11.0472 4.91107C10.755 5.01773 10.6747 5.3497 10.8945 5.54263C11.0057 5.64031 11.123 5.67254 11.2574 5.6423C11.4522 5.59855 11.5779 5.45369 11.5779 5.27299C11.5779 5.01499 11.2937 4.82114 11.0472 4.91107ZM20.4543 4.90163C20.2838 4.95366 20.1521 5.16522 20.1842 5.33599C20.2028 5.43514 20.299 5.55776 20.3985 5.60926C20.6343 5.73116 20.95 5.5676 20.9852 5.30536C21.0208 5.04021 20.7286 4.81804 20.4543 4.90163ZM21.6976 4.90976C21.8668 4.98044 21.9341 5.16015 21.8513 5.32021C21.7996 5.42033 21.707 5.47173 21.5785 5.47173C21.4894 5.47173 21.4493 5.4564 21.3807 5.39616C21.1696 5.21085 21.2896 4.90499 21.5838 4.87838C21.6013 4.87679 21.6525 4.8909 21.6976 4.90976ZM10.3348 4.94099C10.5058 5.04195 10.532 5.27351 10.3872 5.40289C10.2862 5.49322 10.1993 5.51185 10.0774 5.46937C9.85251 5.39099 9.79943 5.14085 9.97374 4.98111C10.0756 4.88777 10.218 4.87195 10.3348 4.94099ZM15.783 4.9739C15.4644 5.05059 15.3666 5.44599 15.6175 5.64334C15.8428 5.82057 16.1936 5.71072 16.2685 5.43951C16.3436 5.16743 16.0699 4.90489 15.783 4.9739ZM11.3403 5.02322C11.595 5.1912 11.4713 5.5711 11.1618 5.5711C11.0519 5.5711 10.9253 5.47394 10.8854 5.35912C10.8557 5.27341 10.8563 5.24849 10.8902 5.16795C10.9631 4.99412 11.1869 4.92215 11.3403 5.02322ZM20.7466 5.01725C20.786 5.04056 20.8365 5.09794 20.8587 5.14475C20.9855 5.41198 20.6824 5.67686 20.4275 5.52149C20.2476 5.41176 20.228 5.19004 20.386 5.05129C20.4879 4.9618 20.63 4.94839 20.7466 5.01725ZM16.052 5.10622C16.1641 5.18161 16.209 5.31199 16.1668 5.43976C16.1311 5.54822 16.0021 5.64563 15.8943 5.64563C15.7182 5.64563 15.5775 5.51322 15.5775 5.34752C15.5775 5.10269 15.8448 4.96675 16.052 5.10622ZM9.00118 5.22419C8.64542 5.40513 8.75358 5.90521 9.15572 5.93855C9.30241 5.95073 9.38968 5.91513 9.50154 5.79745C9.60387 5.6898 9.62009 5.49588 9.5369 5.37464C9.40516 5.18268 9.19753 5.12438 9.00118 5.22419ZM22.3966 5.21269C22.1494 5.34123 22.089 5.60859 22.2624 5.80612C22.5137 6.09236 23.0222 5.88407 22.9727 5.51516C22.9383 5.2585 22.6249 5.09394 22.3966 5.21269ZM9.40675 5.35745C9.4779 5.4286 9.49121 5.45961 9.49121 5.55428C9.49121 5.82788 9.16076 5.96138 8.97485 5.76291C8.84629 5.62566 8.85546 5.45578 8.99793 5.33591C9.05623 5.28685 9.1002 5.27299 9.19751 5.27299C9.30629 5.27299 9.33312 5.28382 9.40675 5.35745ZM22.7492 5.32158C22.8375 5.37541 22.8979 5.52514 22.8724 5.62692C22.8092 5.87876 22.462 5.9386 22.3168 5.72269C22.2508 5.62474 22.2444 5.52412 22.2975 5.42145C22.3722 5.27696 22.5952 5.22767 22.7492 5.32158ZM8.07522 5.87021C7.94878 5.94643 7.89368 6.03427 7.88215 6.17801C7.87398 6.27995 7.88315 6.32012 7.93017 6.38863C8.06111 6.57943 8.25861 6.63796 8.45237 6.54338C8.723 6.41131 8.75823 6.062 8.51815 5.89105C8.4042 5.80992 8.19183 5.7999 8.07522 5.87021ZM20.9596 5.85548C20.841 5.89813 20.7486 5.98141 20.7041 6.0858C20.6576 6.19506 20.6612 6.25764 20.7215 6.38215C20.8762 6.70178 21.3535 6.66655 21.4655 6.32722C21.5594 6.04289 21.2474 5.75201 20.9596 5.85548ZM23.2791 5.87381C23.0238 6.04729 23.0138 6.34168 23.257 6.52179C23.4197 6.6423 23.716 6.5797 23.8261 6.4015C23.8894 6.29907 23.8955 6.13066 23.8398 6.02299C23.7429 5.83558 23.45 5.75765 23.2791 5.87381ZM10.4903 5.88569C10.2333 6.01236 10.2193 6.38965 10.466 6.54013C10.5887 6.61498 10.6949 6.62643 10.8206 6.57843C11.137 6.4576 11.1822 6.06525 10.8996 5.89297C10.8013 5.833 10.6043 5.82949 10.4903 5.88569ZM8.41158 5.93346C8.54908 5.9987 8.6097 6.13131 8.56915 6.27813C8.51184 6.48574 8.23443 6.56527 8.07242 6.42051C7.96495 6.32446 7.94339 6.14018 8.0272 6.03398C8.08528 5.96039 8.20229 5.89674 8.28263 5.89503C8.30789 5.89451 8.36592 5.9118 8.41158 5.93346ZM23.6148 5.93346C23.8163 6.02908 23.8446 6.28243 23.6701 6.42925C23.6006 6.48776 23.5753 6.49427 23.4555 6.48435C23.3418 6.47491 23.3084 6.46033 23.2495 6.39435C23.1222 6.25195 23.1616 6.04881 23.3373 5.94171C23.4321 5.88385 23.5057 5.88166 23.6148 5.93346ZM10.8601 5.97572C11.172 6.18562 10.8703 6.65152 10.5348 6.47802C10.4343 6.42602 10.3855 6.34628 10.3855 6.23396C10.3855 5.98074 10.652 5.8357 10.8601 5.97572ZM21.2355 5.96851C21.4084 6.0739 21.4337 6.2916 21.2892 6.43005C21.2244 6.49208 21.1937 6.50271 21.0788 6.50271C20.9616 6.50271 20.9344 6.49285 20.8674 6.42587C20.7787 6.33706 20.7488 6.19031 20.7999 6.09355C20.8454 6.00739 20.9861 5.91888 21.0774 5.919C21.1198 5.91905 21.191 5.94134 21.2355 5.96851ZM14.7142 5.98503C14.6972 5.99194 14.6692 5.99194 14.6521 5.98503C14.635 5.97815 14.649 5.97251 14.6832 5.97251C14.7173 5.97251 14.7313 5.97815 14.7142 5.98503ZM15.0996 6.0105C15.0758 6.01671 15.0311 6.01693 15.0002 6.011C14.9693 6.00506 14.9887 5.99997 15.0434 5.99969C15.098 5.99942 15.1233 6.00429 15.0996 6.0105ZM15.3681 6.05119C15.375 6.06928 15.3579 6.13727 15.3301 6.20229C15.2659 6.35189 15.2653 6.54375 15.3284 6.68282C15.3547 6.74091 15.3707 6.78841 15.3639 6.78841C15.3571 6.78841 15.3299 6.74091 15.3035 6.68282C15.2456 6.55521 15.2403 6.34883 15.2918 6.22561C15.3474 6.09253 15.3401 6.04809 15.2607 6.03606C15.1978 6.02652 15.1988 6.02543 15.2739 6.022C15.3216 6.01981 15.3607 6.03194 15.3681 6.05119ZM15.7853 6.06776C15.378 6.15978 15.3737 6.70486 15.7795 6.81412C16.0535 6.8879 16.3429 6.61826 16.2707 6.35654C16.2125 6.14574 15.9999 6.01927 15.7853 6.06776ZM9.66923 6.27995C9.07898 6.58867 8.56575 6.99373 8.27326 7.3817C7.93012 7.83685 7.71887 8.44702 7.6156 9.28112C7.56445 9.69426 7.5635 9.68564 7.66518 9.73388C7.85964 9.82618 8.02464 10.1115 8.04457 10.3899C8.05319 10.5105 8.04584 10.5758 8.01739 10.6308C7.96701 10.7282 7.82536 10.8519 7.68742 10.9189C7.62745 10.9481 7.57838 10.9794 7.57838 10.9886C7.57838 11.0219 7.81813 11.0727 7.96343 11.0701C8.1415 11.0669 8.26472 11.0175 8.40053 10.8948C8.52829 10.7794 8.59169 10.6548 8.6124 10.4786C8.62661 10.3577 8.62184 10.3318 8.57643 10.2835C8.51825 10.2216 8.44785 10.0422 8.44785 9.95588C8.44785 9.77589 8.60103 9.5535 8.78322 9.46896C8.91376 9.40839 9.14795 9.40797 9.28028 9.46809C9.44111 9.54115 9.59058 9.73689 9.59058 9.87442C9.59058 9.9564 9.69705 10.0749 9.84223 10.1545C9.9564 10.2171 10.0025 10.2277 10.1619 10.2277C10.3211 10.2277 10.3676 10.2171 10.4807 10.155C10.7014 10.034 10.8288 9.83932 10.8516 9.58838L10.8649 9.44086L10.706 9.46235C10.2064 9.52992 9.99468 9.39547 9.89837 8.94944C9.86555 8.79753 9.86354 8.74364 9.88741 8.65558C9.92021 8.53459 10.0759 8.34976 10.182 8.30581C10.244 8.2801 10.2507 8.26514 10.2524 8.14714C10.2534 8.07547 10.2735 7.97975 10.2969 7.93444C10.3203 7.88912 10.3359 7.84967 10.3315 7.84681C10.327 7.84393 10.2735 7.81981 10.2124 7.79323C9.97861 7.6914 9.86344 7.52982 9.86439 7.30489C9.86545 7.04538 10.0153 6.86202 10.2994 6.77246L10.4299 6.73134L10.3006 6.60459C10.2012 6.50716 10.1641 6.44918 10.1399 6.35365C10.0721 6.08508 10.0488 6.08143 9.66923 6.27995ZM16.052 6.19931C16.1641 6.2747 16.209 6.40508 16.1668 6.53285C16.0879 6.77221 15.7285 6.80972 15.6152 6.59048C15.4679 6.30568 15.7863 6.02051 16.052 6.19931ZM21.7072 6.15961C21.6749 6.16805 21.6637 6.19662 21.6637 6.27098C21.6637 6.4101 21.6038 6.52224 21.4607 6.6509L21.3383 6.76098L21.445 6.7897C21.6897 6.85558 21.8703 7.00767 21.9015 7.17409C21.9557 7.46312 21.8584 7.664 21.6005 7.79539L21.4526 7.87074L21.495 7.99413C21.5183 8.06198 21.5378 8.15914 21.5384 8.21002C21.5393 8.28589 21.5522 8.30909 21.6097 8.33885C21.7181 8.39492 21.8569 8.56338 21.8871 8.67572C21.9412 8.87665 21.8278 9.2333 21.6623 9.38288C21.5453 9.48851 21.4509 9.50774 21.1471 9.48779L20.9115 9.47231L20.927 9.62102C20.9658 9.99228 21.2259 10.2398 21.5786 10.241C21.868 10.2421 22.1372 10.0881 22.1722 9.90165C22.2118 9.69053 22.3758 9.49693 22.5581 9.44623C22.7884 9.38213 23.0035 9.4426 23.1591 9.61521C23.3292 9.80387 23.3453 10.0461 23.2026 10.2685C23.1221 10.3939 23.121 10.3994 23.149 10.533C23.2027 10.7891 23.3643 10.9775 23.5989 11.0574C23.7035 11.0931 23.9464 11.0909 24.1085 11.0528L24.2305 11.0241L24.0588 10.9221C23.8212 10.781 23.738 10.6604 23.738 10.4568C23.738 10.1652 23.9118 9.84737 24.1221 9.7546L24.2192 9.71177L24.206 9.5854C24.0378 7.9713 23.5684 7.16746 22.383 6.46356C22.1142 6.30394 21.8 6.14087 21.7699 6.14537C21.7594 6.14696 21.7311 6.15337 21.7072 6.15961ZM22.0831 6.40734C22.7265 6.78344 23.1855 7.18537 23.4801 7.63068C23.5741 7.77286 23.6511 7.89938 23.6511 7.91185C23.6511 7.92435 23.6204 7.91285 23.5828 7.88631C23.3566 7.7265 22.9733 7.57844 22.4233 7.43837L22.0524 7.34392L22.0205 7.18751C21.9746 6.96211 21.8615 6.80324 21.6811 6.71045L21.5867 6.66191L21.6491 6.58775C21.7102 6.51516 21.7627 6.3745 21.763 6.28268C21.7632 6.22397 21.782 6.2313 22.0831 6.40734ZM9.99955 6.35987C10.0089 6.41112 10.045 6.50189 10.0797 6.56161C10.1166 6.62524 10.1327 6.67669 10.1185 6.68583C9.88476 6.83678 9.77463 6.98501 9.73282 7.20505L9.70428 7.3553L9.42136 7.42215C8.91158 7.54261 8.41044 7.73125 8.19767 7.88274C8.15608 7.91237 8.11716 7.9317 8.11117 7.92572C8.10518 7.91973 8.16451 7.80975 8.24301 7.68131C8.41263 7.40381 8.82428 6.97674 9.13118 6.75989C9.3209 6.62583 9.92801 6.2667 9.9649 6.2667C9.97459 6.2667 9.99019 6.30864 9.99955 6.35987ZM7.32013 6.72049C7.13769 6.8251 7.07504 7.06891 7.18715 7.23811C7.26995 7.36305 7.44936 7.44441 7.59418 7.4227C7.73859 7.40103 7.89656 7.2634 7.92354 7.13574C7.99518 6.79655 7.62812 6.54393 7.32013 6.72049ZM24.0291 6.7055C23.9118 6.76334 23.8426 6.87377 23.8307 7.02213C23.8177 7.1848 23.8889 7.29873 24.0551 7.38121C24.2192 7.46262 24.3649 7.44073 24.5001 7.31433C24.6492 7.17504 24.6702 6.99373 24.5573 6.82145C24.4599 6.67279 24.2078 6.61744 24.0291 6.7055ZM7.66106 6.77261C7.93817 6.88837 7.87284 7.29423 7.57163 7.32817C7.29626 7.35922 7.12425 7.06767 7.29688 6.86249C7.40168 6.73795 7.5126 6.71057 7.66106 6.77261ZM24.419 6.80758C24.6328 6.96616 24.5105 7.33495 24.2442 7.33495C24.0517 7.33495 23.9244 7.2125 23.9244 7.02754C23.9244 6.93423 24.0166 6.801 24.1086 6.76153C24.1845 6.72898 24.3453 6.75286 24.419 6.80758ZM10.3015 6.93831C10.1491 6.98394 10.0377 7.14321 10.0378 7.31508C10.0382 7.69622 10.5307 7.82145 10.7683 7.50083C10.8437 7.39912 10.84 7.20107 10.7606 7.08983C10.66 6.94884 10.4728 6.88703 10.3015 6.93831ZM15.3999 6.9627C15.2821 7.02496 15.1367 7.19618 15.1013 7.31443C15.0771 7.39519 15.0575 7.41316 14.9581 7.44617C14.6813 7.53814 14.5586 7.731 14.5315 8.11701L14.514 8.36593L14.5192 8.10508C14.5234 7.8928 14.5344 7.82508 14.5781 7.74131C14.6453 7.6125 14.8078 7.47144 14.9396 7.42752C15.0237 7.39949 15.0457 7.37766 15.0732 7.2952C15.0913 7.2409 15.1405 7.15469 15.1826 7.10364C15.2534 7.01771 15.4077 6.91481 15.4657 6.91481C15.4794 6.91481 15.4498 6.93637 15.3999 6.9627ZM21.1918 6.94052C21.0444 6.99932 20.9433 7.15044 20.9433 7.31214C20.9433 7.68429 21.4716 7.82249 21.6815 7.50527C21.735 7.42434 21.7428 7.38951 21.7331 7.27259C21.7241 7.16408 21.7064 7.11887 21.6492 7.05808C21.5247 6.92564 21.3449 6.87946 21.1918 6.94052ZM10.5851 7.04968C10.752 7.13601 10.7797 7.3858 10.6366 7.51372C10.4236 7.70409 10.0882 7.54716 10.1218 7.27287C10.1392 7.13156 10.2718 7.01199 10.4112 7.01199C10.4668 7.01199 10.545 7.02896 10.5851 7.04968ZM21.5544 7.09646C21.6234 7.16537 21.6389 7.1999 21.6389 7.28402C21.6389 7.4215 21.585 7.51822 21.481 7.5676C21.375 7.61789 21.3092 7.61886 21.2176 7.57146C21.0447 7.48207 20.9856 7.26524 21.0958 7.12508C21.1616 7.04138 21.2232 7.01559 21.3619 7.01356C21.4528 7.01224 21.4834 7.02543 21.5544 7.09646ZM15.725 7.39341C15.5625 7.43765 15.4531 7.50845 15.3612 7.62909C15.0495 8.03763 15.3529 8.62678 15.8749 8.62678C16.4269 8.62678 16.7259 8.0033 16.3685 7.59732C16.207 7.4138 15.9497 7.33227 15.725 7.39341ZM16.0589 7.48622C16.1177 7.50254 16.2015 7.55911 16.2737 7.6313C16.3677 7.72541 16.3982 7.77718 16.4221 7.88403C16.4986 8.22604 16.239 8.53658 15.8778 8.53514C15.7091 8.53447 15.5908 8.48727 15.48 8.37644C15.3717 8.26815 15.3291 8.16229 15.3291 8.00193C15.3291 7.62673 15.6777 7.38036 16.0589 7.48622ZM6.89399 7.64318C6.7154 7.72096 6.62229 7.93232 6.68659 8.11405C6.80183 8.43984 7.26515 8.46533 7.42454 8.15467C7.58966 7.83278 7.23773 7.49345 6.89399 7.64318ZM24.4801 7.67018C24.3572 7.74387 24.297 7.85854 24.297 8.01895C24.297 8.12421 24.3081 8.14754 24.4034 8.24284C24.5697 8.40918 24.7874 8.42305 24.9528 8.27786C25.0604 8.18341 25.1013 8.08143 25.0861 7.94614C25.0543 7.66457 24.7333 7.51837 24.4801 7.67018ZM7.25005 7.75174C7.3121 7.79241 7.37965 7.91916 7.37965 7.99495C7.37965 8.07281 7.29785 8.20694 7.22849 8.24281C6.94263 8.39063 6.64609 8.10359 6.80886 7.8366C6.89943 7.68804 7.09533 7.65038 7.25005 7.75174ZM24.8029 7.71701C24.9257 7.76834 24.9926 7.86778 24.9926 7.99913C24.9926 8.09216 24.9789 8.12369 24.9081 8.19452C24.8337 8.26892 24.8082 8.27898 24.6945 8.27898C24.5807 8.27898 24.5552 8.26892 24.4808 8.19452C24.3326 8.04633 24.3701 7.81422 24.5559 7.72983C24.6783 7.67426 24.6981 7.67321 24.8029 7.71701ZM10.9286 7.97212C10.8003 7.99468 10.6013 8.13768 10.5241 8.26298C10.3796 8.4972 10.4117 8.81629 10.5991 9.00927C10.8561 9.27399 11.2533 9.28793 11.5215 9.04166C11.6662 8.90875 11.7257 8.77905 11.7264 8.59493C11.7274 8.35135 11.6147 8.16006 11.4024 8.04447C11.2766 7.97605 11.0786 7.94579 10.9286 7.97212ZM20.521 7.97925C20.2135 8.07313 20.0407 8.29359 20.042 8.59031C20.0433 8.8726 20.2225 9.11008 20.4943 9.18963C20.8342 9.2891 21.1782 9.12004 21.3035 8.79186C21.3576 8.65024 21.3438 8.45571 21.2693 8.30966C21.1405 8.05736 20.7827 7.89936 20.521 7.97925ZM11.2886 8.08956C11.5141 8.18373 11.6426 8.39557 11.6224 8.63943C11.5895 9.03644 11.1209 9.25305 10.767 9.03483C10.3013 8.74767 10.5181 8.06049 11.0757 8.05637C11.1478 8.05584 11.2437 8.07077 11.2886 8.08956ZM13.6092 8.07316C13.5719 8.07882 13.5048 8.07892 13.4602 8.07341C13.4155 8.06787 13.446 8.06322 13.528 8.0631C13.61 8.06295 13.6465 8.06747 13.6092 8.07316ZM20.8707 8.08374C21.0904 8.14958 21.2399 8.35674 21.2409 8.59672C21.2421 8.89288 21.005 9.12364 20.6994 9.12364C20.4564 9.12364 20.2766 9.01649 20.1832 8.81601C20.1083 8.65513 20.1082 8.52403 20.183 8.36347C20.2985 8.11539 20.586 7.99846 20.8707 8.08374ZM13.3013 8.11035C13.1682 8.1532 12.9886 8.30805 12.9222 8.43713C12.8395 8.59797 12.8244 8.80727 12.8836 8.97198C12.9216 9.07776 12.9237 9.11063 12.8978 9.1971C12.8431 9.37985 12.6161 9.57226 12.4598 9.56853C12.4325 9.56788 12.4613 9.55159 12.5238 9.53233C12.6673 9.48811 12.8022 9.35831 12.8589 9.2098C12.9003 9.10133 12.9005 9.08794 12.8613 8.97873C12.8017 8.81244 12.8083 8.61568 12.8785 8.4653C12.9642 8.28157 13.211 8.07825 13.3417 8.08374C13.3622 8.08461 13.344 8.09659 13.3013 8.11035ZM14.5982 8.5212C14.6162 8.56562 14.6254 8.60194 14.6185 8.60194C14.6008 8.60194 14.5337 8.43587 14.5361 8.39778C14.5373 8.37714 14.5429 8.37905 14.5517 8.4032C14.5593 8.42369 14.5801 8.47678 14.5982 8.5212ZM21.9819 8.51564C21.9742 8.52329 21.9604 8.5095 21.951 8.485C21.9376 8.4496 21.9404 8.44675 21.9649 8.47109C21.9819 8.48796 21.9895 8.50801 21.9819 8.51564ZM14.6956 8.67647C14.7203 8.7038 14.735 8.72616 14.7281 8.72616C14.7213 8.72616 14.6955 8.7038 14.6707 8.67647C14.646 8.64914 14.6314 8.62678 14.6382 8.62678C14.645 8.62678 14.6709 8.64914 14.6956 8.67647ZM22.0112 8.99588C21.9729 9.1702 21.9328 9.26237 21.84 9.39003C21.7721 9.48354 21.5768 9.61643 21.5487 9.58831C21.5428 9.58237 21.5722 9.56331 21.6141 9.54595C21.7237 9.50056 21.877 9.31493 21.9395 9.15214C21.9691 9.07498 22.0002 8.92241 22.0086 8.81311C22.022 8.63908 22.025 8.62981 22.0322 8.73858C22.0368 8.8069 22.0274 8.92266 22.0112 8.99588ZM6.71575 8.70159C6.52939 8.74357 6.41106 8.88908 6.41091 9.07649C6.41079 9.22691 6.48847 9.34268 6.63993 9.41786C6.77311 9.48394 6.89372 9.47731 7.02637 9.39662C7.39123 9.17472 7.13732 8.60659 6.71575 8.70159ZM24.7695 8.73237C24.6138 8.81191 24.5578 8.89901 24.5578 9.06153C24.5578 9.21164 24.6062 9.29672 24.7464 9.39291C24.8171 9.44141 24.8547 9.44933 24.9742 9.44099C25.1863 9.42616 25.3324 9.29916 25.3561 9.10906C25.3822 8.90053 25.1746 8.67647 24.9553 8.67647C24.9133 8.67647 24.8296 8.70161 24.7695 8.73237ZM6.94847 8.81646C7.15267 8.91337 7.15861 9.23072 6.95816 9.33439C6.7122 9.46158 6.43255 9.23799 6.51704 8.98171C6.55279 8.87325 6.68177 8.77584 6.78958 8.77584C6.8299 8.77584 6.90139 8.79413 6.94847 8.81646ZM25.1188 8.81822C25.2789 8.91283 25.3035 9.13944 25.1684 9.27461C24.9276 9.51534 24.5263 9.22605 24.6824 8.9243C24.7547 8.78426 24.9719 8.7315 25.1188 8.81822ZM15.2191 9.04119C15.1457 9.15127 15.0255 9.23854 14.9192 9.25889L14.8446 9.27315L14.9256 9.24165C15.046 9.19484 15.1775 9.08089 15.2243 8.98278C15.247 8.93511 15.2694 8.90739 15.274 8.9212C15.2786 8.93499 15.2539 8.98899 15.2191 9.04119ZM15.7912 8.9808C15.7482 9.20607 15.5699 9.45537 15.3451 9.6046C15.2363 9.67677 15.2134 9.70392 15.2223 9.75008L15.2331 9.80682H15.876C16.4979 9.80682 16.5194 9.80521 16.5323 9.75714C16.5526 9.68159 16.5501 9.67476 16.4968 9.65782C16.3188 9.60135 16.0599 9.28987 15.9828 9.03957C15.9446 8.91546 15.9325 8.90006 15.8732 8.90006C15.8178 8.90006 15.804 8.9136 15.7912 8.9808ZM13.5711 9.26607C13.469 9.27526 13.4624 9.2811 13.3877 9.42941C13.3396 9.52498 13.2454 9.64698 13.1391 9.7516C12.9894 9.89894 12.9714 9.92622 12.9949 9.97017C13.0114 10.0009 13.0381 10.0155 13.0638 10.0078C13.1087 9.99429 14.2878 9.84409 14.3487 9.84409C14.3703 9.84409 14.3851 9.82041 14.3851 9.78576C14.3851 9.73796 14.3517 9.71093 14.2003 9.6361C14.0667 9.5701 13.9783 9.50364 13.8812 9.39632C13.8073 9.31466 13.7312 9.24982 13.712 9.2522C13.6928 9.25459 13.6294 9.26083 13.5711 9.26607ZM17.8721 9.40586C17.7674 9.5134 17.6647 9.58885 17.5436 9.64728C17.4049 9.71418 17.3672 9.74397 17.3667 9.78707C17.366 9.85062 17.3535 9.84779 17.9002 9.90788C18.1051 9.93042 18.3623 9.9644 18.4716 9.98338C18.731 10.0285 18.7509 10.0274 18.7701 9.96694C18.783 9.92624 18.7537 9.88605 18.6257 9.76874C18.5202 9.67203 18.4367 9.56672 18.3822 9.46156C18.3029 9.3087 18.2943 9.30082 18.1897 9.28512C18.1294 9.2761 18.0676 9.26438 18.0523 9.25906C18.0369 9.25377 17.9559 9.31983 17.8721 9.40586ZM14.7887 9.28915C14.7717 9.29605 14.7437 9.29605 14.7266 9.28915C14.7096 9.28226 14.7235 9.27663 14.7577 9.27663C14.7919 9.27663 14.8058 9.28226 14.7887 9.28915ZM9.55327 9.50036L9.62774 9.58324L9.52842 9.49636C9.4738 9.44856 9.41793 9.3997 9.40426 9.38772C9.3906 9.37577 9.40178 9.37759 9.42911 9.39175C9.45643 9.40591 9.5123 9.45477 9.55327 9.50036ZM11.2985 9.43887C11.2682 9.4468 11.255 9.47502 11.255 9.53199C11.255 9.78275 11.1495 10.0607 10.9834 10.2474C10.9064 10.334 10.883 10.3783 10.8947 10.4151C10.9034 10.4426 10.9256 10.4652 10.9439 10.4652C10.9622 10.4652 11.1711 10.4155 11.408 10.3548C11.6449 10.2942 11.9087 10.2312 11.994 10.215C12.1416 10.1869 12.1493 10.1819 12.1493 10.1141C12.1493 10.0628 12.1371 10.0428 12.1058 10.0428C12.017 10.0428 11.7461 9.89117 11.6176 9.76958C11.5445 9.7005 11.4582 9.59399 11.4258 9.53288C11.3934 9.47177 11.3613 9.42305 11.3544 9.42464C11.3475 9.42623 11.3224 9.43264 11.2985 9.43887ZM23.4131 9.77048C23.4347 9.84324 23.4524 9.93253 23.4524 9.96887C23.4524 10.0667 23.3911 10.2525 23.3311 10.3368C23.3022 10.3774 23.277 10.4369 23.2751 10.469C23.2719 10.5243 23.2712 10.5245 23.2612 10.4736C23.2553 10.4431 23.2835 10.3617 23.3266 10.2854C23.4731 10.0258 23.4448 9.74904 23.2487 9.52543L23.1469 9.40934L23.2603 9.52374C23.3402 9.6043 23.3854 9.67732 23.4131 9.77048ZM20.3601 9.49465C20.3036 9.6726 19.9716 9.95273 19.7405 10.0174C19.6408 10.0453 19.6267 10.0577 19.6267 10.1174C19.6267 10.1808 19.6369 10.1874 19.7778 10.2152C19.861 10.2315 20.1264 10.2945 20.3675 10.355C20.6087 10.4156 20.8142 10.4652 20.8241 10.4652C20.8341 10.4652 20.8534 10.4442 20.8671 10.4187C20.8875 10.3806 20.8734 10.3526 20.7899 10.2648C20.6406 10.1079 20.543 9.88197 20.5241 9.64989C20.5092 9.46618 20.5061 9.45872 20.4424 9.45137C20.3936 9.44571 20.372 9.45706 20.3601 9.49465ZM9.67872 9.6725C9.70058 9.71476 9.71404 9.75373 9.70865 9.75912C9.70326 9.76452 9.68026 9.72996 9.65753 9.68229C9.60645 9.57516 9.62414 9.56697 9.67872 9.6725ZM21.0747 9.64534C21.0676 9.67267 21.0575 9.69503 21.0522 9.69503C21.047 9.69503 21.0427 9.67267 21.0427 9.64534C21.0427 9.61802 21.0528 9.59566 21.0652 9.59566C21.0776 9.59566 21.0819 9.61802 21.0747 9.64534ZM21.508 9.61066C21.4997 9.61891 21.4783 9.61981 21.4604 9.61263C21.4405 9.6047 21.4464 9.59881 21.4754 9.59762C21.5016 9.59655 21.5162 9.60242 21.508 9.61066ZM21.3597 9.63757C21.336 9.64378 21.2913 9.644 21.2604 9.63807C21.2295 9.63213 21.2489 9.62704 21.3035 9.62676C21.3582 9.62649 21.3835 9.63136 21.3597 9.63757ZM9.73123 9.87514C9.72435 9.89223 9.71871 9.87825 9.71871 9.84409C9.71871 9.80993 9.72435 9.79597 9.73123 9.81303C9.73814 9.83013 9.73814 9.85807 9.73123 9.87514ZM6.71962 9.88774C6.26052 10.052 6.13706 10.5594 6.4724 10.9038C6.59877 11.0336 6.77082 11.1111 6.9325 11.1111C7.09417 11.1111 7.26622 11.0336 7.39259 10.9038C7.52493 10.7679 7.57838 10.6437 7.57838 10.4722C7.57838 10.0455 7.13058 9.74072 6.71962 9.88774ZM24.6696 9.86585C24.3797 9.96127 24.2077 10.1584 24.18 10.4273C24.1451 10.7657 24.401 11.0674 24.7535 11.1035C25.2042 11.1497 25.577 10.7275 25.4546 10.3093C25.4056 10.142 25.2932 10.0078 25.1344 9.92741C25.0003 9.85942 24.7784 9.83003 24.6696 9.86585ZM7.16849 9.99066C7.28657 10.0454 7.4153 10.1752 7.45442 10.2788C7.55384 10.5423 7.41338 10.8634 7.15066 10.9731C6.74325 11.1433 6.2872 10.7776 6.38717 10.3608C6.42341 10.2097 6.55182 10.0557 6.6965 9.98982C6.82647 9.93062 7.03991 9.93099 7.16849 9.99066ZM25.0935 10.0118C25.2744 10.1035 25.3649 10.2348 25.382 10.4303C25.3995 10.631 25.3058 10.8157 25.1317 10.9234C24.7533 11.1573 24.2732 10.9081 24.2732 10.4776C24.2732 10.0661 24.7107 9.81763 25.0935 10.0118ZM8.14898 10.1298C8.14898 10.1434 8.13815 10.1379 8.12491 10.1174C8.11167 10.0969 8.10084 10.0689 8.10084 10.0553C8.10084 10.0416 8.11167 10.0472 8.12491 10.0677C8.13815 10.0882 8.14898 10.1161 8.14898 10.1298ZM8.19104 10.3223C8.18415 10.3394 8.17852 10.3254 8.17852 10.2913C8.17852 10.2571 8.18415 10.2431 8.19104 10.2602C8.19794 10.2773 8.19794 10.3052 8.19104 10.3223ZM9.32974 10.4191C9.28875 10.445 9.20834 10.4784 9.15105 10.4931C9.06294 10.5159 9.04423 10.5321 9.02982 10.5982C9.0028 10.7223 8.90835 10.9164 8.82436 11.0206C8.76265 11.0972 8.75217 11.1259 8.77224 11.1635C8.78607 11.1893 8.8102 11.2105 8.82587 11.2105C8.84155 11.2105 8.96692 11.1642 9.10447 11.1077C9.24202 11.0512 9.51667 10.9458 9.71479 10.8736C10.0349 10.7569 10.075 10.7359 10.075 10.6856C10.075 10.636 10.0556 10.625 9.92033 10.5976C9.76683 10.5665 9.64508 10.5171 9.48669 10.4216C9.40546 10.3726 9.40317 10.3726 9.32974 10.4191ZM22.2588 10.4322C22.1568 10.5022 21.9388 10.587 21.8004 10.6107C21.718 10.6249 21.6997 10.6385 21.6936 10.6908C21.6865 10.7508 21.7039 10.7601 22.0538 10.8865C22.256 10.9596 22.5388 11.0684 22.6823 11.1284L22.9431 11.2375L22.9866 11.1839C23.0288 11.1319 23.0279 11.1276 22.9561 11.0458C22.8635 10.9403 22.8097 10.8384 22.7559 10.6658C22.7171 10.5414 22.7061 10.5288 22.6117 10.5009C22.5555 10.4843 22.4724 10.4488 22.427 10.4221L22.3446 10.3734L22.2588 10.4322ZM8.2164 10.4698C8.20848 10.4896 8.20259 10.4837 8.2014 10.4548C8.20033 10.4286 8.20619 10.414 8.21444 10.4222C8.22268 10.4305 8.22358 10.4519 8.2164 10.4698ZM9.47862 10.5643C9.48731 10.5783 9.47735 10.5825 9.45524 10.574C9.41221 10.5575 9.40434 10.5397 9.44006 10.5397C9.45293 10.5397 9.47027 10.5507 9.47862 10.5643ZM23.3446 10.6701C23.3636 10.7077 23.3735 10.7384 23.3667 10.7384C23.3472 10.7384 23.2782 10.5955 23.2804 10.5596C23.2817 10.5379 23.2869 10.5395 23.2963 10.5645C23.3039 10.585 23.3256 10.6326 23.3446 10.6701ZM16.745 10.5898C18.6779 10.6886 20.552 11.0989 22.2972 11.8052C22.8259 12.0191 22.9928 12.1059 22.9928 12.1669C22.9928 12.2076 22.9756 12.2169 22.8977 12.2183C22.8453 12.2192 22.7948 12.2325 22.7854 12.2477C22.776 12.263 22.6679 12.3114 22.5452 12.3553C22.4224 12.3992 22.3176 12.4388 22.3122 12.4434C22.3068 12.4479 22.3327 12.5647 22.3698 12.7029C22.407 12.8411 22.4306 12.9716 22.4225 12.993C22.414 13.015 22.4302 13.0558 22.46 13.0875C22.4909 13.1204 22.5091 13.1674 22.5042 13.2017C22.4923 13.2856 22.3962 13.2882 22.2201 13.2095C18.9247 11.7363 14.9972 11.4796 11.4555 12.5058C10.8771 12.6734 10.0281 12.9818 9.55722 13.1953C9.46371 13.2377 9.36069 13.2724 9.3283 13.2724C9.2133 13.2724 9.19547 13.1067 9.30592 13.0643C9.33202 13.0543 9.34032 13.0325 9.33019 13.0006C9.32174 12.9739 9.3433 12.8481 9.37816 12.721C9.41298 12.5939 9.4415 12.4784 9.4415 12.4643C9.44153 12.4503 9.33533 12.4014 9.20553 12.3558C9.07573 12.3102 8.96953 12.263 8.96953 12.2509C8.96953 12.2389 8.92482 12.229 8.87016 12.229C8.78029 12.229 8.7708 12.223 8.7708 12.1659C8.7708 12.0935 8.83203 12.062 9.49121 11.7949C11.7283 10.8886 14.2844 10.464 16.745 10.5898ZM15.2483 10.9561C14.9238 11.0745 14.6583 11.1785 14.6583 11.1873C14.6583 11.2044 15.8318 11.6328 15.8787 11.6328C15.9378 11.6328 17.1153 11.1983 17.0983 11.1827C17.0699 11.1568 15.9134 10.7383 15.8739 10.7397C15.8543 10.7403 15.5728 10.8377 15.2483 10.9561ZM13.6652 10.9666C13.4186 11.1343 13.4004 11.4241 13.6258 11.596C13.832 11.7533 14.1222 11.6816 14.2366 11.4452C14.3596 11.1913 14.196 10.939 13.8948 10.9179C13.775 10.9096 13.7375 10.9176 13.6652 10.9666ZM17.689 10.9645C17.5632 11.0382 17.5075 11.1266 17.496 11.2708C17.4878 11.3727 17.497 11.4129 17.544 11.4814C17.6428 11.6254 17.7242 11.67 17.8878 11.67C18.0513 11.67 18.1328 11.6254 18.2316 11.4814C18.2792 11.412 18.2878 11.3733 18.2792 11.2658C18.2679 11.1252 18.1936 11.0189 18.0567 10.9474C17.9599 10.8968 17.791 10.9047 17.689 10.9645ZM8.09333 10.9522C8.08509 10.9604 8.06365 10.9613 8.04574 10.9541C8.02591 10.9462 8.0318 10.9403 8.06074 10.9391C8.08692 10.9381 8.10158 10.9439 8.09333 10.9522ZM7.99397 10.977C7.98572 10.9853 7.96428 10.9862 7.94637 10.979C7.92654 10.9711 7.93243 10.9652 7.96137 10.964C7.98756 10.9629 8.00221 10.9688 7.99397 10.977ZM13.9976 11.0215C14.1556 11.0875 14.2222 11.264 14.148 11.4203C14.0955 11.5311 14.0011 11.5831 13.8526 11.5831C13.7632 11.5831 13.7232 11.5681 13.6588 11.5106C13.5859 11.4455 13.5777 11.4243 13.5777 11.302C13.5777 11.1504 13.6221 11.0789 13.7516 11.0217C13.848 10.9792 13.8962 10.9791 13.9976 11.0215ZM18.011 11.0236C18.1265 11.0833 18.1859 11.1783 18.1859 11.3032C18.1859 11.3963 18.1722 11.4278 18.1014 11.4986C18.0278 11.5723 18.001 11.5831 17.8922 11.5831C17.7392 11.5831 17.6298 11.5031 17.5869 11.3601C17.5627 11.2792 17.5654 11.2507 17.6051 11.1694C17.6818 11.0124 17.8633 10.9472 18.011 11.0236ZM11.3398 11.5859C10.8048 11.9477 10.7959 11.9552 10.8957 11.9574C10.9362 11.9582 11.2041 11.9844 11.491 12.0155L12.0127 12.0721L12.4909 11.7485C12.7539 11.5706 12.9691 11.4184 12.9691 11.4102C12.9691 11.3971 11.9244 11.2821 11.8242 11.2842C11.8025 11.2846 11.5845 11.4204 11.3398 11.5859ZM19.2603 11.3422C18.9973 11.3702 18.7821 11.3995 18.7821 11.4074C18.7821 11.4152 18.996 11.5657 19.2575 11.7417L19.7329 12.0618L19.9096 12.0483C20.2817 12.0198 20.9184 11.947 20.9173 11.9331C20.9167 11.925 20.7045 11.7759 20.4458 11.6017C19.9005 11.2344 20.0226 11.2612 19.2603 11.3422ZM9.88655 11.9287C9.65226 12.0037 9.52651 12.2566 9.62695 12.4509C9.71414 12.6195 9.92587 12.7211 10.0936 12.6747C10.2597 12.6289 10.4104 12.4513 10.4104 12.3014C10.4104 12.2085 10.3175 12.0466 10.2306 11.988C10.1381 11.9256 9.98097 11.8985 9.88655 11.9287ZM21.6006 11.9516C21.4818 12.0069 21.3762 12.1245 21.3538 12.2263C21.2978 12.4814 21.576 12.739 21.842 12.6783C22.028 12.6358 22.1606 12.4799 22.1606 12.3035C22.1606 12.032 21.8487 11.836 21.6006 11.9516ZM10.1639 12.0478C10.2406 12.0931 10.311 12.2149 10.311 12.3023C10.311 12.3877 10.2406 12.5005 10.1545 12.553C9.90145 12.7073 9.59855 12.4416 9.72463 12.1758C9.80015 12.0167 10.0085 11.956 10.1639 12.0478ZM21.913 12.0431C22.1147 12.1475 22.105 12.4653 21.8971 12.564C21.7321 12.6423 21.5428 12.5756 21.4759 12.4156C21.427 12.2984 21.4308 12.2503 21.4968 12.1523C21.5939 12.0082 21.7608 11.9644 21.913 12.0431ZM15.1552 12.2703C13.7058 12.3468 12.3348 12.6044 11.001 13.0507C10.1355 13.3403 8.96513 13.8738 8.18701 14.3334C4.56216 16.4744 2.06848 19.9302 1.26993 23.9191C0.833783 26.0977 0.927611 28.3699 1.54096 30.483C3.17359 36.1078 8.17173 40.2368 14.1615 40.909C14.9673 40.9994 16.1478 41.0265 16.9065 40.9719C18.5633 40.8528 20.0832 40.5055 21.6016 39.8992C22.074 39.7105 23.1109 39.2008 23.5641 38.9344C25.7603 37.6434 27.5706 35.8415 28.842 33.6809C29.1218 33.2054 29.5744 32.2786 29.7762 31.768C30.6253 29.6192 30.928 27.3365 30.6669 25.0511C30.2223 21.1603 28.1386 17.6071 24.8932 15.2058C22.2789 13.2715 19.068 12.2308 15.8011 12.2587C15.521 12.2611 15.2303 12.2663 15.1552 12.2703ZM17.1798 12.7377C19.6792 12.9619 22.0138 13.7776 24.0539 15.1397C27.4221 17.3883 29.6428 20.8559 30.195 24.7287C30.2988 25.457 30.3212 25.8063 30.3198 26.6752C30.3179 27.7695 30.2437 28.4796 30.0244 29.4995C29.6228 31.3667 28.7802 33.2066 27.6089 34.774C25.5692 37.5033 22.579 39.4411 19.2168 40.2125C18.084 40.4724 17.0648 40.5844 15.8507 40.5822C14.7744 40.5803 13.8984 40.4936 12.8978 40.2898C10.5091 39.8033 8.28531 38.731 6.39839 37.1561C5.98428 36.8105 5.19597 36.036 4.82449 35.6098C2.86933 33.3668 1.72143 30.6675 1.46343 27.7062C1.41734 27.1773 1.42442 25.9765 1.47677 25.4455C1.78386 22.3292 2.99572 19.6383 5.13916 17.3131C5.7016 16.703 6.30757 16.1612 7.0574 15.598C9.18573 13.9993 11.7158 13.0227 14.4347 12.7502C15.2267 12.6708 16.376 12.6656 17.1798 12.7377ZM15.2003 14.069C12.2776 14.2203 9.49263 15.318 7.29193 17.1859C4.97595 19.1518 3.46971 21.796 2.99649 24.7265C2.7988 25.9508 2.7988 27.3251 2.99649 28.5493C3.54309 31.9344 5.47934 34.9378 8.39817 36.9283C11.5041 39.0464 15.4149 39.7441 19.093 38.8364C22.8515 37.9088 26.0248 35.3724 27.6877 31.9667C28.7369 29.8177 29.1261 27.4327 28.8164 25.049C28.4688 22.3742 27.2184 19.8669 25.2537 17.9056C22.6137 15.27 18.9567 13.8744 15.2003 14.069ZM16.4718 14.5001C17.8235 14.5377 19.3027 14.8534 20.6949 15.4014C21.0837 15.5545 21.9547 15.9803 22.3611 16.2159C23.9797 17.1547 25.4356 18.5127 26.4575 20.0369C27.2424 21.2075 27.8162 22.4991 28.1478 23.8412C28.525 25.3683 28.585 27.0252 28.3202 28.5987C28.0206 30.3786 27.2923 32.1036 26.2112 33.594C25.8378 34.1088 25.4854 34.5174 24.9554 35.05C23.9225 36.0881 22.9252 36.8109 21.6389 37.4538C18.1482 39.1985 14.0583 39.264 10.4849 37.6326C8.6016 36.7727 6.88413 35.384 5.63846 33.7138C4.29098 31.9071 3.4791 29.7608 3.30583 27.5473C3.27356 27.1352 3.27356 26.1406 3.30583 25.7285C3.50061 23.2403 4.50013 20.8462 6.15174 18.9118C6.47868 18.5289 7.19845 17.8129 7.56596 17.505C8.86763 16.4146 10.2945 15.6217 11.8885 15.1029C12.7198 14.8323 13.5799 14.6501 14.4969 14.5502C14.8494 14.5119 15.7619 14.469 15.9501 14.482C15.9979 14.4853 16.2327 14.4935 16.4718 14.5001ZM20.1841 17.5718L18.7418 19.0141L18.4452 18.924C17.5607 18.655 16.778 18.5396 15.8383 18.5396C14.883 18.5396 14.0089 18.6692 13.1306 18.9409L12.8821 19.0178L11.4661 17.5859L10.0502 16.1539L9.74594 16.3273C6.68492 18.0722 4.55152 20.8915 3.84266 24.1288C3.54225 25.5007 3.49681 27.0265 3.71582 28.3876C4.05705 30.5082 5.05271 32.4995 6.65442 34.2647L6.77838 34.4013L7.44543 33.7448C7.81232 33.3836 8.20713 32.9954 8.32282 32.8821L8.53318 32.676L8.27155 32.4083C7.03221 31.1403 6.22209 29.4521 5.97335 27.6192C5.88394 26.9605 5.9217 25.9144 6.06524 25.0738C6.16225 24.5055 6.47853 23.3667 6.53336 23.3882C6.54407 23.3925 6.81728 23.6536 7.1405 23.9686L7.72813 24.5413L7.66719 24.8133C7.4732 25.679 7.43813 26.6066 7.56696 27.4643C7.96733 30.1301 9.69427 32.4342 12.1786 33.6172C12.5336 33.7863 13.0661 33.9892 13.404 34.0842L13.6398 34.1504V35.164V36.1776H14.8571H16.0743V35.2995V34.4214L16.391 34.4052C16.6942 34.3896 17.2307 34.3211 17.4638 34.2681L17.5739 34.2431L19.2064 35.8565C20.5058 37.1406 20.8483 37.4665 20.8849 37.4534C20.9102 37.4444 21.1209 37.3459 21.3532 37.2345C23.2181 36.3399 24.8752 34.9273 26.0172 33.2586C27.252 31.4542 27.9257 29.6113 28.0971 27.5695C28.1295 27.184 28.1297 26.1146 28.0975 25.7037C27.8141 22.0825 25.8751 18.8741 22.6947 16.7636C22.4085 16.5737 21.666 16.1294 21.6349 16.1294C21.6302 16.1294 20.9774 16.7784 20.1841 17.5718ZM21.9221 16.7665C22.4404 17.064 23.1342 17.5539 23.6635 17.9961C23.9816 18.262 24.6993 18.9758 24.9713 19.2968C25.9565 20.4599 26.6843 21.7434 27.1416 23.1242C28.309 26.6489 27.6221 30.5487 25.3194 33.4697C25.2171 33.5995 25.0964 33.7473 25.0513 33.7981L24.9693 33.8904L24.3242 33.2666L23.679 32.6428L23.8842 32.3917C25.3354 30.6162 25.9442 29.1185 26.065 27.0273C26.1561 25.4479 25.8028 23.7911 25.0467 22.2531C24.3432 20.822 23.3867 19.662 22.1826 18.7801L21.9934 18.6415L21.1577 19.4621L20.322 20.2827L20.5774 20.4771C21.3083 21.0336 21.8974 21.6281 22.2959 22.2114C22.4172 22.389 22.4181 22.3917 22.3704 22.4381C22.3438 22.464 22.0598 22.7032 21.7393 22.9696L21.1564 23.4541L21.0369 23.2676C20.6414 22.6502 20.0989 22.0993 19.4072 21.6124L19.1753 21.4492L18.3634 22.2735C17.9169 22.7269 17.1717 23.4841 16.7074 23.9563L15.8632 24.8149L14.1539 23.1241C13.2138 22.1942 12.4313 21.4302 12.415 21.4265C12.347 21.4109 11.7266 21.9154 11.3391 22.3015C10.7769 22.8615 10.458 23.3014 10.136 23.9606C9.86225 24.5212 9.67343 25.1643 9.58703 25.8305C9.53896 26.2009 9.54599 27.06 9.59982 27.3956C9.75332 28.353 10.0788 29.1203 10.6393 29.8464C11.3495 30.7664 12.375 31.484 13.6874 31.9793C13.8682 32.0475 14.0209 32.1034 14.0267 32.1034C14.0325 32.1034 14.0373 30.8233 14.0373 29.2588V26.4143H16.0743H18.1114V26.9981V27.5819H16.8693H15.6272V28.3397V29.0974H16.8568H18.0865V29.7681V30.4389H16.8568H15.6272V31.3925V32.3462L15.7336 32.3621C15.8651 32.3819 16.4404 32.3398 16.7362 32.2888C17.9856 32.0736 19.3273 31.3733 20.3333 30.4115L20.5694 30.1858L20.6384 30.24C20.6763 30.2698 20.951 30.5349 21.2489 30.8292L21.7904 31.3642L21.6689 31.504C21.3684 31.8499 20.6571 32.4358 20.1732 32.736C18.9213 33.5128 17.5935 33.9078 15.9066 34.0055L15.6272 34.0217V34.8885V35.7553H14.8446H14.0621L14.0617 34.7926L14.0613 33.83L13.6953 33.7272C12.3235 33.3418 11.1159 32.6361 10.1109 31.6323C9.52281 31.045 9.07474 30.4336 8.71721 29.7309C8.31055 28.9315 8.08253 28.1975 7.96098 27.2963C7.90093 26.8512 7.90016 25.9481 7.95943 25.52C8.137 24.2377 8.63658 23.0936 9.485 22.0261C9.86533 21.5476 10.6042 20.8357 11.1351 20.4362L11.3009 20.3114L10.4598 19.4705L9.61875 18.6297L9.38707 18.818C7.97943 19.9618 6.89019 21.3667 6.26127 22.8494C5.51755 24.6027 5.29618 26.7324 5.67967 28.4446C6.01528 29.943 6.80011 31.4649 7.77439 32.5064L7.92794 32.6705L7.36189 33.2308L6.79587 33.791L6.72658 33.7111C4.60292 31.2623 3.68934 28.2875 4.10039 25.1598C4.54874 21.7483 6.58029 18.7114 9.6509 16.8626L9.97203 16.6693L11.3716 18.0868L12.7713 19.5043L13.0555 19.4088C13.623 19.2181 14.2733 19.073 14.9067 18.9957C15.3233 18.9449 16.292 18.9382 16.6954 18.9833C17.3176 19.0529 18.0352 19.2134 18.5751 19.4036L18.8514 19.5009L20.2761 18.076C21.0597 17.2923 21.7054 16.6511 21.7109 16.6511C21.7164 16.6511 21.8115 16.703 21.9221 16.7665ZM22.2645 19.33C22.8999 19.8369 23.4937 20.497 24.0112 21.2718C24.8731 22.5622 25.3792 23.8824 25.6063 25.433C25.67 25.8685 25.6696 27.2076 25.6055 27.6813C25.4502 28.8282 25.1299 29.7665 24.5804 30.6835L24.459 30.8861L22.931 29.3645C22.0905 28.5276 20.5039 26.9468 19.4052 25.8514L17.4075 23.8599L18.3224 22.9279L19.2373 21.9959L19.3264 22.0618C20.0412 22.5906 20.5221 23.156 20.9988 24.0278L21.0419 24.1065L22.0125 23.2945C22.6897 22.7279 22.9788 22.4713 22.969 22.4457C22.9376 22.3639 22.5683 21.8342 22.3707 21.5876C22.0162 21.145 21.4854 20.6182 21.0551 20.282L20.9806 20.2237L21.5147 19.7054C21.8084 19.4203 22.0564 19.1866 22.0658 19.1861C22.0751 19.1855 22.1646 19.2503 22.2645 19.33ZM15.416 20.4671C14.9892 20.5073 14.6543 20.5614 14.1173 20.6767L13.9861 20.7049L14.7136 21.4169C15.1137 21.8085 15.5379 22.2223 15.6563 22.3363L15.8716 22.5437L16.5258 21.8767C16.8857 21.5099 17.279 21.1072 17.4 20.9818L17.6198 20.7539L17.524 20.7267C17.3349 20.6728 16.7023 20.5524 16.4221 20.5169C16.1171 20.4783 15.5798 20.4517 15.416 20.4671ZM16.0246 20.8992C16.3748 20.9227 16.7378 20.9668 16.7766 20.9905C16.7872 20.9969 16.5868 21.2196 16.3313 21.4853L15.8668 21.9685L15.3682 21.4773C15.0939 21.2072 14.8661 20.9789 14.862 20.97C14.8533 20.951 15.0338 20.9237 15.3291 20.8992C15.6425 20.8732 15.6361 20.8732 16.0246 20.8992ZM11.8479 28.6129L13.613 30.3519L13.614 30.9418L13.615 31.5316L13.5094 31.4911C13.2879 31.4062 12.7482 31.1375 12.522 30.9995C11.1552 30.1655 10.2556 28.8245 10.0271 27.2807C10.0056 27.1354 9.98805 26.9692 9.98805 26.9112C9.98805 26.8121 9.99091 26.8078 10.0354 26.8398C10.0614 26.8586 10.877 27.6565 11.8479 28.6129Z" fill="black" stroke="black" stroke-width="0.1"/>
</svg>
