<svg width="31" height="40" viewBox="0 0 31 40" fill="none" xmlns="http://www.w3.org/2000/svg">
<path d="M12.4821 40.0002C12.4867 39.7028 12.6199 39.4564 12.7746 39.222C13.0045 38.8738 13.2419 38.5308 13.4645 38.1485C12.368 38.6889 11.2449 39.0519 9.99153 38.8307C10.153 38.5137 10.3735 38.2694 10.6512 38.0878C10.9682 37.8805 11.2984 37.6952 11.621 37.4971C11.6671 37.469 11.7327 37.4253 11.7367 37.3832C11.7444 37.3028 11.655 37.2901 11.6006 37.2733C11.1354 37.1299 10.6692 36.9903 10.2017 36.8553C10.0913 36.8234 9.98212 36.88 9.87209 36.891C8.04066 37.0732 6.25234 36.8565 4.5081 36.2457C4.42556 36.2169 4.34787 36.172 4.26966 36.1312C4.22781 36.1093 4.18955 36.0801 4.14611 36.0519C4.36658 35.905 4.6621 35.8298 5.01955 35.7887C5.32151 35.754 5.62369 35.7678 5.99297 35.7526C5.81044 35.6315 5.67643 35.5415 5.54146 35.4531C4.80372 34.9703 4.11799 34.4383 3.54683 33.727C3.20988 33.3074 2.76724 32.9714 2.43918 32.5285C1.59163 31.3848 0.861294 30.1688 0.365069 28.8113C0.296052 28.6225 0.215726 28.4292 0.253246 28.1825C0.531429 28.3384 0.770293 28.512 0.967515 28.7417C1.1622 28.9684 1.34695 29.2044 1.56288 29.4693C1.60674 29.2027 1.53952 28.9862 1.51881 28.7713C1.45412 28.0997 1.38574 27.4301 1.4778 26.7558C1.48826 26.6788 1.47399 26.6097 1.4333 26.5422C0.864465 25.5975 0.583852 24.5388 0.343402 23.4682C0.147026 22.5935 -0.0092934 21.7103 0.000430292 20.8049C0.00212137 20.6462 0.0210403 20.4919 0.0660652 20.3166C0.549079 20.7853 0.717976 21.4116 0.949125 22.0707C1.02237 21.73 1.08441 21.4488 1.14307 21.167C1.23111 20.7441 1.36259 20.3339 1.46955 19.9171C1.56573 19.5426 1.62714 19.1823 1.3962 18.7802C0.854847 17.8371 0.605096 16.7707 0.38515 15.7029C0.225872 14.9302 0.0910086 14.1531 0.096716 13.3576C0.0979843 13.1823 0.0995697 13.0075 0.168692 12.821C0.641983 13.2737 0.805277 13.8964 1.04689 14.5605C1.25954 13.5687 1.41798 12.6357 1.84804 11.7576C2.29343 12.6581 2.38939 13.6252 2.55512 14.65C2.85624 13.9636 3.02661 13.2817 3.57621 12.7904C3.62652 13.1641 3.56533 13.4989 3.5295 13.8294C3.39823 15.0377 3.18896 16.2298 2.77728 17.3745C2.59179 17.8902 2.37629 18.3903 2.09462 18.8563C2.03152 18.9608 2.01968 19.0656 2.0052 19.1827C1.93027 19.7899 2.17082 20.3434 2.26108 20.922C2.32112 21.3063 2.38485 21.6902 2.45788 22.1426C2.76968 21.4752 2.92018 20.7738 3.49081 20.2923C3.51438 20.8054 3.44473 21.2726 3.38713 21.7376C3.25406 22.8114 3.04511 23.8685 2.67836 24.8862C2.49266 25.4016 2.27218 25.8988 1.99664 26.3689C1.86114 26.6001 1.87837 27.0425 2.03205 27.2571C2.3246 27.6655 2.54962 28.1156 2.77707 28.5643C2.85476 28.7178 2.93086 28.8722 3.04278 29.0962C3.14478 28.3402 3.06963 27.6165 3.4552 26.9739C3.55317 27.1605 3.56966 27.3563 3.61976 27.5392C3.67218 27.7306 3.70484 27.9279 3.74596 28.1228C3.98884 29.2717 4.13924 30.4316 4.10922 31.6111C4.09611 32.127 4.0568 32.6418 3.93345 33.1435C3.88716 33.3318 3.93261 33.4613 4.05088 33.6113C4.26786 33.8866 4.5081 34.0109 4.86418 34.0154C5.38746 34.022 5.9006 34.1723 6.4149 34.2808C6.45189 34.2886 6.49026 34.2893 6.57893 34.2988C6.09011 33.7681 5.51514 33.3693 5.27078 32.6505C5.57338 32.7363 5.82894 32.8856 6.08789 33.0179C7.30197 33.6377 8.45191 34.3623 9.45165 35.325C9.72782 35.5908 9.98392 35.8763 10.2085 36.1902C10.2932 36.3085 10.373 36.3483 10.5083 36.2864C10.7391 36.1807 10.9757 36.089 11.2258 35.9848C10.9012 35.5733 10.6073 35.1692 10.4451 34.6821C10.4044 34.5598 10.3105 34.4086 10.4006 34.3077C10.4692 34.2307 10.6077 34.3341 10.7098 34.3655C11.3123 34.552 11.907 34.7673 12.5131 34.9388C13.3725 35.1819 14.0092 35.729 14.5111 36.4697C14.6296 36.6446 14.7649 36.6932 14.9663 36.7125C15.5016 36.7641 15.9143 36.6518 16.2317 36.1308C16.6604 35.4273 17.365 35.1159 18.1075 34.8919C18.7034 34.7121 19.2943 34.5136 19.8881 34.3262C20.0976 34.2601 20.1315 34.2919 20.072 34.5126C19.9355 35.0198 19.6588 35.4458 19.3448 35.8486C19.3151 35.8866 19.2845 35.9239 19.2351 35.9857C19.5089 36.0972 19.7663 36.1983 20.0208 36.307C20.1307 36.3541 20.1795 36.2851 20.2367 36.2117C21.541 34.5335 23.2837 33.5163 25.1344 32.6621C25.1409 32.6591 25.1499 32.6618 25.181 32.6618C25.0785 33.0164 24.8654 33.2846 24.6359 33.5429C24.4104 33.7968 24.1875 34.0534 23.988 34.2808C24.4186 34.2037 24.9004 34.1144 25.3835 34.0326C25.5243 34.0089 25.6691 33.9921 25.8109 33.9983C25.9942 34.0063 26.1142 33.9242 26.2467 33.7975C26.4975 33.5577 26.5797 33.3169 26.4992 32.9504C26.2943 32.0174 26.3184 31.0655 26.4063 30.1181C26.5001 29.1068 26.6961 28.1138 26.9432 27.1317C26.9553 27.0837 26.9734 27.0374 26.997 26.9651C27.3979 27.606 27.3207 28.3311 27.4154 29.0891C27.6 28.7325 27.7519 28.4278 27.9139 28.1291C28.0473 27.8832 28.1812 27.6361 28.3352 27.4041C28.6203 26.9739 28.6363 26.6664 28.386 26.2201C27.7654 25.1139 27.4326 23.9028 27.2137 22.6522C27.0919 21.9568 27.0046 21.2561 26.9688 20.5494C26.9652 20.4775 26.9684 20.4052 26.9684 20.2845C27.5359 20.7736 27.696 21.4598 27.9902 22.1163C28.097 21.7734 28.109 21.4549 28.1619 21.1464C28.2256 20.7777 28.296 20.4116 28.4042 20.0544C28.438 19.9424 28.4488 19.8297 28.4583 19.7128C28.4934 19.2696 28.3914 18.8845 28.1763 18.4879C27.5649 17.3603 27.2645 16.1173 27.0683 14.846C26.9659 14.1815 26.8786 13.5147 26.8655 12.7808C27.4414 13.2716 27.6038 13.9618 27.9085 14.649C28.0749 13.6269 28.1695 12.6604 28.6146 11.7599C29.0479 12.6343 29.2029 13.5673 29.4223 14.4876C29.6534 13.8994 29.8242 13.2875 30.2941 12.8153C30.3407 12.9503 30.3683 13.0736 30.3639 13.2027C30.2963 15.249 29.8988 17.2075 28.9455 19.018C28.7997 19.2947 28.902 19.5915 28.9743 19.8397C29.1736 20.5252 29.3439 21.2155 29.4737 21.9179C29.4794 21.9489 29.4986 21.9772 29.5257 22.0395C29.7413 21.4143 29.9177 20.799 30.3869 20.3193C30.5079 20.6563 30.4797 20.9959 30.4516 21.3236C30.3253 22.7974 30.0117 24.2285 29.4927 25.6069C29.3763 25.9163 29.2348 26.2159 29.06 26.496C29.0161 26.5662 28.9715 26.634 28.984 26.7253C29.1058 27.6188 28.9677 28.501 28.8779 29.3853C28.8755 29.4098 28.8736 29.4343 28.8652 29.5266C29.2862 29.008 29.6201 28.4657 30.211 28.1965C30.2527 28.421 30.1704 28.6062 30.1074 28.7879C29.7181 29.9081 29.1311 30.9178 28.4818 31.8882C28.0432 32.5433 27.5611 33.1568 26.9581 33.6686C26.6548 33.926 26.4516 34.3051 26.1383 34.5703C25.6308 34.9998 25.0722 35.349 24.4657 35.7569C25.1372 35.7588 25.7489 35.7435 26.3399 36.0329C25.9941 36.2801 25.6119 36.3942 25.2299 36.4922C23.8548 36.8453 22.4593 37.0125 21.0419 36.9449C20.9389 36.94 20.8358 36.9245 20.7344 36.9042C20.046 36.7668 19.4505 37.1273 18.8198 37.2954C18.6484 37.341 18.7255 37.4268 18.8219 37.4855C19.1451 37.6827 19.4735 37.8707 19.7932 38.0737C20.0764 38.2532 20.2926 38.5043 20.4777 38.8288C19.2248 39.0501 18.1032 38.6954 17.0195 38.1209C17.0078 38.141 16.9961 38.1612 16.9843 38.1814C17.1521 38.4253 17.3244 38.6658 17.4865 38.9135C17.7055 39.2481 17.9666 39.5635 17.9817 40.0002H17.1687C17.0991 39.9622 17.0728 39.8953 17.0525 39.821C16.8662 39.1378 16.4855 38.5665 16.1106 37.9871C15.8628 37.6044 15.5285 37.5155 15.1246 37.5294C14.7946 37.5407 14.5591 37.6914 14.3703 37.9689C13.9775 38.5462 13.6 39.1297 13.4111 39.821C13.3909 39.8952 13.3646 39.9622 13.295 40.0002" fill="black"/>
<path d="M20.7388 17.1071C21.0298 18.4098 21.3112 19.6791 21.5994 20.9466C21.6362 21.1082 21.5965 21.1492 21.4434 21.1476C20.9025 21.142 20.3614 21.146 19.8205 21.1521C19.6926 21.1537 19.629 21.1403 19.674 20.9754C20.0159 19.7223 20.3508 18.4671 20.6886 17.2127C20.6947 17.1898 20.7089 17.1691 20.7388 17.1071Z" fill="black"/>
<path d="M9.99185 17.1343C10.1998 18.064 10.4077 18.9938 10.616 19.9235C10.6921 20.2632 10.7657 20.6037 10.8467 20.9421C10.8823 21.0913 10.8514 21.1501 10.6909 21.1481C10.1415 21.1413 9.59191 21.1452 9.04241 21.1526C8.90565 21.1545 8.88483 21.1153 8.92171 20.9796C9.26923 19.7013 9.6103 18.4211 9.95316 17.1414C9.96616 17.1391 9.97895 17.1367 9.99185 17.1343Z" fill="black"/>
<path fill-rule="evenodd" clip-rule="evenodd" d="M15.2401 34.8285C14.4944 33.3883 13.3292 32.6086 11.8141 32.3469C11.3383 32.2648 10.8604 32.2552 10.3819 32.2457C10.256 32.2431 10.1301 32.2406 10.0041 32.2368C9.91406 32.234 9.82398 32.2317 9.73388 32.2295C9.14831 32.2146 8.56211 32.1997 7.98568 32.0611C6.41245 31.6828 5.2417 30.3893 4.9725 28.7292C4.85085 27.979 4.84958 27.2228 4.86342 26.4656C4.8671 26.268 4.86697 26.0702 4.86685 25.8725L4.86681 25.7657C4.86702 20.2997 4.86702 14.8336 4.86702 9.36776C4.86702 9.04756 4.8667 9.04756 4.5566 9.04722C4.3781 9.04722 4.19959 9.04681 4.02108 9.0464C3.53803 9.04529 3.05496 9.04418 2.57201 9.0512C2.40069 9.05374 2.33727 9.01529 2.33928 8.8195C2.34921 7.86153 2.349 6.90311 2.33939 5.94514C2.33738 5.75134 2.39709 5.70184 2.57106 5.71145C2.70207 5.71873 2.83353 5.71708 2.965 5.71542H2.96501H2.96502C3.08874 5.71386 3.21247 5.7123 3.33585 5.71819C3.49788 5.72614 3.53498 5.65963 3.53677 5.50129L3.53695 5.48678C3.54084 5.1604 3.54276 4.99937 3.4632 4.91992C3.38572 4.84253 3.23095 4.84253 2.92544 4.84253H2.9245C2.63888 4.84253 2.49373 4.84253 2.41996 4.76997C2.34372 4.69497 2.34372 4.54248 2.34372 4.23239C2.34372 4.01452 2.34401 3.79665 2.3443 3.57878C2.34511 2.96334 2.34593 2.34793 2.34023 1.73271C2.33865 1.56079 2.3824 1.50388 2.55278 1.50609C2.87934 1.51052 3.20595 1.50997 3.53255 1.50941C3.89938 1.50879 4.26619 1.50817 4.63291 1.5146C4.82675 1.51836 4.87854 1.45405 4.87093 1.26003C4.86378 1.07839 4.86516 0.896332 4.86653 0.714246V0.714243C4.8678 0.546201 4.86906 0.378133 4.86364 0.210346C4.85825 0.0411815 4.91807 -0.0159433 5.06974 0.00383493C5.09675 0.00755501 5.12426 0.00658026 5.15176 0.00560605C5.16429 0.0051624 5.17681 0.00471887 5.18927 0.00471887L9.50329 0.00468843H9.5033C14.7763 0.00463263 20.0493 0.00457682 25.3223 0.00527135C25.36 0.00527135 25.3932 0.00473959 25.4222 0.00427281C25.5242 0.00263638 25.5764 0.0017987 25.6029 0.0274729C25.6308 0.054399 25.6304 0.110486 25.6297 0.225394C25.6295 0.254232 25.6293 0.286774 25.6295 0.32349C25.63 0.396131 25.6307 0.468789 25.6315 0.541447C25.634 0.785648 25.6365 1.02985 25.6262 1.2734C25.6184 1.45637 25.6665 1.51748 25.8502 1.5146C26.1949 1.5087 26.5397 1.50932 26.8845 1.50994C27.2172 1.51054 27.5499 1.51114 27.8825 1.50587C28.067 1.50278 28.1268 1.55051 28.1246 1.75305C28.114 2.70295 28.1133 3.65275 28.1249 4.60265C28.1276 4.81281 28.0568 4.85524 27.8781 4.84585C27.7342 4.83834 27.5898 4.83979 27.4454 4.84124H27.4454C27.3346 4.84236 27.2238 4.84347 27.1132 4.84054C26.9853 4.83712 26.9328 4.87413 26.9268 5.02153L26.9262 5.03537C26.9118 5.37947 26.9048 5.54938 26.9862 5.63327C27.0657 5.71509 27.2294 5.71509 27.5528 5.71509H27.5538C27.8314 5.71509 27.9729 5.71509 28.0451 5.78584C28.1201 5.85939 28.1201 6.00941 28.1201 6.3154C28.1201 6.54036 28.1197 6.76533 28.1192 6.9903C28.1181 7.59859 28.117 8.20687 28.1241 8.81497C28.1265 9.00391 28.074 9.0543 27.896 9.05142C27.5912 9.04669 27.2863 9.04746 26.9813 9.04823C26.6167 9.04915 26.2521 9.05007 25.8876 9.04159C25.6731 9.03673 25.625 9.10214 25.6252 9.31992C25.6304 14.2121 25.6307 19.1042 25.6309 23.9963L25.6311 26.843L25.6311 26.8802C25.6313 27.6093 25.6315 28.3425 25.4394 29.0485C24.985 30.7195 23.9529 31.7664 22.3052 32.0988C21.6221 32.2366 20.9276 32.2387 20.2345 32.2408H20.2345C20.139 32.241 20.0435 32.2413 19.9482 32.242C19.1954 32.2471 18.4517 32.324 17.7396 32.5881C16.6541 32.9909 15.8083 33.6978 15.2804 34.7878C15.276 34.7967 15.268 34.8037 15.2579 34.8123L15.2579 34.8124C15.2524 34.8171 15.2464 34.8222 15.2401 34.8285ZM9.42557 9.80368C9.39263 9.7751 9.35701 9.7442 9.29437 9.77504C9.72697 10.9328 10.3489 11.9404 11.4051 12.5709C12.1896 13.0392 13.0636 13.2463 13.9547 13.3449C14.2064 13.3728 14.2578 13.4541 14.2573 13.701C14.2513 16.829 14.2517 19.9571 14.252 23.0852L14.2522 25.2746V25.276C14.2522 25.6614 14.2522 25.6628 13.8953 25.789C13.5763 25.9017 13.2785 26.059 13.0015 26.2572C12.7613 26.4293 12.5642 26.6454 12.4387 26.924C12.3696 27.0774 12.3341 27.2369 12.3819 27.4078C12.4298 27.5801 12.53 27.6538 12.7033 27.6177C12.8939 27.5782 13.0545 27.4743 13.2151 27.3705L13.2404 27.3542C14.0451 26.8351 15.2697 27.0675 15.8519 27.8508C16.4197 28.6144 17.4716 28.9954 18.3576 28.7387C18.8177 28.6053 19.1943 28.3304 19.4402 27.8926C19.5484 27.6999 19.5486 27.4948 19.4135 27.3056C19.2848 27.1256 19.1054 27.1143 18.9173 27.1527C18.8164 27.1732 18.7158 27.2044 18.6207 27.2453C18.197 27.4275 17.8102 27.3484 17.4493 27.0744C17.4137 27.0475 17.3779 27.0208 17.342 26.9941C17.2218 26.9048 17.1015 26.8152 16.9918 26.7135C16.5254 26.2806 15.9878 25.981 15.4014 25.7755C15.273 25.7304 15.2546 25.6607 15.2548 25.5396C15.2574 23.5981 15.2581 21.6567 15.2538 19.7153C15.2535 19.5619 15.2791 19.4937 15.4465 19.4994C15.8286 19.5127 16.2117 19.5113 16.5939 19.4999C16.752 19.4952 16.7968 19.5466 16.7931 19.7096C16.7877 19.9504 16.7884 20.1914 16.7891 20.4324C16.7897 20.633 16.7903 20.8337 16.7873 21.0343C16.7853 21.1719 16.8219 21.2289 16.9614 21.2239C17.2161 21.2146 17.4716 21.2156 17.7264 21.2234C17.8566 21.2274 17.8858 21.1696 17.8856 21.0454C17.8827 19.5373 17.8824 18.0291 17.8861 16.521C17.8863 16.3918 17.8523 16.3447 17.7248 16.3491C17.4701 16.3581 17.2145 16.3592 16.9599 16.3488C16.8205 16.3431 16.7847 16.3963 16.787 16.535C16.7909 16.7516 16.7904 16.9684 16.7899 17.1852C16.7894 17.385 16.789 17.5849 16.792 17.7848C16.7939 17.9123 16.7604 17.9599 16.6316 17.9575C16.2252 17.9498 15.8186 17.9495 15.4123 17.9576C15.2808 17.9601 15.2407 17.9073 15.2564 17.7827C15.2578 17.7716 15.2574 17.7602 15.257 17.7488C15.2568 17.7434 15.2566 17.738 15.2566 17.7327L15.2565 17.0021V17.0009C15.2564 15.845 15.2563 14.6891 15.2589 13.5331C15.2589 13.5159 15.2565 13.4968 15.254 13.4772C15.2449 13.4063 15.2349 13.3287 15.3385 13.3064C15.6695 13.2349 15.9826 13.1073 16.2958 12.9796L16.2958 12.9796C16.5905 12.8595 16.8852 12.7394 17.195 12.666C18.1137 12.4482 18.9474 12.5938 19.6766 13.2538C19.9718 13.521 20.2894 13.7596 20.6245 13.9707C20.8294 14.0997 21.0387 14.2177 21.2777 14.2679C21.6672 14.3498 21.9575 14.1676 22.054 13.7685C22.1371 13.4241 22.0934 13.0792 22.0498 12.7344L22.0488 12.7267C21.9087 11.6178 21.3389 10.8516 20.3441 10.4564C19.4248 10.0916 18.4898 10.1467 17.5885 10.5161C16.31 11.0403 14.9892 11.2202 13.6298 11.152C12.1322 11.0768 10.7259 10.6785 9.45269 9.82542C9.44352 9.81924 9.43465 9.81155 9.42557 9.80368ZM22.3555 25.1829C22.472 25.1833 22.5885 25.1837 22.705 25.1837C22.8217 25.1837 22.9383 25.1831 23.0549 25.1825H23.055H23.055H23.055H23.055C23.3448 25.1809 23.6346 25.1794 23.9242 25.1873C24.0924 25.192 24.1746 25.1589 24.1565 24.9583C24.1442 24.8206 24.1471 24.6815 24.1501 24.5423C24.1514 24.4811 24.1527 24.4199 24.1527 24.3589C24.1527 23.7652 24.1525 23.7569 23.5846 23.7688C23.3885 23.773 23.2972 23.7244 23.2445 23.5071C22.7205 21.3477 22.1891 19.1902 21.6578 17.0327L21.6572 17.0303L21.2711 15.4622C21.1356 14.9113 21.1336 14.9113 20.6044 14.9035L20.5839 14.9032C20.4135 14.9007 20.3356 14.9492 20.2851 15.1292C19.5816 17.6347 18.8712 20.1383 18.1609 22.6417L18.1606 22.6426L18.0259 23.1174C18.0099 23.1737 17.997 23.2337 17.984 23.294C17.9493 23.4545 17.9143 23.6169 17.8205 23.7176C17.7314 23.813 17.5821 23.7943 17.4334 23.7757L17.4334 23.7757C17.3692 23.7676 17.3051 23.7596 17.2459 23.7608C17.1172 23.7632 17.0601 23.7935 17.0635 23.942C17.0719 24.3168 17.0716 24.6919 17.0635 25.0666C17.0604 25.2119 17.1104 25.2497 17.2433 25.247C18.0878 25.2298 18.9322 25.2178 19.7768 25.2102C19.9001 25.2091 19.9433 25.1702 19.9408 25.0385C19.9336 24.6721 19.9321 24.3053 19.9412 23.939C19.945 23.7866 19.8822 23.7581 19.7562 23.7623C19.6448 23.766 19.5332 23.7652 19.4216 23.7643C19.31 23.7634 19.1984 23.7626 19.087 23.7663C18.9538 23.7707 18.9211 23.7223 18.9522 23.5894C19.0334 23.2422 19.1087 22.8933 19.1796 22.5437C19.2019 22.4333 19.2517 22.3951 19.3586 22.3955C20.1793 22.3989 21.0001 22.3982 21.8209 22.3963C21.9187 22.396 21.9801 22.4107 22.0037 22.5342C22.0706 22.8847 22.151 23.2324 22.2317 23.5798C22.2657 23.7259 22.2188 23.7726 22.079 23.7666C21.9752 23.7623 21.8713 23.7635 21.7673 23.7646H21.7672C21.6559 23.7659 21.5447 23.7671 21.4338 23.7617C21.2852 23.7545 21.2397 23.8131 21.2434 23.9639C21.2516 24.3053 21.2524 24.6471 21.2431 24.9883C21.2388 25.1457 21.2962 25.1886 21.4381 25.1861C21.7439 25.181 22.0497 25.182 22.3555 25.1829ZM7.73921 25.2446C7.62146 25.2446 7.5037 25.2442 7.38595 25.2439C7.08153 25.243 6.77711 25.242 6.4728 25.2472C6.34714 25.2494 6.30655 25.2079 6.30877 25.0773C6.31532 24.6942 6.31596 24.3109 6.30856 23.9279C6.30592 23.7899 6.36109 23.7654 6.47841 23.7609C6.54098 23.7585 6.6086 23.7668 6.6762 23.7751H6.67621H6.67623H6.67624C6.8281 23.7938 6.97983 23.8125 7.07388 23.7094C7.16488 23.6095 7.19762 23.4507 7.23017 23.2928C7.24328 23.2292 7.25636 23.1657 7.27321 23.1063L7.52466 22.2206L7.5248 22.2201C8.1943 19.8621 8.8638 17.504 9.52805 15.1442C9.57931 14.9619 9.65446 14.8979 9.83984 14.9022L9.86416 14.9028C10.3818 14.9147 10.382 14.9147 10.5192 15.4727C10.6975 16.1982 10.8761 16.9237 11.0547 17.6492L11.0556 17.6531L11.0566 17.6571C11.5372 19.6096 12.0178 21.5622 12.4937 23.516C12.5423 23.7154 12.6209 23.7747 12.8159 23.7699C13.3969 23.7557 13.4025 23.7657 13.3946 24.3716C13.3936 24.4503 13.4031 24.5359 13.4127 24.6217C13.435 24.8224 13.4574 25.0238 13.345 25.1388C13.241 25.2453 13.052 25.2229 12.8638 25.2005C12.7832 25.191 12.7028 25.1814 12.6293 25.182C12.3462 25.1843 12.0632 25.1839 11.7801 25.1834C11.4258 25.1829 11.0714 25.1824 10.7171 25.1871C10.5517 25.1893 10.4941 25.1387 10.5002 24.962C10.5122 24.6211 10.5075 24.2792 10.5019 23.9378C10.4999 23.8095 10.542 23.7588 10.6673 23.7625C10.7796 23.7659 10.892 23.7651 11.0044 23.7643H11.0046C11.1232 23.7634 11.2419 23.7625 11.3603 23.7666C11.4855 23.7709 11.5084 23.724 11.481 23.6056C11.3989 23.2501 11.3177 22.8941 11.2494 22.5355C11.2262 22.4143 11.169 22.3956 11.0694 22.396C10.2488 22.3984 9.42807 22.3994 8.60747 22.3949C8.49829 22.3942 8.44946 22.4365 8.42737 22.5417L8.4037 22.6547L8.40369 22.6547L8.40368 22.6548L8.40367 22.6548C8.33675 22.9744 8.2698 23.2942 8.19464 23.6116C8.16177 23.75 8.21948 23.7672 8.32654 23.7654C8.42489 23.7638 8.52331 23.7645 8.62173 23.7651C8.75442 23.766 8.8871 23.7668 9.01957 23.7622C9.14354 23.7578 9.18709 23.8003 9.18455 23.9323C9.17768 24.2986 9.17599 24.6654 9.18529 25.0317C9.1891 25.1795 9.13488 25.2124 9.00583 25.2104C8.70114 25.2057 8.3964 25.2065 8.09165 25.2074C7.97417 25.2077 7.85669 25.208 7.73921 25.208V25.2446ZM26.0456 4.14762C26.0678 4.14832 26.09 4.14902 26.1121 4.14952C26.2153 4.14864 26.3186 4.14742 26.4218 4.1462C26.6927 4.143 26.9636 4.13979 27.2345 4.14267C27.3694 4.14444 27.4154 4.09571 27.4133 3.95461C27.4094 3.6936 27.41 3.43251 27.4106 3.17144C27.411 2.99961 27.4114 2.82778 27.4106 2.65599C27.4103 2.6117 27.4107 2.57275 27.411 2.53849V2.53843C27.4121 2.41206 27.4126 2.34962 27.3817 2.31916C27.3515 2.2894 27.2912 2.29017 27.1721 2.29167H27.1721C27.1422 2.29205 27.1085 2.29247 27.0708 2.29247C20.6131 2.29184 14.1554 2.29187 7.6978 2.2919L3.39324 2.29192C3.37834 2.29192 3.36337 2.29245 3.34839 2.29297L3.34838 2.29297H3.34837C3.31534 2.29414 3.28228 2.2953 3.24992 2.29081C3.08885 2.26905 3.0471 2.34706 3.04974 2.50572C3.05767 2.98018 3.05883 3.45508 3.04921 3.92942C3.04583 4.09516 3.0972 4.14632 3.25288 4.14356C3.51636 4.13863 3.77999 4.14222 4.0436 4.14582C4.14619 4.14722 4.24877 4.14863 4.35134 4.14952C4.37361 4.14902 4.39586 4.14832 4.4181 4.14761C4.45953 4.1463 4.50093 4.14499 4.54233 4.14499H25.9211C25.9626 4.14499 26.004 4.14631 26.0455 4.14762H26.0455L26.0455 4.14762L26.0456 4.14762ZM4.43643 6.49214C4.40923 6.49093 4.38203 6.48973 4.35483 6.48876C4.25314 6.48964 4.15143 6.49125 4.04972 6.49286C3.79297 6.49691 3.53621 6.50097 3.27973 6.49329C3.10512 6.48821 3.04245 6.53628 3.04837 6.72864C3.05786 7.0345 3.05599 7.34091 3.05412 7.64732C3.05334 7.77417 3.05256 7.90101 3.0526 8.02782C3.0527 8.34604 3.05281 8.34626 3.36418 8.34626H27.0994C27.1146 8.34626 27.1299 8.34587 27.1452 8.34547H27.1452C27.1779 8.34464 27.2106 8.3438 27.2428 8.34681C27.3635 8.35874 27.4142 8.31068 27.4128 8.17776C27.4079 7.67789 27.4071 7.17813 27.4133 6.67859C27.4154 6.53374 27.363 6.49352 27.2317 6.49495C26.9619 6.49806 26.692 6.49508 26.4221 6.49209L26.422 6.49209H26.4219C26.3176 6.49094 26.2132 6.48979 26.1089 6.48899C26.0802 6.48993 26.0515 6.49117 26.0228 6.49241L26.0227 6.49241C25.9639 6.49495 25.9052 6.49749 25.8464 6.49749C18.7701 6.49783 11.6937 6.49783 4.61737 6.49749C4.55706 6.49749 4.49674 6.49482 4.43643 6.49214Z" fill="black"/>
</svg>
