<svg width="45" height="50" viewBox="0 0 45 50" fill="none" xmlns="http://www.w3.org/2000/svg">
<path d="M19.992 4.40781C19.8247 4.42398 19.2406 4.53066 18.8853 4.64104L18.6934 4.91627L18.5798 5.16331C18.9454 4.96795 19.4491 4.78599 20.0264 4.73288C21.3127 4.61465 23.4984 4.91992 24.3322 7.11871C25.2134 9.44219 23.3321 13.9723 21.6462 17.2545C21.6221 17.3029 21.5967 17.3514 21.5714 17.3997C21.5595 17.4225 21.5475 17.4452 21.5358 17.468C21.8072 17.6813 22.0208 17.8434 22.0208 17.8434C22.0716 17.7649 22.1027 17.7003 22.1481 17.6195C22.5898 16.7578 23.0291 15.8049 23.4234 14.823C24.5789 11.946 25.3485 8.81984 24.6614 7.00977C24.5604 6.7441 24.4387 6.49721 24.2967 6.26957C23.9344 5.68876 23.4398 5.23325 22.8191 4.91075C22.7648 4.88303 22.4367 4.73479 22.3228 4.69415C22.2675 4.6729 22.2122 4.65351 22.1565 4.63504C22.0484 4.59994 21.7124 4.51402 21.6572 4.50247C21.447 4.45721 21.2289 4.42488 21.0079 4.4064C20.8431 4.39163 20.6748 4.38518 20.5086 4.38518C20.3344 4.38518 20.1597 4.39211 19.992 4.40781Z" fill="black"/>
<path d="M26.6632 16.7457C26.5653 16.8935 26.322 17.2346 26.0167 17.6586C26.0046 17.6754 25.9924 17.6924 25.9801 17.7094C25.9789 17.7111 25.9776 17.7129 25.9764 17.7146C25.7372 18.0933 25.5016 18.4549 25.2752 18.7963C25.0289 19.1678 24.7937 19.5153 24.5769 19.8347C24.5457 19.8806 24.5149 19.9259 24.4846 19.9706L24.4832 19.9727L24.4808 19.9762C24.3245 20.2064 24.1789 20.4208 24.047 20.6177C23.9942 20.6967 23.9435 20.773 23.8953 20.8463C24.0596 21.0943 24.4257 21.6526 24.5821 21.9186C24.5618 21.8849 24.5429 21.8521 24.5236 21.8179L24.5137 21.8027C24.5917 21.665 24.6783 21.5136 24.772 21.3506C24.775 20.6984 25.6677 18.7977 26.2427 17.612C26.2582 17.58 26.2735 17.5485 26.2885 17.5176C26.3407 17.4104 26.3897 17.31 26.4347 17.2178C26.438 17.2111 26.4413 17.2043 26.4445 17.1976C26.4681 17.1493 26.4906 17.1033 26.5117 17.06C26.5756 16.9289 26.6275 16.8219 26.6632 16.7457Z" fill="black"/>
<path d="M16.8027 2.04933C16.7906 2.07746 16.7789 2.10546 16.7674 2.13347C16.6938 2.31292 16.6326 2.49332 16.5891 2.71622C16.554 2.8931 16.52 3.08509 16.4875 3.29153C16.499 3.2779 16.5106 3.26431 16.5222 3.25078C16.5694 3.19663 16.6168 3.1439 16.6638 3.09206C17.449 2.22717 18.2171 1.68203 18.6922 1.39152C18.9467 1.23591 19.1172 1.15336 19.1611 1.13385C19.1747 1.12757 19.1906 1.11965 19.2082 1.11043C19.3822 1.01933 19.7332 0.800015 19.8972 0.749274C18.5236 1.09796 17.7569 1.62214 16.9364 1.85444L16.9345 1.8554C16.8974 1.88824 16.8236 2.00108 16.8027 2.04933Z" fill="black"/>
<path d="M23.5292 2.55905C21.4304 1.45758 20.3479 2.85878 20.3479 2.85878C20.3415 2.86063 20.3344 2.8796 20.3285 2.88191C19.6069 3.48583 18.8862 4.31956 18.5603 5.17382C18.5492 5.20278 18.5386 5.23176 18.5285 5.26075C19.1919 3.94414 21.0613 2.33461 22.3407 2.42644C22.4857 2.43685 22.6231 2.46912 22.7504 2.52615C24.4688 3.29605 25.2383 3.33925 25.7389 3.14095C25.961 3.05301 26.1302 2.91757 26.3058 2.77695C26.3773 2.71972 26.4499 2.66163 26.5275 2.60553C26.5642 2.57902 26.6023 2.5534 26.6416 2.52808C26.6446 2.5261 26.6476 2.52407 26.6506 2.52204C26.0675 2.85504 25.5794 3.63437 23.5292 2.55905Z" fill="black"/>
<path d="M17.9305 0.714018C17.2758 0.951861 17.113 1.35596 16.8426 1.6871C16.6847 1.88106 16.5742 1.93972 16.4276 1.97205C16.5278 1.95219 16.6457 1.92575 16.7804 1.89481C16.8328 1.8825 16.884 1.86934 16.9345 1.8554C17.2359 1.77204 17.5078 1.66046 17.8185 1.53227C18.1515 1.39464 18.5285 1.23854 19.0125 1.05381C19.2814 0.951284 19.8498 0.757776 20.1492 0.682036C20.4527 0.60491 21.2411 0.479291 21.284 0.47144C21.284 0.47144 21.587 0.434955 21.6851 0.4211C21.657 0.422948 18.3489 0.599945 17.9305 0.714018Z" fill="black"/>
<path d="M21.6024 0.425904C21.5323 0.430522 18.3484 0.599945 17.9305 0.714018C17.2758 0.951861 17.113 1.35596 16.8426 1.6871C16.6847 1.88106 16.5742 1.93972 16.4276 1.97205C16.5278 1.95219 16.6457 1.92575 16.7804 1.89481C16.8328 1.8825 16.884 1.86934 16.9345 1.8554C17.2359 1.77204 17.5078 1.66046 17.8185 1.53227C18.1515 1.39464 18.5285 1.23854 19.0125 1.05381C19.2814 0.951284 19.8498 0.757776 20.1492 0.682036C20.4537 0.605833 21.211 0.481139 21.284 0.47144C21.3847 0.458047 21.587 0.434032 21.6851 0.4211C21.657 0.422024 21.6295 0.423595 21.6024 0.425904Z" fill="black"/>
<path d="M26.3693 33.7616C26.3367 33.8258 26.3111 33.8817 26.2775 33.9371C26.1626 34.1482 26.0378 34.3442 25.9041 34.5197C27.0024 34.1853 27.4938 33.5974 27.8056 32.6576C26.6422 33.8011 26.3693 33.7616 26.3693 33.7616Z" fill="black"/>
<path d="M19.5838 32.76C19.3978 32.7873 19.2197 32.7919 19.0495 32.7753C18.8395 32.7491 18.6292 32.685 18.424 32.5819C18.4011 32.5704 18.3783 32.5584 18.3555 32.5459C18.3086 32.5202 18.2619 32.4925 18.2157 32.4626C18.1734 32.4352 18.1324 32.4061 18.0924 32.3762C18.019 32.3207 17.9499 32.2606 17.8854 32.1964C17.8315 32.1428 17.781 32.0862 17.7337 32.0272C17.7181 32.0077 17.7027 31.988 17.6878 31.9679C16.9788 31.2807 16.588 30.055 16.5254 29.2228L16.5229 29.1923C16.4963 29.4131 16.472 29.6737 16.4691 29.9115C16.4474 30.4154 16.4706 30.9043 16.5495 31.3662C16.5525 31.3745 16.554 31.3832 16.5555 31.3929C17.3404 32.79 19.5187 34.1833 20.9688 31.8303C20.5919 32.3508 20.1024 32.669 19.5838 32.76Z" fill="black"/>
<path d="M29.0514 3.20514C27.6926 0.869654 27.6467 1.31209 26.7986 1.17169C25.649 1.22942 24.3634 1.9804 22.7505 1.32829C25.0206 2.60018 26.9327 -0.142968 29.0828 3.25889C29.0843 3.26166 29.1095 3.306 29.1114 3.30877C29.1021 3.29353 29.0958 3.2795 29.0879 3.26749C29.0677 3.23285 29.0544 3.21022 29.0514 3.20514Z" fill="black"/>
<path d="M26.656 2.5183C26.6573 2.51744 26.6589 2.51641 26.6606 2.51527C26.6722 2.50862 26.6849 2.50178 26.6966 2.49489C27.2063 2.18084 28.2008 2.01546 29.0879 3.26749C27.7849 1.20217 26.5708 1.39156 25.3112 1.5823C24.4887 1.70699 23.647 1.83123 22.7505 1.32829C22.9185 1.42962 23.0895 1.53745 23.2627 1.64662C23.4363 1.75607 23.612 1.86686 23.7889 1.97377C24.5957 2.46136 25.4269 2.86836 26.1923 2.69992C26.3203 2.67176 26.4464 2.62751 26.5703 2.56486C26.597 2.55131 26.624 2.53733 26.6506 2.52204C26.6524 2.52079 26.6542 2.51954 26.656 2.5183Z" fill="black"/>
<path d="M19.2024 34.4749C19.5431 34.2757 19.8539 34.0294 20.1314 33.7482C20.3192 33.5578 20.4918 33.3514 20.6481 33.1328C19.5691 34.0611 17.2329 33.76 16.5466 31.3487C16.6842 32.1639 16.996 32.8959 17.5471 33.4801C17.5526 33.4857 17.7159 33.6496 17.7233 33.657C18.1629 34.0625 18.6809 34.3202 19.2024 34.4749Z" fill="black"/>
<path d="M23.2655 0.075302C22.4272 -0.211958 20.2213 0.405974 18.7974 0.537134C18.4352 0.569924 18.1545 0.632271 17.9305 0.714018C18.7727 0.542678 18.8314 0.712732 21.2988 0.454568C21.3112 0.45272 21.6225 0.424548 21.7019 0.420392C22.2565 0.386678 22.8034 0.421468 23.2543 0.647766C23.8212 0.931793 24.3558 1.05218 24.8695 1.1039C25.5084 1.16764 26.1148 1.12366 26.7029 1.15137C25.7368 0.943086 24.0766 0.354248 23.2655 0.075302Z" fill="black"/>
<path d="M22.6173 0.000961946C21.5787 0.0157407 19.9381 0.432297 18.7974 0.537134C18.4352 0.569924 18.1545 0.632271 17.9305 0.714018C18.7821 0.554223 18.8674 0.71227 21.2988 0.454568C21.3102 0.45272 21.624 0.42501 21.7019 0.420392C22.2565 0.386678 22.8034 0.421468 23.2543 0.647766C23.8212 0.931793 24.3558 1.05218 24.8695 1.1039C25.2548 1.14316 25.627 1.14218 25.9921 1.14125C26.2323 1.14125 26.4685 1.14121 26.7029 1.15137C25.7368 0.943086 24.0766 0.354248 23.2655 0.075302C23.1214 0.0263478 22.9395 0.00419482 22.7268 0.000961946H22.6173Z" fill="black"/>
<path d="M24.8695 1.1039L24.8019 1.13531C23.8822 1.59992 23.0322 1.38419 22.4821 1.18699C22.4981 1.19507 22.5141 1.20333 22.5301 1.2116C22.5406 1.21701 22.5511 1.22242 22.5616 1.22778C22.625 1.26024 22.6886 1.29314 22.7505 1.32829C24.3634 1.9804 25.649 1.22942 26.7986 1.17169C26.7685 1.16661 26.7345 1.1583 26.7029 1.15137C26.1148 1.12366 25.5084 1.16764 24.8695 1.1039Z" fill="black"/>
<path d="M29.1402 3.35882L29.1727 3.42948C29.1806 3.44611 29.3681 3.86037 29.375 3.87654C29.8985 5.0265 29.3572 5.97372 29.2536 6.13675C29.3056 6.30876 29.3497 6.48259 29.3873 6.65781C29.7002 8.11331 29.5336 9.67242 29.0946 11.2195C29.082 11.2638 29.0692 11.3082 29.0562 11.3525C28.7825 12.2833 28.4122 13.2085 27.9906 14.1029C27.9822 14.1209 27.9739 14.1388 27.9657 14.1567C27.7586 14.6119 27.6385 15.0476 27.5587 15.4521C27.5573 15.459 27.556 15.4659 27.5546 15.4727C27.5539 15.4763 27.5532 15.4799 27.5525 15.4835C27.5409 15.5439 27.5301 15.6036 27.52 15.6626C27.4341 16.1657 27.4006 16.6143 27.3212 16.9838C27.3227 16.9804 27.3251 16.9771 27.3265 16.9746C28.3453 15.2108 29.2764 13.5331 29.5621 12.7674C29.5936 12.6852 29.6208 12.6057 29.6479 12.5263C30.6317 10.17 31.2741 7.05313 29.5902 4.1519C29.5167 4.02074 29.2734 3.59251 29.1402 3.35882Z" fill="black"/>
<path d="M26.656 2.5183C26.7448 2.58231 26.8304 2.64759 26.9129 2.71399C27.5223 3.20477 27.9698 3.76092 28.36 4.31367C28.3514 4.25651 28.3423 4.19937 28.3328 4.14246C28.31 4.00571 28.2843 3.87028 28.2545 3.73895C28.2291 3.62656 28.2006 3.51719 28.1682 3.41258C27.9803 2.80455 27.6625 2.35743 27.0518 2.41545C27.0127 2.41949 26.9744 2.42439 26.9367 2.43083C26.8665 2.4428 26.7982 2.4601 26.7289 2.48712C26.7255 2.48802 26.7163 2.4753 26.6606 2.51527C26.6589 2.51641 26.6573 2.51744 26.656 2.5183Z" fill="black"/>
<path d="M15.2143 3.36484C14.9389 3.85207 14.7524 4.37672 14.6005 4.9069C14.45 5.43755 14.3449 5.97835 14.2615 6.52054C14.1046 7.60724 14.0864 8.70963 14.2073 9.79632C14.3276 10.883 14.6054 11.9554 15.0697 12.9543C15.1069 13.0321 15.145 13.1098 15.1836 13.1874C15.391 13.6044 15.6164 14.02 15.8389 14.4304C16.0021 14.7391 16.1811 15.0402 16.3609 15.3426C16.4671 15.5211 16.5735 15.7001 16.6771 15.8814C16.4897 15.6671 16.3125 15.4468 16.1403 15.221C15.9903 15.0172 15.8442 14.8089 15.7057 14.5968C15.6898 14.5725 15.674 14.5481 15.6583 14.5236C15.5098 14.2835 15.3667 14.041 15.2335 13.7944C15.0983 13.5506 14.97 13.2984 14.8516 13.0421C14.4636 12.1906 14.21 11.2902 14.0701 10.3769C14.0416 10.1904 14.0178 10.0034 13.9985 9.81618C13.8811 8.71009 13.9453 7.5943 14.1263 6.50161C14.2206 5.95572 14.3508 5.41399 14.525 4.88612C14.6996 4.35917 14.9088 3.83637 15.2143 3.36484Z" fill="black"/>
<path d="M26.6606 2.51527C26.8544 2.36796 27.1014 2.2704 27.3619 2.25344C27.6229 2.23589 27.8898 2.29362 28.1232 2.40492C28.5381 2.60166 28.8462 2.88093 29.0879 3.26749C29.0948 3.27857 29.1193 3.32212 29.142 3.36276C29.1568 3.38862 29.1706 3.41403 29.1785 3.42788C29.439 3.87909 29.6063 4.31598 29.6265 4.79537C29.6527 5.2729 29.5361 5.74793 29.2539 6.13956C29.2698 6.11066 29.2849 6.08145 29.2993 6.05196C29.3565 5.93468 29.4025 5.81298 29.4375 5.68847C29.4749 5.55557 29.4999 5.41948 29.5132 5.28216C29.5285 5.12298 29.528 4.96215 29.5126 4.80276C29.4637 4.34416 29.3029 3.89895 29.0537 3.50362C28.8075 3.10968 28.469 2.75961 28.0492 2.53747C27.839 2.42847 27.6051 2.36151 27.3649 2.35458C27.2125 2.3505 27.0586 2.37193 26.9098 2.41667C26.8248 2.44225 26.7411 2.47486 26.6606 2.51527Z" fill="black"/>
<path d="M27.9503 15.0387C28.3416 14.3275 28.6618 13.5904 28.943 12.8422C29.2247 12.0945 29.4581 11.3311 29.6461 10.5585C29.8311 9.7863 29.9618 9.00211 30.0141 8.21238C30.0349 7.81797 30.0358 7.42033 29.99 7.02824L29.9574 6.73267L29.8918 6.44217L29.8602 6.29623C29.8469 6.24774 29.8252 6.20248 29.8094 6.15537L29.7077 5.87135C30.1074 6.58534 30.2036 7.41756 30.2016 8.21699C30.2016 8.62017 30.171 9.02243 30.1158 9.42238C30.064 9.8214 29.9909 10.2181 29.8972 10.6111C29.7161 11.3972 29.4625 12.1675 29.1463 12.9143C28.8275 13.6588 28.4378 14.3806 27.9503 15.0387Z" fill="black"/>
<path d="M22.3559 30.2406C22.3909 28.6195 22.0633 27.0207 21.5206 25.5003C20.9749 23.9772 20.2111 22.5303 19.3275 21.1536C19.1448 20.8657 18.9587 20.5778 18.7728 20.2892C18.5119 19.8841 18.2512 19.4776 18.0002 19.0679C17.9807 19.036 17.9613 19.0041 17.9418 18.9721C17.9294 18.9519 17.9171 18.9316 17.9048 18.9114C17.5081 18.2597 17.1189 17.6046 16.748 16.9393C16.1011 15.7808 15.4854 14.6034 14.9746 13.3863C14.8528 13.0959 14.7369 12.8032 14.628 12.5081C14.9629 13.2173 15.3195 13.9126 15.7057 14.5968C15.7228 14.6272 15.74 14.6576 15.7573 14.6879C16.1545 15.4042 16.5689 16.1117 16.9923 16.8156C17.0425 16.8992 17.0928 16.9827 17.1432 17.0662C17.158 17.0907 17.1728 17.1152 17.1877 17.1397C17.298 17.3217 17.409 17.5032 17.5207 17.6843C17.6718 17.9293 17.824 18.1737 17.9772 18.4175C18.0032 18.4589 18.0292 18.5002 18.0553 18.5416C18.3393 18.9925 18.6266 19.4418 18.9158 19.8906C18.9475 19.9398 18.9792 19.9889 19.0109 20.0381C19.016 20.046 19.021 20.0539 19.0261 20.0617C19.0364 20.0776 19.0466 20.0935 19.0569 20.1094C19.2305 20.3781 19.4047 20.6468 19.5793 20.9157C19.5872 20.928 19.5952 20.9403 19.6032 20.9526C19.6106 20.964 19.618 20.9754 19.6255 20.9868C19.7157 21.1289 19.8045 21.2718 19.892 21.4155C20.0386 21.6565 20.1811 21.8998 20.319 22.1455C20.4452 22.3707 20.5675 22.5979 20.6854 22.8271C20.8354 23.1189 20.9782 23.414 21.1127 23.7124C21.3647 24.2717 21.5875 24.8425 21.7742 25.425C22.0263 26.2046 22.2138 27.0031 22.3184 27.8109C22.4195 28.6182 22.4382 29.4356 22.3559 30.2406Z" fill="black"/>
<path d="M19.4121 22.2335C19.3329 22.0646 19.2669 21.9326 19.184 21.7778C19.1585 21.7302 19.1314 21.6804 19.1018 21.6267C18.4466 23.0381 17.0483 25.9361 16.6023 28.6655C16.584 28.7579 16.476 29.385 16.4691 29.9115C16.479 30.0053 16.4939 30.0937 16.5132 30.1746C16.9069 31.7651 17.5197 32.0357 17.7748 32.0764C17.7608 32.0602 17.7471 32.0438 17.7337 32.0272C17.5943 31.8543 17.4863 31.6593 17.4124 31.4507C16.9738 30.2209 17.0656 27.7741 19.4121 22.2335Z" fill="black"/>
<path d="M19.1328 47.7386C18.8586 47.7386 18.7414 47.3964 18.7414 46.4546C18.7414 45.9657 18.9955 45.8436 19.7203 45.8436C19.9106 45.8436 20.0626 45.845 20.2085 45.8473C19.9773 46.5133 19.6673 47.7386 19.1328 47.7386ZM17.6632 47.0964C17.6632 47.3457 17.6887 47.5584 17.7349 47.7386H13.9021C13.3924 47.7386 13.0666 47.6282 13.0666 47.188V45.9657H14.2738C14.3724 45.691 14.4373 45.4397 14.4699 45.1716H13.0669C13.0727 44.7945 13.1021 44.4576 13.1315 44.0711C12.6744 44.2237 12.3156 44.4009 12.0214 44.7069V45.1716H11.4009C11.3489 45.5017 11.3489 45.7517 11.336 45.9657H12.0214V47.2494C12.0214 48.1479 12.6028 48.5331 13.3992 48.5331H18.6102C19.2486 48.5331 19.739 48.0433 20.2103 46.9347V48.5331H21.2548V45.1716C20.7849 45.1347 20.3537 45.1098 19.8838 45.1098C18.5909 45.1098 17.6632 45.6114 17.6632 47.0964ZM23.1488 46.7237V46.3939C23.1488 45.9657 23.1158 45.599 23.0509 45.1716H22.0387C22.0713 45.599 22.1039 45.9657 22.1039 46.3939V48.5331H23.1488C23.1488 47.3347 23.5599 45.9718 24.6503 46.1187C24.6503 45.9047 24.6177 45.4155 24.5528 45.1098C23.7567 45.1746 23.3667 45.8312 23.1488 46.7237ZM8.75634 47.7386C8.48213 47.7386 8.36456 47.3964 8.36456 46.4546C8.36456 45.9657 8.61941 45.8436 9.34382 45.8436C9.53415 45.8436 9.68613 45.845 9.83274 45.8473C9.60082 46.5133 9.29149 47.7386 8.75634 47.7386ZM7.28745 47.0964C7.28745 48.1114 7.67887 48.5942 8.20147 48.5942C8.84165 48.5942 9.35278 48.0637 9.83417 46.933V48.5331H10.879V45.1716C10.4087 45.1347 9.9779 45.1098 9.50727 45.1098C8.21438 45.1098 7.28745 45.6114 7.28745 47.0964ZM41.3346 45.538C41.3346 44.7008 40.7142 44.1932 39.6041 44.1932C38.9904 44.1932 38.5402 44.3153 38.2657 44.4381C38.109 44.6455 38.0373 44.8844 37.9391 45.2625C38.3571 45.1098 38.7617 44.988 39.3757 44.988C39.8654 44.988 40.2575 45.1837 40.2575 45.7215C40.2575 46.3016 39.8722 46.7237 37.7757 47.8604C37.7757 47.9829 37.7825 48.2271 37.8413 48.5331H41.3016C41.4002 48.258 41.4651 48.0137 41.4977 47.7386H38.5524C40.0238 47.2675 41.3346 46.7757 41.3346 45.538ZM4.82676 47.5943L4.77299 47.5672C4.14644 47.2558 3.30374 46.7794 3.30374 45.911C3.30374 45.1159 3.85287 44.7431 4.51205 44.7431C5.24362 44.7431 5.68737 45.2259 5.68737 46.0701C5.68737 46.6512 5.34542 47.1639 4.82676 47.5943ZM6.83008 48.5942L5.10992 47.7356C6.08345 47.4044 6.79746 46.7512 6.79746 45.8252C6.79746 44.578 5.79813 43.9489 4.51205 43.9489C3.33027 43.9489 2.19401 44.6579 2.19401 46.0271C2.19401 47.1823 3.1342 47.8728 4.16579 48.3801L7.4828 50C7.4828 49.285 7.39176 48.875 6.83008 48.5942ZM31.2782 48.2271C30.985 48.2271 30.0703 47.6708 30.0703 46.1801C30.0703 45.446 30.5276 44.988 31.2782 44.988C32.0292 44.988 32.4869 45.446 32.4869 46.1801C32.4869 47.6708 31.5725 48.2271 31.2782 48.2271ZM31.2782 44.1932C29.9728 44.1932 28.9928 44.9266 28.9928 46.1187C28.9928 47.6772 30.5929 48.5942 31.2782 48.5942C31.9643 48.5942 33.5636 47.6772 33.5636 46.1187C33.5636 44.9266 32.5847 44.1932 31.2782 44.1932ZM31.2929 45.8597C31.0646 46.012 30.8685 46.1902 30.6958 46.3939C30.8685 46.5975 31.0646 46.775 31.2929 46.928C31.5212 46.775 31.7166 46.5975 31.8908 46.3939C31.7166 46.1902 31.5212 46.012 31.2929 45.8597ZM37.2864 45.538C37.2864 44.7008 36.6656 44.1932 35.5551 44.1932C34.9418 44.1932 34.4913 44.3153 34.2167 44.4381C34.0604 44.6455 33.9884 44.8844 33.8902 45.2625C34.3085 45.1098 34.7135 44.988 35.3272 44.988C35.8168 44.988 36.2089 45.1837 36.2089 45.7215C36.2089 46.3016 35.8236 46.7237 33.7274 47.8604C33.7274 47.9829 33.7339 48.2271 33.7927 48.5331H37.2538C37.3513 48.258 37.4169 48.0137 37.4495 47.7386H34.5038C35.9756 47.2675 37.2864 46.7757 37.2864 45.538ZM28.4702 45.538C28.4702 44.7008 27.8505 44.1932 26.7404 44.1932C26.1264 44.1932 25.6758 44.3153 25.4019 44.4381C25.245 44.6455 25.1729 44.8844 25.0754 45.2625C25.493 45.1098 25.898 44.988 26.512 44.988C27.0013 44.988 27.3931 45.1837 27.3931 45.7215C27.3931 46.3016 27.0078 46.7237 24.912 47.8604C24.912 47.9829 24.9184 48.2271 24.9776 48.5331H28.4383C28.5365 48.258 28.6014 48.0137 28.6336 47.7386H25.6883C27.1594 47.2675 28.4702 46.7757 28.4702 45.538Z" fill="black"/>
<path d="M37.3823 42.7533C37.2343 42.7882 37.0715 42.8211 36.8948 42.8523C36.7167 42.8835 36.497 42.8986 36.2342 42.8986C35.9754 42.8986 35.7134 42.866 35.4489 42.8003C35.1844 42.7348 34.946 42.6291 34.7338 42.4835C34.5212 42.3383 34.347 42.1467 34.2123 41.9098C34.0764 41.6729 34.0094 41.3824 34.0094 41.0398C34.0094 40.7251 34.0653 40.4486 34.1761 40.2117C34.2868 39.9745 34.4417 39.7776 34.6392 39.6192C34.837 39.4619 35.0722 39.3444 35.3439 39.2666C35.6156 39.1884 35.9106 39.1498 36.2285 39.1498C36.4285 39.1498 36.6224 39.1676 36.811 39.2042C36.9999 39.2401 37.1884 39.2844 37.3766 39.3364L37.2941 40.1208C37.1275 40.0339 36.9619 39.9698 36.7977 39.9286C36.6325 39.887 36.4615 39.8662 36.2844 39.8662C36.0991 39.8662 35.9331 39.8954 35.7851 39.9547C35.6371 40.0131 35.5105 40.0947 35.4048 40.1983C35.2991 40.3027 35.2177 40.4265 35.1603 40.5701C35.103 40.7133 35.075 40.87 35.075 41.0398C35.075 41.2163 35.1069 41.3757 35.1722 41.5179C35.2363 41.6595 35.3252 41.7796 35.4381 41.8786C35.551 41.9769 35.6869 42.0524 35.8457 42.1044C36.0048 42.1561 36.1783 42.1822 36.3676 42.1822C36.5375 42.1822 36.7059 42.1641 36.8723 42.1276C37.0389 42.0916 37.192 42.0474 37.3325 41.9954L37.3823 42.7533Z" fill="black"/>
<path d="M41.0995 41.4603C41.0995 41.7099 41.0586 41.924 40.9772 42.1045C40.8959 42.2843 40.7808 42.4333 40.631 42.5507C40.4808 42.6688 40.3016 42.756 40.0926 42.8131C39.8836 42.8708 39.6531 42.8986 39.4015 42.8986C39.1503 42.8986 38.9201 42.8708 38.7108 42.8131C38.5022 42.756 38.323 42.6688 38.1728 42.5507C38.023 42.4333 37.9079 42.2843 37.8265 42.1045C37.7452 41.924 37.7043 41.7099 37.7043 41.4603V39.2116H38.7363V41.2996C38.7363 41.4207 38.7463 41.5337 38.7667 41.6394C38.7868 41.7455 38.8226 41.8384 38.8721 41.9199C38.9219 42.0011 38.9897 42.0652 39.0746 42.1118C39.1592 42.1588 39.2689 42.1823 39.4015 42.1823C39.5349 42.1823 39.6442 42.1588 39.7295 42.1118C39.8148 42.0652 39.8818 42.0011 39.932 41.9199C39.9815 41.8384 40.017 41.7455 40.0374 41.6394C40.0571 41.5337 40.0679 41.4207 40.0679 41.2996V39.2116H41.0995V41.4603Z" fill="black"/>
<path d="M42.6477 40.8839H42.9136C43.0025 40.8839 43.0857 40.8759 43.1634 40.8608C43.2409 40.8447 43.3086 40.8172 43.3656 40.7776C43.423 40.738 43.4685 40.6856 43.5018 40.6216C43.5348 40.5578 43.5516 40.479 43.5516 40.3857C43.5516 40.2917 43.5348 40.2139 43.5018 40.1522C43.4685 40.0898 43.423 40.0394 43.3656 40.0012C43.3086 39.9633 43.2409 39.9361 43.1634 39.921C43.0857 39.9049 43.0025 39.8972 42.9136 39.8972H42.6477V40.8839ZM41.6153 39.2117H42.8469C43.4427 39.2117 43.881 39.308 44.1624 39.4999C44.4431 39.6925 44.5839 39.9925 44.5839 40.4011C44.5839 40.7682 44.4488 41.0547 44.1789 41.2604C43.9083 41.4667 43.5312 41.5694 43.0466 41.5694H42.6477V42.8363H41.6153V39.2117Z" fill="black"/>
<path d="M12.4901 39.2117H13.5443L14.0439 41.9954H14.055L14.5759 39.2117H15.8852L16.429 41.9954H16.4405L16.9452 39.2117H17.9495L17.0835 42.8366H15.758L15.2089 40.0531H15.1974L14.6873 42.8366H13.35L12.4901 39.2117Z" fill="black"/>
<path d="M19.0534 41.0241C19.0534 41.1735 19.0698 41.3177 19.1035 41.458C19.1365 41.5979 19.1878 41.7217 19.2584 41.8291C19.3286 41.9364 19.4193 42.022 19.5308 42.0861C19.6416 42.1501 19.7742 42.1824 19.9301 42.1824C20.0849 42.1824 20.219 42.1501 20.3298 42.0861C20.4405 42.022 20.5308 41.9364 20.6007 41.8291C20.6714 41.7217 20.7233 41.5979 20.7567 41.458C20.7896 41.3177 20.8065 41.1735 20.8065 41.0241C20.8065 40.8688 20.7896 40.7205 20.7567 40.5806C20.7233 40.4403 20.6714 40.3172 20.6007 40.2112C20.5308 40.1062 20.4405 40.022 20.3298 39.9596C20.219 39.8971 20.0849 39.8666 19.9301 39.8666C19.7742 39.8666 19.6416 39.8971 19.5308 39.9596C19.4193 40.022 19.3286 40.1062 19.2584 40.2112C19.1878 40.3172 19.1365 40.4403 19.1035 40.5806C19.0698 40.7205 19.0534 40.8688 19.0534 41.0241ZM17.9877 41.0241C17.9877 40.7333 18.0297 40.4719 18.1128 40.24C18.1956 40.0082 18.3189 39.8116 18.4816 39.6509C18.6444 39.4898 18.8473 39.3657 19.0888 39.2795C19.3312 39.1929 19.6115 39.1493 19.9301 39.1493C20.2477 39.1493 20.528 39.1929 20.7703 39.2795C21.0126 39.3657 21.2151 39.4898 21.3778 39.6509C21.5406 39.8116 21.6635 40.0082 21.747 40.24C21.8302 40.4719 21.8714 40.7333 21.8714 41.0241C21.8714 41.3113 21.8302 41.571 21.747 41.8032C21.6635 42.0354 21.5391 42.2327 21.375 42.3951C21.2105 42.5578 21.0072 42.6826 20.7646 42.7688C20.523 42.8557 20.2437 42.899 19.9301 42.899C19.6115 42.899 19.3326 42.8557 19.0917 42.7688C18.8523 42.6826 18.6494 42.5578 18.4845 42.3951C18.32 42.2327 18.1956 42.0354 18.1128 41.8032C18.0297 41.571 17.9877 41.3113 17.9877 41.0241Z" fill="black"/>
<path d="M23.2919 40.7179H23.5633C23.645 40.7179 23.731 40.7152 23.8213 40.7098C23.9124 40.7048 23.9937 40.6884 24.0658 40.6608C24.1378 40.6327 24.1981 40.5914 24.2457 40.536C24.2941 40.4803 24.3178 40.4012 24.3178 40.2968C24.3178 40.2139 24.297 40.1458 24.254 40.0921C24.2117 40.0385 24.1565 39.9975 24.088 39.97C24.0195 39.9425 23.94 39.9237 23.8489 39.913C23.7586 39.9022 23.6636 39.8972 23.5633 39.8972H23.2919V40.7179ZM22.2603 39.2118H24.102C24.2715 39.2118 24.4332 39.2302 24.5844 39.2661C24.7361 39.3027 24.8694 39.3594 24.9841 39.4355C25.0981 39.5117 25.1881 39.6063 25.2529 39.7204C25.3178 39.8351 25.3501 39.97 25.3501 40.1257C25.3501 40.3679 25.2891 40.5672 25.1666 40.7233C25.045 40.8786 24.8579 40.9843 24.6067 41.04V41.05C24.688 41.0705 24.7536 41.1034 24.8038 41.149C24.8536 41.194 24.897 41.25 24.9339 41.3175C24.9712 41.3852 25.0049 41.4631 25.0364 41.5513C25.0683 41.6396 25.1078 41.7392 25.1565 41.8503L25.5332 42.8363H24.4576L24.235 42.1824C24.183 42.0264 24.1339 41.8982 24.088 41.7979C24.0418 41.6979 23.9912 41.6181 23.9382 41.5594C23.8844 41.5 23.8235 41.4597 23.7547 41.4372C23.6862 41.4144 23.6045 41.4034 23.5084 41.4034H23.2919V42.8363H22.2603V39.2118Z" fill="black"/>
<path d="M25.9772 39.2117H27.0088V42.1199H28.6068V42.8366H25.9772V39.2117Z" fill="black"/>
<path d="M29.9994 42.1198H30.3987C30.7869 42.1198 31.0848 42.0282 31.2916 41.8443C31.4988 41.6612 31.6027 41.388 31.6027 41.024C31.6027 40.6606 31.4966 40.3872 31.2858 40.2037C31.0751 40.0201 30.7797 39.9282 30.3987 39.9282H29.9994V42.1198ZM28.9671 39.2115H30.3761C30.7131 39.2115 31.022 39.2397 31.3027 39.2947C31.5841 39.3501 31.8249 39.4464 32.0271 39.5833C32.2282 39.7198 32.3859 39.9044 32.4985 40.1362C32.6114 40.3677 32.668 40.659 32.668 41.0086C32.668 41.3481 32.6103 41.6336 32.4956 41.8655C32.3809 42.0977 32.2221 42.2852 32.0185 42.4288C31.8153 42.5724 31.573 42.6761 31.2916 42.7402C31.0106 42.8043 30.7055 42.8365 30.3761 42.8365H28.9671V39.2115Z" fill="black"/>
<path fill-rule="evenodd" clip-rule="evenodd" d="M0 39.2117V42.8366H1.20508V41.5274H2.07286L2.38148 40.7352H1.20508V40.0011H2.66608L2.97362 39.2117H0Z" fill="black"/>
<path fill-rule="evenodd" clip-rule="evenodd" d="M3.3426 42.8363H4.54768V39.2113H3.3426V42.8363Z" fill="black"/>
<path fill-rule="evenodd" clip-rule="evenodd" d="M5.37703 39.2117V42.8366H6.58283V41.5274H7.44989L7.75851 40.7352H6.58283V40.0011H8.04311L8.35101 39.2117H5.37703Z" fill="black"/>
<path fill-rule="evenodd" clip-rule="evenodd" d="M10.228 41.6529L9.74588 40.1431L9.28063 41.6529H10.228ZM11.8019 42.8367H10.5846L10.4273 42.3495H9.06521L8.9143 42.8367H7.72787L9.13869 39.2117H10.3918L11.8019 42.8367Z" fill="black"/>
<path d="M16.2093 5.20268C16.2389 4.94416 16.2671 4.69479 16.2911 4.45517L16.1921 4.2946C16.0981 4.32624 16.0233 4.34151 15.9713 4.33663C15.9523 4.41772 15.9342 4.49896 15.9169 4.58036C15.8715 4.77978 15.8303 4.97987 15.7933 5.18052C15.836 5.17679 15.8793 5.17489 15.923 5.17489C16.0212 5.17489 16.117 5.18446 16.2093 5.20268Z" fill="black"/>
<path d="M17.6627 4.25991C17.3513 4.34119 17.0643 4.39156 16.8303 4.41168L16.4056 4.64102L16.2911 4.45517C16.2671 4.69479 16.2389 4.94416 16.2093 5.20268C16.4687 5.25384 16.7013 5.37312 16.8847 5.53958C16.8935 5.52064 16.9024 5.50174 16.9114 5.48289C17.1126 5.04982 17.3652 4.6387 17.6627 4.25991Z" fill="black"/>
<path d="M16.4276 1.97205C16.4247 1.97251 16.4207 1.97251 16.4188 1.97343C15.3111 2.34521 12.6942 5.36698 13.2596 9.53686C13.3001 9.94605 13.3918 10.3446 13.5098 10.7349C14.4276 14.1295 17.1722 18.5067 18.5266 20.6865C18.6228 20.5728 18.7044 20.4389 18.7728 20.2892C18.5119 19.8841 18.2512 19.4776 18.0002 19.0679C17.9807 19.036 17.9613 19.0041 17.9418 18.9721C17.9047 19.0983 17.8645 19.2235 17.8213 19.3476C17.8519 19.2025 17.8799 19.0571 17.9048 18.9114C17.5081 18.2597 17.1189 17.6046 16.748 16.9393C16.1011 15.7808 15.4854 14.6034 14.9746 13.3863C14.6001 12.5741 14.3251 11.8142 13.9808 10.8632L13.8844 10.5968C13.2282 8.78877 13.6342 5.38228 15.2762 3.2814C15.7326 2.69823 16.2845 2.17508 16.9345 1.8554C16.884 1.86934 16.8328 1.8825 16.7804 1.89481C16.6457 1.92575 16.5278 1.95219 16.4276 1.97205Z" fill="black"/>
<path d="M15.6308 6.30946C15.6202 6.4073 15.6106 6.50523 15.6018 6.60323L15.7109 6.79547C15.7287 6.82595 15.7622 6.84395 15.7987 6.84395C15.8041 6.84395 15.8106 6.84395 15.816 6.84302L16.0428 6.80602C16.0604 6.59282 16.0802 6.3839 16.1012 6.17948L15.9275 6.09996C15.8895 6.08195 15.8431 6.09026 15.8135 6.11935L15.6324 6.29395L15.6308 6.30946Z" fill="black"/>
<path d="M16.3227 6.3521C16.3291 6.31192 16.3074 6.27359 16.2684 6.25604L16.1012 6.17948C16.0802 6.3839 16.0604 6.59282 16.0428 6.80602L16.1895 6.78208C16.2309 6.77515 16.264 6.74373 16.2699 6.70355L16.3227 6.3521Z" fill="black"/>
<path d="M16.522 5.73927C16.4177 5.66339 16.2978 5.60621 16.1669 5.57412C16.1561 5.66996 16.1453 5.76694 16.1345 5.86504C16.1673 5.874 16.2006 5.87826 16.2339 5.87826C16.3469 5.87826 16.4554 5.82655 16.522 5.73927Z" fill="black"/>
<path d="M15.8791 5.54852C15.8801 5.68153 15.9679 5.80622 16.1076 5.85656C16.1165 5.85975 16.1255 5.86257 16.1345 5.86504C16.1453 5.76694 16.1561 5.66996 16.1669 5.57412C16.0891 5.55504 16.0075 5.54483 15.923 5.54483C15.9077 5.54483 15.8934 5.54759 15.8791 5.54852Z" fill="black"/>
<path d="M16.186 7.09243C16.1251 7.09243 16.0679 7.10677 16.0179 7.13204C16.0121 7.2167 16.0066 7.302 16.0016 7.38791C16.1317 7.37837 16.2545 7.34537 16.365 7.2934C16.3723 7.24635 16.38 7.19936 16.3882 7.15245C16.3307 7.11473 16.2611 7.09243 16.186 7.09243Z" fill="black"/>
<path d="M15.8347 7.38291C15.8633 7.38568 15.8925 7.39077 15.923 7.39077C15.9495 7.39077 15.9757 7.38981 16.0016 7.38791C16.0066 7.302 16.0121 7.2167 16.0179 7.13204C15.9196 7.18185 15.8495 7.27415 15.8347 7.38291Z" fill="black"/>
<path d="M15.4139 7.00792C15.4139 6.96579 15.4055 6.92552 15.3903 6.88847C15.3821 6.98173 15.375 7.07509 15.3688 7.16852C15.3975 7.12104 15.4139 7.06695 15.4139 7.00792Z" fill="black"/>
<path d="M18.6154 4.21147C18.6797 4.08384 18.7476 3.96067 18.819 3.84247C18.5803 3.9549 18.3368 4.05068 18.0992 4.13006C17.7426 4.58585 17.4537 5.08504 17.2341 5.60805C17.2004 5.68905 17.1685 5.77053 17.1383 5.85246C17.231 6.01253 17.2887 6.19297 17.3017 6.38475C17.5965 5.7082 17.9866 5.06296 18.4947 4.46533C18.5334 4.37896 18.5737 4.29429 18.6154 4.21147Z" fill="black"/>
<path d="M16.7546 7.49993C16.7225 7.78513 16.7063 8.07238 16.7041 8.36022C16.77 8.01103 16.8532 7.6656 16.9564 7.32577C16.8955 7.38985 16.8279 7.44823 16.7546 7.49993Z" fill="black"/>
<path d="M16.143 10.7011C16.2346 11.2665 16.3425 11.8511 16.4522 12.443C16.2934 11.2408 16.1835 9.9398 16.2704 8.66385C16.2663 8.37788 16.2756 8.09146 16.3001 7.80545C16.3035 7.77308 16.3069 7.74072 16.3105 7.70836C16.2061 7.73679 16.0966 7.75402 15.9836 7.75857C15.9736 8.0119 15.9685 8.27022 15.9698 8.5332L16.2058 8.74715L15.978 8.9672C15.9964 9.52665 16.0466 10.1056 16.143 10.7011Z" fill="black"/>
<path d="M15.545 8.52563L15.7464 8.33056L15.9698 8.5332C15.9685 8.27022 15.9736 8.0119 15.9836 7.75857C15.9635 7.75938 15.9433 7.75978 15.923 7.75978C15.7905 7.75978 15.6624 7.74234 15.541 7.70978C15.5354 7.98174 15.5367 8.25379 15.545 8.52563Z" fill="black"/>
<path d="M18.0011 9.7724C18.0003 9.76889 17.9993 9.76543 17.9986 9.76192C17.8146 8.92106 17.7481 8.23519 17.7996 7.59741C17.8627 6.81183 18.105 6.09929 18.5285 5.26075C18.5386 5.23176 18.5492 5.20278 18.5603 5.17382C18.3996 5.26093 18.2578 5.3547 18.1387 5.45103C18.2371 5.10523 18.3562 4.77438 18.4947 4.46533C17.9866 5.06296 17.5965 5.7082 17.3017 6.38475C17.3036 6.41229 17.3045 6.44006 17.3045 6.46804C17.3045 6.79738 17.173 7.09773 16.9564 7.32577C16.8532 7.6656 16.77 8.01103 16.7041 8.36022C16.6997 8.95005 16.7545 9.54238 16.8547 10.1248C16.9928 10.9835 17.2398 11.8261 17.489 12.676C17.6815 13.3326 17.8753 13.9935 18.0211 14.6697C18.1425 15.2227 18.2255 15.7868 18.253 16.3527C18.4797 16.5606 18.7161 16.7724 18.9619 16.9869C18.905 16.5675 18.8375 16.1487 18.77 15.73L18.7572 15.6507C18.7021 15.2952 18.6434 14.9401 18.5847 14.5848C18.4981 14.0603 18.4115 13.5356 18.3359 13.0095C18.2474 12.4258 18.198 11.8407 18.1485 11.2546C18.1425 11.1834 18.1365 11.1121 18.1304 11.0409C18.1103 10.8562 18.0956 10.6838 18.0816 10.5197C18.0769 10.4648 18.0723 10.4108 18.0676 10.3576L18.0675 10.3563C18.049 10.1466 18.0289 9.94892 17.9963 9.75307C17.9974 9.75589 17.9979 9.7587 17.9986 9.76192L17.9992 9.76508C17.9997 9.76785 18.0001 9.76962 18.0011 9.7724Z" fill="black"/>
<path d="M16.3542 3.97937C16.3728 3.87595 16.3929 3.77918 16.4129 3.68322C16.4394 3.55583 16.4657 3.42976 16.4875 3.29153C16.52 3.08509 16.554 2.8931 16.5891 2.71622C16.6326 2.49332 16.6938 2.31292 16.7674 2.13347C16.6414 2.35618 16.526 2.59158 16.4209 2.81125C16.0545 3.57689 15.8094 4.38888 15.6535 5.19951C15.7004 4.9844 15.752 4.77029 15.8084 4.55727C15.9668 3.98875 16.1552 3.42762 16.3876 2.8822C16.2302 3.36317 16.0858 3.84721 15.9713 4.33663C16.0233 4.34151 16.0981 4.32624 16.1921 4.2946L16.0868 4.12374L16.3542 3.97937Z" fill="black"/>
<path d="M24.772 21.3506C25.4177 20.2291 26.404 18.5721 27.3212 16.9838C27.4006 16.6143 27.4341 16.1657 27.52 15.6626C27.3393 15.9223 27.1126 16.2474 26.8611 16.6074C26.6614 16.9319 26.4527 17.271 26.2427 17.612C25.6677 18.7977 24.775 20.6984 24.772 21.3506Z" fill="black"/>
<path d="M24.7794 17.1674C24.3855 17.977 23.9652 18.7726 23.5407 19.5623L23.3289 19.9482C23.3962 20.0599 23.4634 20.1722 23.5304 20.285L23.5467 20.3102L23.5737 20.3518C23.6843 20.1765 23.8003 19.9935 23.9208 19.8035L23.9244 19.798L23.9249 19.7971C24.2586 19.2709 24.6264 18.6911 25.0062 18.0733C24.9107 17.7697 24.8362 17.4665 24.7794 17.1674Z" fill="black"/>
<path d="M21.6823 21.425C21.6833 21.4111 21.6957 21.4037 21.7105 21.4019H21.7253C21.7312 21.4023 21.7376 21.4037 21.7435 21.4056C21.8093 21.4276 21.8799 21.4819 21.9531 21.5602C21.8188 21.3847 21.6895 21.2102 21.5648 21.0369C21.5181 21.1283 21.4716 21.2199 21.4252 21.3116C21.6071 21.5681 21.7954 21.8243 21.9879 22.0791C22.0084 22.0452 22.0411 22.0158 22.077 22.0069C21.9744 21.9279 21.8777 21.8341 21.7894 21.7081C21.7095 21.594 21.6873 21.5058 21.6823 21.4296V21.425Z" fill="black"/>
<path d="M24.0301 31.614C24.0369 31.6288 24.0438 31.6437 24.0506 31.6587C24.1973 31.241 24.2608 30.8251 24.2547 30.4085C24.1341 30.5488 24.0124 30.6748 23.8921 30.7866C23.8887 30.9608 23.8778 31.1272 23.8604 31.2853C23.9033 31.3294 23.9447 31.3986 23.9692 31.4702C23.9843 31.5151 24.0068 31.5637 24.0301 31.614Z" fill="black"/>
<path fill-rule="evenodd" clip-rule="evenodd" d="M15.3024 8.76054L15.3439 8.79808L15.5663 8.99885C15.5569 8.84123 15.5497 8.68347 15.545 8.52563L15.3413 8.72286L15.3024 8.76054Z" fill="black"/>
<path d="M15.6347 9.7986C15.7556 10.9583 16.0447 12.0967 16.3536 13.23C16.4023 13.4116 16.4523 13.5928 16.5024 13.7742C16.609 14.1603 16.7156 14.5467 16.81 14.937C16.8121 14.9464 16.8142 14.9558 16.8164 14.9653C16.8238 14.9728 16.8312 14.9804 16.8386 14.9879C16.7259 14.2359 16.5745 13.3687 16.4522 12.443C16.3425 11.8511 16.2346 11.2665 16.143 10.7011C16.0466 10.1056 15.9964 9.52665 15.978 8.9672L15.7622 9.17572L15.5663 8.99885C15.5824 9.26592 15.6051 9.5326 15.6347 9.7986Z" fill="black"/>
<path d="M19.3916 17.3563C19.4394 17.3968 19.4876 17.4373 19.5361 17.478C19.3172 16.9636 19.1346 16.4619 18.9819 15.9732L18.9941 16.0513L19.0071 16.1363C19.115 16.5046 19.2433 16.9181 19.3916 17.3563Z" fill="black"/>
<path d="M18.2584 17.0287C18.2661 16.8035 18.264 16.578 18.253 16.3527C18.15 16.2583 18.0491 16.1647 17.9501 16.072C17.9956 16.3891 18.0256 16.7081 18.0359 17.0287C18.0551 17.4709 18.0352 17.9145 17.9843 18.357C18.0127 18.3971 18.0413 18.4373 18.07 18.4774C18.177 18.0023 18.2404 17.5167 18.2584 17.0287Z" fill="black"/>
<path d="M16.6771 15.8814C16.4897 15.6671 16.3125 15.4468 16.1403 15.221C15.9903 15.0172 15.8442 14.8089 15.7057 14.5968L15.7573 14.6879C16.1545 15.4042 16.5689 16.1117 16.9923 16.8156C17.0425 16.8992 17.0928 16.9827 17.1432 17.0662L17.1877 17.1397C17.1911 17.0721 17.1352 16.8004 17.0437 16.4085C17.0472 16.4996 17.0477 16.5909 17.0448 16.6822C17.0374 16.5293 17.0221 16.3775 17.0008 16.2266C16.9042 15.8211 16.7785 15.3178 16.6444 14.7892C16.015 14.1404 15.5237 13.5867 15.1836 13.1874C15.391 13.6044 15.6164 14.02 15.8389 14.4304C16.0021 14.7391 16.1811 15.0402 16.3609 15.3426C16.4671 15.5211 16.5735 15.7001 16.6771 15.8814Z" fill="black"/>
<path d="M16.9924 12.4954C16.8036 11.8851 16.6249 11.2664 16.4935 10.635C16.4816 11.798 16.5948 12.9587 16.7435 14.0531C16.6568 13.5456 16.5622 13.0357 16.4685 12.5307L16.4522 12.443C16.5745 13.3687 16.7259 14.2359 16.8386 14.9879C17.1741 15.3286 17.5452 15.6926 17.9501 16.072C17.8859 15.6244 17.7908 15.1806 17.6767 14.7408C17.5003 14.0783 17.2893 13.4208 17.0769 12.7592L16.9924 12.4954Z" fill="black"/>
<path d="M16.2704 8.66385C16.1835 9.9398 16.2934 11.2408 16.4522 12.443L16.4685 12.5307C16.5622 13.0357 16.6568 13.5456 16.7435 14.0531C16.5948 12.9587 16.4816 11.798 16.4935 10.635C16.4628 10.4875 16.4347 10.3393 16.4097 10.1904C16.328 9.68631 16.2778 9.17581 16.2704 8.66385Z" fill="black"/>
<path d="M27.523 5.077C27.1025 4.70495 26.6629 4.40842 26.2182 4.17509C25.951 4.10314 25.6831 4.03902 25.4186 3.9757C24.7837 3.82369 24.1683 3.67636 23.6277 3.43677C23.4898 3.42621 23.3546 3.42005 23.2225 3.41783C23.8038 3.67793 24.3841 3.90227 24.9547 4.12278C25.9953 4.52501 27.0032 4.91459 27.924 5.48557C27.8032 5.34314 27.6698 5.2068 27.523 5.077Z" fill="black"/>
<path d="M18.861 3.8225C18.7611 3.95608 18.6782 4.08707 18.6154 4.21147C18.5737 4.29429 18.5334 4.37896 18.4947 4.46533C18.7805 4.12916 19.1037 3.80805 19.4682 3.50491C19.4871 3.48441 19.5057 3.46455 19.5239 3.44537C19.3145 3.58669 19.0903 3.71233 18.861 3.8225Z" fill="black"/>
<path d="M18.4947 4.46533C18.3562 4.77438 18.2371 5.10523 18.1387 5.45103C18.2599 5.02413 18.9707 4.04497 19.4682 3.50491C19.1037 3.80805 18.7805 4.12916 18.4947 4.46533Z" fill="black"/>
<path d="M18.1387 5.45103C18.2578 5.3547 18.3996 5.26093 18.5603 5.17382C18.834 4.45628 19.3861 3.75363 19.9835 3.18907C19.9869 3.18393 20.0233 3.12974 20.0867 3.04237C19.942 3.13821 19.8025 3.23846 19.6693 3.34281C19.6009 3.39625 19.5339 3.45029 19.4682 3.50491C18.9707 4.04497 18.2599 5.02413 18.1387 5.45103Z" fill="black"/>
<path d="M18.5071 3.65911C19.0547 3.08783 19.7055 2.58351 20.4584 2.24406C19.3172 2.75272 18.4663 3.42272 17.8395 4.19873C17.9295 4.17218 18.021 4.14326 18.1134 4.11198C18.2366 3.95559 18.3679 3.80437 18.5071 3.65911Z" fill="black"/>
<path d="M20.4584 2.24406C19.6645 2.49945 18.9575 2.96775 18.3487 3.51779C18.1043 3.74285 17.8787 3.98647 17.6742 4.24532C17.7286 4.2307 17.7838 4.21517 17.8395 4.19873C18.4663 3.42272 19.3172 2.75272 20.4584 2.24406Z" fill="black"/>
<path d="M19.5239 3.44537C19.5057 3.46455 19.4871 3.48441 19.4682 3.50491C19.5339 3.45029 19.6009 3.39625 19.6693 3.34281C19.6218 3.37787 19.5732 3.41205 19.5239 3.44537Z" fill="black"/>
<path d="M18.819 3.84247C18.7476 3.96067 18.6797 4.08384 18.6154 4.21147C18.6782 4.08707 18.7611 3.95608 18.861 3.8225L18.819 3.84247Z" fill="black"/>
<path d="M26.5117 17.06C26.5605 16.9918 26.6114 16.9219 26.6644 16.8503C26.7338 16.7408 26.8036 16.6306 26.8732 16.5207L26.8793 16.434L26.8794 16.4331C26.8846 16.3587 26.8899 16.2838 26.8953 16.2091C26.6042 16.7133 26.3079 17.1983 26.0167 17.6586C26.322 17.2346 26.5653 16.8935 26.6632 16.7457C26.6275 16.8219 26.5756 16.9289 26.5117 17.06Z" fill="black"/>
<path d="M26.8698 16.5792C26.8411 16.6255 26.8123 16.6721 26.7832 16.719C26.8094 16.6814 26.8354 16.6443 26.8611 16.6074C27.111 16.2015 27.3466 15.8185 27.5525 15.4835C27.5532 15.4799 27.5539 15.4763 27.5546 15.4727C27.3855 15.7462 27.1964 16.0518 26.9959 16.3755C26.9602 16.4457 26.9202 16.5138 26.8698 16.5792Z" fill="black"/>
<path d="M26.8611 16.6074C27.1126 16.2474 27.3393 15.9223 27.52 15.6626C27.5301 15.6036 27.5409 15.5439 27.5525 15.4835C27.3466 15.8185 27.111 16.2015 26.8611 16.6074Z" fill="black"/>
<path d="M27.4888 15.549C27.4363 15.62 27.3831 15.6901 27.3288 15.7591C27.2138 15.9037 27.1465 16.049 27.0831 16.1894C27.2232 15.9682 27.3602 15.7521 27.4888 15.549Z" fill="black"/>
<path d="M27.5587 15.4521C27.547 15.4687 27.5352 15.4854 27.5232 15.5023L27.4888 15.549L27.0831 16.1894L27.0759 16.2054C27.0498 16.2631 27.0242 16.32 26.9959 16.3755C27.1964 16.0518 27.3855 15.7462 27.5546 15.4727C27.556 15.4659 27.5573 15.459 27.5587 15.4521Z" fill="black"/>
<path d="M26.8732 16.5207L26.6644 16.8503C26.7292 16.7629 26.7973 16.6729 26.869 16.5802L26.8732 16.5207Z" fill="black"/>
<path d="M26.4445 17.1976C26.4413 17.2043 26.438 17.2111 26.4347 17.2178C26.554 17.0471 26.6708 16.88 26.7832 16.719L26.8698 16.5792L26.869 16.5802C26.7973 16.6729 26.7292 16.7629 26.6644 16.8503C26.5904 16.9672 26.5169 17.0834 26.4445 17.1976Z" fill="black"/>
<path d="M26.8967 16.1907C26.5933 16.72 26.2839 17.2284 25.9801 17.7094L26.0167 17.6586C26.3079 17.1983 26.6042 16.7133 26.8953 16.2091L26.8967 16.1907Z" fill="black"/>
<path d="M26.2885 17.5176C26.4558 17.2477 26.622 16.9793 26.7832 16.719L26.4347 17.2178C26.3897 17.31 26.3407 17.4104 26.2885 17.5176Z" fill="black"/>
<path d="M26.2427 17.612L26.8611 16.6074L26.7832 16.719L26.2885 17.5176L26.2427 17.612Z" fill="black"/>
<path d="M26.6644 16.8503C26.6114 16.9219 26.5605 16.9918 26.5117 17.06L26.4445 17.1976L26.6644 16.8503Z" fill="black"/>
<path d="M21.2209 23.8643C21.317 23.6743 21.4144 23.4846 21.5124 23.2952C21.3803 23.0519 21.2422 22.8073 21.0977 22.5623L21.0221 22.4813C20.9882 22.446 20.9464 22.4101 20.8999 22.3755C20.8287 22.5234 20.7582 22.6718 20.6884 22.8205L20.6854 22.8271C20.8354 23.1189 20.9782 23.414 21.1127 23.7124C21.1483 23.7633 21.1844 23.8139 21.2209 23.8643Z" fill="black"/>
<path d="M20.6854 22.8271L20.6884 22.8205C20.7582 22.6718 20.8287 22.5234 20.8999 22.3755C20.7204 22.2424 20.4692 22.1289 20.319 22.1455C20.4452 22.3707 20.5675 22.5979 20.6854 22.8271Z" fill="black"/>
<path d="M20.319 22.1455C20.4692 22.1289 20.7204 22.2424 20.8999 22.3755L20.9383 22.2958L20.9115 22.2517C20.8909 22.2186 20.8704 22.1854 20.8501 22.1522C20.6028 21.7823 20.3389 21.4126 20.0609 21.0435C20.0032 21.1681 19.9469 21.2921 19.892 21.4155C20.0386 21.6565 20.1811 21.8998 20.319 22.1455Z" fill="black"/>
<path d="M19.1199 19.8558C19.1009 19.9408 19.08 20.0254 19.0569 20.1094C19.2305 20.3781 19.4047 20.6468 19.5793 20.9157C19.5094 20.6781 19.4491 20.4383 19.3987 20.1969C19.3418 20.1267 19.2845 20.0565 19.2268 19.9864C19.1909 19.9429 19.1553 19.8994 19.1199 19.8558Z" fill="black"/>
<path d="M18.9158 19.8906C18.9357 19.819 18.9537 19.7452 18.9697 19.6694C18.6547 19.2745 18.3545 18.8751 18.07 18.4774C18.0652 18.4988 18.0603 18.5202 18.0553 18.5416C18.3393 18.9925 18.6266 19.4418 18.9158 19.8906Z" fill="black"/>
<path d="M19.3987 20.1969C19.4491 20.4383 19.5094 20.6781 19.5793 20.9157L19.6032 20.9526L19.6494 20.8675C19.582 20.6722 19.5199 20.4752 19.4631 20.2766L19.3987 20.1969Z" fill="black"/>
<path d="M19.4631 20.2766C19.5199 20.4752 19.582 20.6722 19.6494 20.8675L19.6666 20.8359C19.6654 20.7347 19.6648 20.6325 19.6646 20.5295C19.5981 20.4452 19.5309 20.3609 19.4631 20.2766Z" fill="black"/>
<path d="M19.6646 20.5295C19.6648 20.6325 19.6654 20.7347 19.6666 20.8359L19.7642 20.6566C19.7312 20.6142 19.698 20.5719 19.6646 20.5295Z" fill="black"/>
<path d="M19.0109 20.0381C19.0282 19.9514 19.0433 19.8644 19.0562 19.7771L19.018 19.7297L18.9697 19.6694C18.9537 19.7452 18.9357 19.819 18.9158 19.8906L19.0109 20.0381Z" fill="black"/>
<path d="M19.0562 19.7771C19.0433 19.8644 19.0282 19.9514 19.0109 20.0381L19.0261 20.0617C19.0508 19.9903 19.0726 19.9268 19.0903 19.8751L19.1038 19.8359L19.0562 19.7771Z" fill="black"/>
<path d="M19.0903 19.8751C19.0726 19.9268 19.0508 19.9903 19.0261 20.0617L19.0569 20.1094C19.08 20.0254 19.1009 19.9408 19.1199 19.8558L19.1038 19.8359L19.0903 19.8751Z" fill="black"/>
<path fill-rule="evenodd" clip-rule="evenodd" d="M21.1707 0.491205C21.8965 0.372514 22.6578 0.348498 23.2543 0.647766C23.8212 0.932255 24.4394 1.03709 24.9525 1.08835L24.9318 1.13315C23.9963 1.59508 23.1946 1.43286 22.6357 1.25228C22.9524 1.42086 23.2604 1.60192 23.5666 1.78191C23.7029 1.86203 23.8389 1.94194 23.9751 2.02045C24.3881 2.25737 24.8094 2.48506 25.2668 2.6213C25.4937 2.68965 25.7325 2.73168 25.9713 2.71644C26.1374 2.7068 26.302 2.67103 26.4575 2.61099C26.4878 2.59299 26.5825 2.55066 26.6293 2.53002C26.646 2.52015 26.6631 2.51033 26.6805 2.50058C26.7505 2.46271 26.8181 2.42992 26.8842 2.40268L26.8891 2.40689C26.9935 2.36848 27.1367 2.33432 27.3574 2.32898C27.7718 2.31882 28.2455 2.51603 28.5721 2.84716C28.8691 3.13026 29.3911 3.83918 29.398 3.85534C29.6238 4.39943 29.616 4.91876 29.5389 5.32559C29.632 5.48479 29.7072 5.63846 29.7587 5.78283C29.7937 5.89182 29.8317 6.04423 29.8633 6.24882C29.8929 6.45664 29.9146 6.70788 29.926 6.99837C29.926 7.01526 29.9265 7.03119 29.927 7.04738C29.9274 7.05864 29.9277 7.07003 29.9279 7.08196V7.09305C29.9288 7.13175 29.9292 7.17197 29.9295 7.21248C29.9298 7.23916 29.93 7.26597 29.9304 7.29256C29.9487 9.03459 29.591 11.8349 28.3171 14.235C28.2722 14.32 28.2263 14.4045 28.1789 14.4881C28.0748 14.6724 27.9648 14.8544 27.8489 15.0322C27.7613 15.1611 27.6646 15.3016 27.5587 15.4521L27.5232 15.5023L27.4888 15.549C27.4363 15.62 27.3831 15.6901 27.3288 15.7591C27.2138 15.9037 27.1465 16.049 27.0831 16.1894L27.0759 16.2054C27.0498 16.2631 27.0242 16.32 26.9959 16.3755C26.9602 16.4457 26.9202 16.5138 26.8698 16.5792L26.869 16.5802L26.8732 16.5207L26.8793 16.434L26.8794 16.4331C26.8846 16.3587 26.8899 16.2838 26.8953 16.2091L26.8967 16.1907C27.2695 15.5402 27.6332 14.8581 27.9657 14.1567C27.9739 14.1388 27.9822 14.1209 27.9906 14.1029C28.4122 13.2085 28.7825 12.2833 29.0562 11.3525C29.0692 11.3082 29.082 11.2638 29.0946 11.2195C29.5336 9.67242 29.7002 8.11331 29.3873 6.65781C28.9336 6.18638 28.4426 5.80719 27.924 5.48557C27.8032 5.34314 27.6698 5.2068 27.523 5.077C27.1025 4.70495 26.6629 4.40842 26.2182 4.17509C27.305 4.46763 28.3819 4.88945 29.1805 5.91155C29.1681 5.87531 29.1554 5.83916 29.1423 5.80309C28.9549 5.28794 28.6963 4.79025 28.36 4.31367C27.9698 3.76092 27.5223 3.20477 26.9129 2.71399C26.8304 2.64759 26.7448 2.58231 26.656 2.5183L26.6506 2.52204L26.6416 2.52808C26.6182 2.54404 26.57 2.5768 26.5275 2.60553C26.4499 2.66163 26.3773 2.71972 26.3058 2.77695C26.1302 2.91757 25.961 3.05301 25.7389 3.14095C25.6338 3.18333 25.5164 3.21468 25.3793 3.23054C24.8805 3.28735 24.1245 3.14224 22.7504 2.52615C22.6231 2.46912 22.4857 2.43685 22.3407 2.42644C22.6715 2.90064 23.1161 3.21002 23.6277 3.43677C23.4898 3.42621 23.3546 3.42005 23.2225 3.41783C23.8038 3.67793 24.3841 3.90227 24.9547 4.12278C25.9953 4.52501 27.0032 4.91459 27.924 5.48557C28.3145 5.94601 28.5729 6.47001 28.7217 7.04175C29.5319 10.1559 27.0883 14.6861 25.0062 18.0733C24.9107 17.7697 24.8362 17.4665 24.7794 17.1674C24.9947 16.7248 25.2022 16.278 25.3983 15.8256C25.9573 14.5491 26.4363 13.2283 26.7472 11.8649C27.0531 10.5067 27.1912 9.07962 26.8898 7.70151C26.8158 7.35791 26.7092 7.02262 26.5849 6.69287C26.4497 6.36543 26.2869 6.04769 26.0885 5.74935C25.8691 5.42549 25.6034 5.12887 25.3003 4.87261C25.1725 4.84364 25.043 4.81546 24.9117 4.78688L24.841 4.77148C25.2509 5.07812 25.5946 5.45766 25.8571 5.88097C26.0313 6.17008 26.1724 6.47581 26.2868 6.79032C26.3895 7.10852 26.4852 7.4318 26.5311 7.76155C26.7398 9.08332 26.5094 10.4328 26.1028 11.713C25.901 12.3554 25.6509 12.9858 25.378 13.6084C25.1478 14.1445 24.8918 14.6718 24.6308 15.1981C24.5881 15.2843 24.5452 15.3704 24.5023 15.4566C24.0131 16.4232 23.4992 17.3827 22.9834 18.3458L22.9824 18.3478C22.8837 18.532 22.785 18.7164 22.6863 18.9009C22.9008 19.2451 23.1155 19.5941 23.3289 19.9482C23.3962 20.0599 23.4634 20.1722 23.5304 20.285L23.5467 20.3102L23.5737 20.3518L23.8946 20.847C23.943 20.7735 23.9939 20.697 24.047 20.6177C24.1789 20.4208 24.3245 20.2064 24.4808 19.9762L24.4832 19.9727L24.4846 19.9706L24.5769 19.8347C24.7937 19.5153 25.0289 19.1678 25.2752 18.7963C25.2973 18.8472 25.32 18.8981 25.3434 18.9488C25.0132 19.4928 24.3403 20.5212 24.0094 21.0242L24.5137 21.8027L24.5236 21.8179C25.9562 24.2747 26.9143 26.0067 27.4278 27.154L27.4292 27.1572C27.4578 27.2226 27.4858 27.2866 27.512 27.3479C27.4852 27.2854 27.4569 27.2209 27.4271 27.1545C27.2725 27.2717 27.142 27.4216 27.0716 27.5655C27.23 27.5073 27.3874 27.4533 27.5428 27.4228C27.5974 27.5585 27.6479 27.692 27.6945 27.8231C27.6632 27.8199 27.6313 27.8176 27.6005 27.8176C27.4855 27.8176 27.3717 27.8402 27.2583 27.876C27.2064 27.8924 27.1545 27.9116 27.1027 27.9326C27.0957 27.9348 27.0902 27.9428 27.0805 27.9569L27.0716 27.9696C27.3094 28.0093 27.3977 28.2051 27.4421 28.4319C27.4819 28.4228 27.5154 28.4071 27.5444 28.3869C27.6121 28.3397 27.655 28.268 27.6959 28.1998L27.7021 28.1894C27.7204 28.205 27.7383 28.2217 27.7561 28.2384C27.7889 28.269 27.8218 28.2997 27.8575 28.3243C27.8987 28.464 27.9355 28.6009 27.9681 28.7349C27.8903 28.7434 27.8298 28.7021 27.7798 28.668L27.7756 28.6651C27.7347 28.6377 27.6925 28.6151 27.6456 28.5989C27.5951 28.5816 27.5394 28.5718 27.4742 28.5718C27.4525 28.5718 27.4293 28.5727 27.4051 28.5751C27.428 28.6115 27.4489 28.6467 27.4691 28.6806C27.5194 28.7651 27.5648 28.8413 27.6222 28.9076C27.6649 28.9603 27.7289 28.9992 27.8075 28.9941C27.8314 28.9926 27.8567 28.987 27.8832 28.9764C27.9227 28.9616 27.976 28.9228 28.0031 28.8845C28.3818 30.5772 28.098 31.794 27.856 32.5128L27.8462 32.5436L27.8453 32.5445C27.8318 32.5837 27.8186 32.6214 27.8056 32.6576C27.7518 32.7633 27.6933 32.8696 27.6192 32.9745C26.7073 34.1662 26.3875 33.786 26.37 33.7633C26.3398 33.8209 26.3092 33.8791 26.2775 33.9371C26.1626 34.1482 26.0378 34.3442 25.9041 34.5197C25.4645 34.7496 24.7557 34.9729 23.952 35.0506C23.8273 35.0627 23.7005 35.0713 23.572 35.0758C23.4894 35.0787 23.4061 35.0799 23.3224 35.0794C23.3894 35.0057 23.4691 34.9334 23.5626 34.867C23.831 34.6731 24.097 34.5733 24.3476 34.5839C24.4454 34.5887 24.5379 34.5997 24.6286 34.6105C24.7212 34.6216 24.8119 34.6324 24.9046 34.6361L24.9228 34.637C25.029 34.6418 25.1334 34.6466 25.2441 34.6283C25.3824 34.6049 25.5173 34.5181 25.6392 34.3638C25.6621 34.3349 25.6845 34.3036 25.7064 34.2699L25.6913 34.2669C25.6527 34.2593 25.6157 34.252 25.5751 34.2426C25.7676 34.081 25.921 33.8921 25.9713 33.6418C25.8919 33.6935 25.8184 33.7365 25.7414 33.7785L25.7541 33.7535C25.8004 33.6624 25.8447 33.5754 25.8732 33.4903C25.9062 33.3919 25.9023 33.3125 25.8648 33.2585C25.812 33.3407 25.7631 33.4164 25.7044 33.5018L25.6993 33.4995L25.6915 33.4961L25.6829 33.4924C25.6786 33.4905 25.674 33.4885 25.6694 33.4861C25.5722 33.4349 25.2076 33.3582 25.0206 33.5462C24.8918 33.6796 24.7379 34.0149 24.9737 34.1595L24.9865 34.1672C25.0381 34.1983 25.0803 34.2237 25.1651 34.1849C25.2416 34.1484 25.2924 34.0819 25.328 34.0057C25.3325 33.9965 25.3345 33.9867 25.3369 33.9748L25.3386 33.9665L25.3402 33.9595L25.3413 33.9549C25.3368 33.9581 25.333 33.9607 25.3296 33.963C25.3218 33.9684 25.3164 33.9721 25.3112 33.9775C25.2352 34.0551 25.1908 34.0755 25.1538 34.0519C25.1168 34.0307 25.0877 33.9027 25.1296 33.8321C25.2416 33.6441 25.4528 33.5808 25.5574 33.6409C25.6403 33.6889 25.659 33.7924 25.5924 33.9461C25.5145 34.1258 25.3837 34.2699 25.2263 34.3309C25.1542 34.3587 25.0828 34.3779 25.0116 34.3923C24.6269 34.3551 24.2201 34.2357 23.8633 34.0938L23.8557 34.0908L23.8428 34.0856L23.8171 34.0752C23.7806 34.0604 23.7457 34.0479 23.7116 34.0373L23.7221 34.0282C23.8392 33.9253 23.9514 33.8254 24.0579 33.7255L24.0512 33.7435C24.2232 33.5948 24.3796 33.4559 24.5205 33.3082C24.5349 33.3317 24.5439 33.3644 24.5469 33.4058C24.5474 33.422 24.5484 33.4367 24.5504 33.4635C24.6185 33.3827 24.6436 33.301 24.6624 33.2248C24.6698 33.192 24.6737 33.1621 24.6746 33.1347C24.6255 33.1945 24.5741 33.252 24.5205 33.3082C24.5147 33.2988 24.5081 33.2909 24.5006 33.2844C24.558 33.2459 24.6159 33.1957 24.6747 33.1308C24.6754 33.0987 24.6718 33.0703 24.6647 33.0449C24.6515 32.9975 24.6262 32.9609 24.5938 32.932C24.5163 32.8641 24.3861 32.859 24.2534 32.9532C24.2016 32.9878 24.1354 33.058 24.0876 33.1264C24.0273 33.2128 23.9778 33.3001 23.9313 33.3883L23.9248 33.4007C23.7679 33.5951 23.6406 33.7217 23.5537 33.7974C23.65 33.6626 23.7235 33.5194 23.7876 33.3749L23.7897 33.3701C23.8445 33.2469 23.8898 33.122 23.9337 32.9961C23.9377 32.9855 23.9401 32.9743 23.9434 32.9591C23.945 32.952 23.9467 32.944 23.9489 32.9347L23.9448 32.9384L23.9393 32.9431L23.9328 32.9486L23.9242 32.9556C23.9147 32.9633 23.9076 32.969 23.9016 32.9763C23.7873 33.1058 23.664 33.2279 23.5376 33.3462C23.4598 33.419 23.3809 33.4903 23.3021 33.561C23.2888 33.5726 23.2775 33.5852 23.266 33.5979C23.2596 33.605 23.2532 33.6121 23.2464 33.6192C23.2534 33.5407 23.3031 33.444 23.3636 33.3516C23.38 33.3266 23.3972 33.3018 23.4146 33.2779C23.4452 33.2488 23.4738 33.2197 23.501 33.1883C23.5858 33.0945 23.6593 32.9814 23.7057 32.8719C23.7649 32.7283 23.7141 32.6364 23.6253 32.5805C23.6206 32.5775 23.6158 32.5746 23.611 32.5718C23.607 32.5695 23.603 32.5673 23.599 32.5652C23.5764 32.5533 23.5526 32.5441 23.5277 32.538C23.5031 32.5319 23.4773 32.5288 23.4501 32.5288C23.3964 32.5288 23.3352 32.5417 23.2681 32.5685C23.1655 32.6096 23.0421 32.7246 23.0189 32.804C23.0287 32.8016 23.0383 32.7991 23.0477 32.7965L23.0703 32.7903C23.1015 32.7817 23.1313 32.7734 23.1595 32.7689C23.2538 32.7578 23.3174 32.8012 23.3342 32.8834C23.3346 32.8856 23.335 32.8879 23.3353 32.8902L23.3359 32.8963C23.3373 32.9142 23.3351 32.9346 23.3298 32.9561C23.3141 33.02 23.2714 33.0932 23.2182 33.1352C23.1962 33.1527 23.1739 33.1699 23.1514 33.1869C23.0315 33.3316 22.894 33.4761 22.7253 33.6188L22.7154 33.6276C22.6902 33.6496 22.6648 33.6712 22.6393 33.6923C22.6357 33.7173 22.635 33.743 22.637 33.7693C22.6455 33.8862 22.7155 33.9819 22.7728 34.0428C22.7885 34.0594 22.8032 34.0734 22.8154 34.0846C22.8239 34.0923 22.8312 34.0987 22.8368 34.1036L22.8379 34.1045L22.8448 34.1106C22.5887 34.4149 22.2848 34.6689 21.9759 34.8998C21.9166 34.8833 21.858 34.8652 21.7991 34.8462C21.5411 34.7631 21.289 34.6573 21.0452 34.5197C20.9725 34.5313 20.8992 34.5443 20.8254 34.5574C20.3483 34.6423 19.8416 34.7324 19.2024 34.4749C19.5431 34.2757 19.8539 34.0294 20.1314 33.7482C18.9666 34.158 17.414 33.29 16.7681 32.1951C16.6467 31.863 16.5653 31.5102 16.5169 31.1426L16.514 31.1163C16.4982 30.9948 16.4858 30.8715 16.478 30.7477C16.4787 30.7513 16.4798 30.7546 16.481 30.758C16.4823 30.7617 16.4836 30.7654 16.4844 30.7694C16.6072 31.2735 16.9255 31.7164 17.3542 32.0215C16.8908 31.3924 16.525 30.4873 16.525 29.2756C16.5523 28.2518 17.8222 24.7047 19.184 21.7778C19.1585 21.7302 19.1314 21.6804 19.1018 21.6267C19.0238 21.4931 18.9243 21.3301 18.8078 21.1408L18.7885 21.1097L18.7653 21.0719L18.7023 20.9702L18.7029 20.9688C18.6713 20.9173 18.6394 20.8665 18.606 20.8134C18.5808 20.7733 18.5546 20.7315 18.5266 20.6865C18.6228 20.5728 18.7044 20.4389 18.7728 20.2892C18.8289 20.1665 18.8762 20.0329 18.9158 19.8906L19.0109 20.0381L19.0261 20.0617L19.0569 20.1094C19.2305 20.3781 19.4047 20.6468 19.5793 20.9157L19.6032 20.9526L19.6494 20.8675L19.6666 20.8359L19.7642 20.6566C19.7312 20.6142 19.698 20.5719 19.6646 20.5295C19.5981 20.4452 19.5309 20.3609 19.4631 20.2766L19.3987 20.1969C19.3418 20.1267 19.2845 20.0565 19.2268 19.9864C19.1909 19.9429 19.1553 19.8994 19.1199 19.8558L19.1038 19.8359L19.0562 19.7771L19.018 19.7297L18.9697 19.6694C18.6547 19.2745 18.3545 18.8751 18.07 18.4774C18.177 18.0023 18.2404 17.5167 18.2584 17.0287C18.2661 16.8035 18.264 16.578 18.253 16.3527C18.4797 16.5606 18.7161 16.7724 18.9619 16.9869C18.905 16.5675 18.8375 16.1487 18.77 15.73L18.7572 15.6507C18.7021 15.2952 18.6434 14.9401 18.5847 14.5848C18.4981 14.0603 18.4115 13.5356 18.3359 13.0095C18.2474 12.4258 18.198 11.8407 18.1485 11.2546L18.1304 11.0409C18.1103 10.8562 18.0956 10.6838 18.0816 10.5197C18.0769 10.4648 18.0723 10.4108 18.0676 10.3576C18.0491 10.1475 18.029 9.94925 17.9963 9.75307C17.9974 9.75589 17.9979 9.7587 17.9986 9.76192L17.9992 9.76508C17.9997 9.76785 18.0001 9.76962 18.0011 9.7724C18.1185 10.43 18.3084 11.1163 18.5502 11.8132C19.2794 13.5317 20.4157 15.3213 21.6462 17.2545C23.3321 13.9723 25.2134 9.44219 24.3322 7.11871C23.4969 4.91946 21.3127 4.61419 20.0264 4.73288C21.6406 4.38962 23.1909 4.86276 24.2967 6.26957C24.4387 6.49721 24.5604 6.7441 24.6614 7.00977C25.3485 8.81984 24.5789 11.946 23.4234 14.823C24.591 12.4905 25.2886 10.5875 25.533 9.06819C26.0717 5.71883 24.4079 4.23393 20.7227 4.12101C20.7313 4.04275 20.8091 3.95596 20.9445 3.8708C20.6856 3.89735 20.4283 3.93887 20.1768 4.005L20.1743 3.99715C20.4522 3.91266 20.7398 3.85824 21.0294 3.82164C21.3034 3.67497 21.7454 3.53924 22.2935 3.46833C21.8486 3.11104 21.4862 2.75527 21.2503 2.5031C21.2073 2.45658 21.1654 2.41005 21.1245 2.36331C20.6757 2.56016 20.3543 2.85668 20.1529 3.0425C20.0814 3.10842 20.025 3.1604 19.9835 3.18907C19.9835 3.18907 20.02 3.13432 20.0867 3.04237C19.942 3.13821 19.8025 3.23846 19.6693 3.34281C19.6218 3.37787 19.5732 3.41205 19.5239 3.44537C19.3145 3.58669 19.0903 3.71233 18.861 3.8225L18.819 3.84247C18.5803 3.9549 18.3368 4.05068 18.0992 4.13006C17.7426 4.58585 17.4537 5.08504 17.2341 5.60805C17.2004 5.68905 17.1685 5.77053 17.1383 5.85246C17.0911 5.77111 17.035 5.69502 16.971 5.62538C16.9436 5.59557 16.9148 5.56694 16.8847 5.53958C16.8935 5.52064 16.9024 5.50174 16.9114 5.48289C17.1126 5.04982 17.3652 4.6387 17.6627 4.25991C17.3513 4.34119 17.0643 4.39156 16.8303 4.41168C16.5824 4.43299 16.394 4.42036 16.299 4.37455C16.3953 4.4208 16.5878 4.43102 16.841 4.40589L16.9582 4.34265L16.7688 4.03533L16.6394 3.82539L16.3542 3.97937C16.3728 3.87595 16.3929 3.77918 16.4129 3.68322C16.4394 3.55583 16.4657 3.42976 16.4875 3.29153C16.4955 3.28449 16.5069 3.27072 16.5222 3.25078C16.5106 3.26431 16.499 3.2779 16.4875 3.29153C17.0258 2.52582 17.7693 1.90038 18.578 1.37943C18.9855 1.1208 19.425 0.902602 19.8972 0.749274C20.0674 0.696163 20.2402 0.649613 20.4198 0.622827C20.4198 0.622827 20.9492 0.527689 21.1707 0.491205ZM17.9501 16.072C17.8859 15.6244 17.7908 15.1806 17.6767 14.7408C17.5003 14.0783 17.2893 13.4208 17.0769 12.7592L16.9924 12.4954C16.8036 11.8851 16.6249 11.2664 16.4935 10.635C16.4628 10.4875 16.4347 10.3393 16.4097 10.1904C16.328 9.68631 16.2778 9.17581 16.2704 8.66385C16.2663 8.37788 16.2756 8.09146 16.3001 7.80545C16.3035 7.77308 16.3069 7.74072 16.3105 7.70836C16.3335 7.70209 16.3563 7.69527 16.3788 7.68792C16.5151 7.64347 16.6416 7.57963 16.7546 7.49993C16.7225 7.78513 16.7063 8.07238 16.7041 8.36022C16.6997 8.95005 16.7545 9.54238 16.8547 10.1248C16.9928 10.9835 17.2398 11.8261 17.489 12.676C17.6815 13.3326 17.8753 13.9935 18.0211 14.6697C18.1425 15.2227 18.2255 15.7868 18.253 16.3527C18.15 16.2583 18.0491 16.1647 17.9501 16.072ZM17.9843 18.357C18.0352 17.9145 18.0551 17.4709 18.0359 17.0287C18.0256 16.7081 17.9956 16.3891 17.9501 16.072C17.5452 15.6926 17.1741 15.3286 16.8386 14.9879L16.8164 14.9653L16.81 14.937C16.7156 14.5467 16.609 14.1603 16.5024 13.7742C16.4523 13.5928 16.4023 13.4116 16.3536 13.23C16.0447 12.0967 15.7556 10.9583 15.6347 9.7986C15.6051 9.5326 15.5824 9.26592 15.5663 8.99885C15.5569 8.84123 15.5497 8.68347 15.545 8.52563C15.5367 8.25379 15.5354 7.98174 15.541 7.70978C15.5227 7.70486 15.5045 7.69959 15.4865 7.69399C15.4628 7.68661 15.4394 7.67866 15.4163 7.67013C15.3922 7.66122 15.3683 7.6517 15.3449 7.64157C15.34 7.77893 15.3367 7.91637 15.3347 8.0538C15.3317 8.27681 15.3339 8.49989 15.3413 8.72286L15.3024 8.76054L15.3439 8.79808C15.357 9.13918 15.3822 9.47998 15.4196 9.81985C15.5607 10.9929 15.8454 12.1447 16.1947 13.2707C16.2472 13.442 16.3005 13.6131 16.3537 13.7841C16.4206 13.9991 16.4874 14.2139 16.5528 14.4291C16.5916 14.5568 16.6299 14.6847 16.6673 14.8127L16.6444 14.7892C16.7785 15.3178 16.9042 15.8211 17.0008 16.2266C17.0221 16.3775 17.0374 16.5293 17.0448 16.6822C17.0477 16.5909 17.0472 16.4996 17.0437 16.4085C17.1352 16.8004 17.1911 17.0721 17.1877 17.1397L17.1432 17.0662C17.0928 16.9827 17.0425 16.8992 16.9923 16.8156C16.5689 16.1117 16.1545 15.4042 15.7573 14.6879L15.7057 14.5968C15.8442 14.8089 15.9903 15.0172 16.1403 15.221C16.3125 15.4468 16.4897 15.6671 16.6771 15.8814C16.5735 15.7001 16.4671 15.5211 16.3609 15.3426C16.1811 15.0402 16.0021 14.7391 15.8389 14.4304C15.6164 14.02 15.391 13.6044 15.1836 13.1874C15.145 13.1098 15.1069 13.0321 15.0697 12.9543C14.6054 11.9554 14.3276 10.883 14.2073 9.79632C14.0864 8.70963 14.1046 7.60724 14.2615 6.52054C14.3449 5.97835 14.45 5.43755 14.6005 4.9069C14.7524 4.37672 14.9389 3.85207 15.2143 3.36484C14.9088 3.83637 14.6996 4.35917 14.525 4.88612C14.3508 5.41399 14.2206 5.95572 14.1263 6.50161C13.9453 7.5943 13.8811 8.71009 13.9985 9.81618C14.0178 10.0034 14.0416 10.1904 14.0701 10.3769C14.181 11.1014 14.3635 11.8177 14.628 12.5081C14.7369 12.8032 14.8528 13.0959 14.9746 13.3863C15.4419 14.3996 16.0639 15.4944 17.1684 17.1438C17.1804 17.1617 17.1866 17.1596 17.1877 17.1397C17.2975 17.3211 17.408 17.502 17.5196 17.6827C17.52 17.6833 17.5204 17.6838 17.5207 17.6843C17.6701 17.907 17.8247 18.1316 17.9843 18.357ZM16.9345 1.8554C16.8974 1.88824 16.8236 2.00108 16.8027 2.04933C16.7906 2.07746 16.7789 2.10546 16.7674 2.13347C16.8218 2.03733 16.8781 1.94356 16.9364 1.85444L16.9345 1.8554ZM17.9843 18.357C17.982 18.3772 17.9796 18.3973 17.9772 18.4175C17.9571 18.5823 17.9329 18.747 17.9048 18.9114C17.8799 19.0571 17.8519 19.2025 17.8213 19.3476C17.8645 19.2235 17.9047 19.0983 17.9418 18.9721C17.9836 18.8298 18.0215 18.6862 18.0553 18.5416C18.0603 18.5202 18.0652 18.4988 18.07 18.4774C18.0413 18.4373 18.0127 18.3971 17.9843 18.357ZM15.6535 5.19951C15.6849 5.19368 15.7168 5.18886 15.749 5.18506C15.7637 5.18333 15.7784 5.18182 15.7933 5.18052C15.8303 4.97987 15.8715 4.77978 15.9169 4.58036C15.9342 4.49896 15.9523 4.41772 15.9713 4.33663C16.0858 3.84721 16.2302 3.36317 16.3876 2.8822C16.1552 3.42762 15.9668 3.98875 15.8084 4.55727C15.752 4.77029 15.7004 4.9844 15.6535 5.19951ZM24.5006 33.2844C24.4956 33.2877 24.4907 33.291 24.4857 33.2941L24.4718 33.3027L24.4606 33.3094C24.4701 33.2983 24.4795 33.2871 24.4888 33.2758C24.493 33.2783 24.4969 33.2812 24.5006 33.2844ZM25.0095 34.3927L25.0116 34.3923C25.2327 34.4137 25.4464 34.408 25.6392 34.3638C25.4458 34.4084 25.2313 34.4142 25.0095 34.3927ZM23.1896 35.077L23.1832 35.0767C23.4146 34.7756 23.8217 34.4754 24.1705 34.3821C24.2997 34.3484 24.4196 34.3724 24.5346 34.3969L24.5505 34.4001C24.636 34.4175 24.7178 34.4342 24.8005 34.4251C24.8701 34.4164 24.9397 34.4069 25.0095 34.3927C24.6253 34.3555 24.2193 34.2362 23.8633 34.0938C23.8326 34.1291 23.7965 34.1627 23.7531 34.1941C23.5389 34.3484 23.2661 34.3281 23.0431 34.2362C22.7806 34.5054 22.5092 34.741 22.231 34.9626C22.3248 34.9831 22.419 35.0005 22.5132 35.0153C22.5349 34.9974 22.5576 34.9794 22.5806 34.9612C22.6473 34.9083 22.716 34.8537 22.7693 34.7964C22.974 34.5752 23.2454 34.4906 23.5695 34.4819C23.5485 34.5053 23.5271 34.528 23.5061 34.5504C23.475 34.5836 23.4443 34.6162 23.4161 34.6495C23.3944 34.6746 23.3747 34.7004 23.3551 34.726C23.3288 34.7604 23.3028 34.7944 23.2725 34.8259L23.2434 34.8559C23.1806 34.921 23.1168 34.9871 23.0411 35.0379C23.0243 35.0499 23.0061 35.0592 22.9878 35.067C22.9609 35.0654 22.934 35.0636 22.907 35.0616C22.781 35.0515 22.6544 35.037 22.5279 35.0176C22.6554 35.0378 22.7814 35.0522 22.907 35.0616C23.0016 35.0692 23.0958 35.0743 23.1896 35.077ZM23.1896 35.077C23.2338 35.0791 23.2776 35.0799 23.3219 35.0799L23.3224 35.0794C23.2782 35.0791 23.234 35.0783 23.1896 35.077ZM27.8575 28.3243C27.8097 28.1612 27.7559 27.9941 27.6952 27.8232L27.6945 27.8231C27.7553 27.9941 27.8095 28.1611 27.8575 28.3243ZM23.6277 3.43677C24.1683 3.67636 24.7837 3.82369 25.4186 3.9757C25.6831 4.03902 25.951 4.10314 26.2182 4.17509C25.3378 3.71306 24.4377 3.49884 23.6277 3.43677ZM21.7872 2.1798C22.1077 2.16259 22.4464 2.17414 22.7048 2.28999C23.356 2.58192 23.8696 2.78264 24.283 2.91296C24.0613 2.82358 23.8118 2.70728 23.5292 2.55905C22.849 2.20205 22.2698 2.12014 21.7872 2.1798ZM20.8169 0.71898C20.7948 0.718477 20.7726 0.718221 20.7503 0.718221C20.438 0.718221 20.1124 0.768554 19.7719 0.884474C19.5515 0.966424 19.3559 1.03937 19.2082 1.11043C19.1906 1.11965 19.1747 1.12757 19.1611 1.13385C18.9952 1.21999 18.8391 1.30606 18.6922 1.39152C18.2171 1.68203 17.449 2.22717 16.6638 3.09206C16.9216 2.813 17.2054 2.55706 17.5053 2.31972C17.8709 2.02276 18.2597 1.75074 18.6702 1.51382C19.0817 1.27967 19.5075 1.06354 19.9604 0.926372C20.1854 0.858945 20.4178 0.809529 20.6487 0.797521C20.7641 0.79475 20.8801 0.793826 20.9911 0.812761C21.0889 0.825786 21.1833 0.853878 21.2837 0.883757L21.3246 0.895891C21.603 0.982921 21.8716 1.09238 22.1349 1.21524C22.2894 1.18159 22.4374 1.18912 22.5724 1.2521C22.4333 1.18808 22.2925 1.18371 22.1509 1.22276C22.5255 1.39851 22.8892 1.60107 23.2542 1.80435C23.4655 1.92201 23.6772 2.03991 23.8917 2.153C24.319 2.37422 24.7566 2.59497 25.2382 2.71459C25.4784 2.77093 25.7296 2.80049 25.9768 2.76955C26.1534 2.74938 26.3239 2.69802 26.4792 2.62131C26.5084 2.60278 26.5387 2.58393 26.5703 2.56486C26.4464 2.62751 26.3203 2.67176 26.1923 2.69992C25.4269 2.86836 24.5957 2.46136 23.7889 1.97377C23.612 1.86686 23.4363 1.75607 23.2627 1.64662C23.0895 1.53745 22.9185 1.42962 22.7505 1.32829C22.6878 1.29439 22.6249 1.26073 22.5616 1.22778L22.5301 1.2116C22.5141 1.20333 22.4981 1.19507 22.4821 1.18699C21.9617 0.925618 21.412 0.7325 20.8169 0.71898ZM15.3903 6.88847C15.3389 6.76308 15.2088 6.67446 15.0576 6.67446C15.0261 6.67446 14.996 6.67909 14.9674 6.68602C15.0226 6.89938 15.1563 7.08227 15.3399 7.20927C15.3505 7.19631 15.3602 7.18271 15.3688 7.16852C15.375 7.07509 15.3821 6.98173 15.3903 6.88847ZM15.0044 6.13598C15.0887 5.93232 15.2486 5.76606 15.4504 5.66214C15.4815 5.71064 15.5002 5.76834 15.5002 5.82792C15.5002 6.01265 15.3408 6.16183 15.144 6.16183C15.0942 6.16183 15.0483 6.15353 15.0044 6.13598ZM15.6018 6.60323C15.6106 6.50523 15.6202 6.4073 15.6308 6.30946L15.6324 6.29395L15.5823 6.3422L15.5491 6.37429C15.5204 6.40338 15.5135 6.4468 15.5333 6.48236L15.5624 6.53378L15.6018 6.60323ZM23.5384 33.9946C23.4882 33.9861 23.4391 33.9813 23.3907 33.98C23.3256 33.9774 23.2329 33.9828 23.1213 33.9947C23.1445 33.9907 23.1679 33.9873 23.1915 33.9846C23.3034 33.9717 23.419 33.9738 23.5384 33.9946ZM18.2157 32.4626C18.1734 32.4352 18.1324 32.4061 18.0924 32.3762C18.019 32.3207 17.9499 32.2606 17.8854 32.1964C17.8466 32.1578 17.8101 32.1178 17.7748 32.0764C17.7608 32.0602 17.7471 32.0438 17.7337 32.0272C17.5948 31.8534 17.486 31.6582 17.4124 31.4507C16.9748 30.2195 17.0661 27.7732 19.4121 22.2335L19.4656 22.3424L19.4855 22.3831C18.5534 24.7411 18.1533 26.8354 18.1458 28.4185V28.5086C18.1519 29.8448 18.4436 30.8041 18.9328 31.2314C18.8817 31.716 18.7407 32.1691 18.424 32.5819C18.4011 32.5704 18.3783 32.5584 18.3555 32.5459C18.3086 32.5202 18.2619 32.4925 18.2157 32.4626ZM18.9328 31.2314C18.9852 30.7341 18.943 30.2037 18.8989 29.6497C18.8054 28.4733 18.7034 27.1903 19.4806 25.8922C19.3948 26.1782 19.3185 26.4674 19.2566 26.7604C19.1051 27.4462 19.0139 28.1538 19.0647 28.8604C19.111 29.5651 19.3133 30.275 19.7238 30.8564L19.8087 30.8144C19.5265 30.1881 19.4485 29.5171 19.4915 28.859C19.5102 28.5302 19.563 28.2018 19.637 27.8785C19.7061 27.5529 19.7939 27.2315 19.9005 26.9133C20.1222 26.243 20.396 25.5865 20.6975 24.9378C20.8158 25.2385 20.9207 25.5338 21.0137 25.8222C20.6261 27.3313 20.6312 28.5854 21.0444 29.3846C21.6646 30.5849 20.7799 31.5243 19.8242 31.5368H19.7863C19.5652 31.5336 19.3417 31.4814 19.133 31.3705C19.0631 31.3333 18.9962 31.2868 18.9328 31.2314ZM21.0918 32.7311C21.1062 32.7724 21.1197 32.8104 21.1331 32.8477L21.1286 32.856C21.1168 32.8777 21.1049 32.899 21.0927 32.9198C21.0015 32.9159 20.89 32.913 20.8885 32.9181C20.9444 32.9446 20.9959 32.9721 21.0434 33.0008C21.4248 33.2305 21.5503 33.5298 21.6231 33.887C21.7317 33.8376 21.8387 33.5346 21.82 33.3753C21.7948 33.1541 21.6636 32.9929 21.448 32.8396C21.4421 32.8701 21.4381 32.8876 21.4322 32.9107C21.3866 32.8912 21.3477 32.8632 21.3083 32.8349C21.2684 32.8062 21.2281 32.7772 21.18 32.7564C21.1534 32.7449 21.1244 32.736 21.0918 32.7311ZM24.4077 22.0633C24.3566 22.049 24.3201 22.0552 24.2895 22.0704C24.267 22.0815 24.2477 22.0975 24.2282 22.1137C24.2098 22.1289 24.1912 22.1443 24.1695 22.156C24.1568 22.136 24.1454 22.1182 24.1346 22.1014C24.1226 22.0829 24.1115 22.0656 24.1004 22.048C24.0654 21.9898 24.0447 21.9644 24.0185 21.9644C24.0022 21.9644 23.9835 21.975 23.9583 21.9944C23.9262 22.0184 23.869 22.0623 23.8369 22.2281C23.8103 22.1953 23.7358 22.1334 23.7003 22.1043C23.6958 22.1115 23.6907 22.1181 23.6857 22.1246C23.6758 22.1373 23.6662 22.1497 23.6613 22.1662C23.6366 22.2419 23.65 22.3329 23.7067 22.4318C23.8034 22.6031 23.9095 22.7717 24.0165 22.9393C24.2139 23.2487 24.4034 23.5457 24.2958 23.8173C24.3039 23.8168 24.3101 23.8165 24.3149 23.8163L24.3229 23.8162C24.3262 23.8161 24.3283 23.816 24.3298 23.8159L24.3332 23.8143L24.3344 23.8135L24.3356 23.8125C24.3372 23.8111 24.3387 23.8094 24.3402 23.8078C24.3424 23.8053 24.3446 23.8029 24.3471 23.8015C24.4946 23.705 24.6042 23.542 24.4966 23.3462C24.4436 23.2491 24.3478 23.1402 24.251 23.0302C24.1461 22.9109 24.0401 22.7904 23.9864 22.6825C23.9263 22.5638 23.9233 22.4641 23.9652 22.3786C24.0037 22.302 24.1162 22.2632 24.2405 22.2761C24.2701 22.2798 24.3427 22.3135 24.3757 22.3329C24.4966 22.4096 24.5637 22.5218 24.54 22.6169C24.5267 22.6719 24.4759 22.6954 24.4063 22.6728C24.355 22.6562 24.2884 22.6146 24.2583 22.5754C24.2397 22.5515 24.2406 22.5209 24.2415 22.4903C24.2418 22.4771 24.2422 22.4638 24.241 22.4511C24.1552 22.4433 24.1325 22.4553 24.13 22.5191C24.1246 22.6257 24.2627 22.7795 24.4053 22.8114C24.525 22.8421 24.6428 22.7953 24.677 22.7152L24.6786 22.7113L24.6806 22.7056C24.7035 22.6386 24.7002 22.5711 24.6737 22.5086L24.6343 22.4411C24.6152 22.4156 24.5917 22.3916 24.5642 22.3694C24.508 22.326 24.4507 22.2687 24.432 22.2225C24.4155 22.1827 24.4261 22.1523 24.4391 22.1146L24.4077 22.0633ZM25.173 23.4255C25.1298 23.4141 25.0895 23.409 25.0517 23.409C25.0423 23.409 25.0332 23.4093 25.0242 23.4099C24.9717 23.4135 24.9244 23.4272 24.8814 23.4473C24.7231 23.524 24.653 23.7318 24.7991 23.9983C24.8351 24.062 24.8785 24.1294 24.9283 24.1881C25.1017 24.3935 25.2942 24.564 25.4868 24.7339L25.5534 24.7926C25.6826 24.909 25.804 25.0348 25.9268 25.1621L25.9299 25.1653L25.9393 25.1753L25.9443 25.1806C25.9507 25.1877 25.9571 25.1947 25.9632 25.2018C26.1831 25.455 26.1979 25.7343 26.198 25.8525L26.211 25.891C26.3479 25.6802 26.4618 25.4602 26.3483 25.1247C26.2738 24.909 26.1174 24.7622 25.956 24.631C25.8696 24.5599 25.7803 24.4964 25.6904 24.4326L25.6298 24.3894C25.6125 24.377 25.5953 24.3646 25.5781 24.3521C25.4049 24.226 25.2944 24.0417 25.2875 23.8842C25.2847 23.8226 25.3007 23.7774 25.3342 23.7496C25.2812 23.6404 25.2275 23.5324 25.173 23.4255ZM20.8501 22.1522C20.6028 21.7823 20.3389 21.4126 20.0609 21.0435C20.0032 21.1681 19.9469 21.2921 19.892 21.4155C20.0386 21.6565 20.1811 21.8998 20.319 22.1455C20.4452 22.3707 20.5675 22.5979 20.6854 22.8271C20.8354 23.1189 20.9782 23.414 21.1127 23.7124C21.1483 23.7633 21.1844 23.8139 21.2209 23.8643C21.317 23.6743 21.4144 23.4846 21.5124 23.2952C21.3803 23.0519 21.2422 22.8073 21.0977 22.5623L21.0221 22.4813C20.9882 22.446 20.9464 22.4101 20.8999 22.3755L20.9383 22.2958L20.9115 22.2517C20.8909 22.2186 20.8704 22.1854 20.8501 22.1522ZM22.9069 24.2906C22.8518 24.3033 22.7974 24.3022 22.7461 24.2885C22.7315 24.2846 22.7171 24.2796 22.7031 24.2737C22.6481 24.2504 22.5978 24.2118 22.5556 24.1595C22.552 24.1548 22.5482 24.1502 22.5443 24.1455C22.5029 24.0955 22.4509 24.0459 22.4076 24.0265C22.3639 24.0078 22.3304 24.0166 22.2889 24.0274L22.2709 24.032C22.2668 24.0328 22.2185 23.9257 22.2952 23.8301C22.3841 23.9255 22.4724 24.0208 22.5599 24.1164L22.5641 24.1084C22.4733 24.0163 22.3844 23.9226 22.2973 23.8275C22.3117 23.8102 22.3302 23.7933 22.3538 23.7775C22.3365 23.7665 22.321 23.7565 22.3065 23.7471C22.2839 23.7325 22.2637 23.7194 22.2423 23.7064C22.1432 23.6455 22.1338 23.6237 22.1945 23.5697L22.1993 23.5655C22.2267 23.5415 22.2533 23.5182 22.2897 23.506C22.3221 23.4941 22.3571 23.4881 22.3952 23.4817C22.4134 23.4786 22.4324 23.4754 22.452 23.4713C22.4228 23.4504 22.3903 23.4101 22.3624 23.3755C22.3502 23.3604 22.3389 23.3464 22.3292 23.3355C22.3373 23.3318 22.3448 23.3275 22.3522 23.3232C22.3661 23.3152 22.3798 23.3073 22.3968 23.3037C22.4175 23.2991 22.4392 23.2963 22.4614 23.2963C22.528 23.2963 22.601 23.3189 22.6775 23.3628C22.7498 23.4046 22.8218 23.448 22.8934 23.4922C22.9365 23.5188 22.9794 23.5457 23.0221 23.5729C23.0809 23.6102 23.1394 23.6479 23.1975 23.6856L23.2016 23.6883C23.2447 23.7159 23.2875 23.7433 23.3301 23.77C23.5737 23.9222 23.8097 24.047 24.0405 24.0174L24.0826 24.0648C23.9922 24.1635 23.862 24.2344 23.7141 24.2029C23.6838 24.1765 23.6536 24.1501 23.6234 24.1236L23.6828 24.1948C23.6561 24.1866 23.6288 24.1749 23.6011 24.1595C23.4999 24.1034 23.3888 24.0061 23.2767 23.9079C23.1571 23.8031 23.0365 23.6974 22.9257 23.6399C22.8943 23.6238 22.864 23.6112 22.8348 23.6019C22.7499 23.575 22.6736 23.576 22.6035 23.6011C22.5186 23.6316 22.4708 23.7341 22.4772 23.8514C22.4791 23.8801 22.5092 23.9489 22.529 23.9817C22.5471 24.0107 22.5678 24.0369 22.5903 24.0595C22.6586 24.1282 22.7435 24.1647 22.8211 24.1525C22.8808 24.1438 22.9084 24.099 22.8892 24.032C22.8748 23.9826 22.8344 23.9179 22.7939 23.887C22.7701 23.8688 22.7391 23.8676 22.7074 23.8665L22.6937 23.8659C22.6832 23.8654 22.6728 23.8646 22.6627 23.863C22.6602 23.7831 22.675 23.7628 22.7436 23.7641L22.748 23.7643C22.861 23.7691 23.0114 23.9072 23.0367 24.0399C23.0623 24.159 23.0012 24.2694 22.9069 24.2906ZM25.6844 25.9797L25.6837 25.9687C25.7004 25.9722 25.7168 25.9752 25.7322 25.978L25.7355 25.9786C25.754 25.982 25.7703 25.986 25.7852 25.9928C25.8158 26.0294 25.8453 26.0651 25.8739 26.0999C25.9082 26.1594 25.9418 26.2191 25.9748 26.279C25.8764 26.1752 25.7797 26.0756 25.6844 25.9797ZM25.8739 26.0999L25.8475 26.0544C25.8287 26.0212 25.8088 26.0035 25.7852 25.9928C25.7501 25.9509 25.7137 25.9077 25.6758 25.8633C25.6776 25.8846 25.6793 25.9058 25.6808 25.927L25.6837 25.9687L25.6705 25.9657C25.6173 25.9533 25.5633 25.9338 25.5327 25.8941L25.4987 25.8494C25.451 25.7867 25.4023 25.7227 25.3558 25.657C25.2979 25.5752 25.2435 25.4907 25.1987 25.4027C25.1658 25.3368 25.1328 25.2708 25.0993 25.2049C24.953 24.9163 24.7988 24.6285 24.6185 24.3548C24.6112 24.344 24.606 24.3319 24.5991 24.3157C24.5942 24.3043 24.5884 24.2909 24.5805 24.2745C24.5953 24.2831 24.6078 24.29 24.6187 24.296C24.6367 24.3059 24.6504 24.3134 24.6634 24.3229C24.8306 24.4412 24.9954 24.5594 25.1538 24.6901C25.2959 24.8077 25.435 24.9309 25.5625 25.0677C25.6714 25.1845 25.7718 25.3111 25.8583 25.4526C25.9314 25.5736 25.9703 25.7025 25.9289 25.8184C25.9042 25.8849 25.9136 25.932 25.9531 26.0003C26.0799 26.2112 26.1983 26.4256 26.3093 26.6415C26.2695 26.5972 26.23 26.5537 26.1907 26.5108C26.1012 26.3848 25.9968 26.25 25.8739 26.0999ZM19.3916 17.3563C19.4394 17.3968 19.4876 17.4373 19.5361 17.478C19.3172 16.9636 19.1346 16.4619 18.9819 15.9732L18.9941 16.0513L19.0071 16.1363C19.115 16.5046 19.2433 16.9181 19.3916 17.3563ZM29.5126 4.80276C29.528 4.96215 29.5285 5.12298 29.5132 5.28216C29.4749 5.21856 29.434 5.15414 29.3906 5.08914C29.2409 4.76567 29.0725 4.51108 28.8892 4.25352C28.8559 4.20657 28.7521 4.10117 28.6081 3.96325C28.4633 3.7562 28.3147 3.57332 28.1682 3.41258C27.9803 2.80455 27.6625 2.35743 27.0518 2.41545C27.0127 2.41949 26.9744 2.42439 26.9367 2.43083L26.9098 2.41667C27.0586 2.37193 27.2125 2.3505 27.3649 2.35458C27.6051 2.36151 27.839 2.42847 28.0492 2.53747C28.469 2.75961 28.8075 3.10968 29.0537 3.50362C29.3029 3.89895 29.4637 4.34416 29.5126 4.80276ZM28.2246 3.68423C28.0449 2.99132 27.7354 2.38899 26.953 2.46298C27.1385 2.62681 27.6687 3.10312 28.2246 3.68423ZM29.1937 5.02064C29.0796 4.77971 28.949 4.54557 28.8006 4.31974C28.6298 4.11926 28.4435 3.92341 28.2545 3.73895C28.2843 3.87028 28.31 4.00571 28.3328 4.14246C28.7798 4.74496 29.0949 5.3854 29.2993 6.05196C29.3565 5.93468 29.4025 5.81298 29.4375 5.68847C29.3648 5.45055 29.2827 5.22822 29.1937 5.02064ZM23.1515 23.0094C23.0855 22.934 23.0181 22.8569 22.9495 22.7781C22.9108 22.7339 22.8725 22.6896 22.8345 22.6455C22.8321 22.633 22.8306 22.6206 22.8299 22.6082C22.8285 22.5768 22.8522 22.5481 22.8857 22.5463C22.9997 22.5412 23.1344 22.5934 23.274 22.7056L23.3019 22.7283C23.3353 22.7552 23.3693 22.782 23.4036 22.809C23.4946 22.8807 23.5868 22.9533 23.6697 23.0303C23.6465 22.9966 23.6228 22.9633 23.5982 22.9305C23.5221 22.8324 23.432 22.7456 23.3324 22.6713C23.2445 22.6059 23.1492 22.5502 23.0495 22.5052C22.938 22.4548 22.8369 22.3671 22.787 22.2789C22.7614 22.2355 22.7772 22.1902 22.8018 22.1685C22.8117 22.1597 22.8265 22.1556 22.8443 22.1556C22.9059 22.1556 23.0071 22.2045 23.0929 22.2844C23.1789 22.3653 23.2538 22.4526 23.334 22.546L23.3589 22.5749C23.3634 22.5745 23.3679 22.5741 23.3724 22.5738L23.3803 22.5735L23.3848 22.5734C23.4774 22.5726 23.5638 22.6209 23.6613 22.7477C23.7358 22.8465 23.7999 22.949 23.8503 23.052C23.8754 23.1023 23.9016 23.1254 23.945 23.1615C23.9988 23.2039 24.057 23.2658 24.0881 23.3194C24.1818 23.4824 24.1433 23.6875 24.0807 23.7655C24.0382 23.8191 23.9751 23.85 23.9139 23.8523L23.8944 23.8527C23.8292 23.8535 23.7433 23.8483 23.649 23.8094C23.5577 23.7715 23.4738 23.7087 23.4284 23.5896C23.419 23.566 23.3806 23.5332 23.3539 23.5157C23.3111 23.4878 23.2682 23.4627 23.2252 23.4377C23.1785 23.4105 23.1318 23.3832 23.085 23.3522C23.0529 23.3303 23.0254 23.3097 23.0018 23.2895C22.9111 23.2122 22.8794 23.1428 22.8778 23.046C22.8317 23.0147 22.7854 22.9852 22.7391 22.9556C22.6904 22.9246 22.6419 22.8936 22.5937 22.8607C22.5806 22.8518 22.5676 22.8428 22.5546 22.8335C22.4542 22.7612 22.3943 22.6742 22.4013 22.6164C22.4026 22.6053 22.4065 22.5952 22.413 22.5865C22.525 22.4378 22.7836 22.7347 22.8423 22.8234C22.9147 22.9325 22.998 23.0326 23.0907 23.1232C23.1483 23.1794 23.2095 23.2319 23.274 23.2806C23.2856 23.2898 23.2974 23.2987 23.3093 23.3076L23.3268 23.3208C23.3328 23.3254 23.3387 23.33 23.3445 23.3346C23.2881 23.2708 23.2339 23.205 23.1809 23.1406C23.1607 23.1159 23.1405 23.0915 23.1205 23.0674L23.1515 23.0094ZM22.3563 23.1896C22.301 23.2095 22.077 23.1896 22.0765 23.0492C22.0761 22.9499 22.1358 22.9134 22.2226 22.9134C22.2812 22.9134 22.3524 22.9301 22.426 22.9557C22.534 22.9932 22.6474 23.0499 22.7342 23.1009C22.7071 23.0994 22.6814 23.0967 22.6574 23.0941C22.6148 23.0895 22.5779 23.0855 22.5487 23.0904C22.5439 23.0912 22.5393 23.0922 22.5349 23.0936C22.5009 23.105 22.4729 23.1233 22.4448 23.1417C22.4174 23.1596 22.3898 23.1776 22.3563 23.1896ZM23.0268 21.878C23.0456 22.0018 23.1837 22.2078 23.3219 22.3671C23.2622 22.2355 23.2863 22.1606 23.3406 22.0955C23.3613 22.0715 23.3559 21.9805 23.2804 21.8942C23.2513 21.8605 23.1842 21.7972 23.1403 21.7857C23.126 21.7815 23.1122 21.7797 23.1008 21.7797C23.0411 21.7797 23.0194 21.8286 23.0268 21.878ZM22.1999 22.3223C22.1806 22.3072 22.1611 22.2937 22.1415 22.281C22.1205 22.2674 22.0994 22.2547 22.0781 22.2421L22.0688 22.2366C22.0362 22.2174 22.0032 22.1979 21.97 22.175C21.9596 22.1483 21.9681 22.1116 21.9879 22.0791C21.7954 21.8243 21.6071 21.5681 21.4252 21.3116C21.4716 21.2199 21.5181 21.1283 21.5648 21.0369C21.6895 21.2102 21.8188 21.3847 21.9531 21.5602C22.0177 21.6448 22.0835 21.7296 22.1505 21.8147C22.1797 21.8592 22.2065 21.9034 22.232 21.9473C22.2331 21.9396 22.2349 21.932 22.2374 21.9245L22.2445 21.9334L22.2926 21.8442C22.3233 21.8179 22.3614 21.8019 22.3977 21.8046L22.4037 21.8206C22.408 21.8328 22.4121 21.8448 22.4163 21.8568C22.4287 21.8932 22.441 21.9294 22.4604 21.9676C22.4748 21.9959 22.4955 22.0257 22.5159 22.055L22.5304 22.076L22.538 22.0873C22.5481 22.1023 22.5574 22.117 22.565 22.1311C22.6123 22.223 22.5777 22.2557 22.5191 22.2715L22.5151 22.2726L22.5076 22.2744L22.5018 22.2756C22.482 22.2759 22.4625 22.2711 22.4438 22.2626C22.4258 22.2544 22.4085 22.2428 22.3923 22.229C22.4093 22.2481 22.4236 22.266 22.4337 22.2817C22.445 22.2992 22.4509 22.3139 22.4491 22.3242C22.4428 22.3514 22.4192 22.3813 22.3773 22.3887C22.3361 22.396 22.2773 22.3818 22.1999 22.3223ZM24.8911 25.226C24.846 25.1383 24.7973 25.0524 24.7428 24.9695C24.6436 24.8153 24.5119 24.6675 24.3713 24.5562C24.2766 24.4818 24.1882 24.4513 24.1073 24.4513C24.076 24.4513 24.0457 24.456 24.0168 24.4643C23.989 24.4724 23.9623 24.4839 23.937 24.4981C23.9252 24.5048 23.9137 24.512 23.9026 24.5197C23.7659 24.6144 23.6993 24.7557 23.7161 24.9718C23.7289 25.1224 23.8394 25.3358 23.946 25.4032C23.9473 25.3874 23.9483 25.3717 23.9491 25.3562L23.9505 25.3282C23.9525 25.2853 23.9544 25.2444 23.9613 25.2074C23.9894 25.0818 24.0836 25.0194 24.2119 25.0369C24.3224 25.0536 24.4769 25.1815 24.5287 25.3067C24.6017 25.4768 24.6612 25.6503 24.7205 25.8234L24.7542 25.9213C24.8361 26.1587 24.9826 26.3051 25.1918 26.3536C25.2952 26.3778 25.3966 26.376 25.4975 26.3553C25.5627 26.3419 25.6278 26.3205 25.6931 26.2931C25.6711 26.2806 25.6506 26.2688 25.6311 26.2576L25.6304 26.2572C25.5877 26.2325 25.5497 26.2106 25.5105 26.1897C25.3299 26.0913 25.2105 25.9195 25.1188 25.7163L25.1066 25.6893L25.0685 25.6041C25.0118 25.4772 24.955 25.3499 24.8911 25.226ZM26.3963 27.5563L26.3948 27.5569C26.3563 27.5723 26.3126 27.5898 26.2674 27.6043C26.0606 27.668 25.8524 27.6043 25.7799 27.4228C25.7428 27.3311 25.7067 27.2379 25.6701 27.1433L25.6696 27.1422L25.6693 27.1412L25.6591 27.1151C25.5851 26.9239 25.5084 26.7273 25.4168 26.5268C25.452 26.531 25.4845 26.5341 25.5153 26.537C25.5597 26.5412 25.6004 26.545 25.6403 26.5513L25.6489 26.5528L25.6604 26.5549L25.6955 26.5983L25.6965 26.5625C25.9469 26.6204 26.1493 26.7783 26.261 27.0879C26.2922 27.1751 26.3298 27.2588 26.3682 27.3444C26.396 27.4062 26.4242 27.469 26.4509 27.535C26.441 27.5386 26.4305 27.5427 26.4193 27.5471L26.3963 27.5563ZM26.554 25.7223C26.4124 26.1421 26.409 26.5291 26.6389 26.8972C26.7003 26.9938 26.7461 27.1018 26.7912 27.209C26.8152 27.2395 26.8387 27.2701 26.8619 27.3006C27.0714 27.1694 27.2141 26.9261 27.1259 26.6635C27.0835 26.5375 27.0134 26.4202 26.9446 26.3051L26.9226 26.2682C26.889 26.2129 26.8505 26.1619 26.8118 26.1109C26.784 26.0742 26.7562 26.0374 26.7302 25.9989C26.694 25.9468 26.6603 25.8923 26.6263 25.8372L26.6257 25.8363C26.6025 25.7987 26.5789 25.7606 26.554 25.7223ZM24.0353 25.9768C24.1448 26.2248 23.9031 26.5037 23.6707 26.5106C23.9356 26.1735 23.8197 25.8401 23.533 25.533C23.718 25.6392 23.9563 25.7916 24.0353 25.9768ZM22.7712 25.9472C22.8734 25.8101 23.0648 25.7519 23.2237 25.8221C23.3283 25.8687 23.424 26.0105 23.42 26.125C23.4181 26.1999 23.3954 26.2673 23.3228 26.2931C23.2538 26.3167 23.1965 26.2917 23.1472 26.234C23.1393 26.2257 23.1284 26.2197 23.1191 26.2123C23.0776 26.3111 23.159 26.4922 23.277 26.5273C23.4812 26.5878 23.687 26.3416 23.649 26.1001C23.6159 25.8789 23.5059 25.6932 23.2982 25.6064C23.0702 25.5117 22.8768 25.5454 22.715 25.7043C22.7006 25.7175 22.687 25.728 22.6742 25.7379L22.6711 25.7403L22.6617 25.7477L22.6461 25.7325C22.5672 25.6554 22.4974 25.5888 22.4209 25.5177C22.416 25.526 22.4113 25.5342 22.407 25.5424C22.3741 25.6041 22.3577 25.6632 22.3541 25.7211C22.3534 25.7332 22.3533 25.7453 22.3536 25.7572C22.3575 25.8871 22.4239 26.012 22.5127 26.1467C22.4667 26.1395 22.4203 26.1325 22.373 26.1254L22.2887 26.1128L22.2615 26.1087L22.1634 26.0941C22.1293 26.2257 22.1925 26.343 22.2734 26.4437C22.3253 26.5068 22.3874 26.5615 22.449 26.6158C22.4772 26.6406 22.5053 26.6653 22.5323 26.6908L22.5487 26.7065L22.5398 26.7102C22.492 26.7303 22.4433 26.7496 22.3949 26.7687L22.3331 26.7933C22.4116 26.9521 22.5229 27.058 22.6785 27.1029C22.7604 27.1266 22.8545 27.1334 22.9625 27.1221L22.9666 27.1217C22.9912 27.1189 23.0157 27.1159 23.0402 27.1127L23.0662 27.1091C23.1028 27.104 23.1393 27.0984 23.1758 27.0924L23.2125 27.0861C23.3486 27.0626 23.4833 27.0338 23.6172 27.0051L23.7245 26.9822L23.7641 26.974C24.0337 26.9179 24.2949 26.8635 24.5588 26.967C24.6108 26.9871 24.6587 27.012 24.7027 27.0414C24.8789 27.1588 24.9923 27.346 25.0571 27.5692C25.0925 27.6927 25.0974 27.8093 25.0759 27.9265C25.0731 27.9415 25.07 27.9566 25.0664 27.9716C25.0475 28.0504 25.017 28.1298 24.9762 28.212C24.9727 28.2185 25.0255 28.2661 25.0462 28.2781C25.0599 28.2398 25.0857 28.1927 25.1124 28.144L25.1161 28.1372L25.1344 28.1036C25.1625 28.0512 25.188 27.9994 25.1972 27.9571L25.1998 27.9446C25.2872 27.5023 25.1146 27.1456 24.8193 26.9358C24.7491 26.886 24.672 26.8444 24.5898 26.812C24.6248 26.8799 24.6585 26.9482 24.6912 27.0171C24.6561 26.9473 24.62 26.878 24.5829 26.8093C24.4727 26.7667 24.3535 26.7404 24.2297 26.7323C24.0654 26.7198 23.8995 26.7284 23.7325 26.7371C23.6543 26.7411 23.5757 26.7452 23.497 26.7471C23.4586 26.7483 23.4202 26.7491 23.382 26.7488C23.2639 26.7481 23.1478 26.7372 23.0391 26.6951L23.0371 26.6943C22.9967 26.6784 22.9573 26.6582 22.9193 26.6326C22.9027 26.6212 22.8867 26.6088 22.8713 26.5955C22.7255 26.4689 22.6404 26.2598 22.7079 26.066L22.7094 26.0618C22.7151 26.0459 22.7219 26.0301 22.7297 26.0145C22.7386 25.9969 22.7488 25.9795 22.7605 25.9623C22.764 25.9573 22.7675 25.9522 22.7712 25.9472ZM23.3609 27.4131L23.3387 27.4011L23.3341 27.389C23.4852 27.2963 23.6302 27.2271 23.776 27.1869C23.8715 27.1605 23.9673 27.1466 24.0654 27.1466C24.1399 27.1466 24.2159 27.1549 24.2938 27.1715C24.538 27.2233 24.9357 27.5059 24.9569 27.669C24.6763 27.6298 24.4109 27.6148 24.1507 27.6567C23.9361 27.6914 23.7251 27.7648 23.5121 27.8954L23.502 27.9016C23.482 27.914 23.4621 27.927 23.4421 27.9404L23.4265 27.9509L23.4067 27.9647C23.3305 28.0181 23.254 28.0792 23.1768 28.1488C23.1689 28.1428 23.2636 27.9142 23.3125 27.8019C23.2191 27.8011 23.1279 27.8003 23.0251 27.7987L22.9957 27.7982C23.0043 27.7836 23.0134 27.7699 23.0231 27.7569C23.0855 27.6731 23.1687 27.6223 23.2507 27.5724L23.2595 27.567C23.2733 27.5585 23.2871 27.55 23.3008 27.5414L23.3183 27.5301C23.337 27.5179 23.3552 27.5053 23.3728 27.4918C23.3905 27.4781 23.4075 27.4636 23.4235 27.4477C23.4124 27.4413 23.4023 27.4356 23.3921 27.43C23.3822 27.4245 23.3722 27.4191 23.3609 27.4131ZM26.8091 28.1911C26.8131 28.1709 26.8079 28.1432 26.8017 28.1238L26.7934 28.1011C26.7474 27.8409 26.7025 27.6199 26.6632 27.4574C26.6502 27.4041 26.6371 27.351 26.6239 27.2981C26.7328 27.5416 26.8337 27.7844 26.928 28.0236C26.9394 28.0541 26.9678 28.0767 26.9962 28.0994C27.0095 28.11 27.0229 28.1207 27.0346 28.1322C27.0508 28.1484 27.0696 28.1633 27.0883 28.1781C27.128 28.2096 27.1675 28.2409 27.1816 28.2845C27.2166 28.3903 27.2216 28.5095 27.2221 28.6226C27.2243 28.7345 27.2124 28.8468 27.2003 28.9605L27.1959 29.0022C27.141 29.0066 27.0133 28.8517 26.9211 28.7399L26.8905 28.7029L26.8762 28.6859L26.8742 28.6835C26.7871 28.5808 26.7286 28.47 26.7574 28.3305C26.7658 28.2902 26.7814 28.2475 26.8056 28.2019L26.8064 28.2001L26.8075 28.1973C26.8081 28.1953 26.8086 28.1933 26.8091 28.1911ZM26.4889 28.3174C26.334 28.4421 26.1899 28.5797 26.1119 28.7681C26.0355 28.9491 26.0596 29.0942 26.1835 29.2175C26.3389 29.0849 26.4548 28.9514 26.4095 28.7833C26.5173 28.7778 26.6204 28.7709 26.7505 28.7622L26.7529 28.7621C26.6606 28.5724 26.6017 28.4034 26.7093 28.2044L26.6937 28.1657C26.6628 28.1896 26.6302 28.2131 26.5979 28.2364C26.5613 28.2628 26.5245 28.2893 26.4889 28.3174ZM26.3675 29.387C26.5086 29.3588 26.553 29.2775 26.5851 29.1787C26.6275 29.0549 26.6927 28.9371 26.8209 28.8272C26.8412 28.8656 26.8535 28.9348 26.8614 28.9935C26.8762 29.1002 26.8693 29.2239 26.8076 29.3269C26.7672 29.3948 26.702 29.4567 26.6088 29.4673C26.5096 29.4779 26.4238 29.4636 26.3675 29.387ZM27.0664 29.5533C27.0458 29.5651 27.025 29.5744 27.0038 29.5812C26.9533 29.5972 26.9008 29.5984 26.8441 29.5828C26.9463 29.4964 26.9448 29.4124 26.9413 29.3191C26.9382 29.26 26.9438 29.1975 26.9497 29.1315C26.9535 29.09 26.9573 29.0472 26.9592 29.0028L26.9598 28.9883L26.9601 28.9768C27.0933 29.0355 27.1969 29.1939 27.2043 29.3265C27.2082 29.4027 27.1856 29.4701 27.1101 29.5246C27.0956 29.5353 27.081 29.5449 27.0664 29.5533ZM27.4426 29.7398C27.4224 29.7379 27.4061 29.7278 27.3933 29.7093C27.3148 29.5962 27.3212 29.4548 27.3439 29.2978C27.4628 29.3805 27.5709 29.4664 27.5985 29.6045C27.6089 29.6534 27.5862 29.6895 27.5186 29.7213C27.4949 29.7324 27.4747 29.7384 27.4574 29.7398H27.4426ZM27.4061 28.89C27.3622 29.0623 27.4377 29.2849 27.5571 29.3468C27.6551 29.399 27.7933 29.3509 27.8848 29.22L27.8707 29.1763C27.7764 29.1851 27.7266 29.1342 27.6739 29.0804C27.6635 29.0697 27.653 29.0589 27.6419 29.0484C27.5969 29.0063 27.5431 28.974 27.4866 28.94C27.4602 28.9241 27.4331 28.9078 27.4061 28.89ZM26.4248 27.886C26.3917 27.8805 26.3567 27.8781 26.3202 27.8781C26.0581 27.8781 25.7128 28.0138 25.4248 28.2516C25.384 28.2853 25.3443 28.3211 25.3062 28.3589C25.2803 28.3845 25.2551 28.4111 25.2307 28.4385C25.2214 28.449 25.2122 28.4597 25.2031 28.4705C25.1398 28.5455 25.083 28.6268 25.0349 28.7136C25.0635 28.7145 25.0921 28.715 25.1242 28.7155C25.0719 28.8388 25.0201 28.9575 24.9604 29.0725C24.9668 29.0763 25.0599 29.0349 25.148 28.9894C25.188 28.9687 25.227 28.9473 25.2564 28.9288C25.2794 28.9848 25.3002 29.0368 25.3205 29.0881L25.3418 29.1422C25.3489 29.1201 25.3564 29.0985 25.3643 29.0771C25.3798 29.0351 25.3966 28.9945 25.4147 28.955C25.6309 28.4833 26.0256 28.1863 26.4222 27.8879L26.4248 27.886ZM22.3161 33.3803C22.3941 33.7284 22.0668 34.0567 21.5802 34.172C21.5568 34.1775 21.5256 34.1849 21.4939 34.1895C21.4307 34.1987 21.3654 34.1971 21.3542 34.1489C21.3572 34.1392 21.373 34.0874 21.3789 34.0874C21.4902 34.0869 21.588 34.0727 21.6772 34.0388C21.7374 34.016 21.7937 33.9842 21.8476 33.9415C21.9545 33.8575 22.0365 33.7617 22.0798 33.6556C22.1048 33.5941 22.117 33.5293 22.1136 33.4612C22.1051 33.2716 21.9877 33.1308 21.8672 32.9862L21.8501 32.9657L21.8102 32.9182C21.7117 32.801 21.6114 32.6818 21.5249 32.5533C21.4447 32.4333 21.4279 32.3249 21.4652 32.2224C21.5007 32.1774 21.5352 32.1307 21.5686 32.0823L21.598 32.1068C21.627 32.1309 21.6556 32.1548 21.6843 32.1778C21.6963 32.1491 21.707 32.1196 21.7177 32.0899C21.7368 32.0367 21.7561 31.9831 21.784 31.933C21.8284 31.8545 21.8896 31.7811 21.9922 31.7621L22.0287 31.881L22.0613 31.987C22.1619 31.8453 22.2611 31.7414 22.4377 31.7414C22.4481 31.7414 22.4584 31.7413 22.4683 31.7418C22.4412 31.8139 22.415 31.8794 22.3829 31.9552C22.3958 31.9616 22.4106 31.9681 22.4278 31.9746C22.5882 32.0231 22.6642 32.1057 22.714 32.2637C22.7653 32.4272 22.6883 32.6304 22.5453 32.7172C22.3894 32.8133 22.0499 32.7006 22.0287 32.5593C22.0173 32.4784 22.119 32.375 22.1999 32.369C22.1979 32.3778 22.1969 32.3861 22.193 32.3935C22.1688 32.4396 22.1688 32.4821 22.2053 32.5163C22.2453 32.5514 22.2991 32.5445 22.3509 32.5242C22.4308 32.4914 22.4999 32.3911 22.5009 32.3154C22.5018 32.1976 22.4027 32.1007 22.2774 32.0817C22.0568 32.0476 21.8831 32.2101 21.8481 32.3768C21.82 32.5182 21.8787 32.6392 21.9443 32.7588C21.9777 32.8209 22.0341 32.8999 22.0925 32.9818C22.1713 33.0923 22.2539 33.208 22.2887 33.2945C22.3007 33.3232 22.3097 33.3518 22.3161 33.3803ZM22.4503 34.1006C22.4253 34.2127 22.3537 34.3196 22.2196 34.4163C22.1661 34.4546 22.116 34.496 22.0648 34.5384C22.0278 34.569 21.9902 34.6002 21.9502 34.631C21.942 34.6221 21.9325 34.6123 21.9222 34.6019C21.9028 34.5822 21.8809 34.5599 21.8609 34.5354C21.7823 34.4399 21.7696 34.3221 21.839 34.2377C21.8498 34.2246 21.8625 34.2123 21.8772 34.2011C21.9026 34.1814 21.9283 34.1618 21.9543 34.1422L21.9902 34.115L22.0508 34.0694C22.1719 33.9784 22.2969 33.8845 22.4209 33.7808C22.4257 33.8021 22.4306 33.8215 22.4353 33.8397L22.4372 33.8473C22.4438 33.8732 22.4496 33.897 22.4535 33.9212C22.4637 33.9819 22.4634 34.042 22.4503 34.1006ZM24.0506 31.6587C24.0684 31.698 24.0855 31.7378 24.0989 31.7774C24.0989 31.752 24.0979 31.7275 24.1004 31.7007C24.1157 31.5335 24.2267 31.4439 24.3229 31.3779L24.3228 31.3681C24.3224 31.3296 24.322 31.2903 24.3165 31.2546C24.3113 31.2153 24.3005 31.1801 24.2896 31.1445C24.2849 31.1295 24.2803 31.1144 24.2761 31.099C24.3308 31.0597 24.4335 31.0772 24.4853 31.1304C24.4749 31.0181 24.47 30.9004 24.4818 30.7687C24.4936 30.639 24.5203 30.5378 24.5696 30.4773C24.5815 30.4644 24.5968 30.4547 24.6106 30.4547C24.6185 30.4547 24.6264 30.4584 24.6318 30.4671C24.6683 30.5276 24.7004 30.6062 24.7014 30.7336C24.7004 30.8731 24.6752 30.9927 24.6387 31.1026C24.7033 31.0814 24.801 31.129 24.8153 31.1802C24.8016 31.2146 24.7863 31.2458 24.7712 31.2766C24.7509 31.3179 24.7309 31.3586 24.7157 31.4051C24.7097 31.4222 24.7033 31.437 24.6974 31.4499L24.7546 31.5368C24.805 31.595 24.8143 31.6698 24.7635 31.7912C24.7492 31.824 24.7384 31.8596 24.729 31.8961C24.8074 31.7908 24.9041 31.6859 24.9791 31.6444C25.0054 31.6299 25.0276 31.6162 25.0477 31.6038C25.0894 31.5781 25.1226 31.5577 25.1651 31.5465C25.1746 31.5438 25.1836 31.5435 25.1926 31.5436L25.2036 31.5437C25.2105 31.5446 25.2174 31.5446 25.2253 31.5437C25.2233 31.558 25.2207 31.5729 25.218 31.5877C25.2155 31.6019 25.213 31.616 25.211 31.6296L25.21 31.6342L25.2089 31.6386C25.2076 31.6434 25.206 31.6487 25.2041 31.6551C25.2021 31.6615 25.1999 31.6692 25.1972 31.6785C25.2096 31.6747 25.2216 31.6707 25.2332 31.6668C25.2515 31.6607 25.2691 31.6548 25.2863 31.6503C25.2944 31.6482 25.3024 31.6464 25.3104 31.645C25.2978 31.7042 25.2852 31.7615 25.2724 31.8168C25.2861 31.7596 25.2992 31.7022 25.3116 31.6448L25.3206 31.6434C25.3516 31.6383 25.3812 31.6457 25.4104 31.6531C25.4735 31.6665 25.4765 31.6841 25.4335 31.7607C25.4187 31.7871 25.4054 31.8129 25.3886 31.8476C25.406 31.8557 25.4247 31.8603 25.4431 31.8649C25.4937 31.8776 25.5426 31.8898 25.5589 31.9727C25.5569 31.9756 25.5553 31.9782 25.554 31.9805C25.5522 31.9835 25.5509 31.9858 25.5495 31.987L25.548 31.988L25.5338 31.9911C25.5008 31.9983 25.4749 32.004 25.4528 32.0328C25.4301 32.0637 25.4143 32.1219 25.4074 32.1736C25.4029 32.2045 25.3917 32.2375 25.3755 32.2695C25.3355 32.3492 25.2651 32.4228 25.1923 32.4419C25.1588 32.4508 25.122 32.4444 25.0892 32.426C25.0599 32.4096 25.0337 32.3836 25.0161 32.3503C25.0137 32.3458 25.0115 32.3412 25.0095 32.3365C25.0074 32.3317 25.0055 32.3269 25.0038 32.3219C24.9653 32.223 25.0443 32.0185 25.1198 31.976L25.1212 31.9751C25.1655 31.9508 25.1833 31.9599 25.214 32.0143C25.2056 32.0206 25.1961 32.0261 25.1866 32.0316C25.1655 32.0438 25.1445 32.0559 25.136 32.0766C25.1207 32.1122 25.1198 32.1695 25.1301 32.2069C25.1352 32.2252 25.1431 32.2395 25.1531 32.2498C25.1716 32.2685 25.1973 32.2735 25.2263 32.2637C25.2588 32.2523 25.2866 32.2297 25.3078 32.1993C25.3359 32.1592 25.3525 32.1055 25.3536 32.0466C25.3526 32.017 25.3457 31.9603 25.3349 31.9409C25.316 31.9055 25.2913 31.8759 25.2636 31.8544C25.2597 31.8514 25.2558 31.8486 25.2518 31.8459C25.2206 31.8249 25.1863 31.8142 25.1527 31.817L25.1474 31.8175C25.0704 31.8296 25.0038 31.873 24.9461 31.9584C24.8944 32.0362 24.8559 32.1503 24.8177 32.2632C24.7823 32.368 24.7472 32.4717 24.7023 32.5445C24.6116 32.6918 24.4635 32.7006 24.2928 32.6433C24.2725 32.6363 24.2048 32.6272 24.1404 32.6184C24.0984 32.6127 24.0578 32.6072 24.0328 32.6027C23.8892 32.5763 23.7659 32.5126 23.7595 32.351C23.7587 32.3346 23.7588 32.3173 23.7596 32.2993C23.7632 32.2248 23.7797 32.1382 23.7963 32.0509C23.8184 31.9351 23.8407 31.8182 23.833 31.7275C23.83 31.6888 23.8224 31.6549 23.8106 31.6254C23.7918 31.5784 23.7623 31.5428 23.7235 31.5169C23.6667 31.479 23.5745 31.4943 23.4965 31.5474C23.4783 31.5603 23.4427 31.6079 23.4284 31.6333C23.3781 31.7256 23.3791 31.824 23.4334 31.8808C23.4644 31.9127 23.5079 31.909 23.5463 31.8702C23.5745 31.8411 23.6021 31.7898 23.606 31.7529C23.6088 31.7298 23.5954 31.709 23.5823 31.6885C23.5768 31.6799 23.5713 31.6714 23.5671 31.6628C23.6218 31.6277 23.6416 31.6282 23.6697 31.6698C23.7161 31.739 23.6904 31.9616 23.6075 32.0337C23.536 32.0988 23.4343 32.1076 23.3796 32.06C23.3031 31.994 23.277 31.8245 23.3164 31.7247C23.3362 31.6744 23.352 31.6162 23.3455 31.5792C23.3401 31.5457 23.3206 31.5294 23.2969 31.5095C23.2928 31.5061 23.2886 31.5026 23.2844 31.4989C23.2814 31.4961 23.3579 31.3917 23.4955 31.4412L23.4966 31.4059C23.4973 31.3841 23.498 31.3647 23.498 31.346C23.498 31.2597 23.5088 31.2453 23.572 31.2587C23.6021 31.2643 23.6317 31.2717 23.6564 31.2883C23.6822 31.306 23.7042 31.3277 23.7283 31.3515C23.7351 31.3582 23.7419 31.3649 23.7491 31.3719L23.7529 31.3539C23.7558 31.3399 23.7577 31.3306 23.761 31.3216C23.767 31.3077 23.7723 31.2925 23.7777 31.277C23.7819 31.2648 23.7863 31.2523 23.7911 31.2403L23.7953 31.2425C23.7978 31.2438 23.8003 31.245 23.8028 31.2461L23.8098 31.2492C23.8211 31.2541 23.8322 31.2589 23.8414 31.2675C23.8477 31.2729 23.8541 31.2788 23.8604 31.2853C23.8778 31.1272 23.8887 30.9608 23.8921 30.7866C24.0124 30.6748 24.1341 30.5488 24.2547 30.4085C24.2608 30.8251 24.1973 31.241 24.0506 31.6587ZM16.7173 6.27927C16.6403 6.34038 16.5911 6.43107 16.5911 6.53315C16.5911 6.56835 16.597 6.60226 16.6079 6.6341C16.641 6.73094 16.7205 6.8085 16.8215 6.84395C16.8777 6.72896 16.9093 6.60197 16.9093 6.46804C16.9093 6.37706 16.8916 6.29161 16.8649 6.20848C16.8098 6.22123 16.7594 6.24582 16.7173 6.27927ZM16.4644 7.21961C16.4426 7.19395 16.4169 7.17128 16.3882 7.15245C16.38 7.19936 16.3723 7.24635 16.365 7.2934C16.3977 7.27804 16.4293 7.26102 16.4597 7.24247L16.4751 7.23284L16.4686 7.22465L16.4644 7.21961ZM18.3487 3.51779C18.9575 2.96775 19.6645 2.49945 20.4584 2.24406C19.7055 2.58351 19.0547 3.08783 18.5071 3.65911C18.3679 3.80437 18.2366 3.95559 18.1134 4.11198C18.021 4.14326 17.9295 4.17218 17.8395 4.19873C17.7838 4.21517 17.7286 4.2307 17.6742 4.24532C17.8787 3.98647 18.1043 3.74285 18.3487 3.51779Z" fill="black"/>
<path d="M16.6673 14.8127C16.6299 14.6847 16.5916 14.5568 16.5528 14.4291C16.5836 14.5498 16.6142 14.6702 16.6444 14.7892L16.6673 14.8127Z" fill="black"/>
<path d="M15.2762 3.2814C13.6342 5.38228 13.2282 8.78877 13.8844 10.5968L13.9808 10.8632C14.3251 11.8142 14.6001 12.5741 14.9746 13.3863C14.8528 13.0959 14.7369 12.8032 14.628 12.5081C14.3635 11.8177 14.181 11.1014 14.0701 10.3769C14.0416 10.1904 14.0178 10.0034 13.9985 9.81618C13.8811 8.71009 13.9453 7.5943 14.1263 6.50161C14.2206 5.95572 14.3508 5.41399 14.525 4.88612C14.6996 4.35917 14.9088 3.83637 15.2143 3.36484C14.9389 3.85207 14.7524 4.37672 14.6005 4.9069C14.45 5.43755 14.3449 5.97835 14.2615 6.52054C14.1046 7.60724 14.0864 8.70963 14.2073 9.79632C14.3276 10.883 14.6054 11.9554 15.0697 12.9543C15.1069 13.0321 15.145 13.1098 15.1836 13.1874C15.5237 13.5867 16.015 14.1404 16.6444 14.7892C16.6142 14.6702 16.5836 14.5498 16.5528 14.4291C16.4874 14.2139 16.4206 13.9991 16.3537 13.7841C16.3005 13.6131 16.2472 13.442 16.1947 13.2707C15.8454 12.1447 15.5607 10.9929 15.4196 9.81985C15.3822 9.47998 15.357 9.13918 15.3439 8.79808L15.3024 8.76054L15.3413 8.72286C15.3339 8.49989 15.3317 8.27681 15.3347 8.0538C15.3367 7.91637 15.34 7.77893 15.3449 7.64157C14.8709 7.43707 14.5421 6.98879 14.5421 6.46804C14.5421 5.8404 15.0198 5.31694 15.6535 5.19951C15.8094 4.38888 16.0545 3.57689 16.4209 2.81125C16.526 2.59158 16.6414 2.35618 16.7674 2.13347C16.7789 2.10546 16.7906 2.07746 16.8027 2.04933C16.8236 2.00108 16.8974 1.88824 16.9345 1.8554C16.2845 2.17508 15.7326 2.69823 15.2762 3.2814Z" fill="black"/>
<path d="M17.9843 18.357C17.8247 18.1316 17.6701 17.907 17.5207 17.6843C17.6718 17.9293 17.824 18.1737 17.9772 18.4175C17.9796 18.3973 17.982 18.3772 17.9843 18.357Z" fill="black"/>
</svg>
